<?xml version="1.0" standalone="no"?><!DOCTYPE svg PUBLIC "-//W3C//DTD SVG 1.1//EN" "http://www.w3.org/Graphics/SVG/1.1/DTD/svg11.dtd"><svg t="1620829599516" class="icon" viewBox="0 0 1024 1024" version="1.1" xmlns="http://www.w3.org/2000/svg" p-id="1686" xmlns:xlink="http://www.w3.org/1999/xlink" width="80" height="80"><defs><style type="text/css"></style></defs><path d="M902.095238 314.514286V853.333333a97.52381 97.52381 0 0 1-97.523809 97.52381H219.428571a97.52381 97.52381 0 0 1-97.523809-97.52381V170.666667a97.52381 97.52381 0 0 1 97.523809-97.52381h441.295239z" fill="#A15FDE" p-id="1687"></path><path d="M660.72381 241.371429V73.142857l241.371428 241.371429h-168.228571a73.142857 73.142857 0 0 1-73.142857-73.142857z" fill="#C386F0" p-id="1688"></path><path d="M633.904762 436.419048v187.001904c0 20.72381-24.380952 37.546667-56.076191 37.546667s-55.832381-16.822857-55.832381-37.546667 24.380952-37.546667 55.832381-37.546666a76.55619 76.55619 0 0 1 31.695239 6.582857v-130.925714l-162.620953 38.278095v166.521905c0 20.72381-24.380952 37.546667-56.807619 37.546666s-57.051429-16.822857-57.051428-37.546666 25.6-37.546667 57.051428-37.546667a76.312381 76.312381 0 0 1 32.426667 6.826667v-161.401905a24.380952 24.380952 0 0 1 18.773333-24.380953l162.377143-37.790476a24.380952 24.380952 0 0 1 30.232381 24.380953z" fill="#FFFFFF" p-id="1689"></path></svg>