<?xml version="1.0" standalone="no"?><!DOCTYPE svg PUBLIC "-//W3C//DTD SVG 1.1//EN" "http://www.w3.org/Graphics/SVG/1.1/DTD/svg11.dtd"><svg t="1620829625906" class="icon" viewBox="0 0 1024 1024" version="1.1" xmlns="http://www.w3.org/2000/svg" p-id="1824" xmlns:xlink="http://www.w3.org/1999/xlink" width="80" height="80"><defs><style type="text/css"></style></defs><path d="M897.462857 314.514286V853.333333a97.52381 97.52381 0 0 1-97.523809 97.52381h-585.142858a97.52381 97.52381 0 0 1-97.523809-97.52381V170.666667a97.52381 97.52381 0 0 1 97.523809-97.52381h441.295239z" fill="#84C6EB" p-id="1825"></path><path d="M660.72381 216.990476V73.142857l241.371428 241.371429h-143.847619a97.52381 97.52381 0 0 1-97.523809-97.52381z" fill="#53A0CC" p-id="1826"></path><path d="M512 708.266667A134.826667 134.826667 0 1 1 646.339048 560.761905a24.380952 24.380952 0 0 1-6.582858 19.504762 24.380952 24.380952 0 0 1-18.529523 8.289523h-191.878096a84.114286 84.114286 0 0 0 153.112381 32.426667l41.935238 28.038095A135.070476 135.070476 0 0 1 512 708.266667zM436.419048 536.380952h151.893333a84.358095 84.358095 0 0 0-151.893333 0z" fill="#FFFFFF" p-id="1827"></path><path d="M357.912381 665.6c-41.935238 0-73.142857-9.020952-78.750476-30.232381-13.897143-46.32381 88.746667-94.598095 133.607619-113.127619l9.264762 22.430476c-96.304762 39.984762-121.904762 73.142857-119.466667 83.382857 4.87619 15.847619 87.771429 24.380952 222.841905-16.579047s198.948571-94.354286 195.047619-110.201905c-3.657143-11.459048-50.468571-20.967619-139.702857-3.900952l-4.632381-24.380953c45.83619-8.777143 153.84381-24.380952 167.497143 20.72381S647.558095 599.771429 532.48 633.904762a646.095238 646.095238 0 0 1-174.567619 31.695238z" fill="#FFFFFF" opacity=".6" p-id="1828"></path></svg>