<?xml version="1.0" standalone="no"?><!DOCTYPE svg PUBLIC "-//W3C//DTD SVG 1.1//EN" "http://www.w3.org/Graphics/SVG/1.1/DTD/svg11.dtd"><svg t="1620829657121" class="icon" viewBox="0 0 1024 1024" version="1.1" xmlns="http://www.w3.org/2000/svg" p-id="2958" xmlns:xlink="http://www.w3.org/1999/xlink" width="80" height="80"><defs><style type="text/css"></style></defs><path d="M1024 280.380952v455.68a63.146667 63.146667 0 0 1-65.584762 60.220953h-682.666667a61.44 61.44 0 0 1-62.659047-78.262857l108.495238-316.952381H60.220952A57.539048 57.539048 0 0 1 0 346.697143V184.07619a57.539048 57.539048 0 0 1 60.220952-54.369523h324.022858A61.68381 61.68381 0 0 1 438.857143 159.939048L471.527619 219.428571h487.619048A63.146667 63.146667 0 0 1 1024 280.380952z" fill="#6597D9" p-id="2959"></path><path d="M0 279.893333m48.761905 0l926.47619 0q48.761905 0 48.761905 48.761905l0 565.394286q0 48.761905-48.761905 48.761905l-926.47619 0q-48.761905 0-48.761905-48.761905l0-565.394286q0-48.761905 48.761905-48.761905Z" fill="#91BAF8" p-id="2960"></path><path d="M459.824762 453.485714h177.493333a26.331429 26.331429 0 0 1 26.331429 26.331429V731.428571h-230.156191V480.060952a26.331429 26.331429 0 0 1 26.331429-26.575238z" fill="#5287D0" p-id="2961"></path><path d="M398.384762 727.527619m10.727619 0l278.674286 0q10.727619 0 10.727619 10.727619l0 24.868572q0 10.727619-10.727619 10.727619l-278.674286 0q-10.727619 0-10.727619-10.727619l0-24.868572q0-10.727619 10.727619-10.727619Z" fill="#5287D0" p-id="2962"></path><path d="M494.445714 512.24381m9.996191 0l18.041905 0q9.99619 0 9.99619 9.99619l0 18.041905q0 9.99619-9.99619 9.99619l-18.041905 0q-9.99619 0-9.996191-9.99619l0-18.041905q0-9.99619 9.996191-9.99619Z" fill="#91BAF8" p-id="2963"></path><path d="M563.687619 512.24381m9.996191 0l18.041904 0q9.99619 0 9.996191 9.99619l0 18.041905q0 9.99619-9.996191 9.99619l-18.041904 0q-9.99619 0-9.996191-9.99619l0-18.041905q0-9.99619 9.996191-9.99619Z" fill="#91BAF8" p-id="2964"></path><path d="M563.687619 578.56m9.996191 0l18.041904 0q9.99619 0 9.996191 9.99619l0 18.041905q0 9.99619-9.996191 9.996191l-18.041904 0q-9.99619 0-9.996191-9.996191l0-18.041905q0-9.99619 9.996191-9.99619Z" fill="#91BAF8" p-id="2965"></path><path d="M494.445714 578.56m9.996191 0l18.041905 0q9.99619 0 9.99619 9.99619l0 18.041905q0 9.99619-9.99619 9.996191l-18.041905 0q-9.99619 0-9.996191-9.996191l0-18.041905q0-9.99619 9.996191-9.99619Z" fill="#91BAF8" p-id="2966"></path><path d="M494.445714 645.12m9.996191 0l18.041905 0q9.99619 0 9.99619 9.99619l0 18.041905q0 9.99619-9.99619 9.996191l-18.041905 0q-9.99619 0-9.996191-9.996191l0-18.041905q0-9.99619 9.996191-9.99619Z" fill="#91BAF8" p-id="2967"></path><path d="M563.687619 645.12m9.996191 0l18.041904 0q9.99619 0 9.996191 9.99619l0 18.041905q0 9.99619-9.996191 9.996191l-18.041904 0q-9.99619 0-9.996191-9.996191l0-18.041905q0-9.99619 9.996191-9.99619Z" fill="#91BAF8" p-id="2968"></path></svg>