<?xml version="1.0" standalone="no"?><!DOCTYPE svg PUBLIC "-//W3C//DTD SVG 1.1//EN" "http://www.w3.org/Graphics/SVG/1.1/DTD/svg11.dtd"><svg t="1620829591870" class="icon" viewBox="0 0 1024 1024" version="1.1" xmlns="http://www.w3.org/2000/svg" p-id="1405" xmlns:xlink="http://www.w3.org/1999/xlink" width="80" height="80"><defs><style type="text/css"></style></defs><path d="M1024 280.380952v455.68a63.146667 63.146667 0 0 1-65.584762 60.220953h-682.666667a61.44 61.44 0 0 1-62.659047-78.262857l108.495238-316.952381H60.220952A57.539048 57.539048 0 0 1 0 346.697143V184.07619a57.539048 57.539048 0 0 1 60.220952-54.369523h324.022858A61.68381 61.68381 0 0 1 438.857143 159.939048L471.527619 219.428571h487.619048A63.146667 63.146667 0 0 1 1024 280.380952z" fill="#5398DF" p-id="1406"></path><path d="M0 279.893333m48.761905 0l926.47619 0q48.761905 0 48.761905 48.761905l0 565.394286q0 48.761905-48.761905 48.761905l-926.47619 0q-48.761905 0-48.761905-48.761905l0-565.394286q0-48.761905 48.761905-48.761905Z" fill="#85BCFF" p-id="1407"></path><path d="M364.982857 523.215238m24.380953 0l245.27238 0q24.380952 0 24.380953 24.380952l0 222.841905q0 24.380952-24.380953 24.380953l-245.27238 0q-24.380952 0-24.380953-24.380953l0-222.841905q0-24.380952 24.380953-24.380952Z" fill="#3D89D6" p-id="1408"></path><path d="M338.16381 453.485714m17.310476 0l312.807619 0q17.310476 0 17.310476 17.310476l0 8.289524q0 17.310476-17.310476 17.310476l-312.807619 0q-17.310476 0-17.310476-17.310476l0-8.289524q0-17.310476 17.310476-17.310476Z" fill="#3D89D6" p-id="1409"></path><path d="M472.015238 431.055238m17.310476 0l45.592381 0q17.310476 0 17.310476 17.310476l0 8.289524q0 17.310476-17.310476 17.310476l-45.592381 0q-17.310476 0-17.310476-17.310476l0-8.289524q0-17.310476 17.310476-17.310476Z" fill="#3D89D6" p-id="1410"></path><path d="M458.605714 745.081905a12.190476 12.190476 0 0 1-12.190476-12.190476V585.142857a12.190476 12.190476 0 0 1 12.190476-12.190476 12.190476 12.190476 0 0 1 12.190476 12.190476v147.992381a12.190476 12.190476 0 0 1-12.190476 11.946667zM565.394286 745.081905a12.190476 12.190476 0 0 1-12.190476-12.190476V585.142857a12.190476 12.190476 0 0 1 12.190476-12.190476 12.190476 12.190476 0 0 1 12.190476 12.190476v147.992381a12.190476 12.190476 0 0 1-12.190476 11.946667z" fill="#85BCFF" p-id="1411"></path></svg>