<?xml version="1.0" standalone="no"?><!DOCTYPE svg PUBLIC "-//W3C//DTD SVG 1.1//EN" "http://www.w3.org/Graphics/SVG/1.1/DTD/svg11.dtd"><svg t="1620829589246" class="icon" viewBox="0 0 1024 1024" version="1.1" xmlns="http://www.w3.org/2000/svg" p-id="1267" xmlns:xlink="http://www.w3.org/1999/xlink" width="80" height="80"><defs><style type="text/css"></style></defs><path d="M1024 280.380952v455.68a63.146667 63.146667 0 0 1-65.584762 60.220953h-682.666667a61.44 61.44 0 0 1-62.659047-78.262857l108.495238-316.952381H60.220952A57.539048 57.539048 0 0 1 0 346.697143V184.07619a57.539048 57.539048 0 0 1 60.220952-54.369523h324.022858A61.68381 61.68381 0 0 1 438.857143 159.939048L471.527619 219.428571h487.619048A63.146667 63.146667 0 0 1 1024 280.380952z" fill="#5398DF" p-id="1268"></path><path d="M0 279.893333m48.761905 0l926.47619 0q48.761905 0 48.761905 48.761905l0 565.394286q0 48.761905-48.761905 48.761905l-926.47619 0q-48.761905 0-48.761905-48.761905l0-565.394286q0-48.761905 48.761905-48.761905Z" fill="#85BCFF" p-id="1269"></path><path d="M536.380952 461.531429L572.464762 536.380952l82.651428 11.946667a26.331429 26.331429 0 0 1 14.628572 44.860952L609.52381 651.459048l13.897142 82.407619A26.087619 26.087619 0 0 1 585.142857 761.417143l-73.142857-38.765714-73.142857 38.765714a26.087619 26.087619 0 0 1-38.034286-27.550476l13.653333-82.407619-59.733333-58.270477a26.331429 26.331429 0 0 1 14.628572-44.860952l82.163809-11.946667L487.619048 461.531429a26.331429 26.331429 0 0 1 48.761904 0z" fill="#3D89D6" p-id="1270"></path></svg>