<?xml version="1.0" standalone="no"?><!DOCTYPE svg PUBLIC "-//W3C//DTD SVG 1.1//EN" "http://www.w3.org/Graphics/SVG/1.1/DTD/svg11.dtd"><svg t="1620829650165" class="icon" viewBox="0 0 1024 1024" version="1.1" xmlns="http://www.w3.org/2000/svg" p-id="2817" xmlns:xlink="http://www.w3.org/1999/xlink" width="80" height="80"><defs><style type="text/css"></style></defs><path d="M902.095238 314.514286V853.333333a97.52381 97.52381 0 0 1-97.523809 97.52381H219.428571a97.52381 97.52381 0 0 1-97.523809-97.52381V170.666667a97.52381 97.52381 0 0 1 97.523809-97.52381h441.295239z" fill="#85BCFF" p-id="2818"></path><path d="M660.72381 265.752381V73.142857l241.371428 241.371429h-192.609524a48.761905 48.761905 0 0 1-48.761904-48.761905z" fill="#529EE0" p-id="2819"></path><path d="M457.874286 487.619048c38.521905 0 58.026667 16.335238 58.026666 48.761904s-19.504762 48.761905-58.514285 48.761905h-16.579048v61.196191H414.47619V487.619048z m-17.066667 76.068571h15.116191a41.691429 41.691429 0 0 0 24.380952-6.339048 24.380952 24.380952 0 0 0 8.045714-20.723809 24.380952 24.380952 0 0 0-8.289524-20.236191 39.740952 39.740952 0 0 0-24.380952-6.339047h-15.11619zM606.110476 565.150476H585.142857a22.186667 22.186667 0 0 0-6.582857-12.434286 24.380952 24.380952 0 0 0-14.384762-3.657142 22.186667 22.186667 0 0 0-12.678095 2.925714 10.24 10.24 0 0 0-4.876191 9.752381c0 3.413333 2.438095 6.826667 7.558096 9.508571a125.074286 125.074286 0 0 0 19.260952 6.826667 66.31619 66.31619 0 0 1 24.380952 10.971429 29.500952 29.500952 0 0 1 11.459048 24.380952c0 24.380952-14.384762 36.815238-43.154286 36.815238A38.765714 38.765714 0 0 1 523.215238 609.52381h20.72381a24.380952 24.380952 0 0 0 6.339047 15.603809 24.380952 24.380952 0 0 0 15.116191 4.388571c14.872381 0 22.186667-4.87619 22.186666-14.384761a14.140952 14.140952 0 0 0-8.289523-12.678096 83.626667 83.626667 0 0 0-18.773334-6.582857A73.142857 73.142857 0 0 1 536.380952 585.142857a27.794286 27.794286 0 0 1-10.971428-24.380952 29.500952 29.500952 0 0 1 10.727619-24.380953 41.935238 41.935238 0 0 1 28.525714-9.264762 36.571429 36.571429 0 0 1 41.447619 38.034286z" fill="#FFFFFF" p-id="2820"></path><path d="M696.807619 772.144762H327.192381a12.190476 12.190476 0 0 1-12.190476-12.190476V390.095238a12.190476 12.190476 0 0 1 12.190476-12.190476h369.615238a12.190476 12.190476 0 0 1 12.190476 12.190476v369.859048a12.190476 12.190476 0 0 1-12.190476 12.190476z m-357.424762-24.380952h345.234286V402.285714H339.382857z" fill="#FFFFFF" p-id="2821"></path></svg>