<?xml version="1.0" standalone="no"?><!DOCTYPE svg PUBLIC "-//W3C//DTD SVG 1.1//EN" "http://www.w3.org/Graphics/SVG/1.1/DTD/svg11.dtd"><svg t="1620829643641" class="icon" viewBox="0 0 1024 1024" version="1.1" xmlns="http://www.w3.org/2000/svg" p-id="2532" xmlns:xlink="http://www.w3.org/1999/xlink" width="80" height="80"><defs><style type="text/css"></style></defs><path d="M902.095238 314.514286V853.333333a97.52381 97.52381 0 0 1-97.523809 97.52381H219.428571a97.52381 97.52381 0 0 1-97.523809-97.52381V170.666667a97.52381 97.52381 0 0 1 97.523809-97.52381h441.295239z" fill="#A15FDE" p-id="2533"></path><path d="M660.72381 241.371429V73.142857l241.371428 241.371429h-168.228571a73.142857 73.142857 0 0 1-73.142857-73.142857z" fill="#C386F0" p-id="2534"></path><path d="M512 560.761905m-195.047619 0a195.047619 195.047619 0 1 0 390.095238 0 195.047619 195.047619 0 1 0-390.095238 0Z" fill="#FFFFFF" p-id="2535"></path><path d="M572.952381 582.948571a63.878095 63.878095 0 0 1-33.401905 36.815239l45.836191 97.523809a172.373333 172.373333 0 0 0 89.721904-97.523809z" fill="#A15FDE" p-id="2536"></path><path d="M512 560.761905m-43.398095 0a43.398095 43.398095 0 1 0 86.79619 0 43.398095 43.398095 0 1 0-86.79619 0Z" fill="#A15FDE" p-id="2537"></path><path d="M512 560.761905m-21.699048 0a21.699048 21.699048 0 1 0 43.398096 0 21.699048 21.699048 0 1 0-43.398096 0Z" fill="#FFFFFF" p-id="2538"></path><path d="M348.891429 501.51619a172.373333 172.373333 0 0 1 89.721904-97.523809l45.836191 97.523809a63.878095 63.878095 0 0 0-33.401905 36.815239z" fill="#A15FDE" p-id="2539"></path></svg>