<?xml version="1.0" standalone="no"?><!DOCTYPE svg PUBLIC "-//W3C//DTD SVG 1.1//EN" "http://www.w3.org/Graphics/SVG/1.1/DTD/svg11.dtd"><svg t="1620829640443" class="icon" viewBox="0 0 1024 1024" version="1.1" xmlns="http://www.w3.org/2000/svg" p-id="2389" xmlns:xlink="http://www.w3.org/1999/xlink" width="80" height="80"><defs><style type="text/css"></style></defs><path d="M827.648 241.664v539.648a97.792 97.792 0 0 1-97.536 97.536H144.128a97.792 97.792 0 0 1-97.792-97.536V97.536A98.048 98.048 0 0 1 144.128 0h441.856z" fill="#BABABA" p-id="2390"></path><path d="M827.648 48.896v192.768L585.984 0h193.024a48.896 48.896 0 0 1 48.64 48.896z" fill="#BABABA" p-id="2391"></path><path d="M914.176 328.192V867.84a98.048 98.048 0 0 1-97.536 97.536H230.4a98.048 98.048 0 0 1-97.536-97.536V184.064A97.792 97.792 0 0 1 230.4 86.528h442.112zM914.176 135.168v193.024l-241.664-241.664h192.768a48.896 48.896 0 0 1 48.896 48.64z" fill="#FFFFFF" p-id="2392"></path><path d="M972.8 386.816v539.648A98.048 98.048 0 0 1 875.264 1024H289.28a98.048 98.048 0 0 1-97.792-97.536V242.688a97.792 97.792 0 0 1 97.792-97.536h441.856z" fill="#BABABA" p-id="2393"></path><path d="M731.136 337.92V145.152L972.8 386.816h-192.768a49.152 49.152 0 0 1-48.896-48.896z" fill="#979797" p-id="2394"></path><path d="M861.44 673.536a124.928 124.928 0 0 1-125.184 125.184H486.4a125.184 125.184 0 0 1-12.544-249.856 138.24 138.24 0 0 1 275.712 0 125.44 125.44 0 0 1 111.872 124.672z" fill="#FFFFFF" p-id="2395"></path></svg>