<svg xmlns="http://www.w3.org/2000/svg" width="31.91" height="27.001" viewBox="0 0 31.91 27.001">
  <path class="a" style="fill:#828282;"
        d="M4.973,93.469a11.045,11.045,0,0,0,19.819,5.422,1.227,1.227,0,1,1,1.963,1.473,13.5,13.5,0,0,1-24.257-7L2.14,93.7A1.228,1.228,0,0,1,.315,92.062L2.77,89.607a1.227,1.227,0,0,1,1.825,0l2.455,2.455A1.228,1.228,0,0,1,5.224,93.7l-.251-.234Zm21.964-2.4A11.045,11.045,0,0,0,7.118,85.646a1.227,1.227,0,1,1-1.963-1.473,13.5,13.5,0,0,1,24.256,7l.359-.336A1.228,1.228,0,1,1,31.6,92.476l-2.455,2.455a1.227,1.227,0,0,1-1.825,0l-2.455-2.455a1.228,1.228,0,0,1,1.825-1.642l.251.234Z"
        transform="translate(0 -78.769)"/>
</svg>