<svg t="1627029145108" class="icon" viewBox="0 0 1024 1024" version="1.1" xmlns="http://www.w3.org/2000/svg" p-id="2817"
     width="200" height="200">
  <path d="M341.33 796.686h341.358v71.094H341.33z" fill="#434A54" p-id="2818"></path>
  <path
    d="M767.996 853.31H256c-11.782 0-21.328 9.562-21.328 21.376 0 11.75 9.546 21.312 21.328 21.312h511.996c11.782 0 21.312-9.562 21.312-21.312 0-11.812-9.53-21.376-21.312-21.376z"
    fill="#656D78" p-id="2819"></path>
  <path
    d="M42.674 789.312c-11.766 0-21.344-9.562-21.344-21.312V170.674c0-11.766 9.578-21.344 21.344-21.344h938.634c11.782 0 21.376 9.578 21.376 21.344V768c0 11.75-9.594 21.312-21.376 21.312H42.674z"
    fill="#5D9CEC" p-id="2820"></path>
  <path
    d="M981.308 128.002H42.674C19.112 128.002 0.004 147.096 0.004 170.674V768c0 23.56 19.108 42.686 42.67 42.686h938.634c23.594 0 42.688-19.124 42.688-42.686V170.674c0-23.578-19.094-42.672-42.688-42.672z m0 639.998H42.674V170.674h938.634V768z"
    fill="#656D78" p-id="2821"></path>
  <path d="M42.674 682.688h963.042v91.376H42.674z" fill="#656D78" p-id="2822"></path>
  <path
    d="M533.328 746.688c0 11.75-9.546 21.312-21.328 21.312s-21.328-9.562-21.328-21.312c0-11.812 9.546-21.376 21.328-21.376s21.328 9.564 21.328 21.376z"
    fill="#AAB2BC" p-id="2823"></path>
  <path d="M719.996 682.812h-165.308l128-511.982h165.308z" fill="#FFFFFF" opacity=".1" p-id="2824"></path>
</svg>