<svg xmlns="http://www.w3.org/2000/svg" width="22" height="22" viewBox="0 0 22 22">
  <defs>
    <style>
      .cls-3 {
      fill: none;
      }
    </style>
  </defs>
  <g id="Managing_icon" transform="translate(16966 9410)">
    <rect id="矩形_99" data-name="矩形 99" class="cls-3" width="22" height="22" transform="translate(-16966 -9410)"/>
    <path id="路径_462" data-name="路径 462" class="cls-4" d="M80.038,134.055H62.92a1.018,1.018,0,0,0-.914,1.223l1.363,8.21a.982.982,0,0,0,.953.875H78.636a.982.982,0,0,0,.953-.875l1.363-8.21A1.018,1.018,0,0,0,80.038,134.055ZM78.187,129.9H69.956l-1.024-1.345a1.094,1.094,0,0,0-.87-.431H64.808a1.035,1.035,0,0,0-1.035,1.035v1.5H79.185A1.036,1.036,0,0,0,78.187,129.9Zm1.92,3.592.066-.6H62.784l.066.6Zm-.345-1.41.065-.468h-16.7l.065.468Z" transform="translate(-17025.998 -9535.12)"/>
  </g>
</svg>
