<svg xmlns="http://www.w3.org/2000/svg" width="44" height="44" viewBox="0 0 44 44" style="color: #15c39a;">
  <defs>
    <style></style>
  </defs>
  <g transform="translate(-144 -421)">
    <circle class="a" cx="22" cy="22" r="22" transform="translate(144 421)"/>
    <g transform="translate(155 431)" style="color: #fff;">
      <path class="b"
            d="M7.518,11.828a6.693,6.693,0,1,1,4.293,1.558,9.45,9.45,0,0,0-9.417,8.662H2.362a1.181,1.181,0,1,1-2.308-.356,11.821,11.821,0,0,1,7.464-9.863Zm4.293-.8A4.331,4.331,0,1,0,7.48,6.693a4.331,4.331,0,0,0,4.331,4.331Z"/>
      <path class="b"
            d="M645.312,645.31v-1.969a1.181,1.181,0,0,1,2.362,0v1.969h1.969a1.181,1.181,0,0,1,0,2.362h-1.969v1.969a1.181,1.181,0,1,1-2.362,0v-1.969h-1.969a1.181,1.181,0,0,1,0-2.362Z"
            transform="translate(-628.321 -628.319)"/>
    </g>
  </g>
</svg>