<svg xmlns="http://www.w3.org/2000/svg" width="38.631" height="41.283" viewBox="0 0 38.631 41.283">
  <defs>
    <style>
      .cls-1 {
      fill: #36425a;
      }
    </style>
  </defs>
  <path id="更多" class="cls-1" d="M133.559,86.915a2.7,2.7,0,0,0-1.434-2.392l-4.267-2.261,4.267-2.254a2.713,2.713,0,0,0,0-4.785L116.1,66.756a4.045,4.045,0,0,0-3.722,0L96.363,75.223a2.712,2.712,0,0,0,0,4.785l4.264,2.254-4.264,2.261a2.715,2.715,0,0,0,0,4.787l4.4,2.332-4.4,2.309a2.7,2.7,0,0,0,0,4.769l16.022,8.408a3.995,3.995,0,0,0,3.712,0l16.022-8.406a2.7,2.7,0,0,0,0-4.769l-4.4-2.309,4.4-2.332A2.7,2.7,0,0,0,133.559,86.915Zm-2.677,9.447-16.021,8.406a1.324,1.324,0,0,1-1.237,0L97.6,96.31l6.013-3.156L112.38,97.8a3.964,3.964,0,0,0,3.724,0l8.757-4.639Zm-16.027-.918a1.309,1.309,0,0,1-1.227,0l-16.02-8.566,5.867-3.109,8.908,4.709a3.978,3.978,0,0,0,3.721,0l8.9-4.705,5.877,3.183-16.024,8.488Z" transform="translate(-94.928 -66.302)"/>
</svg>
