<svg xmlns="http://www.w3.org/2000/svg" width="34" height="34" viewBox="0 0 34 34">
  <g transform="translate(2 2)">
    <g class="a" style="fill:#edeef5;">
      <path class="g"
            style="stroke:none;"
            d="M 15.00000095367432 31 C 10.72604084014893 31 6.708031177520752 29.33577156066895 3.686131000518799 26.31387138366699 C 0.6642309427261353 23.29197120666504 -0.9999990463256836 19.27396011352539 -0.9999990463256836 15.00000095367432 C -0.9999990463256836 10.72604084014893 0.6642309427261353 6.708031177520752 3.686131000518799 3.686131000518799 C 6.708031177520752 0.6642309427261353 10.72604084014893 -0.9999990463256836 15.00000095367432 -0.9999990463256836 C 19.27396011352539 -0.9999990463256836 23.29197120666504 0.6642309427261353 26.31387138366699 3.686131000518799 C 29.33577156066895 6.708031177520752 31 10.72604084014893 31 15.00000095367432 C 31 19.27396011352539 29.33577156066895 23.29197120666504 26.31387138366699 26.31387138366699 C 23.29197120666504 29.33577156066895 19.27396011352539 31 15.00000095367432 31 Z"/>
      <path class="h"
            style="stroke:none;fill:#fff;"
            d="M 15.00000095367432 1.9073486328125e-06 C 6.715311050415039 1.9073486328125e-06 1.9073486328125e-06 6.715311050415039 1.9073486328125e-06 15.00000095367432 C 1.9073486328125e-06 23.28469085693359 6.715311050415039 30 15.00000095367432 30 C 23.28469085693359 30 30 23.28469085693359 30 15.00000095367432 C 30 6.715311050415039 23.28469085693359 1.9073486328125e-06 15.00000095367432 1.9073486328125e-06 M 15.00000095367432 -1.999998092651367 C 17.2942008972168 -1.999998092651367 19.52079010009766 -1.550268173217773 21.617919921875 -0.6633090972900391 C 23.64253997802734 0.1929912567138672 25.46039199829102 1.418451309204102 27.02097129821777 2.979030609130859 C 28.58155059814453 4.53961181640625 29.80701065063477 6.357460021972656 30.66331100463867 8.382080078125 C 31.55027008056641 10.47921180725098 32 12.70580101013184 32 15.00000095367432 C 32 17.2942008972168 31.55027008056641 19.52079010009766 30.66331100463867 21.617919921875 C 29.80701065063477 23.64253997802734 28.58155059814453 25.46039199829102 27.02097129821777 27.02097129821777 C 25.46039199829102 28.58155059814453 23.64253997802734 29.80701065063477 21.617919921875 30.66331100463867 C 19.52079010009766 31.55027008056641 17.2942008972168 32 15.00000095367432 32 C 12.70580101013184 32 10.47921180725098 31.55027008056641 8.382080078125 30.66331100463867 C 6.357460021972656 29.80701065063477 4.53961181640625 28.58155059814453 2.979030609130859 27.02097129821777 C 1.418451309204102 25.46039199829102 0.1929912567138672 23.64253997802734 -0.6633090972900391 21.617919921875 C -1.550268173217773 19.52079010009766 -1.999998092651367 17.2942008972168 -1.999998092651367 15.00000095367432 C -1.999998092651367 12.70580101013184 -1.550268173217773 10.47921180725098 -0.6633090972900391 8.382080078125 C 0.1929912567138672 6.357460021972656 1.418451309204102 4.53961181640625 2.979030609130859 2.979030609130859 C 4.53961181640625 1.418451309204102 6.357460021972656 0.1929912567138672 8.382080078125 -0.6633090972900391 C 10.47921180725098 -1.550268173217773 12.70580101013184 -1.999998092651367 15.00000095367432 -1.999998092651367 Z"/>
    </g>
    <path class="b"
          style="fill:#efe7e6;"
          d="M597.645,375.455c2.785-3.787,2.247,2.492-.342,2.736C593.224,379.535,597.645,375.455,597.645,375.455Z"
          transform="translate(-578.1 -363.261)"/>
    <path class="c"
          style="fill:#ede7e6;"
          d="M341.033,493.449c.123.464,1.027,2.37-1,5.35s4.667,4.592,4.667,4.592,6.352-2.149,6.693-3.2c2.1-1.782-3.908.024-2.761-6.548C345.895,491.91,341.033,493.449,341.033,493.449Z"
          transform="translate(-329.631 -478.303)"/>
    <path class="d"
          style="fill:#8e99bb;"
          d="M92.554,686.034a15.052,15.052,0,0,0,12.885-7.211v-.02c-.759-1.14-5.965-2.867-8.008-2.867-4.053,7-9.523,1.205-9.424.065-2.83-.192-6.241,1.829-8.135,3.141A15.055,15.055,0,0,0,92.554,686.034Z"
          transform="translate(-77.555 -656.034)"/>
    <path class="e"
          style="fill:#e3dcdb;"
          d="M392.832,502.055c.165.586,4.43,4.567,8.295,3.591-1.132-1.393-.731-3.567-.66-4.862C400.867,499.905,392.95,501.274,392.832,502.055Z"
          transform="translate(-381.28 -485.806)"/>
    <path class="f"
          style="fill:#f7edeb;"
          d="M361.678,165.692c1.587.293,3.811.44,4.1,2.663,3.1,12.948-10.773,14.755-8.99,1.173C357.7,164.715,361.678,165.692,361.678,165.692Z"
          transform="translate(-346.136 -160.72)"/>
    <path class="d"
          d="M338.584,115.177a7.047,7.047,0,0,0,6.808,1.563,6.017,6.017,0,0,0,1.155,2.882c.712.245,2.776-6.768-3.268-7.719-7.078-1.1-7.987,5.13-6.169,7.378.443-.464.1-3.005,1.475-4.1Z"
          transform="translate(-326.389 -108.532)"/>
  </g>
</svg>