<svg 
 xmlns="http://www.w3.org/2000/svg"
 xmlns:xlink="http://www.w3.org/1999/xlink"
 width="24px" height="21px">
<path fill-rule="evenodd"  
 d="M12.996,13.643 C12.996,14.186 12.529,14.628 11.955,14.628 L4.454,14.628 C3.880,14.628 3.413,14.186 3.413,13.643 L3.413,3.188 L12.996,3.188 L12.996,13.643 L12.996,13.643 ZM5.495,1.420 C5.495,1.306 5.588,1.218 5.708,1.218 L10.713,1.218 C10.834,1.218 10.927,1.306 10.927,1.420 L10.927,2.013 L5.495,2.013 L5.495,1.420 ZM15.462,2.013 L12.168,2.013 L12.168,1.420 C12.168,0.662 11.514,0.043 10.713,0.043 L5.708,0.043 C4.908,0.043 4.254,0.662 4.254,1.420 L4.254,2.013 L0.947,2.013 C0.600,2.013 0.319,2.278 0.319,2.607 C0.319,2.935 0.600,3.200 0.947,3.200 L2.158,3.200 L2.158,13.643 C2.158,14.843 3.186,15.815 4.454,15.815 L11.955,15.815 C13.222,15.815 14.250,14.843 14.250,13.643 L14.250,3.188 L15.462,3.188 C15.809,3.188 16.089,2.922 16.089,2.594 C16.089,2.266 15.809,2.013 15.462,2.013 ZM8.204,12.848 C8.551,12.848 8.831,12.582 8.831,12.254 L8.831,5.940 C8.831,5.612 8.551,5.347 8.204,5.347 C7.857,5.347 7.577,5.612 7.577,5.940 L7.577,12.254 C7.577,12.582 7.857,12.848 8.204,12.848 M5.938,11.586 C6.285,11.586 6.566,11.321 6.566,10.992 L6.566,7.202 C6.566,6.874 6.285,6.609 5.938,6.609 C5.591,6.609 5.311,6.874 5.311,7.202 L5.311,10.992 C5.324,11.321 5.605,11.586 5.938,11.586 M10.470,11.586 C10.817,11.586 11.097,11.321 11.097,10.992 L11.097,7.202 C11.097,6.874 10.817,6.609 10.470,6.609 C10.123,6.609 9.843,6.874 9.843,7.202 L9.843,10.992 C9.843,11.321 10.123,11.586 10.470,11.586 "/>
</svg>
