<svg xmlns="http://www.w3.org/2000/svg" width="30" height="30" viewBox="0 0 30 30">
  <g id="Discover" transform="translate(-83 -495)">
    <circle id="椭圆_49" data-name="椭圆 49" style="fill: #ff6304" class="cls-1" cx="15" cy="15" r="15" transform="translate(83 495)"/>
    <g id="组_959" data-name="组 959" transform="translate(77.5 487.8)">
      <path id="路径_551" data-name="路径 551" style="fill: #fff" class="cls-2" d="M26.158,16.544A8,8,0,1,0,28.5,22.2,7.947,7.947,0,0,0,26.158,16.544Zm-1.594,3.139-.011.022-1.578,2.916a3.708,3.708,0,0,1-2.055,2.055L18,26.259l-.011,0a2.084,2.084,0,0,1-.877.235.887.887,0,0,1-.652-.251c-.23-.23-.419-.681-.018-1.529l.011-.022,1.578-2.916a3.708,3.708,0,0,1,2.055-2.055l2.925-1.584.011,0c.848-.4,1.3-.212,1.529.018S24.966,18.835,24.564,19.683Z" transform="translate(0)"/>
      <path id="路径_552" data-name="路径 552" class="cls-2" d="M458.813,460.513a.812.812,0,1,0,1.148,0A.812.812,0,0,0,458.813,460.513Z" transform="translate(-438.886 -438.886)"/>
    </g>
  </g>
</svg>
