<?xml version="1.0" standalone="no"?><!DOCTYPE svg PUBLIC "-//W3C//DTD SVG 1.1//EN"
  "http://www.w3.org/Graphics/SVG/1.1/DTD/svg11.dtd">
<svg t="1651918650328" class="icon" viewBox="0 0 1177 1024" version="1.1" xmlns="http://www.w3.org/2000/svg" p-id="3725"
     xmlns:xlink="http://www.w3.org/1999/xlink" width="55.171875" height="48">
  <defs>
    <style type="text/css"></style>
  </defs>
  <path
    d="M1177.559963 350.415734v518.177582a148.014168 148.014168 0 0 1-46.846407 109.717869 155.693906 155.693906 0 0 1-112.636171 45.668848H380.147075a155.693906 155.693906 0 0 1-112.63617-45.668848 147.962969 147.962969 0 0 1-46.795209-109.717869V350.415734a147.860573 147.860573 0 0 1 46.795209-109.71787 155.693906 155.693906 0 0 1 112.63617-45.668847h637.93031a155.693906 155.693906 0 0 1 112.636171 45.668847A147.911771 147.911771 0 0 1 1177.559963 350.415734z m-195.01417 262.544673v-6.911765a33.022877 33.022877 0 0 0-10.546841-24.267975 34.661222 34.661222 0 0 0-24.882354-10.239651h-208.991294V367.618349a32.818084 32.818084 0 0 0-10.546842-24.267975 34.558825 34.558825 0 0 0-24.882354-10.239652h-7.065359a34.558825 34.558825 0 0 0-24.882354 10.239652 32.818084 32.818084 0 0 0-10.546842 24.267975v203.666675H451.210259a34.661222 34.661222 0 0 0-24.882354 10.239652 33.022877 33.022877 0 0 0-10.546842 24.267975v6.860567a32.971679 32.971679 0 0 0 10.546842 24.267975 34.251635 34.251635 0 0 0 24.882354 10.239652H660.457544v203.666675a32.766886 32.766886 0 0 0 10.546842 24.267975 34.149239 34.149239 0 0 0 24.882354 10.239652h7.06536a34.558825 34.558825 0 0 0 24.882354-10.239652 32.766886 32.766886 0 0 0 10.546841-24.267975V647.160845H947.167796a34.661222 34.661222 0 0 0 24.882354-10.239652 31.896516 31.896516 0 0 0 10.495643-23.960786z"
    p-id="3726"></path>
  <path
    d="M686.927044 219.450587l220.766894 24.370371-6.143791-68.912857a98.761442 98.761442 0 0 0-99.785407-97.276692H179.603493a98.761442 98.761442 0 0 0-99.734209 97.276692V629.753436a98.761442 98.761442 0 0 0 99.734209 97.276693l114.786498 4.505447V292.664097z m294.389991-44.542486v151.905235l-196.294126-58.622007-311.695002 68.810461-7.218955 4.351852 1.228759 131.374733-99.324623 112.636171-26.162311 219.384541H179.603493A177.299572 177.299572 0 0 1 0 629.753436V174.959299A177.35077 177.35077 0 0 1 179.603493 0.014847H801.76474a177.35077 177.35077 0 0 1 179.552295 174.893254z"
    p-id="3727"></path>
</svg>