<svg xmlns="http://www.w3.org/2000/svg" width="16.87" height="16.522" viewBox="0 0 16.87 16.522">
  <defs>
    <style>

    </style>
  </defs>
  <path class="a"
        d="M27.438,28a2.231,2.231,0,0,0-3.147,0l-6.428,6.43a.564.564,0,0,0-.156.291l-.584,2.923a.571.571,0,0,0,.559.683.511.511,0,0,0,.112-.012l2.923-.583a.57.57,0,0,0,.291-.156l6.43-6.43a2.231,2.231,0,0,0,0-3.147Zm-.807.807a1.083,1.083,0,0,1,0,1.53l-.144.144-1.53-1.53.144-.144A1.083,1.083,0,0,1,26.631,28.81Zm-6.308,7.84-1.913.383.382-1.915,5.357-5.357,1.53,1.53-5.355,5.359Zm5.606-1.97a.572.572,0,0,0-.571.571v1.939H23.472a.571.571,0,1,0,0,1.142h2.456a.572.572,0,0,0,.571-.571V35.25a.569.569,0,0,0-.569-.571ZM14.946,37.188H12.859V23.45h12.5v1.828a.571.571,0,1,0,1.142,0v-2.4a.572.572,0,0,0-.571-.571H12.288a.572.572,0,0,0-.571.571v14.88a.572.572,0,0,0,.571.571h2.658a.571.571,0,1,0,0-1.142Zm4.339-7.2,4.038-4.038a.571.571,0,0,0-.807-.807l-3.634,3.633-1.5-1.5a.571.571,0,0,0-.807,0l-2.031,2.029a.571.571,0,0,0,.4.974.565.565,0,0,0,.4-.167l1.625-1.625,1.5,1.5A.571.571,0,0,0,19.285,29.99Z"
        transform="translate(-11.467 -22.058)"/>
</svg>