<?xml version="1.0" standalone="no"?><!DOCTYPE svg PUBLIC "-//W3C//DTD SVG 1.1//EN" "http://www.w3.org/Graphics/SVG/1.1/DTD/svg11.dtd"><svg t="1651925668470" class="icon" viewBox="0 0 1024 1024" version="1.1" xmlns="http://www.w3.org/2000/svg" p-id="3847" xmlns:xlink="http://www.w3.org/1999/xlink" width="48" height="48"><defs><style type="text/css"></style></defs><path d="M0.558545 512a512 511.441455 90 1 0 1022.88291 0 512 511.441455 90 1 0-1022.88291 0Z" fill="#686C7A" p-id="3848"></path><path d="M703.953455 622.703709a76.576582 76.576582 0 0 0-71.493819 44.776727l-238.312727-116.233309a97.745455 97.745455 0 0 0 11.357091-73.858327l149.690182-111.355345a79.872 79.872 0 0 0 48.965818 16.160581 79.387927 79.387927 0 1 0-78.568727-79.387927 83.781818 83.781818 0 0 0 5.957818 31.390255l-142.056727 104.429381a100.296145 100.296145 0 0 0-82.664728-47.085381A101.804218 101.804218 0 0 0 205.358545 493.549382v0.465454a101.673891 101.673891 0 0 0 101.096728 102.4h0.372363a105.304436 105.304436 0 0 0 56.599273-15.676509l261.771636 126.380218a78.773527 78.773527 0 1 0 78.75491-84.47069z" fill="#FFFFFF" p-id="3849"></path></svg>