<?xml version="1.0" standalone="no"?><!DOCTYPE svg PUBLIC "-//W3C//DTD SVG 1.1//EN" "http://www.w3.org/Graphics/SVG/1.1/DTD/svg11.dtd"><svg t="1652521698899" class="icon" viewBox="0 0 1299 1024" version="1.1" xmlns="http://www.w3.org/2000/svg" p-id="4427" xmlns:xlink="http://www.w3.org/1999/xlink" width="60.890625" height="48"><defs><style type="text/css"></style></defs><path d="M1253.257846 0H46.434462A46.473846 46.473846 0 0 0 0 46.473846v931.052308A46.473846 46.473846 0 0 0 46.434462 1024h1206.823384A46.473846 46.473846 0 0 0 1299.692308 977.526154V46.473846A46.473846 46.473846 0 0 0 1253.257846 0z m-855.827692 209.526154a93.144615 93.144615 0 1 1-92.829539 92.947692 93.026462 93.026462 0 0 1 92.829539-92.947692z m745.472 635.667692a10.712615 10.712615 0 0 1-7.561846 2.756923H164.194462a11.500308 11.500308 0 0 1-11.579077-11.421538 13.193846 13.193846 0 0 1 2.756923-7.876923l247.020307-293.809231a11.579077 11.579077 0 0 1 16.384-1.181539l1.457231 1.181539 144.187077 171.716923 229.336615-272.541538a11.815385 11.815385 0 0 1 16.384-1.575385 5.750154 5.750154 0 0 1 1.457231 1.575385l333.036308 395.027692a11.815385 11.815385 0 0 1-1.732923 16.147692z" fill="#46484A" p-id="4428"></path></svg>