<svg xmlns="http://www.w3.org/2000/svg" width="22" height="22" viewBox="0 0 22 22">
  <defs>
    <style>
      .cls-2 {
      fill: none;
      }
    </style>
  </defs>
  <g id="Librar_icony" transform="translate(-311 -68)">
    <path id="路径_461" data-name="路径 461" class="cls-1" d="M71.331,4.34c0-.935-1-.935-1-.935H58.139s-1,0-1,.935v.935H71.371V4.34h-.04ZM68.291,1.61H60.179s-1,0-1,.934H69.332c-.04-.934-1.039-.934-1.039-.934Zm5.077,3.734-.6-.609V6.4H55.7V4.735l-.6.609c-.6.608-1.04.77-.8,2.068s1.4,8.357,1.558,9.331A1.28,1.28,0,0,0,57.1,17.8H71.331a1.281,1.281,0,0,0,1.239-1.053c.16-.974,1.32-8.033,1.6-9.331.241-1.3-.2-1.46-.8-2.068ZM68.293,10.2a.937.937,0,0,1-1,.935H61.178a.937.937,0,0,1-1-.935V8.365h1.44V9.838h5.276V8.365h1.44l-.04,1.832Z" transform="translate(257.766 69.39)"/>
    <rect id="矩形_99" data-name="矩形 99" class="cls-2" width="22" height="22" transform="translate(311 68)"/>
  </g>
</svg>
