<svg xmlns="http://www.w3.org/2000/svg" width="30" height="30" viewBox="0 0 30 30">
  <g id="My_favorite" data-name="My favorite" transform="translate(-83 -375)">
    <circle id="椭圆_49" data-name="椭圆 49" style="fill: #f35" class="cls-1" cx="15" cy="15" r="15" transform="translate(83 375)"/>
    <path id="路径_546" data-name="路径 546" style="fill: #fff" class="cls-2" d="M65.363,71.786,63,76.113l3.5.714,2.331,2.347L71.01,75.48A7.343,7.343,0,0,1,65.363,71.786Zm13.255-.03A7.356,7.356,0,0,1,73,75.476l2.165,3.7,2.331-2.632,3.5-.714L81,75.819Zm.2-3.889a6.767,6.767,0,1,0-6.767,6.767A6.767,6.767,0,0,0,78.823,67.867Zm-3.845.81H75l-2.935,2.89-2.935-2.89a2.011,2.011,0,0,1-.788-1.588,2.069,2.069,0,0,1,2.091-2.037,2.1,2.1,0,0,1,1.62.766,2.1,2.1,0,0,1,1.62-.766,2.069,2.069,0,0,1,2.091,2.037,2,2,0,0,1-.786,1.588Z" transform="translate(26 319.9)"/>
  </g>
</svg>
