<svg 
 xmlns="http://www.w3.org/2000/svg"
 xmlns:xlink="http://www.w3.org/1999/xlink"
 width="203.5px" height="121px">
<path fill-rule="evenodd"  fill="rgb(238, 238, 238)"
 d="M148.047,46.193 C148.360,47.748 149.220,49.226 149.689,50.704 C150.862,54.125 151.645,57.625 152.192,61.202 C152.505,63.380 152.661,65.557 152.661,67.657 C152.661,70.690 152.427,73.801 151.879,76.833 C151.019,81.811 149.454,86.555 147.108,91.065 C145.074,95.187 142.415,98.920 139.365,102.341 C134.281,108.019 128.258,112.374 121.375,115.407 C116.604,117.506 111.598,118.906 106.357,119.606 C104.089,119.917 101.743,120.072 99.474,120.072 C95.564,119.995 91.574,119.606 87.742,118.751 C80.937,117.195 74.680,114.473 68.970,110.507 C62.634,106.074 57.394,100.475 53.483,93.787 C50.667,88.888 48.634,83.677 47.539,78.078 C47.069,75.900 46.835,73.723 46.678,71.468 C46.600,69.990 46.522,68.590 46.522,67.113 C46.678,60.191 48.165,53.503 50.980,47.126 C53.327,41.916 56.377,37.250 60.288,33.050 C68.266,24.418 78.121,19.052 89.697,16.797 C93.765,16.019 97.910,15.708 102.055,15.941 C108.469,16.252 114.726,17.652 120.593,20.141 C127.867,23.251 134.046,27.762 139.365,33.439 C139.834,33.983 140.069,34.683 140.851,34.917 C141.007,35.228 140.772,35.461 140.616,35.694 C137.566,40.127 134.985,44.871 132.325,49.537 C128.571,56.147 125.129,62.835 121.766,69.601 C119.263,74.656 117.073,79.944 114.492,84.922 C112.145,89.510 108.938,93.321 104.324,95.809 C102.447,96.820 100.413,97.364 98.223,97.442 C95.642,97.520 93.139,97.442 90.636,96.509 C83.753,93.787 79.529,88.965 78.278,81.733 C77.808,78.856 78.121,76.056 79.138,73.334 C79.764,71.623 80.781,70.145 82.032,68.746 C84.457,66.024 86.882,63.302 90.167,61.513 C93.686,59.647 97.441,59.025 101.352,60.269 C101.899,60.424 102.290,60.736 102.681,61.124 C104.558,62.835 106.827,63.768 109.330,63.691 C112.615,63.535 115.274,62.213 117.229,59.414 C119.654,55.836 119.028,50.859 116.369,47.826 C114.101,45.338 111.363,43.627 108.234,42.538 C105.106,41.449 101.977,40.905 98.692,40.749 C90.479,40.438 83.127,42.771 76.635,47.748 C71.395,51.792 66.858,56.458 63.495,62.213 C60.992,66.413 59.662,70.923 59.193,75.823 C58.802,80.644 59.193,85.310 60.601,89.899 C62.322,95.498 65.137,100.475 69.283,104.752 C72.411,107.941 75.853,110.740 79.920,112.685 C83.988,114.629 88.289,116.029 92.826,116.418 C99.474,117.040 105.810,116.107 111.911,113.462 C115.352,111.985 118.637,110.274 121.453,107.785 C123.565,105.841 125.286,103.586 126.693,101.097 C129.040,96.976 131.387,92.854 133.498,88.654 C136.627,82.433 139.052,75.978 141.007,69.290 C143.041,62.213 145.231,55.214 147.343,48.215 C147.421,47.437 147.343,46.660 148.047,46.193 Z"/>
<path fill-rule="evenodd"  fill="rgb(169, 169, 169)"
 d="M148.016,46.737 C146.609,51.254 145.280,55.850 143.873,60.368 C141.685,67.534 139.887,74.777 136.917,81.710 C133.712,89.421 129.726,96.821 125.349,103.987 C123.239,107.414 120.268,109.906 116.751,111.853 C111.905,114.580 106.746,116.527 101.197,117.072 C94.475,117.773 87.987,116.916 81.734,114.190 C73.606,110.607 67.431,104.921 63.210,97.210 C60.631,92.537 59.302,87.552 58.911,82.177 C58.520,76.569 59.224,71.194 61.412,66.054 C63.132,62.003 65.711,58.421 68.681,55.149 C71.964,51.644 75.325,48.295 79.468,45.802 C84.470,42.842 89.941,41.129 95.804,40.895 C100.728,40.661 105.496,41.362 109.951,43.387 C113.390,44.945 116.438,46.971 118.080,50.554 C120.972,56.629 116.986,63.639 110.264,64.340 C107.294,64.652 104.636,63.717 102.447,61.692 C101.275,60.679 99.868,60.523 98.461,60.446 C94.397,60.134 90.723,61.380 87.675,64.029 C84.861,66.443 82.125,68.936 80.249,72.207 C78.764,74.855 78.295,77.659 78.452,80.619 C78.608,84.125 79.780,87.318 81.813,90.122 C84.939,94.328 89.160,96.976 94.319,97.677 C100.962,98.612 106.356,95.964 110.576,90.979 C113.156,87.863 114.953,84.280 116.595,80.697 C121.206,70.571 126.209,60.601 131.680,50.865 C134.181,46.425 136.682,41.986 139.340,37.702 C139.887,36.923 140.434,36.144 140.981,35.287 C141.372,34.898 141.529,34.430 141.607,33.885 C142.310,27.342 142.935,20.721 143.404,14.178 C143.561,12.231 143.639,10.284 143.795,8.337 C143.873,7.791 143.717,7.558 143.170,7.324 C141.294,6.545 140.434,4.987 140.669,3.196 C140.903,1.638 141.919,0.470 143.326,0.158 C144.889,-0.153 146.375,0.548 147.234,1.950 C148.094,3.430 148.016,5.143 147.938,6.779 C147.469,13.322 147.000,19.787 146.296,26.329 C146.140,27.809 145.984,29.289 145.906,30.769 C147.000,30.614 147.469,30.146 147.625,29.056 C148.485,22.513 149.657,15.970 150.908,9.427 C151.142,8.025 151.299,6.545 151.768,5.143 C152.002,4.364 152.393,3.663 152.940,3.040 C154.347,1.404 156.770,1.249 158.177,2.729 C159.584,4.131 159.428,6.857 157.786,8.181 C157.161,8.726 156.457,9.038 155.676,9.116 C155.051,9.193 154.894,9.505 154.738,10.050 C153.331,17.606 151.768,25.083 151.064,32.717 C150.517,37.546 149.345,42.141 148.016,46.737 Z"/>
<path fill-rule="evenodd"  fill="rgb(238, 238, 238)"
 d="M137.392,90.811 C141.855,90.811 145.473,94.429 145.473,98.892 C145.473,103.355 141.855,106.973 137.392,106.973 C132.929,106.973 129.311,103.355 129.311,98.892 C129.311,94.429 132.929,90.811 137.392,90.811 Z"/>
<path fill-rule="evenodd"  fill="rgb(169, 169, 169)"
 d="M152.243,110.647 L148.528,106.932 C148.186,106.590 147.632,106.590 147.290,106.932 L147.190,107.032 C147.190,107.032 145.354,105.207 145.305,105.176 C146.759,103.366 147.630,101.068 147.630,98.565 C147.630,92.730 142.900,88.000 137.065,88.000 C131.230,88.000 126.500,92.730 126.500,98.565 C126.500,104.400 131.230,109.130 137.065,109.130 C139.568,109.130 141.867,108.259 143.677,106.805 C143.707,106.854 145.532,108.689 145.532,108.689 L145.432,108.789 C145.090,109.131 145.090,109.686 145.432,110.027 L149.147,113.743 C149.489,114.085 150.044,114.085 150.385,113.743 L152.243,111.885 C152.585,111.543 152.585,110.989 152.243,110.647 ZM137.065,105.060 C133.478,105.060 130.570,102.153 130.570,98.565 C130.570,94.977 133.478,92.069 137.065,92.069 C140.652,92.069 143.561,94.977 143.561,98.565 C143.561,102.153 140.652,105.060 137.065,105.060 Z"/>
<path fill-rule="evenodd"  fill="rgb(222, 222, 222)"
 d="M30.635,86.429 L33.222,86.429 C33.897,86.429 34.479,87.011 34.479,87.688 C34.479,88.365 33.897,88.948 33.222,88.948 L30.635,88.948 L30.635,91.542 C30.635,92.218 30.054,92.801 29.378,92.801 C29.004,92.801 28.703,92.707 28.516,92.425 C28.235,92.237 28.141,91.842 28.141,91.561 L28.141,88.966 L25.535,88.966 C24.860,88.966 24.278,88.384 24.278,87.707 C24.278,87.030 24.860,86.448 25.535,86.448 L28.122,86.448 L28.122,83.853 C28.122,83.177 28.703,82.594 29.378,82.594 C30.054,82.594 30.635,83.177 30.635,83.853 L30.635,86.429 ZM199.637,76.034 L199.637,73.440 C199.637,73.045 199.544,72.763 199.262,72.575 C198.981,72.388 198.681,72.200 198.400,72.200 C197.725,72.200 197.143,72.782 197.143,73.459 L197.143,76.053 L194.556,76.053 C194.181,76.053 193.881,76.147 193.693,76.448 C193.506,76.730 193.300,77.030 193.300,77.312 C193.300,77.989 193.881,78.572 194.556,78.572 L197.143,78.572 L197.143,81.166 C197.143,81.842 197.725,82.425 198.400,82.425 C199.075,82.425 199.656,81.842 199.656,81.166 L199.656,78.534 L202.244,78.534 C202.919,78.534 203.500,77.951 203.500,77.275 C203.500,76.598 202.919,76.015 202.244,76.015 L199.637,76.015 L199.637,76.034 ZM44.079,5.770 L47.923,5.770 C48.973,5.770 49.836,6.635 49.836,7.688 C49.836,8.740 48.973,9.605 47.923,9.605 L44.079,9.605 L44.079,13.459 C44.079,14.511 43.217,15.376 42.167,15.376 C41.679,15.376 41.211,15.188 40.817,14.793 C40.442,14.511 40.235,14.023 40.235,13.440 L40.235,9.624 L36.392,9.624 C35.904,9.624 35.435,9.436 35.042,9.041 C34.666,8.759 34.460,8.271 34.460,7.688 C34.460,6.635 35.323,5.770 36.373,5.770 L40.217,5.770 L40.217,1.917 C40.217,0.865 41.079,-0.000 42.129,-0.000 C43.179,-0.000 44.042,0.865 44.042,1.917 L44.042,5.770 L44.079,5.770 Z"/>
<path fill-rule="evenodd"  stroke-width="3px" stroke="rgb(221, 221, 221)" fill-opacity="0" fill="rgb(169, 169, 169)"
 d="M11.000,55.000 C13.485,55.000 15.500,57.015 15.500,59.500 C15.500,61.985 13.485,64.000 11.000,64.000 C8.515,64.000 6.500,61.985 6.500,59.500 C6.500,57.015 8.515,55.000 11.000,55.000 Z"/>
<path fill-rule="evenodd"  stroke-width="3px" stroke="rgb(221, 221, 221)" fill-opacity="0" fill="rgb(169, 169, 169)"
 d="M185.500,12.000 C187.709,12.000 189.500,13.791 189.500,16.000 C189.500,18.209 187.709,20.000 185.500,20.000 C183.291,20.000 181.500,18.209 181.500,16.000 C181.500,13.791 183.291,12.000 185.500,12.000 Z"/>
</svg>
