<?xml version="1.0" standalone="no"?><!DOCTYPE svg PUBLIC "-//W3C//DTD SVG 1.1//EN" "http://www.w3.org/Graphics/SVG/1.1/DTD/svg11.dtd"><svg t="1652081381556" class="icon" viewBox="0 0 1315 1024" version="1.1" xmlns="http://www.w3.org/2000/svg" p-id="4246" xmlns:xlink="http://www.w3.org/1999/xlink" width="61.640625" height="48"><defs><style type="text/css"></style></defs><path d="M384.923449 180.4504h598.530886a69.257585 69.257585 0 0 1 69.214326 69.214326v705.120948a69.257585 69.257585 0 0 1-69.214326 69.214326H384.923449a69.257585 69.257585 0 0 1-69.214326-69.214326v-705.120948a69.257585 69.257585 0 0 1 69.214326-69.214326z" fill="#FFE187" p-id="4247"></path><path d="M428.095885 238.097282h512.186014a69.214326 69.214326 0 0 1 69.214326 69.214326v589.879095a69.214326 69.214326 0 0 1-69.214326 69.214326h-512.186014a69.214326 69.214326 0 0 1-69.214326-69.214326V307.311608a69.214326 69.214326 0 0 1 69.214326-69.214326z" fill="#FFFFFF" p-id="4248"></path><path d="M454.483847 387.427191h282.394451a8.279764 8.279764 0 0 1 0 16.559527H454.483847a8.279764 8.279764 0 0 1 0-16.559527z" fill="#799193" p-id="4249"></path><path d="M791.557616 387.427191h139.120795a8.279764 8.279764 0 0 1 0 16.559527H791.557616a8.279764 8.279764 0 1 1 0-16.559527z" fill="#799193" p-id="4250"></path><path d="M648.370478 635.906621h282.048379a8.513362 8.513362 0 0 1 0 17.018073h-282.048379a8.513362 8.513362 0 1 1 0-17.018073z" fill="#82989A" p-id="4251"></path><path d="M454.743401 635.906621h138.861242a8.513362 8.513362 0 1 1 0 17.018073H454.743401a8.513362 8.513362 0 0 1 0-17.018073z" fill="#799193" p-id="4252"></path><path d="M454.656883 762.568838h290.70017a8.400889 8.400889 0 0 1 0 16.793126h-290.70017a8.400889 8.400889 0 0 1 0-16.793126z" fill="#799193" p-id="4253"></path><path d="M454.656883 513.829854h429.561412a8.400889 8.400889 0 0 1 0 16.793126H454.656883a8.400889 8.400889 0 0 1 0-16.793126z" fill="#799193" p-id="4254"></path><path d="M1107.174943 584.861056l53.900656 61.687268 12.372061-11.749132-53.900656-60.822089z" fill="#FFFFFF" p-id="4255"></path><path d="M972.033971 821.219328l-52.256816-59.03982 186.705645-180.69265 56.409675 63.261894-190.858504 176.496531z m241.990588-261.439813l-24.311532-25.470873a24.458613 24.458613 0 0 0-34.434127 0.553715l-39.71172 38.067879 56.323158 63.270546 44.470204-42.099614c10.209113-9.603488 6.575361-25.046934-2.335983-34.338957z m-301.082319 213.25799l-38.933058 81.093235 86.777461-26.699426z" fill="#FFC065" p-id="4256"></path><path d="M1237.211358 12.977686a64.888431 64.888431 0 0 1 59.783874 90.134356 65.338324 65.338324 0 0 1-34.520645 34.529297 64.750002 64.750002 0 0 1-71.11772-13.903427 64.845172 64.845172 0 0 1 45.854491-110.742922m0-12.977686a77.866117 77.866117 0 0 0-77.779599 74.206409 77.000938 77.000938 0 0 0 81.413351 81.422003A77.866117 77.866117 0 0 0 1237.211358 0z" fill="#FFE187" p-id="4257"></path><path d="M51.916023 891.134449a43.207043 43.207043 0 0 1 16.870992 3.391502 43.804017 43.804017 0 0 1 13.756347 9.27472 43.258954 43.258954 0 0 1 0 61.168161 43.656936 43.656936 0 0 1-13.756347 9.274719 43.553115 43.553115 0 0 1-33.741984 0 42.341864 42.341864 0 0 1-13.66983-9.274719 44.409642 44.409642 0 0 1-9.343934-13.747696 43.67424 43.67424 0 0 1 0-33.664118 44.444249 44.444249 0 0 1 9.343934-13.756347 42.480293 42.480293 0 0 1 13.66983-9.27472A43.527159 43.527159 0 0 1 51.916023 891.134449m0-8.651791a51.832878 51.832878 0 0 0-51.824227 49.47094 51.296467 51.296467 0 0 0 54.246728 54.281335A51.910745 51.910745 0 0 0 51.916023 882.482658z" fill="#FFE187" p-id="4258"></path></svg>