<?xml version="1.0" standalone="no"?><!DOCTYPE svg PUBLIC "-//W3C//DTD SVG 1.1//EN"
  "http://www.w3.org/Graphics/SVG/1.1/DTD/svg11.dtd">
<svg t="1652089317367" class="icon" viewBox="0 0 1172 1024" version="1.1" xmlns="http://www.w3.org/2000/svg" p-id="3862"
     xmlns:xlink="http://www.w3.org/1999/xlink" width="54.9375" height="48">
  <defs>
    <style type="text/css"></style>
  </defs>
  <path
    d="M171.162468 259.56311L84.13823 174.181676c-61.272168-60.250965 30.636084-150.605212 91.908251-90.354247l109.890301 107.759095a712.888349 712.888349 0 0 1 234.654641-59.940164v-66.600182a65.046178 65.046178 0 0 1 130.092356 0v66.600182a714.642154 714.642154 0 0 1 234.432641 59.940164l109.6683-107.759095a66.067381 66.067381 0 0 1 92.130252 1.620605 63.314573 63.314573 0 0 1 0 88.800242l-87.024238 85.381434c105.450288 80.34202 171.162468 191.608724 171.162468 316.794866 0 251.726488-265.512726 447.331223-585.415601 447.331223S0 828.151064 0 576.424576c0-125.252742 65.71218-236.519447 171.162468-316.861466zM585.637601 895.88345c254.634696 0 455.323245-147.697004 455.323245-319.525474s-200.688549-319.547674-455.323245-319.547674c-255.078697 0-455.545246 147.697004-455.545245 319.547674S330.558904 895.88345 585.637601 895.88345z m0-63.913975A255.655899 255.655899 0 1 1 845.822313 576.357976a258.009105 258.009105 0 0 1-260.184712 255.611499z m0-127.80575a127.82795 127.82795 0 1 0 0-255.633699 127.82795 127.82795 0 1 0 0 255.633699z"
    p-id="3863"></path>
</svg>