<svg xmlns="http://www.w3.org/2000/svg" width="16.511" height="16.511" viewBox="0 0 16.511 16.511">
  <defs>
    <style>
<!--      .cls-1 {-->
<!--        fill: #15c39a;-->
<!--      }-->
    </style>
  </defs>
  <path id="Previous_sessions" data-name="Previous sessions" class="cls-1" d="M13.209,12.654v-1.1a.555.555,0,0,0-1.109,0v1.651a.551.551,0,0,0,.555.555h1.651a.555.555,0,0,0,0-1.109ZM9.533,16.5H1.1A1.1,1.1,0,0,1,0,15.4V1.1A1.1,1.1,0,0,1,1.1,0h13.2a1.1,1.1,0,0,1,1.1,1.1v7.43A4.951,4.951,0,0,0,9.533,16.5ZM3.3,3.844a.549.549,0,1,0-.039,1.1H9.907a.549.549,0,1,0,.039-1.1H3.3Zm0,3.3a.548.548,0,0,0-.568.529.556.556,0,0,0,.529.568H7.7a.549.549,0,0,0,.039-1.1Zm9.352,9.365a3.857,3.857,0,1,1,3.857-3.857A3.859,3.859,0,0,1,12.654,16.511Z"/>
</svg>
