<svg xmlns="http://www.w3.org/2000/svg" width="14" height="14" viewBox="0 0 14 14">
  <path class="a" style="fill:#fff;"
        d="M30.273,36.273a6,6,0,1,1,6-6,6.007,6.007,0,0,1-6,6m0-13a7,7,0,1,0,7,7,7,7,0,0,0-7-7m0,9.536a.441.441,0,1,0,.441.44.441.441,0,0,0-.441-.44m.481-5.736a2.264,2.264,0,0,0-2.743,2.212.5.5,0,1,0,1,0A1.263,1.263,0,1,1,30.7,30.473a1.391,1.391,0,0,0-.925,1.307v.147a.5.5,0,0,0,1,0v-.153a.383.383,0,0,1,.262-.36,2.263,2.263,0,0,0-.281-4.342"
        transform="translate(-23.273 -23.273)"/>
</svg>