<?xml version="1.0" standalone="no"?><!DOCTYPE svg PUBLIC "-//W3C//DTD SVG 1.1//EN" "http://www.w3.org/Graphics/SVG/1.1/DTD/svg11.dtd"><svg t="1643261147901" class="icon" viewBox="0 0 1024 1024" version="1.1" xmlns="http://www.w3.org/2000/svg" p-id="7267" xmlns:xlink="http://www.w3.org/1999/xlink" width="64" height="64"><defs><style type="text/css"></style></defs><path d="M774.627556 900.266667C874.439111 819.712 938.666667 694.328889 938.666667 553.557333 938.666667 310.641778 748.259556 114.119111 512.654222 113.777778 276.679111 113.436444 85.333333 310.414222 85.333333 553.585778c0 137.671111 61.326222 260.551111 157.44 341.162666a8.476444 8.476444 0 0 0 12.174223-1.422222l42.012444-55.552a9.016889 9.016889 0 0 0-1.28-12.231111 351.232 351.232 0 0 1-98.133333-135.168C179.626667 647.196444 170.666667 601.116444 170.666667 553.614222c0-47.502222 8.96-93.582222 26.766222-136.931555a351.232 351.232 0 0 1 73.187555-111.843556 339.512889 339.512889 0 0 1 108.487112-75.434667A330.467556 330.467556 0 0 1 512 201.784889c46.08 0 90.766222 9.216 132.807111 27.591111a339.512889 339.512889 0 0 1 108.487111 75.434667 351.232 351.232 0 0 1 73.159111 111.843555c17.806222 43.349333 26.766222 89.429333 26.766223 136.931556s-8.96 93.582222-26.766223 136.931555a351.232 351.232 0 0 1-104.419555 140.430223L678.627556 773.688889a8.448 8.448 0 0 0-15.075556 3.299555l-42.211556 178.375112c-1.28 5.518222 2.759111 10.894222 8.192 10.894222l178.147556 0.881778c7.139556 0 11.207111-8.476444 6.712889-14.193778l-39.765333-52.679111z" fill="#333333" p-id="7268"></path></svg>