<svg xmlns="http://www.w3.org/2000/svg" width="16.511" height="16.511" viewBox="0 0 16.511 16.511">
  <defs>
    <style>
<!--      .cls-1 {-->
<!--        fill: #182552;-->
<!--      }-->
    </style>
  </defs>
  <path id="Start_a_session" data-name="Start a session" class="cls-1" d="M15.793,0a.634.634,0,0,1,.718.717V12.181a.7.7,0,0,1-.718.717H10.666s.435.616,1.156,1.73c.531.821.943,1.25.672,1.4a5.542,5.542,0,0,1-.856.471c-.289.107-.845-.8-.948-1.008L9.128,12.9H7.281s-1.482,2.45-1.846,3.07c-.291.5-.568.681-.923.41a2.8,2.8,0,0,1-.41-.41c-.162-.18-.077-.378.1-.614L5.846,12.9H.718a.717.717,0,0,1-.5-.194A.8.8,0,0,1,0,12.181V.717A.783.783,0,0,1,.2.2.782.782,0,0,1,.717,0ZM12.11,3.058H10.017a.707.707,0,0,0-.733.715.771.771,0,0,0,.209.51.81.81,0,0,0,.523.2h.523L7.925,7.551,6.409,6.071a.657.657,0,0,0-.841-.152.5.5,0,0,0-.155.1l-2.2,2.042c-.31.326-.105.613.105.817a.609.609,0,0,0,.837.1L5.831,7.449,7.49,8.966a.733.733,0,0,0,.442.207.624.624,0,0,0,.483-.263c.011-.01,2.962-3.4,2.962-3.4v.306a.733.733,0,0,0,1.465,0V3.773a.707.707,0,0,0-.733-.715Z"/>
</svg>
