<svg xmlns="http://www.w3.org/2000/svg" width="14.779" height="18.615" viewBox="0 0 15.779 19.615">
  <g transform="translate(-100.121 -4.447)">
    <path class="a"
          d="M115.021,563.329a9.3,9.3,0,0,0-3.2-2.212,4.6,4.6,0,0,1-2.852,1.63l-.466.466.466,1.4-.931,4.831-.931-4.831.466-1.4-.466-.466a5.427,5.427,0,0,1-2.852-1.63,8.933,8.933,0,0,0-3.2,2.27,3.319,3.319,0,0,0-.931,2.27v2.794a1.565,1.565,0,0,0,1.571,1.571h12.63a1.565,1.565,0,0,0,1.571-1.571V565.6a2.939,2.939,0,0,0-.873-2.27Z"
          transform="translate(0 -545.961)"/>
    <path class="a"
          d="M141.638,7.765l2.328.931V9.918a1.419,1.419,0,0,0,.815,1.339.057.057,0,0,1,.058.058v.7a3.725,3.725,0,0,0,7.45,0v-.7a.057.057,0,0,0,.058-.058,1.419,1.419,0,0,0,.815-1.339V8.7l2.328-.931c.233-.116.349-.349.233-.524a.454.454,0,0,0-.233-.233l-5.937-2.386a2.891,2.891,0,0,0-1.979,0l-5.937,2.386a.477.477,0,0,0-.233.582c0,.058.116.116.233.175ZM152.29,9.918a.64.64,0,0,1-.349.582,7.076,7.076,0,0,1-6.81,0,.64.64,0,0,1-.349-.582V9.045l2.736,1.106a2.891,2.891,0,0,0,1.979,0l2.736-1.106.058.873Z"
          transform="translate(-40.47 0)"/>
  </g>
</svg>