<svg xmlns="http://www.w3.org/2000/svg" width="31.442" height="40" viewBox="0 0 31.442 40">
  <g transform="translate(-179.2 -99.38)">
    <path class="a" style="fill:#6bc04a;"
          d="M311.741,121.054h-8.855a3.363,3.363,0,0,1-3.334-3.372l-2.351-14.93a3.363,3.363,0,0,1,3.334-3.372h13.558a3.363,3.363,0,0,1,3.334,3.372l-2.351,14.93A3.363,3.363,0,0,1,311.741,121.054Z"
          transform="translate(-112.388)"/>
    <path class="b"  style="fill:#85d663;opacity:0.3;"
          d="M309.8,99.48h-9.432A3.382,3.382,0,0,0,297,102.852l2.378,14.93a3.382,3.382,0,0,0,3.372,3.372S320.211,104.4,309.8,99.48Z"
          transform="translate(-112.28 -0.095)"/>
    <path class="c"  style="fill:#99dd7a;opacity:0.3;" d="M305.523,99.48h-5.151A3.382,3.382,0,0,0,297,102.852l1.493,9.318S310.432,104.916,305.523,99.48Z"
          transform="translate(-112.256 -0.095)"/>
    <path class="d" style="fill:#ffd629;"
          d="M193.655,253.831l-12.8-7.107A2.924,2.924,0,0,1,179.4,244.2V229.982a2.924,2.924,0,0,1,1.459-2.528l12.8-7.107a2.916,2.916,0,0,1,2.923,0l12.8,7.107a2.924,2.924,0,0,1,1.459,2.528V244.2a2.924,2.924,0,0,1-1.459,2.528l-12.8,7.107A2.939,2.939,0,0,1,193.655,253.831Z"
          transform="translate(-0.19 -114.84)"/>
    <path class="e" style="fill:#ff9a2c;opacity:0.2;"
          d="M210.637,639.48v4.461a2.948,2.948,0,0,1-1.464,2.549l-12.8,7.168a2.9,2.9,0,0,1-2.923,0l-12.8-7.168a2.944,2.944,0,0,1-1.459-2.549v-4.257s1.01-.452,2.493,2.421c1.147,2.226,7.134,4.685,9.632,6.5a5.258,5.258,0,0,0,3.6,1.389,12.643,12.643,0,0,0,2.484-.576c2.233-.79,9.066-5.222,10.1-6.7C208.715,641,209.258,639.48,210.637,639.48Z"
          transform="translate(0 -514.704)"/>
    <path class="f" style="fill:#f9f2d7;opacity:0.2;"
          d="M234.729,224.149l-9.738-5.4a2.886,2.886,0,0,0-2.918,0L209.3,225.919s-.113,4.2,10.422,5.712,2.72.395,2.72.395S232.806,231.365,234.729,224.149Z"
          transform="translate(-28.667 -113.316)"/>
    <path class="g" style="fill:#6bc04a;opacity:0.25;"
          d="M375.76,446.593l.9,1.817a1.593,1.593,0,0,0,1.2.87l2.007.29a1.592,1.592,0,0,1,.88,2.716l-1.451,1.417a1.585,1.585,0,0,0-.457,1.408l.342,2a1.594,1.594,0,0,1-2.312,1.679l-1.793-.942a1.594,1.594,0,0,0-1.479,0l-1.793.942a1.593,1.593,0,0,1-2.312-1.679l.342-2a1.581,1.581,0,0,0-.457-1.408l-1.451-1.417a1.592,1.592,0,0,1,.885-2.716l2.007-.29a1.593,1.593,0,0,0,1.2-.87l.9-1.817a1.583,1.583,0,0,1,2.844,0Z"
          transform="translate(-179.405 -330.031)"/>
    <path class="h" style="fill:#ea803f;"
          d="M389.277,459.237l1.17,2.369a.953.953,0,0,0,.723.523l2.611.38a.955.955,0,0,1,.528,1.631l-1.893,1.845a.965.965,0,0,0-.276.847l.447,2.6a.957.957,0,0,1-1.389,1.008l-2.34-1.227a.95.95,0,0,0-.889,0l-2.335,1.227a.957.957,0,0,1-1.389-1.008l.447-2.6a.952.952,0,0,0-.276-.847l-1.893-1.845a.958.958,0,0,1,.533-1.631l2.611-.38a.972.972,0,0,0,.723-.523l1.17-2.369A.959.959,0,0,1,389.277,459.237Z"
          transform="translate(-193.493 -342.41)"/>
  </g>
</svg>