<?xml version="1.0" standalone="no"?><!DOCTYPE svg PUBLIC "-//W3C//DTD SVG 1.1//EN" "http://www.w3.org/Graphics/SVG/1.1/DTD/svg11.dtd"><svg t="1652521706711" class="icon" viewBox="0 0 1024 1024" version="1.1" xmlns="http://www.w3.org/2000/svg" p-id="4563" xmlns:xlink="http://www.w3.org/1999/xlink" width="48" height="48"><defs><style type="text/css"></style></defs><path d="M847.872 73.728V0h-73.728v74.020571h-225.28V0h-73.435429v74.020571H249.856V0H176.128v74.020571A147.602286 147.602286 0 0 0 29.257143 222.061714v653.897143A147.397486 147.397486 0 0 0 176.128 1024h671.451429A147.6608 147.6608 0 0 0 994.742857 875.958857V222.061714a147.6608 147.6608 0 0 0-146.870857-148.333714z m-36.864 716.507429H213.284571a37.010286 37.010286 0 0 1 0-74.020572h597.723429a37.010286 37.010286 0 0 1 0 74.020572z m0-195.145143H213.284571a37.010286 37.010286 0 0 1 0-74.020572h597.723429a37.010286 37.010286 0 0 1 0 74.020572z m0-221.769143H213.284571a37.010286 37.010286 0 0 1 0-74.020572h597.723429a37.010286 37.010286 0 0 1 0 74.020572z" fill="#46484A" p-id="4564"></path></svg>