<svg xmlns="http://www.w3.org/2000/svg" width="19" height="19" viewBox="0 0 19 19">
  <g transform="translate(0.5 0.5)">
    <path class="a" style="fill:rgba(228,228,228,0.2);stroke:#888996;" d="M9,0A9,9,0,1,1,0,9,9,9,0,0,1,9,0Z"/>
    <path class="b" style="fill:#888996;"
          d="M24.47,24.8V21.78h3.016a.5.5,0,0,0,0-1.005H24.47V17.759a.5.5,0,0,0-1.005,0v3.016H20.449a.5.5,0,0,0,0,1.005h3.016V24.8a.5.5,0,0,0,1.005.044q0-.022,0-.044Z"
          transform="translate(-14.966 -12.299)"/>
  </g>
</svg>