<?xml version="1.0" standalone="no"?><!DOCTYPE svg PUBLIC "-//W3C//DTD SVG 1.1//EN" "http://www.w3.org/Graphics/SVG/1.1/DTD/svg11.dtd"><svg t="1652521681540" class="icon" viewBox="0 0 1509 1024" version="1.1" xmlns="http://www.w3.org/2000/svg" p-id="4155" xmlns:xlink="http://www.w3.org/1999/xlink" width="70.734375" height="48"><defs><style type="text/css"></style></defs><path d="M1125.4827372 405.52513371l158.03399304-181.13997633a35.12733849 35.12733849 0 0 1 37.5081922-3.35661208 36.49340182 36.49340182 0 0 1 19.51518781 32.74648551v516.87927245a36.84467547 36.84467547 0 0 1-19.51518781 32.74648551 35.12733849 35.12733849 0 0 1-37.5081922-3.39564266l-158.03399304-181.29609715a73.76741136 73.76741136 0 0 1-28.68732683-58.54556488V464.07069787a73.4941981 73.4941981 0 0 1 28.68732683-58.54556416zM1034.42486949 162.79522349a70.72304162 70.72304162 0 0 0-50.73948917-21.46670673H319.46643727A72.40134803 72.40134803 0 0 0 247.88472751 214.54950307v594.94002443A72.40134803 72.40134803 0 0 0 319.46643727 882.78857422h664.37506459a70.68401107 70.68401107 0 0 0 50.73948918-21.4276769 74.15771484 74.15771484 0 0 0 20.99834211-51.79330869V214.54950307a73.92353288 73.92353288 0 0 0-21.15446366-51.75427958z m-217.24307392 385.38593524l-254.82932655 173.5680833a37.23497896 37.23497896 0 0 1-55.93052922-32.94163762v-347.37034855a46.83645133 46.83645133 0 0 1 55.93052922-42.9334142l254.82932655 173.60711386a47.73415001 47.73415001 0 0 1 0 76.07020321z" fill="#36425A" p-id="4156"></path></svg>