<svg xmlns="http://www.w3.org/2000/svg" width="130" height="130" viewBox="0 0 130 130">
  <g id="客服" transform="translate(14122 7473)">
    <g id="组_5773" data-name="组 5773" transform="translate(-14216.279 -7556.499)">
      <path id="路径_3602" data-name="路径 3602" d="M176.17,772.249a108.415,108.415,0,0,1,12.6,3.676c5.041,1.838,10,3.859,14.992,5.8A3.652,3.652,0,0,1,206,783.854a88.938,88.938,0,0,1,4.778,14.545c.525,2.127.945,4.28,1.286,6.433a2.4,2.4,0,0,1,.026.446h-32.11a.762.762,0,0,1,.053-.63.8.8,0,0,0-.315-1c-1.759-1.391-3.492-2.836-5.251-4.227-.919-.735-1-.814-.079-1.6a32.817,32.817,0,0,0,8.113-10.712c.551-1.076,1.1-2.127,1.575-3.229a.889.889,0,0,0-.053-.919,56.586,56.586,0,0,0-6.091-8.454c-.525-.6-1.1-1.155-1.628-1.733-.131-.131-.42-.263-.131-.525Zm-69.891,33a23.815,23.815,0,0,1,.683-4.28,92.86,92.86,0,0,1,5.093-16.488c.893-2.074.893-2.074,2.941-2.888,5.566-2.205,11.132-4.49,16.8-6.432,2.678-.919,5.409-1.654,8.139-2.363.21-.079.263.026.21.21a1.673,1.673,0,0,1-.263.473,54.652,54.652,0,0,0-5.986,10.765.819.819,0,0,0,.053.814,71.453,71.453,0,0,0,6.327,8.507c1.286,1.444,2.52,2.941,3.728,4.463.446.551.42.683-.158,1.129-1.47,1.129-2.914,2.284-4.385,3.387a1.12,1.12,0,0,0-.5,1.418c.131.42.394.84.21,1.286Z" transform="translate(0 -594.842)" fill="#232424"/>
      <path id="路径_3603" data-name="路径 3603" d="M319.886,767.731c-.158-.6-.289-1.208-.473-1.785a.583.583,0,0,1,.236-.735c1.654-1.26,3.282-2.547,4.936-3.833.289-.236.394-.341.105-.709-2.205-2.7-4.595-5.277-6.7-8.06-1.26-1.654-2.389-3.361-3.518-5.094a.716.716,0,0,1-.053-.788,55.909,55.909,0,0,1,6.2-11.08c.052-.079.42-.21.052-.368a1.922,1.922,0,0,0,.893-.814c.919-1.182,1.917-2.284,2.914-3.387.5-.578,1.05-1.1,1.549-1.654a1.1,1.1,0,0,1,.473-.368c.184.184-.079.42.105.6.158.236-.052.394-.158.578a20.061,20.061,0,0,0-1.5,3.124,1.459,1.459,0,0,0-.026,1.1,30.179,30.179,0,0,0,2.415,5.7,2.865,2.865,0,0,1,.289.709,46.648,46.648,0,0,0,2.7,9.557,101.124,101.124,0,0,0,9.005,16.672c.131.21.341.394.263.683C333.013,767.731,326.45,767.731,319.886,767.731Zm37.02-33c-.053.21.131.263.236.368a54.372,54.372,0,0,1,7.877,10.423.65.65,0,0,1,.079.656,47.411,47.411,0,0,1-6.328,10.66,28.4,28.4,0,0,1-3.886,3.859c-.289.236-.394.368-.026.683,1.864,1.5,3.728,2.993,5.592,4.516.814.683.709.394.446,1.418a2.465,2.465,0,0,1-.158.394H341.021c-.079-.341.184-.525.341-.761a45.988,45.988,0,0,0,4.1-6.354,39.922,39.922,0,0,0,3.649-10.318c.6-2.783,1.024-5.592,1.365-8.428a2.494,2.494,0,0,1,.446-.919,35.139,35.139,0,0,0,3.151-5.881,1.023,1.023,0,0,0-.079-1.024c-.683-1.1-1.418-2.179-2.1-3.308-.105-.184-.289-.341-.158-.578a4.669,4.669,0,0,1,1.234,1.024c1.129,1.076,2.389,2.048,3.439,3.229.131.184.341.21.5.341Z" transform="translate(-180.735 -557.322)" fill="#15c39a"/>
      <path id="路径_3604" data-name="路径 3604" d="M437.55,797.1a76.074,76.074,0,0,1-1.155,7.667,40.664,40.664,0,0,1-8.454,18.221h-1.418c-4.385-6.7-8.375-13.6-10.817-21.293a34.49,34.49,0,0,1-1.287-5.592c.315-.052.394.21.5.394a33.415,33.415,0,0,0,4.91,5.8c.446.42.473.42.709-.158a33.71,33.71,0,0,1,5.881-9.163c.368-.42.578-.42.971.026a13.288,13.288,0,0,1,2,3.1,24.179,24.179,0,0,1,1.575,5.7c.105.6.105.6.63.263a22.619,22.619,0,0,0,5.435-4.8c.131-.158.21-.394.5-.289v.052a.1.1,0,0,1,.026.079Z" transform="translate(-267.681 -612.582)" fill="#fefefe"/>
      <path id="路径_3605" data-name="路径 3605" d="M323.384,367.627a39.043,39.043,0,0,1-8.533-8.612,38.326,38.326,0,0,1-4.621-9.137l-.236-.551a.715.715,0,0,1-.21-.263,35.671,35.671,0,0,1-1.181-4.043.3.3,0,0,1,.026-.21c.026-.052.079-.079.105-.105.079,0,.105.053.158.105-.026-.105-.105-.184-.131-.289a26.608,26.608,0,0,1-.341-6.616,10.837,10.837,0,0,1,1.707-5.934,20.7,20.7,0,0,1,3.019-3.046,47.754,47.754,0,0,0,5.986-5.986,16.233,16.233,0,0,0,2.547-5.3c.158-.578.21-.6.656-.446,1.313,1.313,2.626,2.652,4.043,3.86a24.361,24.361,0,0,0,9.163,4.7,6.88,6.88,0,0,0,1.05.289c1.654.473,3.334.814,4.988,1.234a64.286,64.286,0,0,1,6.669,1.864,1.24,1.24,0,0,1,.709.368c.053.131-.026.236-.131.315a2.626,2.626,0,0,1-.788.158c-2.022.315-4.017.761-6.012,1.26a3.822,3.822,0,0,0-1.392.578c-.184.158-.394.315-.341.578a.649.649,0,0,0,.551.473,3.558,3.558,0,0,0,1.89-.053,28.814,28.814,0,0,1,6.485-1.365,7.4,7.4,0,0,1,2.153.184,11.58,11.58,0,0,1,3.492,1.129,12.032,12.032,0,0,1,3.754,5.093,6.284,6.284,0,0,1,.5,2.6,53.539,53.539,0,0,1-1.549,6.984,13.547,13.547,0,0,1-.525,1.759,43.836,43.836,0,0,1-4.568,10.187,19.035,19.035,0,0,1-2.941,3.676c-.184.184-.368.42-.683.394a6.95,6.95,0,0,0-2.836-.394c-1.549-.079-3.072-.158-4.621-.131a2.142,2.142,0,1,0,.105,4.28,9.294,9.294,0,0,1,2.258.236c.158.368-.158.446-.341.551a35.342,35.342,0,0,1-6.144,3.282,10.387,10.387,0,0,1-6.616.184A23.155,23.155,0,0,1,323.8,368.2a5.5,5.5,0,0,1-.42-.578Z" transform="translate(-175.543 -199.461)" fill="#fed1bd"/>
      <path id="路径_3606" data-name="路径 3606" d="M237.114,196.288a8.3,8.3,0,0,1-2.547.105,2.451,2.451,0,0,1-2.153-2.074,1.307,1.307,0,0,0-.656-1.076,5.666,5.666,0,0,1-.026-9.452,1.122,1.122,0,0,0,.656-1,2.417,2.417,0,0,1,1.129-2.074.475.475,0,0,0,.21-.525,32.2,32.2,0,0,1,.026-5.277,28.081,28.081,0,0,1,.525-4.91,36.044,36.044,0,0,1,8.349-16.724,30.552,30.552,0,0,1,6.354-5.409,28.569,28.569,0,0,1,5.356-2.731,22.625,22.625,0,0,1,4.385-1.234c.263-.079.525-.105.761-.184a26.866,26.866,0,0,1,16.121,2.205,23.526,23.526,0,0,1,2.547,1.339c.158.052.289.21.446.263a32.494,32.494,0,0,1,11.421,12.209,38.151,38.151,0,0,1,4.1,11.867.894.894,0,0,1,.026.263,33.811,33.811,0,0,1,.446,6.511,5.076,5.076,0,0,1-.158,1.076c-.026.735-.026.735.735.761a2.517,2.517,0,0,1,2.442,2.494.964.964,0,0,0,.5.919,5.625,5.625,0,0,1,2.127,7.273c-.079.158-.21.315-.105.5a5.5,5.5,0,0,1-1.076,1.365.262.262,0,0,1-.131.105,2.792,2.792,0,0,0-1.339,1.838,2.465,2.465,0,0,1-2.389,1.785h-1.26a2.77,2.77,0,0,1-2.862-3.019c0-1.707-.053-3.413.026-5.12a3.879,3.879,0,0,0-.026-.551c-.026-.656-.026-1.339,0-2a17.77,17.77,0,0,0,0-2.048,3.619,3.619,0,0,1,1.523-3.492,1.024,1.024,0,0,0,.158-.735,37.954,37.954,0,0,0-3.308-15.569,10.873,10.873,0,0,0-1.129-2.284,31.306,31.306,0,0,0-4.306-6.117,28.82,28.82,0,0,0-7.588-6.091,25.385,25.385,0,0,0-9.321-2.993,24.633,24.633,0,0,0-12.6,1.812,26.642,26.642,0,0,0-8.139,5.33,32.778,32.778,0,0,0-7.036,9.662,36.159,36.159,0,0,0-3.308,11.657,40.849,40.849,0,0,0-.21,4.385c0,.42.079.709.578.683a2.519,2.519,0,0,1,1.05.289,2.919,2.919,0,0,1,1.549,2.731q.039,4.1,0,8.192c-.052.735.026,1.47,0,2.205a3.205,3.205,0,0,1-.735,2.153,1.4,1.4,0,0,1-1.129.709Z" transform="translate(-106.785 -48.496)" fill="#343434"/>
      <path id="路径_3607" data-name="路径 3607" d="M419.171,726.2c-.184-.131-.21.079-.263.158a22.664,22.664,0,0,1-5.96,5.225c-.289.184-.394.157-.446-.21a22.634,22.634,0,0,0-1.707-6.3,11.914,11.914,0,0,0-1.969-2.967c-.184-.236-.341-.263-.551,0a44.279,44.279,0,0,0-3.571,4.7,30.926,30.926,0,0,0-2.442,4.726c-.236.6-.289.6-.735.184a35.714,35.714,0,0,1-5.225-6.2c-.079-.105-.158-.184-.236-.289a40.026,40.026,0,0,1-2.31-5.067c-.683-1.943-.683-1.943.158-3.807a20.044,20.044,0,0,1,1.26-2.337c.394-.5.814-1,1.208-1.523.184-.236.315-.236.473,0,.341.079.473.394.656.63a23.638,23.638,0,0,0,4.91,5.067,34.968,34.968,0,0,0,5.225,2.914.956.956,0,0,0,.919-.052,25.518,25.518,0,0,0,4.883-3.256,15.175,15.175,0,0,0,2.941-3.886,26.368,26.368,0,0,0,1.208-2.442c.079-.184.105-.446.394-.42.761,1.155,1.549,2.337,2.31,3.492.84,1.313,1.654,2.625,2.494,3.938a.72.72,0,0,1,.079.788,32.778,32.778,0,0,1-3.334,6.2,2.754,2.754,0,0,0-.368.735Z" transform="translate(-249.302 -541.676)" fill="#e8e8e8"/>
      <path id="路径_3608" data-name="路径 3608" d="M441.553,702.393a.838.838,0,0,0-.236.42,19.162,19.162,0,0,1-3.938,6.2A17.634,17.634,0,0,1,433.151,712a1.88,1.88,0,0,0-.394.21,1.822,1.822,0,0,1-2.337.052,36.1,36.1,0,0,1-4.962-2.914,24.846,24.846,0,0,1-4.49-4.752c-.184-.236-.368-.5-.551-.735a22.382,22.382,0,0,0,.315-2.626,22.876,22.876,0,0,0,7.719,3.728,9.622,9.622,0,0,0,5.382.026,24.85,24.85,0,0,0,5.33-2.547c.683-.42,1.391-.84,2.048-1.313a.08.08,0,0,1,.1,0,7.1,7.1,0,0,0,.236,1.26Z" transform="translate(-272.892 -533.046)" fill="#fbc5a6"/>
      <path id="路径_3609" data-name="路径 3609" d="M387.533,95.465c-.184.158-.446.053-.656.184a1.411,1.411,0,0,1-.263-1.024,8.709,8.709,0,0,1,.525-3.466,3.147,3.147,0,0,0,.21-.735,10.583,10.583,0,0,0-3.6,2.468,4.525,4.525,0,0,0-1.313,3.965,31.738,31.738,0,0,0-5.225,2.7.593.593,0,0,1-.525-.42,10.234,10.234,0,0,1,6.853-10.213,21.287,21.287,0,0,1,6.406-1.339,25.706,25.706,0,0,1,8.612.683,11.578,11.578,0,0,1,6.616,4.28,8.33,8.33,0,0,1,1.575,3.544,9.166,9.166,0,0,1,.079,2.678c-.026.184-.026.368-.184.473a3.888,3.888,0,0,0-.341-.21,1.43,1.43,0,0,1-.341-.788,10.538,10.538,0,0,0-1.864-4.175,8.921,8.921,0,0,0-6.432-3.439c-2.179-.21-4.358-.263-6.564-.368a1.026,1.026,0,0,0-1.076.63c-.683,1.313-1.365,2.6-2.048,3.912-.158.236-.315.42-.446.656Z" transform="translate(-234.887)" fill="#631c08"/>
      <path id="路径_3610" data-name="路径 3610" d="M547.274,535.348h-.1c-.788-.026-1.549-.079-2.337-.105a2.342,2.342,0,1,1,.105-4.673c2.022.052,4.07.131,6.091.21a2.935,2.935,0,0,1,1.313.473c.446,0,.6.368.761.683a.865.865,0,0,0,.893.525,33.779,33.779,0,0,0,13.1-2.153,26.339,26.339,0,0,0,5.435-2.731,9.5,9.5,0,0,0,4.122-6.039,7.563,7.563,0,0,0-1.943-7.141,12.511,12.511,0,0,0-3.177-2.442c-.21-.105-.446-.184-.5-.446.42-.368.63-.919,1.129-1.208,3.177,1.6,5.776,3.754,6.616,7.4a9.418,9.418,0,0,1-1.917,7.929,15.891,15.891,0,0,1-6.669,4.989,38.489,38.489,0,0,1-10.423,2.783,56.578,56.578,0,0,1-6.327.525.481.481,0,0,0-.473.289,2.524,2.524,0,0,1-2.31,1.26C549.532,535.426,548.4,535.3,547.274,535.348Z" transform="translate(-378.85 -367.287)" fill="#2b2b2b"/>
      <path id="路径_3611" data-name="路径 3611" d="M308.2,156.12c.026-1.05.158-2.1.105-3.151a4.127,4.127,0,0,1,.289,1.68.756.756,0,0,0,.473.735,30.824,30.824,0,0,1,8.323,5.986,21.028,21.028,0,0,1,5.487,10.318,58.774,58.774,0,0,1,1.1,6.721c.131,1.313.289,2.626.315,3.938-.263,0-.263-.21-.289-.394-.105-.6-.21-1.208-.368-1.785a42.919,42.919,0,0,0-1.759-6.721,35.22,35.22,0,0,0-5.934-10.5,31.55,31.55,0,0,0-7.745-6.826Zm-29.931-.1c.184.131.42.21.525.42a32.915,32.915,0,0,0-6.275,5.33,35.212,35.212,0,0,0-5.487,8.192,36.056,36.056,0,0,0-3.177,10.213c-.158,1.05-.21,2.1-.394,3.151,0-1.917-.131-3.833,0-5.75a26.693,26.693,0,0,1,2.284-8.848,25.03,25.03,0,0,1,5.592-8.034,22.414,22.414,0,0,1,6.669-4.542.49.49,0,0,0,.263-.131Z" transform="translate(-136.494 -56.875)" fill="#732611"/>
      <path id="路径_3612" data-name="路径 3612" d="M289.443,513.863a2.806,2.806,0,0,0,1.6-2.862c-.026-.709,0-1.392,0-2.1h.052a5.134,5.134,0,0,1,1.26,2.494,5.682,5.682,0,0,0,.368,1.759c.263.945.551,1.864.84,2.809A5.451,5.451,0,0,1,289.443,513.863Z" transform="translate(-159.114 -366.071)" fill="#fbc5a6"/>
      <path id="路径_3613" data-name="路径 3613" d="M722.359,360.33c.341.683.315,1.47.63,2.179.158,1.392.105,2.809.131,4.227a2.677,2.677,0,0,1-.341,1.339V365.24a28.223,28.223,0,0,0-.42-4.463Z" transform="translate(-535.188 -237.008)" fill="#621d09"/>
      <path id="路径_3614" data-name="路径 3614" d="M452.009,225.887a2.9,2.9,0,0,0-1.523,2.888c.026.814,0,1.628,0,2.442-.315.053-.42-.236-.551-.42-1-1.392-2.048-2.757-3.124-4.1a7.594,7.594,0,0,0-3.177-2.284,36.951,36.951,0,0,0-6.275-1.707c-1.654-.341-3.308-.525-4.962-.893a.311.311,0,0,0-.263.026c-1.68-.394-3.387-.735-5.041-1.26a59.549,59.549,0,0,1-8.139-6.59,22.546,22.546,0,0,1-4.227-6.039,24.828,24.828,0,0,1-1.89-4.857,7.68,7.68,0,0,1-.263-1.05c-.131-.63.079-.84.735-.761,1.155.131,2.31.263,3.466.42,2.731.368,5.435.84,8.139,1.418a27.689,27.689,0,0,1,9.032,3.912,75.286,75.286,0,0,1,8.533,6.485,29.269,29.269,0,0,1,3.282,3.151c-1.549-1.628-3.229-3.492-4.962-5.33-1.785-1.89-3.571-3.807-5.514-5.566-1.313-1.208-2.6-2.415-4.017-3.518a27.843,27.843,0,0,0-12.629-5.645,4.609,4.609,0,0,1-1.024-.158c-.105-.053-.263-.079-.263-.236s.158-.158.289-.184a14.59,14.59,0,0,1,1.838-.21,18.219,18.219,0,0,1,2.389-.131c.919.026,1.812-.131,2.7-.131a25.428,25.428,0,0,1,10.187,1.864,30.859,30.859,0,0,1,7.693,4.962,47.722,47.722,0,0,1,5.225,5.33c-.079-.21-.131-.394.026-.578a7.556,7.556,0,0,1,1.1,2.205c-.289-.079-.289-.079-.42-.21.263.84.525,1.733.788,2.652a64.574,64.574,0,0,1,2.625,10.134,15.416,15.416,0,0,1,.21,3.965Z" transform="translate(-266.046 -93.875)" fill="#732611"/>
      <path id="路径_3615" data-name="路径 3615" d="M330.393,181.318c-.053.341.263.63.184,1.076-.866-1.05-1.759-2-2.652-2.967a40.277,40.277,0,0,0-3.072-2.914,29.39,29.39,0,0,0-4.253-3.1,22.834,22.834,0,0,0-8.585-3.2c-1-.131-1.969-.184-2.967-.236a18.956,18.956,0,0,0-2.1-.079c-2.258.131-4.542.131-6.931.5,1.1.236,2.1.341,3.1.578a28.679,28.679,0,0,1,11.421,5.671c1.181.971,2.31,1.969,3.413,3.019,1.024.971,2.048,1.943,3.019,2.967,2.179,2.284,4.358,4.542,6.406,6.931.525.6,1.05,1.155,1.628,1.785-.263.026-.315-.131-.394-.236a84.568,84.568,0,0,0-7.877-6.8A52.94,52.94,0,0,0,313.9,179.8a27.577,27.577,0,0,0-7.982-2.7c-2.153-.446-4.332-.761-6.511-1.076-1.181-.184-2.363-.315-3.544-.446-.5-.053-.6.053-.473.551a25,25,0,0,0,9.242,14.519c1.654,1.365,3.387,2.652,5.12,3.912.079.053.158.105.052.21a24.183,24.183,0,0,1-9.531-4.411,30.066,30.066,0,0,1-4.7-4.437,16.906,16.906,0,0,1-2.993-4.752c-.315-.683-.6-1.365-.919-2.022-.184-.394-.394-.446-.761-.21a33.949,33.949,0,0,0-3.676,2.7,17.559,17.559,0,0,0-4.175,4.831,22.151,22.151,0,0,0-2.022,5.277,62.008,62.008,0,0,0-1.523,7.614.883.883,0,0,1-.289.735,3.577,3.577,0,0,0-1.286-.21c-.341.026-.368-.184-.368-.446a35.583,35.583,0,0,1,.893-8.822,34.6,34.6,0,0,1,3.2-8.743,32.549,32.549,0,0,1,5.2-7.325,28.252,28.252,0,0,1,8.664-6.327,24.353,24.353,0,0,1,7.8-2.205,21.911,21.911,0,0,1,3.466-.184,26.6,26.6,0,0,1,9.662,2.205,28.473,28.473,0,0,1,8.953,6.38,31.537,31.537,0,0,1,4.8,6.538c.105.079.131.236.184.368Z" transform="translate(-148.788 -68.026)" fill="#631c08"/>
      <path id="路径_3616" data-name="路径 3616" d="M290.243,283.711a63.629,63.629,0,0,1,1.418-7.614,22.288,22.288,0,0,1,2.836-7.063,20.073,20.073,0,0,1,4.253-4.437c1.05-.814,2.127-1.628,3.256-2.337.368-.236.525-.158.683.21.5,1.1,1,2.179,1.5,3.256a18.5,18.5,0,0,0,2.179,3.492.767.767,0,0,1,.184.315c-.368-.394-.368.026-.42.21a16.078,16.078,0,0,1-3.676,6.8c-1.523,1.68-3.229,3.177-4.91,4.7-.5.473-1,.945-1.523,1.392a9.353,9.353,0,0,0-3.1,6.485,32.781,32.781,0,0,0,.236,7.693c.026.105-.026.131-.131.131H293c-.446-.84-.866-1.654-1.313-2.494,0-2.757.026-5.514,0-8.3a2.556,2.556,0,0,0-1.444-2.442Z" transform="translate(-159.809 -151.698)" fill="#732611"/>
      <path id="路径_3617" data-name="路径 3617" d="M392.057,476.6a8.459,8.459,0,0,1-8.585.394c-.42-.21-.814-.446-1.234-.656-.236-.131-.263-.263-.21-.525.131-.6.42-1.155.578-1.733A5.531,5.531,0,0,1,384.574,472c.184-.131.368-.236.578-.052.105.263-.079.5-.158.735a3.179,3.179,0,0,0,1.129,3.676,3.127,3.127,0,0,0,3.912-.263,3.2,3.2,0,0,0,.551-3.991c-.105-.184-.289-.341-.289-.578.184-.21.394-.158.6-.079A5.817,5.817,0,0,1,393.947,474a.75.75,0,0,1-.131,1.05C393.185,475.572,392.792,476.281,392.057,476.6Zm-23.525-1.733c.079-.026.158-.236.263,0a7.064,7.064,0,0,1,.446,1.444c.053.236-.131.315-.289.394a9.663,9.663,0,0,1-7.588,1.208,7.574,7.574,0,0,1-1.654-.683l-1.181-.63a15.731,15.731,0,0,1-1.418-1.549.715.715,0,0,1-.079-.893,5.89,5.89,0,0,1,3.571-2.547.318.318,0,0,1,.341.079c.131.341-.184.473-.341.683a3.1,3.1,0,0,0,.709,4.726,3.262,3.262,0,0,0,3.991-.525,3.124,3.124,0,0,0,.263-3.912c-.131-.184-.341-.341-.341-.6.236-.236.473-.1.683.026A6.4,6.4,0,0,1,368.532,474.863Z" transform="translate(-217.724 -333.478)" fill="#fefefe"/>
      <path id="路径_3618" data-name="路径 3618" d="M564.861,415.353a12.291,12.291,0,0,0-8.087-.945,32.9,32.9,0,0,0-3.833,1,3.737,3.737,0,0,1-2.074.131.881.881,0,0,1-.761-.6c-.079-.394.21-.63.5-.814a5.511,5.511,0,0,1,2.022-.735,45.98,45.98,0,0,1,6.249-1.181,1.125,1.125,0,0,1,.42-.131,5.233,5.233,0,0,1,4.516,1.733,12.552,12.552,0,0,1,1.155,1.208C565.176,415.222,565.124,415.3,564.861,415.353Z" transform="translate(-385.54 -281.923)" fill="#421103"/>
      <path id="路径_3619" data-name="路径 3619" d="M574.676,400.5c.263-.052.105-.158.026-.236a14.337,14.337,0,0,0-2.573-2.31,4.032,4.032,0,0,0-2.284-.6h-.761c-.105-.079-.263-.053-.315-.184a69.894,69.894,0,0,0-7.378-2.127c.368-.236.761,0,1.1.052a48.714,48.714,0,0,1,10.423,2.337,8.52,8.52,0,0,1,3.7,2.809c1.1,1.365,2.074,2.809,3.151,4.175v2.022a7,7,0,0,1-.6,1.812.32.32,0,0,1-.236.21c-.184-.131-.026-.341-.131-.473a9.841,9.841,0,0,0-2.415-5.7c-.5-.63-1.129-1.181-1.707-1.785Z" transform="translate(-395.355 -267.072)" fill="#631c08"/>
      <path id="路径_3620" data-name="路径 3620" d="M345.549,419.984c-1.129-.131-2.179-.63-3.308-.84-1.076-.184-2.127-.394-3.229-.473a11.264,11.264,0,0,0-4.988,1.024c-.236.079-.473.184-.709.263a.325.325,0,0,0-.079-.052c1.47-1.864,3.019-3.439,5.7-3.177a53.971,53.971,0,0,1,6.774,1.26,2.73,2.73,0,0,1,1.47.866.508.508,0,0,1,0,.735,1.363,1.363,0,0,1-1.155.5A3.053,3.053,0,0,1,345.549,419.984Zm18.956,4.437c-.394,0-.63.315-.919.525-.63.446-1.024,1.1-1.6,1.6a4.97,4.97,0,0,1,1.575-2.6,6.4,6.4,0,0,1,5.382-1.549,7.054,7.054,0,0,1,4.7,2.337A4.057,4.057,0,0,0,376,425.971a12.932,12.932,0,0,1-4.542,3.124c.6-.6,1.208-1.234,1.812-1.838a.388.388,0,0,0,.105-.341A5.268,5.268,0,0,0,369.73,424a10.462,10.462,0,0,1-1.575-.315,5.235,5.235,0,0,0-3.151.578c-.158.079-.315.21-.5.158Zm-16.541,2.941a10.61,10.61,0,0,0-2.022-2.179c-.394-.263-.709-.656-1.26-.656-.42.026-.735-.236-1.129-.315a5.908,5.908,0,0,0-2.626,0c-.21.052-.42.131-.6-.026a5.678,5.678,0,0,0-3.7,2.415.629.629,0,0,0,.052.893,6.058,6.058,0,0,1,1.26,1.575,12.59,12.59,0,0,1-4.017-3.177c.079-.158.263-.105.394-.131a4.462,4.462,0,0,0,2.205-1.208,7.667,7.667,0,0,1,7.64-1.47A5.519,5.519,0,0,1,347.964,427.362Z" transform="translate(-197.157 -285.977)" fill="#421103"/>
      <path id="路径_3621" data-name="路径 3621" d="M680.441,484.054c.026.131.079.236.1.368,0,.026.026.026.052.026.263-.656.551-1.286.814-1.943,0,1.89.026,3.754,0,5.645a3.018,3.018,0,0,0,.945,2.389,5.99,5.99,0,0,1-3.991,2.415c.473-1.838.971-3.649,1.418-5.487A30.1,30.1,0,0,0,680.441,484.054Z" transform="translate(-496.972 -343.142)" fill="#fbc5a6"/>
      <path id="路径_3622" data-name="路径 3622" d="M461.61,644.216a18.659,18.659,0,0,0,10.187-.341c-.394,1.234-2.284,2.494-4.175,2.7C465.233,646.815,463.133,646.29,461.61,644.216Z" transform="translate(-308.675 -483.323)" fill="#ee3e45"/>
      <path id="路径_3623" data-name="路径 3623" d="M427.017,434.418a3.159,3.159,0,0,0,1-.131c.446-.158.735-.446.6-.971a4.866,4.866,0,0,1,2.494,2.363,22.876,22.876,0,0,1,1.759,5.409,1.586,1.586,0,0,1,.079,1.208c-.315-.656-.709-1.286-.971-1.943a10.789,10.789,0,0,0-4.883-5.829.141.141,0,0,0-.079-.105Z" transform="translate(-278.625 -300.411)" fill="#fdbba1"/>
      <path id="路径_3624" data-name="路径 3624" d="M479.56,597.483a5.688,5.688,0,0,1-3.938,1.733,3.911,3.911,0,0,1-2.914-1.339c-.079-.079-.236-.158-.131-.315.105-.131.236-.026.341,0,.21.079.42.131.6.21a5.014,5.014,0,0,0,3.544.263c.788-.157,1.549-.341,2.494-.551Z" transform="translate(-318.171 -443.023)" fill="#fdbba2"/>
      <path id="路径_3625" data-name="路径 3625" d="M485.475,566.883a6.4,6.4,0,0,1-.079,1.733c-.158.5-.341.525-.709.158-.394-.394-.263-.866-.289-1.339.026-.026.053-.053.053-.079C484.5,566.568,484.766,566.463,485.475,566.883Z" transform="translate(-328.471 -416.23)" fill="#fee5d9"/>
      <path id="路径_3626" data-name="路径 3626" d="M484.16,553.187a6.574,6.574,0,0,1,.105-1.444c.026-.236.053-.446.315-.473a.568.568,0,0,1,.6.368,3.313,3.313,0,0,1,.079,1.024c-.053.079-.105.21-.236.21-.341-.053-.578.157-.866.315Z" transform="translate(-328.259 -402.875)" fill="#fed6c5"/>
      <path id="路径_3627" data-name="路径 3627" d="M484.205,562.241c.1-.341.21-.656.683-.446.105.052.263-.052.394-.105v.866h-.1c-.473-.079-.945-.158-.971.551C484.231,562.819,484.205,562.53,484.205,562.241Z" transform="translate(-328.304 -411.929)" fill="#fedfd2"/>
      <path id="路径_3628" data-name="路径 3628" d="M616.884,411.92a.487.487,0,0,1,.315.184h-.42A1.51,1.51,0,0,0,616.884,411.92Z" transform="translate(-443.471 -281.825)" fill="#ab7864"/>
      <path id="路径_3629" data-name="路径 3629" d="M311.839,526.828l.131-.131c.105.105.105.21.079.394A.312.312,0,0,1,311.839,526.828Z" transform="translate(-178.57 -381.531)" fill="#a3604b"/>
      <path id="路径_3630" data-name="路径 3630" d="M423.738,112.388c-.105-.079-.079-.184-.026-.289.814-1.549,1.654-3.1,2.468-4.647a.672.672,0,0,1,.735-.42c2.1.079,4.227.184,6.328.315a10.566,10.566,0,0,1,3.912.945,9.139,9.139,0,0,1,4.962,6.222c.131.473.21.945.341,1.418a31.111,31.111,0,0,0-6.354-2.783,28.528,28.528,0,0,0-5.566-1.05,33.382,33.382,0,0,0-3.623-.079c-1.05.079-2.1.236-3.177.368Zm-5.12,1.392a2.627,2.627,0,0,1,.184-2.6c1.05-2.1,2.914-3.2,5.041-4.2-.21.919-.551,1.654-.709,2.442a10.393,10.393,0,0,0-.053,3.124,23.683,23.683,0,0,0-3.991,1.1,3.172,3.172,0,0,1-.473.131Z" transform="translate(-271.092 -16.923)" fill="#732611"/>
      <path id="路径_3631" data-name="路径 3631" d="M262.849,441.03v-5.54c0-.394.053-.761.6-.788.5-.026.709.21.709.656v11.316a.582.582,0,0,1-.683.656c-.473,0-.63-.289-.63-.709V441.03Zm61.1-.053V435.49c0-.394.052-.761.6-.788.5-.026.709.21.709.683V446.7a.582.582,0,0,1-.683.656.615.615,0,0,1-.63-.709v-5.671Z" transform="translate(-136.012 -301.614)" fill="#545454"/>
      <path id="路径_3632" data-name="路径 3632" d="M686.584,311.524a35.5,35.5,0,0,0-.919-6.643c-.525-2.6-1.444-5.094-2.179-7.614-.289-1.024-.6-2.048-.919-3.124.341.263.446.656.761.84a12.236,12.236,0,0,1,1.05,2.415,36.516,36.516,0,0,1,2,8.349,48.9,48.9,0,0,1,.315,5.2c0,.21.052.42-.105.578Z" transform="translate(-500.621 -179.512)" fill="#631c08"/>
      <path id="路径_3633" data-name="路径 3633" d="M402.859,469.281a4.658,4.658,0,0,1,3.6-.893,3.181,3.181,0,0,1,1.628.473,3.341,3.341,0,0,1,.158,4.332,3.3,3.3,0,0,1-5.645-3.282c.079-.236.184-.42.263-.63Zm-24.181-.21a5.812,5.812,0,0,1,2.127-.315,3.716,3.716,0,0,1,2.232.656,3.247,3.247,0,0,1,.63,3.965,3.367,3.367,0,0,1-3.649,1.654,3.324,3.324,0,0,1-2.626-3.072,3.222,3.222,0,0,1,.945-2.468C378.494,469.36,378.7,469.308,378.678,469.071Z" transform="translate(-235.51 -330.837)" fill="#161515"/>
      <path id="路径_3634" data-name="路径 3634" d="M429.01,475.21a1.109,1.109,0,0,1,1.1-1.1,1.093,1.093,0,0,1,1.076,1.129,1.132,1.132,0,0,1-1.129,1.1A1.089,1.089,0,0,1,429.01,475.21Zm-22.789.578a1.127,1.127,0,0,1-1.076,1.129,1.093,1.093,0,0,1-1.129-1.076,1.1,1.1,0,0,1,2.205-.052Z" transform="translate(-258.642 -335.847)" fill="#fdfdfd"/>
    </g>
    <rect id="矩形_2050" data-name="矩形 2050" width="130" height="130" transform="translate(-14122 -7473)" fill="none"/>
  </g>
</svg>
