<svg xmlns="http://www.w3.org/2000/svg" width="50" height="50" viewBox="0 0 50 50">
  <g id="EV" transform="translate(19424 -10587.175)">
    <circle id="椭圆_49" data-name="椭圆 49" cx="25" cy="25" r="25" transform="translate(-19424 10587.175)" fill="#6e8eb2"/>
    <path id="路径_2076" data-name="路径 2076" d="M-9.2-2.93l6.094-16.289A3.319,3.319,0,0,1,.059-21.68,3.69,3.69,0,0,1,3.34-19.219L9.2-2.93a7.493,7.493,0,0,0,.234,1.172Q9.316,0,7.324,0A2.076,2.076,0,0,1,5.1-1.406l-.82-2.812h-8.32L-4.98-1.406A2.2,2.2,0,0,1-7.207,0,1.835,1.835,0,0,1-9.316-1.875V-2.7A.338.338,0,0,0-9.2-2.93ZM.059-16.992-2.754-8.32H2.871Z" transform="translate(-19399.684 10622.854)" fill="#fff"/>
  </g>
</svg>
