<svg xmlns="http://www.w3.org/2000/svg" width="30" height="30" viewBox="0 0 30 30">
  <g id="Created_by_me" data-name="Created by me" transform="translate(-83 -325)">
    <circle id="椭圆_49" data-name="椭圆 49"  style="fill: #00a859" class="cls-1" cx="15" cy="15" r="15" transform="translate(83 325)"/>
    <path id="路径_545" data-name="路径 545" style="fill: #fff" class="cls-2" d="M81.427,7.178h2.552a.507.507,0,0,0,.45-.3.678.678,0,0,0-.075-.533L81.8,3.978a.458.458,0,0,0-.525-.076.418.418,0,0,0-.3.457V6.721C80.9,7.025,81.127,7.178,81.427,7.178Zm3.228,1.067H80.827a1.018,1.018,0,0,1-1.051-.991V3.673a.5.5,0,0,0-.526-.457H73.471a1.521,1.521,0,0,0-1.576,1.448V17.692a1.583,1.583,0,0,0,1.576,1.524H83.6a1.534,1.534,0,0,0,1.576-1.524V8.7C85.18,8.4,84.955,8.245,84.655,8.245Zm-2.477,5.943a.676.676,0,0,1-.525.229H79.476v2.057a.546.546,0,0,1-.225.457.718.718,0,0,1-1.051,0,.662.662,0,0,1-.225-.457V14.416H75.948a.677.677,0,0,1-.526-.229.663.663,0,0,1-.225-.457.7.7,0,0,1,.751-.686h2.177V10.987a.7.7,0,0,1,.75-.686.745.745,0,0,1,.751.686v2.057H81.8a.745.745,0,0,1,.751.686C82.4,13.883,82.328,14.035,82.178,14.187Zm0,0" transform="translate(20.105 328.784)"/>
  </g>
</svg>
