<svg xmlns="http://www.w3.org/2000/svg" width="30" height="30" viewBox="0 0 30 30">
  <g id="Popular" transform="translate(-83 -575)">
    <circle id="椭圆_49" data-name="椭圆 49" style="fill: #ff2b8c" class="cls-1" cx="15" cy="15" r="15" transform="translate(83 575)"/>
    <path id="路径_554" data-name="路径 554" style="fill: #fff" class="cls-2" d="M250.774,138.286a4.043,4.043,0,0,1,.334-4.683,7.61,7.61,0,0,0,1.114-2.62,2.977,2.977,0,0,1,.446,2.341,6.158,6.158,0,0,0,1.281-4.46,7.7,7.7,0,0,1,2.395,9.366c8.576-4.906,2.116-12.209,1-12.99a2.625,2.625,0,0,1-.334,2.9c-1.281-4.906-4.455-5.854-4.455-5.854.39,2.509-1.337,5.24-3.007,7.3a5.3,5.3,0,0,0-.668-2.676c-.111,1.84-1.5,3.289-1.894,5.129-.5,2.509.39,4.293,3.787,6.244" transform="translate(-155.857 459.714)"/>
  </g>
</svg>
