<svg xmlns="http://www.w3.org/2000/svg" width="30" height="30" viewBox="0 0 30 30">
  <g id="Shared" transform="translate(-83 -445)">
    <circle id="椭圆_49" data-name="椭圆 49" style="fill: #15c39a" class="cls-1" cx="15" cy="15" r="15" transform="translate(83 445)"/>
    <g id="组_957" data-name="组 957" style="fill: #fff" transform="translate(48.766 409.571)">
      <path id="路径_547" data-name="路径 547" class="cls-2" d="M556.2,411.431a7.021,7.021,0,0,0,.974-.223,6.393,6.393,0,0,0,3.906-3.488c.068-.143.025-.18-.11-.217-.374-.1-.745-.217-1.116-.332a.387.387,0,0,1-.168-.692q1.9-1.8,3.8-3.6a.392.392,0,0,1,.685.213q.587,2.544,1.165,5.091c.085.377-.16.59-.533.477-.351-.107-.706-.2-1.051-.329-.168-.061-.221-.013-.285.136a8.881,8.881,0,0,1-4.612,4.73,7.16,7.16,0,0,1-.853.328c-.048.015-.088.058-.138-.02a22.262,22.262,0,0,0-1.417-1.772C556.365,411.635,556.285,411.541,556.2,411.431Z" transform="translate(-505.92 -354.577)"/>
      <path id="路径_548" data-name="路径 548" class="cls-2" d="M385.276,49.071a6.463,6.463,0,0,0-.523-1.394,6.3,6.3,0,0,0-3.594-3.08c-.15-.053-.209-.031-.252.128-.106.388-.23.77-.35,1.153a.412.412,0,0,1-.748.171q-1.741-1.9-3.475-3.8a.394.394,0,0,1,.23-.708l4.961-1.079c.047-.01.1-.019.143-.026a.365.365,0,0,1,.416.478c-.109.358-.222.715-.346,1.068-.05.141-.036.192.12.245a8.774,8.774,0,0,1,5.364,4.909c.076.169.065.247-.117.311a1.185,1.185,0,0,0-.409.282q-.625.6-1.252,1.2C385.4,48.968,385.344,49.011,385.276,49.071Z" transform="translate(-329.751 0)"/>
      <path id="路径_549" data-name="路径 549" class="cls-2" d="M47.587,144.7a6.6,6.6,0,0,0-1.838.917,6.4,6.4,0,0,0-2.164,2.694c-.059.137-.032.169.106.2.353.072.7.162,1.053.246a.392.392,0,0,1,.213.684q-1.8,1.9-3.6,3.8a.392.392,0,0,1-.7-.182q-.707-2.533-1.405-5.068a.366.366,0,0,1,.444-.469c.413.092.825.187,1.234.3.145.039.2.006.254-.134a8.732,8.732,0,0,1,4.432-4.863.211.211,0,0,1,.3.062C46.46,143.488,47.015,144.083,47.587,144.7Z" transform="translate(0 -100.166)"/>
      <path id="路径_550" data-name="路径 550" class="cls-2" d="M135.635,586.871a6.348,6.348,0,0,0,3.348,4.159c.155.081.205.041.258-.108.117-.333.248-.661.38-.989a.374.374,0,0,1,.681-.116q1.656,2,3.307,4c.272.33.15.619-.278.688l-5.056.82c-.048.008-.1.013-.145.017a.377.377,0,0,1-.412-.537q.224-.6.472-1.2c.051-.123.031-.17-.092-.228a8.854,8.854,0,0,1-4.425-4.531c-.065-.144-.054-.2.1-.229a.857.857,0,0,0,.427-.285q.634-.663,1.269-1.326C135.52,586.96,135.554,586.9,135.635,586.871Z" transform="translate(-92.386 -534.77)"/>
    </g>
  </g>
</svg>
