<svg xmlns="http://www.w3.org/2000/svg" width="30" height="30" viewBox="0 0 30 30">
  <g id="Subscribes" transform="translate(-83 -525)">
    <circle id="椭圆_49" data-name="椭圆 49" style="fill: #299df7" class="cls-1" cx="15" cy="15" r="15" transform="translate(83 525)"/>
    <path id="路径_553" data-name="路径 553" style="fill: #fff" class="cls-2" d="M69.333,0a1.778,1.778,0,0,1,1.778,1.778V14.6A1.412,1.412,0,0,1,69.689,16a1.431,1.431,0,0,1-.636-.149l-4.736-2.328a.717.717,0,0,0-.636,0l-4.736,2.328a1.461,1.461,0,0,1-.636.149,1.412,1.412,0,0,1-1.422-1.4V1.778A1.778,1.778,0,0,1,58.667,0ZM64.321,3.466a.37.37,0,0,0-.642,0l-1.2,2.081-2.333.51a.376.376,0,0,0-.2.616L61.537,8l-.24,2.355a.372.372,0,0,0,.519.381L64,9.765l2.184.971a.372.372,0,0,0,.519-.381L66.463,8l1.59-1.326a.376.376,0,0,0-.2-.616l-2.333-.51Z" transform="translate(34.111 532)"/>
  </g>
</svg>
