<svg xmlns="http://www.w3.org/2000/svg" width="36" height="36" viewBox="0 0 36 36">
  <g id="shanchu_icon" transform="translate(-1232 -228)">
    <rect id="矩形_1860" data-name="矩形 1860" width="36" height="36" transform="translate(1232 228)" fill="none"/>
    <path id="路径_2120" data-name="路径 2120" d="M47.18,28.955l.095,0a1.27,1.27,0,0,1,1.186,1.258l0,.095L47.346,46.994a3.811,3.811,0,0,1-3.656,3.555l-.146,0H27.971a3.811,3.811,0,0,1-3.79-3.412l-.013-.145L23.057,30.31a1.27,1.27,0,0,1,2.525-.264l.01.095L26.7,46.825a1.27,1.27,0,0,0,1.169,1.181l.1,0H43.543A1.27,1.27,0,0,0,44.8,46.924l.01-.1,1.112-16.684a1.27,1.27,0,0,1,1.258-1.186Zm-14.6,3.811a1.27,1.27,0,0,1,1.267,1.175l0,.1v7.622a1.27,1.27,0,0,1-2.538.1l0-.1V34.037a1.27,1.27,0,0,1,1.27-1.27Zm6.352,0A1.27,1.27,0,0,1,40.2,33.942l0,.1v7.622a1.27,1.27,0,0,1-2.538.1l0-.1V34.037a1.27,1.27,0,0,1,1.27-1.27Zm-1.27-11.433A3.811,3.811,0,0,1,41.471,25l0,.143H49.1a1.27,1.27,0,0,1,.1,2.538l-.1,0H22.418a1.27,1.27,0,0,1-.1-2.538l.1,0h7.622a3.811,3.811,0,0,1,3.668-3.809l.143,0Zm0,2.541H33.852a1.27,1.27,0,0,0-1.267,1.175l0,.1h6.352a1.27,1.27,0,0,0-1.175-1.267l-.1,0Z" transform="translate(1213.858 209.667)" fill="#182552"/>
  </g>
</svg>
