<svg xmlns="http://www.w3.org/2000/svg" width="88" height="88" viewBox="0 0 88 88">
  <defs>
    <style>.a{fill:#15c39a;}.b{fill:#fff;}</style>
  </defs>
  <g transform="translate(-11227.424 3867.576)">
    <rect class="a" width="88" height="88" rx="44" transform="translate(11227.424 -3867.576)"/>
    <path class="b"
          d="M28.5,57.853h-.1a.208.208,0,0,0-.033,0h-.142s-.007,0-.009,0h-.147s0,0,0,0h-.116l-.011,0h-.034l-.011,0h-.077c-.005,0-.006,0-.01,0h-.078a.019.019,0,0,1-.01,0h-.065a.093.093,0,0,1-.023,0h-.01c-.017,0-.029,0-.044,0h-.012a28.209,28.209,0,0,1-6.376-1,1.651,1.651,0,0,1-.32-.119,1.865,1.865,0,0,1,1.305-3.476A24.989,24.989,0,0,0,49.059,43.7l-5.588-5v0s0,0,0,0a.009.009,0,0,0-.006.008h0s0,.005-.005.007a0,0,0,0,0,0,0,.052.052,0,0,0-.011.016h0a.05.05,0,0,1,0,.007.016.016,0,0,1-.006.007h0a.019.019,0,0,1-.006.009v0a.023.023,0,0,0,0,.008h0s0,.006,0,.006a.005.005,0,0,1,0,0s0,0,0,.006,0,0,0,0,0,0-.005.006a0,0,0,0,1,0,0s0,.006,0,.009v0l0,.006s0,0,0,0l0,.006h0s0,.005,0,.008l0,0s0,0,0,.005v0a.053.053,0,0,0-.006.009,0,0,0,0,0,0,0,.007.007,0,0,0,0,.006s0,0,0,0,0,0-.006.007h0s0,0,0,.007,0,0,0,0a.009.009,0,0,1-.005,0v0l-.005.006s0,0,0,0a.021.021,0,0,0,0,.008.018.018,0,0,0-.005.007h0a.065.065,0,0,1,0,.008.041.041,0,0,0-.005.008l0,0s0,0,0,.006,0,0,0,0l-.006.006v0a.012.012,0,0,0-.005.006v0a.018.018,0,0,1-.006.008s0,0,0,.007l0,0a.039.039,0,0,1,0,.008.012.012,0,0,0-.005.006s0,0,0,0a.009.009,0,0,0,0,.005v0s-.005.005-.006.008l0,0s0,0,0,.005,0,0,0,0a.044.044,0,0,0-.007.006v0a.014.014,0,0,0,0,.005,0,0,0,0,0,0,0l-.005.007h0s0,.006,0,.007,0,0,0,0l0,.005s0,0,0,0a.026.026,0,0,0,0,.007h0l0,.006s0,0,0,0a.014.014,0,0,1,0,.007,0,0,0,0,0,0,0s0,0,0,.006v0s0,0-.006.005v0a.007.007,0,0,0,0,.006s0,0,0,0a.021.021,0,0,0,0,.008h0s0,.005,0,.006l0,0s0,0-.005.006,0,.005-.005.006v0l-.006.006v0a.038.038,0,0,0,0,.006s0,0,0,0,0,.005-.005.006v0a.018.018,0,0,0-.005.008h0a.009.009,0,0,1,0,.005s0,0,0,0a.047.047,0,0,1-.005.009v0s0,0,0,.006,0,0,0,0a.139.139,0,0,0-.011.015s0,0,0,0l-.005.007h0l0,.009h0s0,0-.005,0v0a.035.035,0,0,1,0,.008h0s0,.005,0,.005,0,0,0,0a.021.021,0,0,0-.005.008h0l0,.007,0,0a.071.071,0,0,0-.011.016h0a.05.05,0,0,1,0,.007h0a.05.05,0,0,1,0,.007l0,0a.031.031,0,0,0,0,.007l-.006.007s0,0,0,0l0,.007h0l-.005.009h0a.031.031,0,0,1,0,.007h0c0,.006-.008.011-.011.016l0,0,0,0s0,0,0,0a.016.016,0,0,0,0,.007v0a.009.009,0,0,0,0,.006h0a.021.021,0,0,1-.005.007s0,0,0,0,0,0,0,.006l0,0a.016.016,0,0,1-.005.007s0,0,0,0l0,.005s0,0,0,0a.012.012,0,0,1-.005.008h0s0,.005-.005.006h0l-.006.007h0a.082.082,0,0,0,0,.007s0,0,0,0,0,0,0,.005,0,0,0,0l-.006.006,0,0s0,0,0,.006v0a.016.016,0,0,0-.006.007h0a.01.01,0,0,0-.006.007h0s-.005.005-.006.008-.005,0-.006.007v0l0,.005s0,0,0,0l-.005.008h0s0,.005-.005.006h0a.015.015,0,0,1-.005.007v0s0,0,0,.006h0s0,0-.005.005v0a.007.007,0,0,0,0,.005s0,0,0,0l-.007.008s0,0,0,.007h0l0,.008h0s0,.005-.006.007v0s0,0,0,.006h0s0,0,0,.007l0,0s0,0,0,.005v0l0,0,0,0s0,0,0,.007h0s-.005,0-.006.009h0a.005.005,0,0,1,0,0v0l-.007.006v0a.015.015,0,0,0-.005.009h0s0,0-.005.006h0a.025.025,0,0,0,0,.009h0a.015.015,0,0,1-.005.006s0,0,0,0a.017.017,0,0,1-.005.006v0s0,0,0,0,0,0,0,0l0,.007s0,.005-.006.005,0,0,0,0a.155.155,0,0,1-.011.015h0a.012.012,0,0,0-.005.006h0a.014.014,0,0,1,0,.009h0s0,.006,0,.006l0,0s-.005,0-.005.006a0,0,0,0,1,0,0s0,0,0,.006,0,0,0,0a.009.009,0,0,0-.005.005l0,0s0,0-.005.006h0c0,.007-.007.011-.011.017h0l-.006.005v0s0,.005-.006.007h0s0,0,0,0,0,0,0,0l0,.005v0l0,.007,0,0-.005.006-.007.009h0l-.01.015h0s0,.005,0,.005l0,0,0,0s0,0,0,0,0,0-.005.007a.014.014,0,0,0-.006.006h0s0,.006,0,.006,0,0,0,0a.014.014,0,0,1,0,.007h0s0,.005-.005.006,0,0,0,0a.1.1,0,0,1-.012.015h0l0,.006,0,0,0,.005v0a.035.035,0,0,0-.006.008s-.005,0-.006.006v0s-.005,0-.006.006l0,0,0,.006h0s0,.005,0,.008h0s0,.006-.005.008v0a.019.019,0,0,0-.006,0h0a.143.143,0,0,1-.011.017v0l-.006.005h0l-.005.006s0,0,0,0,0,0,0,.007h0s0,.007-.006.007v0a.011.011,0,0,1-.006.006s0,0,0,0l0,.009h0s0,0,0,.005,0,0,0,0l-.007.006a.021.021,0,0,1-.005.008l0,0s0,0-.005.005h0a.016.016,0,0,0,0,.006l0,0s0,.005,0,.007,0,0,0,0l-.005.005,0,0a.038.038,0,0,1,0,.006h0s0,.005-.006.01h0l0,0,0,0,0,.006s0,0-.005.007l0,0s0,0,0,.005h0a.039.039,0,0,1,0,.008h0l0,.007h0s0,.006-.006.006v0s-.005,0-.005.006h0s0,.005,0,.01h0l-.005,0s0,0,0,0,0,0,0,.006a.044.044,0,0,0-.006.007v0s0,0,0,.005h0s0,0-.007.006,0,0,0,0,0,0,0,0h0a.018.018,0,0,1,0,.007s0,0,0,0a.014.014,0,0,0,0,.006h0a.1.1,0,0,0-.006.01h0a.009.009,0,0,0,0,0h0a.055.055,0,0,0-.012.016h0a.012.012,0,0,0-.006.007h0s0,0,0,.007,0,0,0,0l-.006.006h0a.014.014,0,0,0-.005.007h0l-.007.006v0s0,0-.007.008h0s0,0,0,.007h0c-.005,0-.007.01-.011.014l0,0s0,0,0,.007h0a.009.009,0,0,1-.006,0v0s0,0,0,0h0s0,0,0,.009h0l-.005.005h0s-.005,0-.006.008v0s0,0-.006.005v0l-.013.013h0s-.006.005-.006.007v0s0,0-.006.005h0s0,0,0,.006v0s0,0,0,.007,0,0,0,0-.005,0-.005,0l0,0a.022.022,0,0,0-.007.006s0,0-.005.008h0a.024.024,0,0,0-.006.007h0a.02.02,0,0,0-.006.006s0,0,0,0,0,0-.005.006l0,0s0,0-.005.006h0a.008.008,0,0,1-.005.005s0,0,0,0,0,0,0,.006l0,0s-.005,0-.005.006,0,0,0,0-.005,0-.006.005,0,.006-.007.006v0l-.011.013h0a.044.044,0,0,0-.007.006h0a.017.017,0,0,1,0,.008s0,0,0,0a.007.007,0,0,0,0,.006.01.01,0,0,0-.006.006,0,0,0,0,0,0,0s0,0-.007.006v0l-.006.006h0a.014.014,0,0,0-.005.007h0l-.006.005,0,0a.008.008,0,0,1,0,.006v0a.009.009,0,0,0-.006,0,.021.021,0,0,0-.006.008v0a.027.027,0,0,1-.009,0v0a.039.039,0,0,0,0,.006h0a.012.012,0,0,0-.006.007h0s0,.006-.006.008h0l-.006.006v0a.057.057,0,0,0-.015.014h0s-.008.008-.011.013v0a.019.019,0,0,0-.006.005l0,0s0,.005,0,.006h0a.008.008,0,0,1,0,.006h0a.012.012,0,0,1-.006.007s0,0,0,0l0,0h0a.01.01,0,0,1-.006.007v0a.02.02,0,0,1-.006.005s0,0,0,0l-.011.011s0,0,0,0l-.005.006s0,0,0,0-.005,0-.006.006l0,0s0,0,0,.005h0s0,.006-.005.006l0,0,0,.006s0,0,0,0l-.012.012h0l-.012.016h0s0,0-.006.008l-.007.006a.011.011,0,0,1-.007.007h0l-.007.007-.005.007s0,0,0,0l-.005.005-.006.006,0,0a.049.049,0,0,0-.012.014h0l-.005,0a.057.057,0,0,0-.005.009h0l-.005.007s-.005,0-.006.007h0s0,0-.005.006h0s0,0-.005.008l-.006.006s0,0,0,0-.009.008-.013.012v0a.08.08,0,0,0-.011.014h0l-.006.007-.006.007h0s0,0-.006.007h0l-.005.008s-.005,0-.006.006h0a.047.047,0,0,1-.013.013h0s0,.005-.006.007,0,0-.005.007h0s0,0-.005.007h0l-.005.005v0l-.007.006,0,0,0,0-.006.009a0,0,0,0,0,0,0s-.009.01-.014.011v0c-.005,0-.009.008-.013.011s0,0,0,0,0,0-.006,0v0s0,0-.006,0,0,0,0,0a.023.023,0,0,1-.005.007h0s-.005,0-.008.006a.006.006,0,0,1-.006,0v0l-.012.011v0c-.006,0-.011.006-.014.01h0c0,.006-.005.009-.006.009v0a.024.024,0,0,0-.007.006s-.005.006-.006.006l0,0s0,.006,0,.006-.005.006-.007.007h0a.1.1,0,0,1-.013.014.046.046,0,0,1-.014.015h0l-.006.006s0,0-.005.007l0,0-.005.006h0s0,0-.007.005,0,0-.005.007l0,0-.011.012s0,0,0,0a.068.068,0,0,0-.014.013h0a.091.091,0,0,1-.013.012v0a.011.011,0,0,1-.006.006s0,0-.007.008,0,.006-.006.006h0a.068.068,0,0,1-.013.014s-.009.011-.013.014h0c-.005.008-.008.012-.012.014h0s0,0-.005.008-.005,0-.008.006l0,0a.012.012,0,0,0,0,.007h0a.009.009,0,0,0-.006.005h0c0,.006,0,.006-.006.007h0a.057.057,0,0,1-.013.012l0,0-.006.006v0a.013.013,0,0,0-.007,0l-.007.007s-.005,0-.006.008h0s0,.006-.005.006-.009.009-.014.013h0s-.009.01-.013.014l0,0-.005,0s0,0-.007.008h0l-.006.007s0,.005-.007.006h0a.02.02,0,0,1,0,.006h0s-.005,0-.006.008h0l-.005.006,0,0s-.01.006-.011.013h0a.063.063,0,0,0-.013.013h0s0,0,0,.005v0s-.005,0-.008.006l-.007.007h0l-.012.012a.071.071,0,0,1-.014.014h0A.1.1,0,0,0,41,41.7s0,0,0,0,0,0,0,0a.032.032,0,0,1-.007.008h0l-.008.006v0l-.006.005a.024.024,0,0,1-.007.006h0c0,.005-.009.008-.014.014h0l-.013.014s0,0-.007.006a.019.019,0,0,0-.006.008h0l-.005.005h0l-.005.006h0s0,.005-.005.006v0s-.009.008-.013.012h0l-.013.014h0a.028.028,0,0,1-.006.005.03.03,0,0,0-.007.008l-.008.006v0l-.008.006-.005.005s0,0,0,0a.014.014,0,0,0-.006.006.024.024,0,0,1-.007.006h0a.082.082,0,0,1-.013.011v0a.022.022,0,0,0-.007.006s-.005,0-.006.005v0a.011.011,0,0,0-.006,0l-.008.008s0,.006-.007.006l-.008.008-.006.006h0l-.014.014h0l-.012.012s0,.005-.008.006v0s0,0-.006.006v0s0,0-.007,0h0a.063.063,0,0,1-.013.013h0a.159.159,0,0,0-.012.011v0s-.007,0-.009.006,0,0-.006.006,0,0,0,0l-.005,0v0a.014.014,0,0,0-.006.006h0a.009.009,0,0,0-.006,0s0,0,0,0l0,0a.019.019,0,0,1-.008.007h0l-.012.012,0,0s-.007.006-.011.012h0c-.005,0-.005,0-.011.007s0,0,0,.005l-.01.006h0s0,.005-.006.006l-.006.006s0,0,0,0a.094.094,0,0,0-.014.012v0a.054.054,0,0,0-.013.011l-.007.005v0a.016.016,0,0,0-.007.005l-.009.007v0l-.013.011h0c-.005,0-.009.01-.013.014h0a.09.09,0,0,0-.013.012h0l-.005.007h0l-.005.005v0l-.007,0v0l-.009.006-.006.006v0a.065.065,0,0,0-.015.011c0,.005-.011.01-.015.014a.118.118,0,0,1-.015.014l-.007.005a.088.088,0,0,1-.013.012h0a.047.047,0,0,0-.013.013h0l-.014.011h0l-.007.007-.006.005a0,0,0,0,1,0,0s0,0-.005.005h0s0,0-.006.006v0s-.005,0-.006,0,0,0,0,0l-.014.011h0a.1.1,0,0,1-.013.014h0s-.01.007-.013.011h0a.024.024,0,0,1-.006.005l0,0-.007.006h0a.013.013,0,0,1-.006.005h0a.081.081,0,0,1-.012.012l0,0-.013.011h0l-.015.011s0,0,0,0l-.006.005h0l-.006.006v0l-.007,0s0,0,0,0l-.005.006s0,0,0,0-.005,0-.006.005h0a.1.1,0,0,0-.015.012l0,0-.014.011-.005.007h0l-.008.006-.006.005h0l-.014.011a.065.065,0,0,1-.016.012v0a.059.059,0,0,0-.014.012l-.016.012c-.007.006-.014.014-.021.019s-.011.007-.015.011l-.015.012s0,0,0,0l-.009.006a.157.157,0,0,0-.015.012s0,0-.008.006,0,0-.005.005,0,0,0,0a.094.094,0,0,0-.014.012.111.111,0,0,0-.015.011.115.115,0,0,0-.016.013h0a.007.007,0,0,1-.006,0h0a.01.01,0,0,1-.007.007s-.005.005-.008.007l-.014.011a.1.1,0,0,1-.015.013l-.016.012h0l-.006.005s0,0,0,0a.054.054,0,0,1-.015.01l0,0a.063.063,0,0,0-.013.011.206.206,0,0,1-.015.014.039.039,0,0,0-.016.011h0a.016.016,0,0,1-.006.007h0a.029.029,0,0,1-.014.011.076.076,0,0,0-.016.014h0a.05.05,0,0,0-.014.01h0s-.005,0-.006.006l-.008.008-.007.005a.062.062,0,0,0-.017.012s-.009.008-.014.011a.117.117,0,0,0-.015.014h0s-.009.01-.014.01a.021.021,0,0,1-.008.006.015.015,0,0,1-.008.005l-.007.009h0a.037.037,0,0,1-.015.01v0c-.005.005-.01.011-.015.011s0,0,0,0a.028.028,0,0,0-.013.011h0a.007.007,0,0,1-.005,0h0s0,.006-.007.006,0,0-.007.006v0a.078.078,0,0,0-.015.011h0a.041.041,0,0,1-.013.011v0a.106.106,0,0,1-.015.01h0a.015.015,0,0,0-.007.005h0s0,0,0,.006h0l-.007.008-.007,0-.008.005-.016.011a.107.107,0,0,1-.015.013.034.034,0,0,0-.015.012s-.006,0-.009,0h0l-.015.012c-.005,0-.009.008-.015.011l-.016.011-.007.005-.007.007h0s-.005,0-.007.006h0s-.005,0-.009.006,0,0-.007.006a.044.044,0,0,0-.015.01v0a.062.062,0,0,0-.016.011h0l-.008.006s-.005,0-.006,0,0,0,0,0l-.008,0s0,0-.007.005l-.008.005s0,0,0,0a.066.066,0,0,0-.012.01,0,0,0,0,0,0,0,.055.055,0,0,0-.014.009l0,0a.013.013,0,0,0,0,.005.031.031,0,0,0-.01.006l-.007,0,0,0s0,0-.006,0v0s-.005,0-.008,0h0s-.011.008-.014.011h0a.108.108,0,0,1-.014.012.082.082,0,0,1-.017.01s0,0,0,0l-.006,0-.014.012h0c-.005,0-.01.008-.015.01v0a.05.05,0,0,0-.015.011h0a.04.04,0,0,1-.015.01v0a.044.044,0,0,1-.017.011s0,.005-.006.005L39,43.368l-.017.011h0a.071.071,0,0,1-.014.011s0,0-.008,0h0l-.007.006h0s0,0,0,.005h0s-.005.005-.008.005l-.006.006,0,0-.014.01h0a.115.115,0,0,1-.014.012l-.008,0v0a.008.008,0,0,0-.007,0h0a.011.011,0,0,1-.007,0v0l-.015.011h0a.045.045,0,0,1-.014.01l0,0s-.009.009-.014.011a.013.013,0,0,0-.009.005h0l-.006.006h0l-.007,0v0s-.007,0-.009.005a.015.015,0,0,0-.007.005h0a.05.05,0,0,0-.014.01h0s-.011.007-.015.011a0,0,0,0,1,0,0l-.015.011-.007,0v0l-.008,0-.008.006-.017.01v0l-.007,0-.007.005h0s0,0-.007.005l-.008,0s0,0,0,0l-.008,0a.034.034,0,0,1-.007.008l-.009,0h0l-.016.011h0a.061.061,0,0,0-.015.01.064.064,0,0,1-.017.01v0l-.007,0a.036.036,0,0,1-.01.006.009.009,0,0,1-.007.005h0a.021.021,0,0,0-.009,0h0s0,0-.006,0v0l-.016.011h0s0,0-.009.005a.015.015,0,0,0-.007.005h0l-.006,0h0a.038.038,0,0,0-.009.006h0l-.007,0s0,0,0,0a.043.043,0,0,0-.014.009h0a.189.189,0,0,0-.017.011h0l-.007,0s0,0-.007.005,0,0,0,0-.005,0-.006,0h0l-.007.005h0s0,0-.006,0v0l-.007,0s0,0,0,0,0,0-.006,0h0c-.006,0-.011.009-.015.011h0l-.007,0v0l-.009.005h0s0,0-.006,0v0a.019.019,0,0,0-.007.005h0s-.005,0-.006,0h0s-.006,0-.009,0h0l-.006,0s0,0,0,0l-.007,0-.007,0,0,0-.006,0h0l-.008.005h0l-.006,0h0l-.007.007h0l0,0h0s0,.005-.008.005h0a.013.013,0,0,0-.005,0h0a.038.038,0,0,1-.007.006s-.006,0-.007,0,0,0,0,0l0,0s0,0,0,0,0,0-.005,0,0,0,0,0a.008.008,0,0,0,0,0h0l-.005.005h0a.007.007,0,0,0-.006,0h0l-.005,0s0,0,0,0a.005.005,0,0,0,0,0h0a.008.008,0,0,1-.006,0s0,0,0,0l0,0s0,0,0,0l-.006,0s0,0,0,0,0,0-.007,0l0,0a.009.009,0,0,1-.007,0h0s0,0-.007,0v0l-.006,0h0s0,0-.007,0h0l-.006,0v0l-.008,0s0,0,0,0a.01.01,0,0,0-.006,0l0,0s0,0,0,0h0s-.005,0-.006,0,0,0,0,0l-.005,0s0,0,0,0l-.007.005,0,0s0,0,0,0h0a.019.019,0,0,0-.007.005h0l-.005,0,0,0-.005,0,0,0s0,0-.006,0,0,0,0,0l-.006,0h0a.013.013,0,0,1-.007,0h0a.014.014,0,0,0-.005.005h0l-.007,0,0,0-.006,0h0l-.007,0,0,0,0,0,0,0-.007,0v0a.013.013,0,0,0-.007,0s0,0,0,0,0,0-.006,0h0s0,0-.006.005h0l-.006,0s0,0,0,0l-.007,0s0,0,0,0a.007.007,0,0,0-.005,0s0,0,0,0l-.008,0h0a.008.008,0,0,1-.006,0h0l-.007.005s0,0,0,0,0,0-.006,0l0,0s0,0-.005,0,0,0,0,0l-.005,0,0,0-.005,0s0,0,0,0-.005,0-.006,0,0,0,0,0l-.005,0h0s0,0-.008,0l0,0,0,0s0,0,0,0l-.007,0h0s0,0-.005,0l0,0s0,0-.005,0a.006.006,0,0,0,0,0l0,0h0l0,0h0l-.006,0,0,0,0,0-.005,0s0,0-.006,0,0,0,0,0,0,0,0,0h0s0,0-.005,0,0,0,0,0,0,0,0,0l0,0a.006.006,0,0,1-.006,0h0l0,0s0,0,0,0h0s0,0,0,0h-.005l-.005,0s0,0,0,0h-.005s0,0-.006,0l0,0-.005,0s0,0,0,0,0,0,0,0h0s0,0-.005,0h0a.016.016,0,0,1-.005,0s0,0,0,0l-.005,0h0s0,0,0,0a.018.018,0,0,1-.008,0s0,0,0,0h0a.005.005,0,0,0,0,0l0,0s0,0,0,0l-.005,0h0l-.005,0a.005.005,0,0,0-.006,0,.007.007,0,0,0,0,0s0,0,0,0l0,0h0s0,0-.006,0a0,0,0,0,0,0,0h0s0,0,0,0l-.007,0h0s0,0-.006.005,0,0,0,0h0s-.005,0-.007,0l0,0,0,0s0,0,0,0h0a.021.021,0,0,0-.008.006h0s0,0,0,0h-.011s0,0,0,0H37.48s0,0,0,0-.005,0-.005,0,0,0,0,0l-.005,0,0,0s0,0-.007,0,0,0,0,0,0,0,0,0h0s0,0,0,0h0s0,0-.005,0,0,0,0,0,0,0-.006,0a0,0,0,0,1,0,0s-.005,0-.009.005h0s0,0,0,0h0l-.008,0a0,0,0,0,1,0,0l0,0s0,0,0,0l-.016.009h0a.066.066,0,0,0-.016.007s0,0,0,0l-.005,0s-.007,0-.011,0,0,0,0,0,0,0-.005,0h0l-.008,0h0s0,0-.005,0h0s-.007,0-.009.007h0s0,0,0,0h-.005l0,0s0,0,0,0l-.007,0s0,0,0,0h-.007s-.005,0-.009.008h0s0,0,0,0,0,0,0,0l-.008,0,0,0s0,0,0,0h0l-.01.006a.01.01,0,0,1-.006,0s0,0,0,0a.039.039,0,0,0-.016.011h0l-.005,0h0a.027.027,0,0,1-.008,0l0,0h-.006a.019.019,0,0,1-.011.007h0a0,0,0,0,1,0,0s0,0,0,0a.027.027,0,0,0-.012.006s0,0-.005,0h0a.082.082,0,0,1-.017.01h0c-.026.012-.049.026-.074.041h0a.032.032,0,0,1-.017.008v0a.175.175,0,0,1-.018.01l-.006,0h0a.071.071,0,0,0-.016.011c-.026.011-.051.026-.077.04h0c-.012.005-.023.012-.035.019-.493.255-.994.488-1.508.694a.107.107,0,0,1-.018.008.073.073,0,0,1-.019.007c-.008,0-.015.006-.025.011h0c-.006,0-.01.006-.016.006h0a.057.057,0,0,1-.017.008l0,0h-.005a.066.066,0,0,0-.011.005h0l-.005,0h0a.027.027,0,0,1-.011,0h0l-.005,0h0l-.011.005h-.007s0,0,0,0-.01,0-.018,0h0s0,0,0,0l-.011,0,0,0a0,0,0,0,0,0,0l0,0-.009,0h0s0,0,0,0h0a.014.014,0,0,0-.008,0h-.009l-.005,0h0s-.007,0-.009,0l0,0s0,0-.005,0,0,0,0,0l-.008,0h0s0,0-.005,0h0s-.005,0-.007,0l0,0h-.007s-.005,0-.006,0h-.005a4.553,4.553,0,0,1-.009,0l0,0h-.008s0,0,0,0,0,0,0,0h0l-.008,0,0,0H35s0,0,0,0l-.005,0,0,0s0,0-.005,0h0s0,0,0,0h-.005l0,0s0,0,0,0l0,0-.007,0s0,0,0,0h-.009l-.006,0h-.008s0,0,0,0l-.008,0s0,0,0,0h-.008l-.005,0h0a.007.007,0,0,0-.007,0h0l-.005,0h0s-.005,0-.007,0h-.008s0,0,0,0l-.007,0s0,0,0,0h-.006s0,0,0,0-.005,0-.006,0h-.009s0,0,0,0h-.007s0,0-.007,0,0,0,0,0H34.8v0l-.009,0h0s0,0-.006,0l0,0-.008,0s0,0,0,0h-.009s-.005,0-.007,0h0s0,0,0,0h0l-.008,0-.008,0s0,0,0,0h-.009s0,0-.007,0,0,0,0,0H34.7l-.008,0h0l-.007,0h0a.055.055,0,0,1-.017.006h0a.067.067,0,0,1-.016.005,0,0,0,0,0,0,0l-.007,0h0l-.007,0h0l-.007,0h0a.048.048,0,0,1-.01,0h0s0,0-.005,0h0l-.009,0h0s-.005,0-.009,0h0l-.016.006-.01,0-.008,0h0l-.005,0h0s0,0-.007,0l-.009,0h0l-.015.007h0l-.018.005a.091.091,0,0,1-.019.007.207.207,0,0,1-.026.011l-.016.005c-.006,0-.013,0-.021.005a.358.358,0,0,1-.043.015l-.019.006-.018.006v0a17.873,17.873,0,0,1-3.465.775h0l-.132.015h-.019a.076.076,0,0,1-.019,0l-.019,0h0c-.038,0-.076.007-.113.012l-.019,0h-.019s0,0,0,0a.043.043,0,0,0-.019,0h-.031a.046.046,0,0,0-.016,0l-.021,0a.06.06,0,0,1-.019,0H30.4a.012.012,0,0,0-.008,0h-.011a.063.063,0,0,1-.018,0h-.019l0,0a.06.06,0,0,0-.018,0H30.3l-.01,0h-.01a.039.039,0,0,0-.018,0h-.011s-.008,0-.009,0h-.01l-.009,0h-.029a.022.022,0,0,1-.011,0h-.01a.06.06,0,0,1-.018,0h-.041l-.006,0h-.012a.012.012,0,0,1-.007,0h-.032a.009.009,0,0,1-.007,0h-.011s-.006,0-.007,0H30a.01.01,0,0,0-.006,0h-.021l-.008,0h-.011l-.009,0h-.058a.007.007,0,0,0-.007,0h-.02l0,0h-.019s0,0-.007,0h-.046l0,0H29.76l-.007,0h-.078a.015.015,0,0,1-.009,0h-.018l0,0h-.028s0,0-.006,0h-.053s0,0-.005,0h-.039l0,0h-.1a.013.013,0,0,0-.008,0h-.046s0,0-.005,0H29.32s0,0-.005,0h-.1a.024.024,0,0,0-.011,0h-.045a.012.012,0,0,0-.008,0h-.181l-.008,0h-.413a.011.011,0,0,0-.006,0h-.176a.052.052,0,0,0-.018,0h-.039l-.007,0h-.108v0h-.04s0,0-.007,0h-.039a.076.076,0,0,0-.019,0H28a.045.045,0,0,0-.019,0h-.021l-.005,0h-.04a.049.049,0,0,1-.02,0h0a.313.313,0,0,1-.039,0h-.009l-.016,0h-.069l-.019,0h0l-.018,0H27.7a.063.063,0,0,1-.018,0h-.019l0,0-.039,0H27.57a.066.066,0,0,0-.019,0,.069.069,0,0,0-.019,0h-.007a.028.028,0,0,0-.011,0h-.029a.066.066,0,0,0-.018,0l-.008,0h-.033l-.007,0h-.012s0,0-.007,0H27.35l-.011,0h-.009l-.011,0h-.026a.016.016,0,0,0-.008,0h0l-.01,0h-.008c-.005,0-.011,0-.012,0h-.029a.06.06,0,0,0-.017,0h-.02l0,0h-.007a.021.021,0,0,1-.01,0h-.03a.03.03,0,0,0-.012,0,.011.011,0,0,1-.007,0h-.027a.026.026,0,0,0-.012,0h0s0,0,0,0H27.06l0,0h-.044v0H27l-.009,0h-.019a.011.011,0,0,1-.007,0h-.012a.008.008,0,0,0-.007,0H26.94a0,0,0,0,1,0,0H26.9a.007.007,0,0,1,0,0h-.009a.01.01,0,0,1-.006,0h-.02l-.01,0h-.005a.011.011,0,0,1-.007,0h-.017s-.006,0-.007,0H26.8c-.005,0-.01,0-.011,0h-.011a.008.008,0,0,0-.006,0l-.009,0h-.019l-.008,0h-.009a.007.007,0,0,0-.005,0H26.7l-.009,0-.01,0h-.026a.015.015,0,0,1-.007,0h-.011a.023.023,0,0,0-.01,0h-.009a.022.022,0,0,1-.011,0H26.6l0,0s-.005,0-.007,0h-.025s-.007,0-.007,0H26.54a.013.013,0,0,0-.008,0h0l-.008,0H26.51l-.009,0h-.007l0,0h-.018l0,0h-.007a.012.012,0,0,1-.008,0,.028.028,0,0,1-.011,0h-.031a1.866,1.866,0,0,1,.5-3.7,13.889,13.889,0,0,0,13.531-6.25c.206-.321.4-.65.581-.983a1.824,1.824,0,0,1,.559-.634,1.683,1.683,0,0,1,.184-.246,1.844,1.844,0,0,1,2.618-.155l8.346,7.463a1.872,1.872,0,0,1,.236,2.536,2.268,2.268,0,0,1-.131.239,28.539,28.539,0,0,1-3.806,4.695.625.625,0,0,1-.062.063h0s0,.006-.006.007h0a.294.294,0,0,1-.022.024h0a.023.023,0,0,0-.008.008h0s0,0-.007.008a.054.054,0,0,1-.014.014h0L48.9,49.6h0l-.005.005,0,0c0,.005-.009.01-.014.017h0a.01.01,0,0,0-.006.007h0s-.005,0-.006.006,0,0,0,0a.079.079,0,0,0-.016.014h0a.015.015,0,0,1,0,.005l0,0s-.006,0-.006.005,0,0,0,0,0,0-.005.006h0a.011.011,0,0,1-.007.008.021.021,0,0,1-.008.007s0,0,0,0,0,0-.005.006h0l-.005,0,0,0a.029.029,0,0,0-.008.007h0l-.009.006v0l-.007,0v0l-.007,0a.009.009,0,0,0,0,0,.02.02,0,0,0-.006.006s0,0,0,0l-.006.005a0,0,0,0,0,0,0l0,0s0,0,0,0,0,0,0,0l0,0s0,0,0,0a.085.085,0,0,0-.006.008l0,0s0,0,0,0a0,0,0,0,0,0,0l0,0v0l-.005,0,0,0a.018.018,0,0,1-.01.008s0,0,0,0,0,0,0,0,0,0,0,0l0,0s0,0,0,0,0,0,0,0,0,0-.005,0,0,0,0,0l-.006.006s0,0-.005,0v0s0,0,0,0,0,0-.005,0l0,0,0,0s0,0,0,.005a.008.008,0,0,0,0,0s-.005,0-.005.005,0,0,0,0a.005.005,0,0,0,0,.005s0,0,0,0,0,0-.005,0v0a.017.017,0,0,1-.008,0v0a.039.039,0,0,1-.011.009v0s0,0,0,0,0,0-.005,0a0,0,0,0,1,0,0l0,0s0,0,0,0,0,0,0,0-.006.005-.011.008v0l0,0s0,0,0,0l-.005,0s0,0,0,0a.022.022,0,0,0,0,.006l0,0a.046.046,0,0,0-.01.009h0l0,.005,0,0s0,0,0,.005,0,0,0,0,0,0,0,0l0,0c-.006,0-.012.011-.018.016l0,0a.009.009,0,0,0,0,0h0a.011.011,0,0,1-.006.006v0a.139.139,0,0,1-.017.016h0s0,0,0,0,0,0,0,0l0,0s0,0,0,0l0,0,0,0-.01.01,0,0s0,0,0,0l0,0,0,0,0,0s0,0,0,.006a.081.081,0,0,1-.019.016v0s0,0-.005,0l0,0s0,0-.006.005l-.025.023s0,.006-.008.007a.163.163,0,0,1-.025.025h0c-.523.482-1.059.946-1.611,1.387A28.408,28.408,0,0,1,42.9,54.118l-.077.042-.046.026h0l-.029.016-.015.009,0,0a.137.137,0,0,0-.029.016.312.312,0,0,0-.045.025h0a.232.232,0,0,1-.029.018.467.467,0,0,0-.046.026c-.017.009-.032.016-.046.025a.228.228,0,0,0-.03.017h0l-.029.017-.015.009h0a.305.305,0,0,1-.03.017l-.014.008h0l-.031.016v0l-.03.017a.059.059,0,0,0-.015.007.121.121,0,0,0-.03.017h0s-.008.006-.014.008-.01,0-.015.008l-.016.01h0l-.03.015h0a.049.049,0,0,1-.013.009h0a.186.186,0,0,0-.029.016h0a.246.246,0,0,1-.029.017c-.006,0-.011.007-.016.007s0,0,0,0l-.029.015h0l-.029.017c-.007,0-.011.006-.015.006s0,0,0,0-.019.011-.03.016h0l-.013.006h0c-.01,0-.019.011-.029.016l0,0a.313.313,0,0,1-.03.014h0c0,.005-.01.006-.016.01l-.029.015s0,0,0,0l-.014.006v0l-.014.006h0c-.005.005-.01.005-.013.009h0a.109.109,0,0,1-.028.015h0l-.015.009,0,0s-.008,0-.014.006a.045.045,0,0,0-.016.008h0l-.014.008h0l-.014.007,0,0s-.009,0-.013,0,0,0,0,0-.02.011-.03.014h0a.025.025,0,0,1-.015.008l-.014.009h0a.052.052,0,0,0-.016.007h0c-.01,0-.019.011-.028.015h0a.041.041,0,0,1-.015.008h0a.124.124,0,0,0-.028.015h0a.022.022,0,0,1-.015.007h0a.075.075,0,0,1-.013.008l0,0-.012.007h0l-.028.013s0,0,0,0a.039.039,0,0,0-.015.007v0a.03.03,0,0,0-.013.005h0a.052.052,0,0,1-.014.007v0a.148.148,0,0,0-.029.014h0l-.014.008h0l-.028.016h0l-.016.007h0a.043.043,0,0,1-.013.008.078.078,0,0,1-.015.007s0,0,0,0l-.028.013s0,0,0,0-.009,0-.014.008l-.018.006s-.009,0-.013.008h0a.034.034,0,0,1-.015.007L41.22,55h0a.07.07,0,0,1-.014.007h0c-.011.007-.021.011-.03.016h0l-.014.007h0l-.012.008h0a.077.077,0,0,0-.015.008h0l-.029.013s0,0,0,0a.084.084,0,0,0-.016.006v0c-.005,0-.009,0-.015.005l-.014.007,0,0-.03.014h0A.062.062,0,0,1,41,55.1h0a.054.054,0,0,1-.012.009h0a.048.048,0,0,1-.015.007h0l-.014.007h0l-.014.007h0a.062.062,0,0,1-.014.009h0a.239.239,0,0,0-.03.015h0a.105.105,0,0,0-.014.007l-.033.014v0l-.03.012h0l-.015.008v0l-.032.013h0l-.048.023h0l-.031.012s0,0,0,0a.031.031,0,0,1-.015.008c-.01,0-.02.011-.032.015h0l-.032.013v0l-.015.006h0a.258.258,0,0,1-.032.015l-.048.021a.133.133,0,0,1-.03.014h0l-.047.021h0c-.026.013-.051.026-.079.037-.468.2-.943.4-1.42.58-.358.137-.722.266-1.084.388-.026.009-.055.017-.081.026a.449.449,0,0,1-.052.017l-.033.011-.049.016h0a.267.267,0,0,0-.032.011h0l-.016,0h0a.161.161,0,0,1-.031.011h0a.059.059,0,0,1-.016.006.048.048,0,0,1-.015,0s0,0,0,0a.056.056,0,0,0-.015,0h0l-.032.011h0a.066.066,0,0,1-.014,0h0l-.015.005h0c-.006,0-.01,0-.014,0l0,0a.094.094,0,0,0-.029.009l0,0a.057.057,0,0,0-.015,0h0a.062.062,0,0,1-.012,0l0,0-.016,0,0,0-.014,0-.015.005h0l-.011,0h0a.042.042,0,0,1-.012,0h0l-.011.006h-.006a.035.035,0,0,0-.013.005h0s-.01,0-.011,0,0,0,0,0l-.014,0a.009.009,0,0,1-.005,0,.019.019,0,0,0-.012,0h0a.041.041,0,0,1-.012,0,0,0,0,0,0,0,0l-.014,0h0l-.014,0h0a.044.044,0,0,1-.014,0h0a.043.043,0,0,0-.016,0l0,0a.043.043,0,0,1-.012,0,.007.007,0,0,1,0,0,.02.02,0,0,0-.014,0h0l-.012,0h0a.03.03,0,0,1-.016,0s0,0,0,0l-.013.005h0a.023.023,0,0,0-.012,0h-.015l-.005,0-.014,0h0c-.005,0-.008,0-.012,0a.007.007,0,0,0,0,0c-.005,0-.011,0-.014.005h0a.029.029,0,0,1-.011,0h0a.046.046,0,0,1-.013,0s0,0,0,0l-.013,0h-.005l-.01,0h0a.019.019,0,0,1-.013,0s0,0-.005,0a.019.019,0,0,0-.012,0h0c-.005,0-.009,0-.014,0h0a.02.02,0,0,1-.013,0h0s-.007,0-.011.006h-.005a.115.115,0,0,1-.012,0h0a.03.03,0,0,1-.012,0l-.005,0s-.007,0-.011,0h-.005l-.013,0h0l-.011,0,0,0-.014,0s0,0,0,0a.017.017,0,0,0-.012.005h-.005a.016.016,0,0,0-.011,0h0a.037.037,0,0,1-.013,0s0,0-.005,0l-.011,0s0,0-.005,0a.022.022,0,0,1-.011,0,.006.006,0,0,1,0,0l-.014,0a0,0,0,0,0,0,0h-.01a.005.005,0,0,0-.005,0l-.013,0-.006,0s-.007,0-.011,0l-.005,0s-.007,0-.01.005h0a.1.1,0,0,1-.013,0h-.005a.021.021,0,0,1-.012,0s0,0,0,0a.021.021,0,0,0-.013,0h0a.03.03,0,0,0-.013,0h0c-.005,0-.007,0-.011,0a.007.007,0,0,0-.006,0h-.012a.007.007,0,0,1-.006,0H36.4l-.006,0a.016.016,0,0,1-.011,0h-.005s-.009,0-.012.005h-.015a.007.007,0,0,1-.005,0c-.005,0-.009,0-.013,0h-.005l-.01,0a.007.007,0,0,0-.007,0h-.017l-.012.007h0l-.011,0h-.005l-.013,0s0,0,0,0h-.019l-.011,0h0a.033.033,0,0,1-.012,0h-.007l-.011,0,0,0-.014,0,0,0s-.011,0-.011,0h-.006l-.011,0h0a.032.032,0,0,0-.013,0h0l-.013,0h0a.02.02,0,0,0-.011.005h0c-.005,0-.011,0-.012,0h-.006s-.007,0-.01,0h0l-.014,0s0,0,0,0l-.014,0s0,0,0,0a.018.018,0,0,0-.011,0s0,0-.005,0l-.012,0a.007.007,0,0,0-.006,0h-.011s0,0,0,0h-.018a.019.019,0,0,1-.011,0h-.006l-.008,0s-.005,0-.007,0l-.012,0s0,0-.005,0a.025.025,0,0,1-.011,0h-.007l-.011,0h0l-.014,0h0a.029.029,0,0,1-.011,0h0a.028.028,0,0,0-.014.006H35.8a.038.038,0,0,0-.012,0h-.005l-.01,0-.006,0-.011,0a.011.011,0,0,1-.007,0,.013.013,0,0,1-.008,0h-.009l-.009,0a.007.007,0,0,0-.006,0,.022.022,0,0,0-.011,0s-.005,0-.006,0-.007,0-.011,0h0l-.014,0h-.006a.037.037,0,0,1-.011,0h-.005l-.011,0s0,0-.006,0l-.011,0h-.006l-.01,0a.012.012,0,0,1-.009,0l-.008,0a.013.013,0,0,1-.008,0,.023.023,0,0,1-.013,0h0l-.011,0h0a.042.042,0,0,0-.015,0h0s-.01,0-.011,0h-.007a.037.037,0,0,1-.011,0s0,0-.006,0a.03.03,0,0,0-.013,0h-.015s0,0,0,0a.023.023,0,0,1-.013,0h0a.037.037,0,0,1-.013,0,0,0,0,0,1,0,0l-.011,0s0,0,0,0l-.014,0h0a.038.038,0,0,1-.012,0h-.005a.026.026,0,0,0-.012,0h0a.034.034,0,0,0-.014,0,.005.005,0,0,0-.005,0h-.01l0,0-.015,0s0,0,0,0l-.011,0h-.006a.022.022,0,0,1-.011,0h0l-.012,0h-.016l0,0-.014,0a.007.007,0,0,0,0,0l-.013,0h0l-.011,0h-.005l-.013,0h-.006a.021.021,0,0,1-.011,0s0,0,0,0l-.013,0,0,0-.012,0h-.007l-.011,0s0,0,0,0a.02.02,0,0,1-.012,0s0,0-.006,0l-.011,0h-.007s-.006,0-.011,0l-.005,0a.028.028,0,0,0-.012,0s0,0,0,0h-.011l0,0a.05.05,0,0,0-.013,0,.01.01,0,0,0-.006,0s-.007,0-.012,0h-.005a.054.054,0,0,0-.011,0h-.019s0,0,0,0l-.01,0s0,0-.006,0l-.011,0h-.007a.044.044,0,0,0-.011,0s0,0,0,0l-.011,0h-.005a.051.051,0,0,0-.012,0l-.005,0a.026.026,0,0,0-.012,0h0a.055.055,0,0,1-.012,0h0l-.014,0h0a.03.03,0,0,1-.011,0s0,0-.005,0l-.013,0s0,0-.005,0l-.013,0h0a.023.023,0,0,1-.01,0h-.006a.039.039,0,0,0-.013,0h-.005l-.011,0a.01.01,0,0,0-.006,0l-.011,0H34.7l-.013,0s0,0,0,0l-.011,0h-.006a.061.061,0,0,0-.011,0h-.006l-.012,0s0,0,0,0h-.016a.032.032,0,0,1-.014,0h0l-.011,0s0,0,0,0l-.014,0H34.56l-.012,0-.005,0-.011,0h0a.067.067,0,0,0-.014,0h-.019l-.013,0h-.005a.086.086,0,0,1-.014,0h0s-.007,0-.011,0h0l-.015,0h0l-.013,0h0a.024.024,0,0,1-.013,0h0a.024.024,0,0,0-.013,0h-.006l-.011,0h0l-.015,0s0,0,0,0l-.016,0h0a.029.029,0,0,0-.013,0h0l-.015,0h0l-.011,0h0a.055.055,0,0,1-.014,0l0,0a.049.049,0,0,0-.016,0h0a.117.117,0,0,1-.013,0h0l-.016,0a.007.007,0,0,0,0,0s-.009,0-.015,0a.046.046,0,0,1-.015,0s0,0,0,0-.007,0-.015,0h0a.066.066,0,0,0-.015,0h0l-.015,0,0,0-.014,0h0c-.006,0-.011,0-.015.005h0l-.014,0h0l-.029.007h0a.054.054,0,0,0-.016,0h0a.029.029,0,0,1-.015,0h0a.142.142,0,0,1-.018,0s0,0,0,0l-.017,0-.014,0h0l-.014,0h0l-.016,0h0l-.015,0h0a.118.118,0,0,1-.017,0h0l-.015,0s0,0,0,0h-.018a0,0,0,0,0,0,0h-.016a.068.068,0,0,1-.017,0,0,0,0,0,1,0,0h-.016v0a.093.093,0,0,0-.017,0h0l-.015,0h0a.1.1,0,0,0-.031.006h0a.044.044,0,0,1-.014,0h0a.16.16,0,0,0-.017,0h0a.046.046,0,0,0-.016,0h0a.052.052,0,0,0-.017,0h0l-.015,0h0a.13.13,0,0,0-.018,0h0l-.033,0h0a.092.092,0,0,0-.015,0h0l-.015,0h0l-.016,0h0l-.034,0-.017,0v0a.122.122,0,0,0-.033,0h0l-.034.005a.077.077,0,0,0-.017,0h0a.121.121,0,0,0-.034.005h0a.046.046,0,0,0-.016,0,.2.2,0,0,0-.034,0h0c-.011,0-.024,0-.033.007h0l-.017,0a.1.1,0,0,0-.034.007h0c-.016,0-.034,0-.051.006a.274.274,0,0,0-.034.006L33,57.538c-.92.138-1.852.23-2.787.279-.478.025-.96.039-1.445.039C28.679,57.856,28.59,57.856,28.5,57.853Zm0,0ZM16.168,54.922l-.011-.008-.011,0-.01,0s-.005,0-.011-.005l-.011-.006-.011-.005-.009,0-.011,0-.012-.005s-.005,0-.01-.005l-.01-.006s-.005,0-.011-.005l-.01,0-.011-.006-.011-.006-.01,0-.011-.005s-.007,0-.01,0l-.01-.005a.034.034,0,0,1-.01-.007.026.026,0,0,1-.013,0l-.01,0a.026.026,0,0,1-.01-.005s-.006,0-.011-.006l-.011,0-.01-.006s-.008,0-.011,0l-.011-.005a.168.168,0,0,0-.022-.011.013.013,0,0,1-.009-.005.054.054,0,0,1-.011,0,.008.008,0,0,1-.009-.005l-.013-.006-.009,0a.024.024,0,0,1-.011-.005l-.009,0c-.005,0-.008,0-.012-.007s-.007-.005-.01-.005-.008,0-.009,0l-.011-.006-.012,0s-.007-.006-.01-.006l-.01,0s-.007,0-.009,0a.017.017,0,0,0-.012-.007l-.011-.007s-.005,0-.008,0a.016.016,0,0,0-.009,0s-.009,0-.012-.006l-.011-.007a.04.04,0,0,1-.01,0l-.01-.008a.019.019,0,0,1-.01,0,.021.021,0,0,1-.011-.006.029.029,0,0,0-.012,0s-.005,0-.008-.006a.191.191,0,0,0-.023-.011.036.036,0,0,1-.009-.008.013.013,0,0,1-.011,0s-.005,0-.009,0a.015.015,0,0,1-.012-.006s-.006,0-.009,0l-.01-.006-.011,0a.028.028,0,0,0-.011-.006s0,0-.01-.005l-.011-.006s-.005,0-.009,0-.009,0-.012-.006a.033.033,0,0,1-.01,0s-.007,0-.01-.005a.023.023,0,0,0-.01-.006s-.007,0-.011-.007l-.009,0-.011-.009-.008,0c-.005,0-.007-.006-.011-.006a.046.046,0,0,1-.01-.006l-.011,0-.008-.008a.017.017,0,0,1-.011-.005.026.026,0,0,1-.012-.005s-.006,0-.009,0l-.011-.005s0,0-.007,0a.042.042,0,0,1-.014-.008.017.017,0,0,1-.008,0s-.008,0-.009-.006a.115.115,0,0,0-.013,0,.028.028,0,0,0-.01-.008l-.011,0s-.006,0-.009-.005a.027.027,0,0,1-.011,0l-.011-.007s-.007-.005-.01-.005l-.01,0-.009-.005a.048.048,0,0,1-.012-.008.021.021,0,0,1-.009,0,.017.017,0,0,1-.011-.006.016.016,0,0,1-.008,0,.058.058,0,0,0-.013-.006.015.015,0,0,1-.008-.006l-.011,0-.008-.005-.012-.006-.011-.006a.015.015,0,0,0-.011,0l-.008-.006c-.005,0-.007,0-.012-.005s-.006-.006-.01-.006a.036.036,0,0,0-.01-.005s-.006-.005-.009-.005l-.012-.006a.035.035,0,0,1-.01-.008.016.016,0,0,1-.009,0l-.009,0-.014-.006a.051.051,0,0,1-.009-.007l-.009,0s-.006,0-.009,0l-.013-.007-.009-.005a.043.043,0,0,0-.01-.006l-.009,0-.011-.006a.066.066,0,0,0-.011-.006s-.006,0-.009-.007l-.01,0-.01-.005-.012-.006-.009-.006-.011-.006a.032.032,0,0,1-.008,0l-.012-.005a.076.076,0,0,1-.01-.008l-.011,0-.009-.007a.03.03,0,0,1-.01,0l-.011-.007s-.007,0-.011,0l-.008-.006a.023.023,0,0,1-.01-.006c-.005,0-.009,0-.011,0s-.007,0-.008-.005a.025.025,0,0,1-.01-.006.024.024,0,0,1-.011-.006.013.013,0,0,1-.011-.006.02.02,0,0,1-.01-.006l-.01,0a.035.035,0,0,0-.01-.005.073.073,0,0,1-.011-.007.026.026,0,0,1-.01-.006l-.011,0a.018.018,0,0,0-.008-.005c-.005,0-.007-.005-.012-.006a.026.026,0,0,0-.011-.006s-.005-.006-.009-.007,0,0-.008,0l-.013-.007a.015.015,0,0,0-.008,0,.015.015,0,0,0-.01-.006l-.01-.006-.012-.006s-.006-.005-.009-.005l-.01-.006L14.443,54A.037.037,0,0,0,14.431,54a.023.023,0,0,0-.011,0s-.007,0-.007-.009l-.011,0-.011-.006c-.005,0-.009-.006-.011-.006a.02.02,0,0,1-.008-.005l-.011,0s0,0-.01-.007a.031.031,0,0,1-.011-.007s0,0-.008,0-.007,0-.008-.006a.023.023,0,0,1-.012-.006s-.005,0-.011,0,0-.005-.009-.007-.006,0-.009,0l-.01-.007a.016.016,0,0,1-.011-.007.025.025,0,0,1-.011,0s-.008,0-.009-.006l-.009-.006s-.007,0-.012-.006l-.008-.006-.01,0s-.006,0-.008-.006l-.013-.007-.009-.005s-.006-.005-.01-.006-.007,0-.009-.006l-.012-.006a.024.024,0,0,0-.011,0,.018.018,0,0,0-.007-.007l-.009,0-.011-.006A.041.041,0,0,1,14.1,53.8l-.009,0a.027.027,0,0,0-.009-.006l-.01-.006-.011-.006-.009-.006-.008-.006a.02.02,0,0,1-.01,0,.042.042,0,0,0-.014-.007.013.013,0,0,0-.009-.007s-.005,0-.008,0l-.01-.006a.039.039,0,0,1-.011-.008.018.018,0,0,1-.009-.005.024.024,0,0,1-.011,0s0,0-.008-.006a.046.046,0,0,0-.011-.005s-.005-.005-.011-.009l-.01,0a.053.053,0,0,0-.02-.014s-.006,0-.009-.006l-.008-.006a.011.011,0,0,1-.01-.005h0c-.005,0-.011-.007-.016-.008s0,0-.008-.006-.006-.005-.009-.005l-.011,0a.108.108,0,0,0-.012-.009l-.008-.005s-.007,0-.008-.006-.006,0-.01,0l-.011-.006s-.008,0-.01-.007a.031.031,0,0,1-.008-.007l-.007,0a.038.038,0,0,0-.014-.008l0,0s-.006,0-.009,0,0-.005-.007-.006l-.008,0c-.005,0-.011-.006-.015-.011l-.009-.005-.008,0s-.005,0-.008,0a.14.14,0,0,0-.022-.015.053.053,0,0,1-.009-.006l-.008,0-.023-.014s-.006,0-.008-.006-.007,0-.008,0a.1.1,0,0,1-.023-.016.014.014,0,0,1-.009,0,.012.012,0,0,1-.007,0,.085.085,0,0,1-.023-.015.014.014,0,0,1-.008,0,.012.012,0,0,1-.009-.005l-.008,0-.014-.011-.008,0a.012.012,0,0,0-.009-.005s0,0-.006,0v0a.145.145,0,0,1-.025-.014l-.007,0-.007-.006a.219.219,0,0,1-.023-.014l-.009,0s-.006,0-.008-.006a.009.009,0,0,1-.006-.006.1.1,0,0,1-.018-.008s0,0-.005,0v0l-.009,0c-.01,0-.017-.011-.024-.015s0,0-.008-.005a.017.017,0,0,0-.009-.006l-.005,0a.124.124,0,0,0-.016-.011l-.009,0a.015.015,0,0,0-.005-.007c-.008,0-.017-.008-.023-.012a.017.017,0,0,0-.01-.007s-.006-.005-.008-.005-.006,0-.007-.006a.057.057,0,0,1-.014-.008l-.011-.006a.009.009,0,0,0-.007,0s0-.005-.007-.005a.041.041,0,0,0-.013-.008h0s-.007,0-.007-.005-.006,0-.009-.006l-.008,0-.015-.01a.018.018,0,0,1-.007-.007s-.005,0-.01-.006l-.007,0a.069.069,0,0,1-.013-.009s0,0-.006,0-.006,0-.007-.006-.007,0-.009,0l-.023-.015s-.005,0-.007-.006a.021.021,0,0,1-.009-.005s-.006,0-.007-.005a.047.047,0,0,1-.013-.007l-.011-.007s0,0-.007,0A.027.027,0,0,0,13,53.11h0l-.012-.011h0l-.009-.006a.034.034,0,0,0-.01,0l-.007-.005-.011-.009h0s0-.005-.009-.005l-.007-.006a.007.007,0,0,1-.006,0h0a.081.081,0,0,0-.021-.014.008.008,0,0,0-.007,0,.019.019,0,0,0-.009-.007h0a.086.086,0,0,0-.019-.014.017.017,0,0,1-.01,0l-.007-.006h0l-.021-.015s0,0-.007,0h0s-.006,0-.009-.006a.1.1,0,0,0-.021-.014.012.012,0,0,0-.009-.006s0,0-.008-.006l-.02-.014h0a.019.019,0,0,0-.008-.006l-.007,0a.25.25,0,0,0-.029-.02s-.006,0-.008-.006h0l-.029-.02s-.005,0-.007-.005l-.007,0h0a.081.081,0,0,0-.022-.015.016.016,0,0,0-.007-.006s0,0-.008-.006a.092.092,0,0,1-.021-.015s0,0-.008-.005h0a.362.362,0,0,1-.035-.026c-.014-.008-.026-.017-.038-.025h0l-.008-.005-.023-.016s0,0-.006,0h0L12.39,52.7c-.011-.007-.023-.017-.037-.026l-.007,0c-.025-.019-.05-.035-.076-.055a.345.345,0,0,1-.035-.027l-.038-.024a.016.016,0,0,0-.007-.006.2.2,0,0,1-.031-.022s-.005,0-.007,0a.126.126,0,0,1-.027-.021h0c-.005,0-.005-.005-.009-.005l-.029-.02s0,0-.006-.005c-.025-.017-.05-.034-.075-.053s-.024-.018-.037-.027-.048-.035-.072-.052a.054.054,0,0,0-.009-.006A28.76,28.76,0,0,1,3.281,42.311,29.34,29.34,0,0,1,.93,36.157c0-.018-.007-.033-.011-.051a.178.178,0,0,1-.007-.033v0a.279.279,0,0,1-.015-.05.133.133,0,0,1-.007-.034c0-.017-.01-.033-.015-.051s-.007-.034-.01-.05a.284.284,0,0,1-.011-.033v0a.439.439,0,0,1-.01-.051c-.01-.027-.016-.056-.023-.084-.01-.044-.023-.091-.033-.135,0-.012,0-.022-.006-.034h0c0-.007,0-.011,0-.016a.051.051,0,0,1,0-.019h0a.04.04,0,0,0,0-.015h0c0-.012-.006-.021-.008-.034h0c0-.006,0-.011,0-.018a.148.148,0,0,1-.007-.032s0,0,0,0a.175.175,0,0,0-.007-.031v0a.034.034,0,0,0-.005-.017.071.071,0,0,0-.008-.033v0a.107.107,0,0,0,0-.016c0-.007-.005-.011-.005-.016h0a.04.04,0,0,0,0-.017v0a.142.142,0,0,0-.005-.029.006.006,0,0,0,0-.005c0-.005,0-.009,0-.015h0a.042.042,0,0,1,0-.015v0a.091.091,0,0,1,0-.014v0c0-.011,0-.02-.007-.03v0a.038.038,0,0,1,0-.015s0,0,0,0a.06.06,0,0,0,0-.017h0a.03.03,0,0,1,0-.016v0s0-.011,0-.015a.06.06,0,0,1,0-.015l0,0a.072.072,0,0,0,0-.015v0a.1.1,0,0,1,0-.014s0,0,0,0a.051.051,0,0,0-.005-.017v0c0-.005,0-.011,0-.015s0,0,0,0a.079.079,0,0,0,0-.014v0a.038.038,0,0,1,0-.016.018.018,0,0,1,0,0s0-.006,0-.012v0a.032.032,0,0,0,0-.014.007.007,0,0,0,0,0s0-.011,0-.016h0s0-.009,0-.014v0a.059.059,0,0,1,0-.016l0,0a.033.033,0,0,0,0-.011v-.006a.05.05,0,0,1,0-.013v0a.068.068,0,0,1,0-.015v0a.029.029,0,0,0,0-.011v0a.031.031,0,0,1,0-.012s0,0,0-.007a.044.044,0,0,0,0-.012v0s0-.009,0-.011,0-.006,0-.006,0-.009,0-.013l0,0a.053.053,0,0,0,0-.013v0a.055.055,0,0,1,0-.014s0-.005,0-.005,0-.009,0-.014,0,0,0,0,0-.007,0-.011v0a.054.054,0,0,1,0-.011.017.017,0,0,0,0-.006s0-.008,0-.011,0,0,0-.006a.021.021,0,0,0,0-.011v-.005c0-.006,0-.009,0-.014a.007.007,0,0,0,0,0,.011.011,0,0,0,0-.01.016.016,0,0,0,0-.005.039.039,0,0,0,0-.013v-.007s0-.005,0-.01a.022.022,0,0,0,0-.007.035.035,0,0,0,0-.011s0,0,0,0,0-.008,0-.013,0,0,0-.005,0-.008,0-.01a.006.006,0,0,1,0,0,.044.044,0,0,0,0-.014v-.006a.024.024,0,0,1,0-.011.027.027,0,0,0,0-.006s0-.006,0-.011a.007.007,0,0,1,0,0,.03.03,0,0,1,0-.014.017.017,0,0,1,0-.006.033.033,0,0,0,0-.01s0-.006,0-.006a.033.033,0,0,0,0-.011s0-.006,0-.007,0-.009,0-.011,0-.005,0-.008,0-.006,0-.011,0,0,0-.005a.05.05,0,0,0,0-.011v-.008a.028.028,0,0,0,0-.008v-.009a.034.034,0,0,0,0-.011.018.018,0,0,1,0,0c0-.005,0-.008,0-.014s0,0,0-.005,0,0,0-.009,0-.005,0-.006,0-.008,0-.011a.025.025,0,0,1,0-.009s0,0,0-.007a.019.019,0,0,1,0-.01.01.01,0,0,0,0-.007s0-.006,0-.008a.058.058,0,0,0,0-.012s0,0,0-.008a.048.048,0,0,1,0-.007.022.022,0,0,0,0-.007s0-.008,0-.011,0-.005,0-.007a.012.012,0,0,1,0-.007s0-.008,0-.012a.015.015,0,0,1,0-.006.01.01,0,0,1,0-.006.038.038,0,0,0,0-.013.008.008,0,0,0,0-.007v-.008s0-.008,0-.012a.006.006,0,0,0,0-.005V34.08a.034.034,0,0,1,0-.011s0,0,0-.006,0-.008,0-.01a.019.019,0,0,0,0-.011s0-.006,0-.009,0,0,0-.005,0-.008,0-.014,0,0,0,0,0-.006,0-.009v0a.089.089,0,0,1,0-.015s0,0,0-.006a.038.038,0,0,1,0-.016v0a.022.022,0,0,1,0-.011s0,0,0,0a.037.037,0,0,0,0-.016v0a.033.033,0,0,1,0-.011.132.132,0,0,1,0-.019s0,0,0,0,0-.014,0-.019a.024.024,0,0,1,0-.011s0,0,0,0a.061.061,0,0,0,0-.018v0c0-.007,0-.019,0-.026a.013.013,0,0,1,0-.006.041.041,0,0,1,0-.015,0,0,0,0,1,0,0,.021.021,0,0,1,0-.011.018.018,0,0,1,0,0c0-.005,0-.009,0-.014a.011.011,0,0,1,0,0,.035.035,0,0,0,0-.012v-.008s0-.006,0-.008,0,0,0-.005,0-.009,0-.013a.017.017,0,0,1,0-.006.033.033,0,0,0,0-.009s0-.007,0-.007,0-.008,0-.011a.011.011,0,0,0,0-.007.016.016,0,0,0,0-.01s0-.007,0-.008,0,0,0-.008v-.008s0-.009,0-.012,0,0,0,0V33.6a.086.086,0,0,1,0-.011s0,0,0-.006v-.008a.024.024,0,0,1,0-.008.028.028,0,0,1,0-.011.009.009,0,0,1,0-.005v-.01s0-.007,0-.01a.056.056,0,0,1,0-.008s0,0,0-.007a.024.024,0,0,0,0-.012.006.006,0,0,0,0-.005.033.033,0,0,0,0-.01s0-.006,0-.008a.043.043,0,0,0,0-.011v-.007s0-.007,0-.011v-.007a.036.036,0,0,1,0-.01s0,0,0-.005,0-.009,0-.012a.027.027,0,0,1,0-.008s0-.005,0-.008a.037.037,0,0,0,0-.009s0-.005,0-.01v-.006s0-.009,0-.014V33.36s0,0,0-.008a.011.011,0,0,1,0-.006s0-.005,0-.01a1.974,1.974,0,0,1-.07-.31.032.032,0,0,0,0-.015s0-.008,0-.01,0-.009,0-.012a.022.022,0,0,0,0-.011s0-.008,0-.011a.078.078,0,0,0,0-.012s0-.008,0-.011,0-.007,0-.011a.058.058,0,0,1,0-.012.032.032,0,0,1,0-.012s0-.008,0-.011a.054.054,0,0,1,0-.011s0-.006,0-.011v-.014a.031.031,0,0,0,0-.01.047.047,0,0,0,0-.011.027.027,0,0,0,0-.014.024.024,0,0,0,0-.011v-.01a.115.115,0,0,0,0-.011.062.062,0,0,0,0-.013s0-.007,0-.013a.05.05,0,0,1,0-.009.026.026,0,0,0,0-.011.043.043,0,0,0,0-.011.024.024,0,0,0,0-.014s0-.007,0-.012a.048.048,0,0,0,0-.01.19.19,0,0,1,0-.026.016.016,0,0,0,0-.01.069.069,0,0,0,0-.011.024.024,0,0,0,0-.008c0-.007,0-.01,0-.017s0-.006,0-.008,0-.009,0-.011a.028.028,0,0,0,0-.012v-.014s0-.008,0-.01a.022.022,0,0,0,0-.011v-.011a.072.072,0,0,1,0-.015s0-.007,0-.011v-.011a.017.017,0,0,1,0-.011.033.033,0,0,1,0-.011V32.48a.024.024,0,0,1,0-.011.071.071,0,0,1,0-.01s0-.007,0-.011,0-.009,0-.013,0-.008,0-.011a.054.054,0,0,0,0-.011.024.024,0,0,0,0-.012.054.054,0,0,0,0-.011v-.011a.024.024,0,0,1,0-.011c0-.01,0-.017,0-.026s0-.006,0-.011,0-.007,0-.01,0-.008,0-.012,0-.008,0-.013a.043.043,0,0,0,0-.011.047.047,0,0,0,0-.011v-.01a.079.079,0,0,1,0-.014v-.012s0-.008,0-.011,0-.007,0-.011,0-.008,0-.013a.047.047,0,0,0,0-.011.016.016,0,0,0,0-.011V32.17a.058.058,0,0,1,0-.013s0-.008,0-.011,0-.007,0-.011a.032.032,0,0,0,0-.012.034.034,0,0,0,0-.012V32.1a.072.072,0,0,1,0-.012.022.022,0,0,1,0-.011s0-.005,0-.01a.037.037,0,0,0,0-.014.017.017,0,0,0,0-.01V32.03s0-.006,0-.011A.063.063,0,0,1,.16,32s0-.005,0-.01,0-.009,0-.01v-.012a.037.037,0,0,1,0-.014s0-.006,0-.011,0-.008,0-.011a.016.016,0,0,0,0-.011.047.047,0,0,0,0-.014V31.9s0-.008,0-.011,0-.008,0-.01a.1.1,0,0,0,0-.016v-.011s0-.008,0-.01a.028.028,0,0,0,0-.011.071.071,0,0,0,0-.013s0-.01,0-.011V31.8s0-.008,0-.011a.058.058,0,0,0,0-.013s0-.011,0-.012v-.011a.054.054,0,0,0,0-.011.02.02,0,0,0,0-.012v-.011a.072.072,0,0,1,0-.012.063.063,0,0,0,0-.011.047.047,0,0,0,0-.012V31.67a.017.017,0,0,1,0-.01s0-.009,0-.012v-.013a.028.028,0,0,1,0-.011s0-.005,0-.01a.067.067,0,0,0,0-.012v-.011c0-.005,0-.01,0-.013a.055.055,0,0,0,0-.011v-.011s0-.007,0-.011a.043.043,0,0,0,0-.011v-.012s0-.008,0-.012a.023.023,0,0,0,0-.01.072.072,0,0,0,0-.012v-.01a.043.043,0,0,0,0-.011v-.011a.021.021,0,0,1,0-.012s0-.01,0-.011v-.01a.034.034,0,0,1,0-.012V31.4a.058.058,0,0,1,0-.013s0-.007,0-.01a.018.018,0,0,0,0-.011V31.35a.054.054,0,0,0,0-.012v-.011a.021.021,0,0,1,0-.011.024.024,0,0,0,0-.012v-.034a.021.021,0,0,1,0-.01c0-.005,0-.008,0-.014v-.011a.04.04,0,0,1,0-.01v-.011a.03.03,0,0,1,0-.015s0-.008,0-.01v-.013a.022.022,0,0,1,0-.008.044.044,0,0,0,0-.015v-.011a.021.021,0,0,0,0-.011V31.12c0-.005,0-.008,0-.012V31.1a.028.028,0,0,1,0-.011v-.011a.071.071,0,0,1,0-.013.05.05,0,0,0,0-.012v-.011s0,0,0-.01v-.013s0-.009,0-.012v-.01s0-.006,0-.009V30.97a.067.067,0,0,1,0-.013.04.04,0,0,0,0-.01v-.023a.024.024,0,0,1,0-.014.033.033,0,0,0,0-.01v-.01c0-.005,0-.011,0-.012v-.025a.033.033,0,0,1,0-.01v-.011a.026.026,0,0,1,0-.015.021.021,0,0,0,0-.01V30.8a.043.043,0,0,0,0-.011v-.025a.014.014,0,0,1,0-.01V30.74a.063.063,0,0,1,0-.014v-.011a.022.022,0,0,1,0-.011v-.011a.058.058,0,0,0,0-.012V30.67a.028.028,0,0,0,0-.011v-.02a.041.041,0,0,1,0-.014v-.011a.027.027,0,0,1,0-.01v-.011a.041.041,0,0,0,0-.015v-.022s0,0,0-.01v-.014s0-.005,0-.011V30.5a.1.1,0,0,1,0-.017v-.009a.03.03,0,0,1,0-.01.1.1,0,0,0,0-.025v-.022a.03.03,0,0,1,0-.008v-.023a.01.01,0,0,0,0-.008v-.024a.054.054,0,0,1,0-.012v-.01a.033.033,0,0,0,0-.011v-.037s0-.005,0-.011v-.005a.044.044,0,0,0,0-.016h0V30.23s0-.007,0-.01v-.036s0-.006,0-.01V30.15a.017.017,0,0,1,0-.011v-.01c0-.011,0-.018,0-.026v-.019c0-.01,0-.019,0-.028v-.019a.134.134,0,0,1,0-.025V30a.043.043,0,0,0,0-.011v-.036a.017.017,0,0,1,0-.01V29.9a.021.021,0,0,1,0-.01v-.027a.019.019,0,0,0,0-.01V29.77a.03.03,0,0,0,0-.01v-.055c0-.011,0-.019,0-.028V29.65a.055.055,0,0,0,0-.014v-.058a.021.021,0,0,1,0-.009v-.078a.033.033,0,0,0,0-.011V29.4a.043.043,0,0,1,0-.01v-.022H0V29.3a.018.018,0,0,0,0-.011v-.108H0v-.035H0v-.011c0-.01,0-.017,0-.026V29H0v-.184c0-.014,0-.03,0-.044v-.047c0-.032,0-.063,0-.092v-.056c0-.028,0-.06,0-.091,0-.015,0-.029,0-.046v-.056a.237.237,0,0,1,0-.034V28.3c0-.011,0-.024,0-.036v-.008c0-.03,0-.062,0-.093,0-.015,0-.029,0-.044,0-.032,0-.063,0-.094v-.008A29.013,29.013,0,0,1,7.229,9.828c.011-.014.024-.026.034-.041a.167.167,0,0,0,.024-.026.334.334,0,0,0,.034-.04L7.345,9.7a.383.383,0,0,0,.034-.04h0c.011-.012.023-.024.035-.037s.014-.018.021-.026.024-.024.036-.041l.059-.062.093-.1a.338.338,0,0,0,.025-.026.059.059,0,0,0,.011-.014s.009-.008.013-.011l.01-.011,0,0L7.708,9.3l0,0s.007-.007.009-.011l0,0a.282.282,0,0,0,.022-.024h0l.024-.025v0L7.78,9.22h0c.007-.009.016-.016.023-.026h0a.044.044,0,0,1,.01-.011h0a.146.146,0,0,1,.011-.012h0l.011-.012h0l.022-.024,0,0a.065.065,0,0,0,.011-.011h0s.008-.006.011-.011h0S7.9,9.1,7.9,9.094s0,0,0,0a.174.174,0,0,1,.022-.022l0,0s.008-.009.01-.012,0,0,0,0a.019.019,0,0,0,.008-.011h0a.147.147,0,0,0,.011-.011l0,0a.059.059,0,0,0,.008-.012s.007-.007.01-.011,0,0,0,0a.037.037,0,0,0,.011-.01s0,0,0,0a.138.138,0,0,1,.01-.011v0a.023.023,0,0,0,.011-.012h0a.029.029,0,0,1,.01-.011v0c.005,0,.006-.008.011-.01s0,0,0,0,.006-.006.009-.011,0,0,0,0l.01-.01s0,0,0,0,.006-.006.011-.008a.007.007,0,0,1,0,0,.032.032,0,0,1,.011-.01s0,0,0,0L8.1,8.88v0s.01-.006.011-.011,0,0,.005,0,0-.006.008-.01,0,0,0,0l.01-.01,0,0a.053.053,0,0,1,.011-.01s0,0,0,0a.023.023,0,0,1,.007-.01h0L8.173,8.8l0,0s.008-.006.01-.011,0,0,0,0,0-.005.007-.009,0,0,0,0,.005-.007.01-.011,0,0,0,0a.073.073,0,0,0,.011-.007s0,0,0,0l.011-.011s0,0,0,0,.005-.007.011-.01l0,0,.007-.008s0,0,0,0,.007,0,.01-.009h0a.075.075,0,0,1,.009-.011s0,0,0,0L8.3,8.68s0,0,0,0l.011-.011s0,0,0,0l.009-.008,0,0s.005-.006.01-.011,0,0,0,0,.006,0,.008-.008l.005,0a.038.038,0,0,1,.008-.009s0,0,0,0A.129.129,0,0,0,8.368,8.6s0,0,.005,0,0,0,.007,0,0-.005,0-.005.007-.006.008-.011l0,0,.01-.009s0,0,0,0a.032.032,0,0,0,.009-.01l0,0,.008-.009s0,0,.005,0l.007-.006a.024.024,0,0,1,.007-.006s0,0,.006-.008a.016.016,0,0,0,.005,0l.007-.008s0,0,0,0A.016.016,0,0,1,8.479,8.5s0,0,0-.005l.009-.009,0,0s0,0,.006-.007a.011.011,0,0,1,.007-.005l.007-.007a.012.012,0,0,1,0-.005l.008-.007s0,0,.005-.005,0-.005.006-.006l0,0,.009-.01s0,0,0,0,0,0,.006-.005L8.571,8.4,8.577,8.4l.005-.005.008-.009s0,0,.006,0L8.6,8.373s0,0,.005-.005a.08.08,0,0,1,.008-.009l.006,0,.005-.005s0-.006.007-.008l.005-.005.006-.005a.019.019,0,0,1,.009-.008l0-.006s0,0,.005,0L8.672,8.3,8.679,8.3s0-.005,0-.006,0,0,.005,0L8.7,8.28a.01.01,0,0,1,0,0s0-.005.006-.007l.007-.007s0-.005.005-.006,0,0,.005,0a.023.023,0,0,1,.011-.011s0,0,0,0a.009.009,0,0,0,.006-.005s0,0,0,0l.011-.011s0,0,0,0a.032.032,0,0,1,.012-.009.013.013,0,0,1,0-.005s0,0,.006-.006l0,0L8.8,8.18l0,0,.008-.007h0l.013-.014s0,0,0,0l.014-.011v0a.016.016,0,0,0,.007,0l0,0a.041.041,0,0,1,.012-.012s0,0,0,0l.02-.021s0,0,0,0A.125.125,0,0,1,8.9,8.083l0,0,.006-.006,0,0a.065.065,0,0,1,.011-.011s0,0,0-.005l.011-.009,0,0a.024.024,0,0,1,.007-.006l0,0a.019.019,0,0,1,.009-.008s0,0,.005,0,0,0,.005-.007,0,0,.006-.005L8.985,8a.007.007,0,0,1,0,0L9,7.989a.021.021,0,0,1,.008-.006l0,0,.005-.005s.005-.006.01-.007,0-.005,0-.007l.005,0,.01-.008s0,0,.006-.006l0,0s.005,0,.006-.008.007,0,.007,0,0-.005.007-.005,0,0,.005-.008.006,0,.006-.006A.009.009,0,0,0,9.091,7.9l.008,0a.025.025,0,0,1,.007-.011s0,0,0,0l.006-.006.006-.005s.005-.006.009-.006,0,0,0-.006l.009-.006s0-.005,0-.007,0,0,.009-.007l.005,0,.007-.006s0,0,0,0a.032.032,0,0,1,.01-.009s0,0,0-.005L9.194,7.8s0,0,.005-.005a.025.025,0,0,1,.008-.009.006.006,0,0,1,0,0s0-.005.009-.007l0,0,.01-.01,0,0s.005,0,.008-.007a0,0,0,0,0,0,0,.042.042,0,0,1,.01-.008s0,0,0,0a.022.022,0,0,0,.011-.01l0,0,.01-.008s0,0,0,0L9.3,7.706s0,0,0,0l.011-.011h0s.006-.005.01-.01,0,0,0,0,.007-.006.011-.01,0,0,0,0,.005,0,.008-.008,0,0,0,0l.011-.011,0,0,.011-.009h0s.006-.009.009-.011h0c0-.005.007-.007.01-.011l0,0A.05.05,0,0,0,9.412,7.6h0s.008,0,.011-.009l0,0,.011-.011s0,0,0,0l.011-.009h0a.07.07,0,0,0,.012-.011v0a.043.043,0,0,1,.012-.01h0a.07.07,0,0,1,.011-.011,0,0,0,0,0,0,0,.035.035,0,0,0,.011-.01h0A.033.033,0,0,1,9.519,7.5a.04.04,0,0,1,.011-.011h0l.024-.024h0a.044.044,0,0,1,.01-.011s0,0,0,0l.013-.009h0c0-.005.007-.007.011-.011s0,0,0,0,.007-.005.011-.009h0a.04.04,0,0,1,.01-.011l0,0A.04.04,0,0,0,9.634,7.4h0a.025.025,0,0,1,.013-.011l.011-.011,0,0s.007-.006.01-.01l0,0a.037.037,0,0,0,.01-.011h0a.066.066,0,0,0,.01-.011l0,0a.237.237,0,0,0,.023-.02h0l.011-.011h0s.007-.007.012-.011l.011-.011,0,0c.009-.006.016-.013.026-.021s0,0,0,0a.022.022,0,0,0,.011-.01h0a.023.023,0,0,1,.012-.01v0a.028.028,0,0,0,.011-.01l0,0a.132.132,0,0,1,.012-.011l.012-.01s0,0,0,0l.012-.01,0,0a.132.132,0,0,1,.012-.011A.056.056,0,0,1,9.9,7.17l0,0a.075.075,0,0,1,.012-.008v0a.132.132,0,0,1,.012-.011h0s.007-.008.011-.011l0,0c.009-.005.016-.014.024-.019s0,0,0,0L9.976,7.1l.013-.011h0A.038.038,0,0,0,10,7.074h0c.008,0,.015-.013.025-.02h0c.005,0,.008-.008.012-.011l.027-.024h0a.033.033,0,0,0,.012-.011h0L10.094,7h0a.116.116,0,0,1,.014-.011v0a.2.2,0,0,0,.026-.021v0c.011-.007.018-.014.026-.02l0,0a.057.057,0,0,1,.013-.01L10.2,6.9s0,0,0,0l.015-.01a.035.035,0,0,1,.011-.011c.005-.005.01-.007.013-.011l.027-.025a.042.042,0,0,0,.013-.012c.008-.005.018-.014.027-.019v0c.012-.011.026-.023.04-.033v0c.008,0,.018-.014.026-.019s.019-.016.027-.024l.012-.011h0c.011-.008.019-.017.027-.022s.028-.023.04-.034l.028-.022a.031.031,0,0,1,.013-.011v0c.009-.006.017-.014.026-.02s.045-.038.067-.055l0,0,.041-.032h0l.026-.021c.014-.01.027-.021.041-.031v0a.177.177,0,0,0,.027-.021.07.07,0,0,0,.013-.011.278.278,0,0,0,.026-.021l.028-.021a.106.106,0,0,1,.014-.013l.026-.02.027-.022a.146.146,0,0,0,.012-.011s0,0,0,0A.121.121,0,0,0,10.93,6.3v0a.072.072,0,0,0,.015-.01.271.271,0,0,0,.026-.021h0L11,6.251h0a.094.094,0,0,0,.014-.012.3.3,0,0,0,.026-.02l0,0c.008-.006.017-.012.026-.021s.009-.005.014-.011l.027-.021.026-.022c.005,0,.009-.008.014-.01h0c.009-.008.018-.014.025-.021h0s.007-.007.011-.012a.13.13,0,0,0,.027-.02.336.336,0,0,1,.028-.021h0c0-.005.009-.007.011-.011l.014-.011h0a.067.067,0,0,1,.014-.01v0A.2.2,0,0,0,11.316,6a.049.049,0,0,1,.013-.009h0c.009-.008.019-.014.026-.022h0a.215.215,0,0,0,.026-.019v0L11.4,5.94s0,0,0,0l.026-.021a.084.084,0,0,0,.014-.011h0c.008-.007.018-.012.026-.021h0l.026-.021h0l.013-.011h0a.185.185,0,0,0,.026-.021l.026-.021h0l.013-.01h0a.153.153,0,0,1,.027-.019v0a.041.041,0,0,1,.013-.008.044.044,0,0,1,.014-.012l.012-.01,0,0,.026-.018,0,0a.055.055,0,0,0,.013-.01h0l.013-.009.013-.011,0,0,.026-.019h0l.015-.01v0a.054.054,0,0,0,.012-.009h0l.012-.01,0,0a.129.129,0,0,0,.011-.008h0l.011-.01h0l.013-.01s0,0,0,0a.04.04,0,0,0,.011-.007v0l.015-.01h0l.012-.01.014-.011,0,0A.038.038,0,0,0,11.9,5.56s0,0,0,0l.011-.008h0a.033.033,0,0,1,.011-.011h0a.036.036,0,0,1,.012-.009h0a.032.032,0,0,1,.012-.011s0,0,0,0l.011-.008s0,0,0,0,.007,0,.011-.008h0S12,5.492,12,5.489h0l.011-.011h0a.051.051,0,0,1,.011-.009h0l.013-.011s0,0,0,0a.045.045,0,0,1,.011-.008h0a.048.048,0,0,0,.01-.009h.005s.007-.006.011-.011h0l.011-.011h0a.019.019,0,0,0,.012-.008s0,0,0,0a.033.033,0,0,1,.012-.008l0,0s.007,0,.011-.009h.005s.007-.007.009-.011h0a.019.019,0,0,1,.011-.006s0,0,0,0a.075.075,0,0,0,.011-.009h0a.03.03,0,0,1,.011-.008,0,0,0,0,0,0,0,.02.02,0,0,0,.011-.009h0a.03.03,0,0,0,.012-.011s0,0,0,0a.016.016,0,0,0,.011-.01h0s.005,0,.009-.007l.006,0c0-.005.006-.005.01-.008s0,0,.005,0,0-.005.008-.007l0,0a.042.042,0,0,1,.01-.007s0,0,.005,0,.009-.005.011-.009,0,0,0,0l.01-.007,0,0a.056.056,0,0,0,.011-.009s0,0,.005,0a.014.014,0,0,0,.009-.006l0,0s.007-.005.01-.008,0,0,.005,0,.007-.005.013-.008,0,0,0,0a.018.018,0,0,1,.008-.005.008.008,0,0,0,0,0l.011-.008,0,0a.019.019,0,0,1,.011-.007l0,0a.025.025,0,0,0,.011-.007l.005,0a.029.029,0,0,1,.01-.008l0,0,.01,0s0,0,0,0,.007-.007.011-.009l.005,0,.009-.006.006,0s.006,0,.008-.008a.005.005,0,0,0,0,0,.039.039,0,0,1,.011-.008l.006,0,.007-.007s0,0,0,0a.018.018,0,0,0,.011-.008l.006,0a.026.026,0,0,1,.011-.006.007.007,0,0,1,0,0,.024.024,0,0,0,.007-.006l.006,0a.036.036,0,0,1,.011-.007s0,0,0,0l.009-.005s0,0,0,0l.011-.007,0,0,.011-.006s0,0,0,0a.015.015,0,0,0,.009-.006,0,0,0,0,0,0,0,.028.028,0,0,0,.011-.007s0,0,.005,0l.007,0A.024.024,0,0,1,12.7,5s0,0,.008,0l.005,0a.041.041,0,0,1,.011-.008.009.009,0,0,0,.006,0s.005,0,.006-.005l.006,0,.01-.006a.017.017,0,0,0,.006-.005l.007,0,.008-.008s0,0,.008,0l.006,0,.009-.006.005,0,.008,0,.007-.006s.006,0,.008-.005l.007,0,.008,0,.007-.006s0,0,.007,0l.007,0a.021.021,0,0,1,.01-.006s0,0,0,0,.006,0,.007-.006l.01,0a.014.014,0,0,1,.007,0s0-.006.007-.006l.007,0,.008-.005s0,0,.006,0l.006,0,.011-.006s0,0,.005-.006l.006,0,.01-.007s.005,0,.007,0l.006,0a.012.012,0,0,1,.008,0l.008-.007L13,4.8a.026.026,0,0,1,.01-.006s0,0,.007,0,0,0,.006,0,.005,0,.006-.006.007,0,.01-.005l.006,0,.006,0a.033.033,0,0,1,.011-.006.016.016,0,0,1,.006,0,.007.007,0,0,1,.006,0,.019.019,0,0,1,.008-.006l.008-.005a.006.006,0,0,0,.005-.005l.007,0a.026.026,0,0,0,.009-.007l.007,0a.01.01,0,0,1,.008-.005s0,0,.007-.005.006,0,.009-.006a0,0,0,0,1,0,0l.012-.009s0,0,0,0l.007-.005h0l.012-.011,0,0,.016-.012.008,0s0,0,0,0l.015-.009h0a.014.014,0,0,1,.009-.005s0,0,0,0l.015-.01h0a.138.138,0,0,1,.017-.011h0a.012.012,0,0,1,.005-.006h.005s.011-.006.014-.011h0a.012.012,0,0,1,.008-.006h0l.015-.009s0,0,0,0,.01-.005.013-.009h0a.027.027,0,0,1,.009-.007h0l.017-.011h0l.026-.016h0a.065.065,0,0,0,.016-.012h0l.007-.005h0a.041.041,0,0,1,.016-.009l0,0c.009,0,.016-.011.026-.017h0A.072.072,0,0,1,13.5,4.48s0,0,0,0a.284.284,0,0,0,.026-.017s0,0,0,0l.026-.016h0a.067.067,0,0,1,.017-.011s0,0,0,0a.123.123,0,0,1,.027-.016h0a.315.315,0,0,1,.045-.028s0,0,0,0l.026-.016h0a.323.323,0,0,1,.043-.027h0a.136.136,0,0,1,.027-.019h0a.484.484,0,0,1,.046-.027c.026-.015.05-.031.074-.047.747-.454,1.518-.878,2.312-1.264a1.849,1.849,0,0,1,2.476.865A1.871,1.871,0,0,1,17.8,6.341a24.878,24.878,0,0,0-6.389,4.486,25.345,25.345,0,0,0-7.43,14.4c0,.054-.008.107-.014.16a25.365,25.365,0,0,0,2.6,15.2,24.9,24.9,0,0,0,11.221,10.98,1.868,1.868,0,0,1-.814,3.545A1.829,1.829,0,0,1,16.168,54.922Zm3.006-11.128s-.006-.005-.01-.006-.007,0-.01-.008-.006,0-.007-.006a.016.016,0,0,1-.011-.006c-.005,0-.008,0-.01-.006s-.006,0-.01-.005,0,0-.009-.007-.007,0-.008-.006-.007,0-.009,0-.005,0-.011-.006-.005-.005-.008-.006-.007-.005-.011-.007l-.007-.005s-.007,0-.009-.007a.042.042,0,0,1-.011-.006l-.009-.005-.011-.006s0,0-.008-.005L19,43.676l-.008-.005a.02.02,0,0,1-.009-.006c-.006,0-.006,0-.01-.005l-.011-.006s-.005-.005-.008-.008l-.01,0-.009-.008-.01,0a.029.029,0,0,0-.01-.008s0,0-.006-.005-.008,0-.011-.007a.018.018,0,0,0-.008,0,.03.03,0,0,0-.01-.006.051.051,0,0,0-.009-.007l-.01-.006s0-.006-.008-.007a.014.014,0,0,1-.007,0h0l-.011-.006a.018.018,0,0,0-.007-.005l-.011-.009s0,0-.008,0a.047.047,0,0,1-.01-.008l-.009-.006-.009-.006-.01-.007a.018.018,0,0,1-.009-.006.014.014,0,0,1-.008-.007.053.053,0,0,1-.01-.005s-.006,0-.011,0,0-.005-.007-.007a.025.025,0,0,0-.011-.007.024.024,0,0,0-.007-.006.021.021,0,0,1-.01-.006l-.01-.007a.026.026,0,0,1-.01-.005s-.005,0-.009-.008a.012.012,0,0,1-.007-.005l-.011-.007-.008-.005c-.005,0-.006,0-.01-.006a.016.016,0,0,0-.008-.005s-.008-.005-.01-.009-.005,0-.011-.005,0,0-.008-.005l-.008-.008s-.007,0-.008-.006a.035.035,0,0,1-.011-.006l-.007-.005a.043.043,0,0,1-.011-.009s0,0-.007,0l-.011-.008a.011.011,0,0,0-.007-.005l-.01-.006s-.005-.005-.007-.008a.017.017,0,0,1-.01-.005.094.094,0,0,0-.01-.008l-.007,0a.08.08,0,0,0-.011-.009l-.008-.005a.028.028,0,0,1-.009-.009l-.01,0a.038.038,0,0,0-.01-.008s0,0-.008-.005l-.009-.007s-.006,0-.007-.007h0s0,0-.007-.005h0s-.005,0-.008-.008a.014.014,0,0,1-.008-.006.024.024,0,0,1-.011-.006l-.007-.005a.047.047,0,0,1-.011-.009l-.008-.005-.009-.006a.018.018,0,0,0-.009-.005h0l-.009-.006s-.006-.006-.009-.008l-.01-.006a.027.027,0,0,0-.008-.006s-.006,0-.008-.006a.047.047,0,0,1-.011-.008l-.009-.005s-.005,0-.007-.008l-.01,0a.015.015,0,0,0-.009-.006.025.025,0,0,0-.009-.008l-.008-.006-.01-.008-.007,0-.011-.007a.012.012,0,0,0-.008-.006l-.01-.008a.016.016,0,0,0-.008-.005.036.036,0,0,0-.009-.008s-.005,0-.01-.006a.024.024,0,0,1-.007-.006s-.007,0-.009-.007-.005,0-.009-.007-.005,0-.01-.007l-.007,0a.03.03,0,0,0-.011-.008.01.01,0,0,0-.007,0,.015.015,0,0,0-.009-.008s-.006,0-.01-.008l-.008-.006s-.006,0-.009-.008l-.007,0v0a.017.017,0,0,1-.01-.007l-.009-.006-.011-.006s0,0-.006-.006a.035.035,0,0,1-.01-.008.014.014,0,0,0-.009,0,.023.023,0,0,0-.008-.01l-.009,0s-.006-.005-.007-.008l-.01-.006s-.007,0-.009-.008-.006,0-.01-.009l-.007,0a.041.041,0,0,0-.008-.009s-.007,0-.01-.005l-.01-.006s-.005-.008-.008-.009,0,0-.008,0-.005-.007-.01-.009a.017.017,0,0,1-.007,0v0a.016.016,0,0,0-.008-.007s-.005,0-.009-.005-.006,0-.009-.01a.1.1,0,0,0-.017-.011s-.005,0-.009-.007-.006,0-.009-.007,0,0-.007-.005a.017.017,0,0,0-.01-.006.042.042,0,0,1-.008-.01l-.008-.005a.019.019,0,0,0-.009-.005s-.007,0-.007-.008l-.01-.006s-.006,0-.009-.009,0,0-.009-.005l-.008-.006-.01-.01-.008,0-.006-.006a.034.034,0,0,0-.011-.008.018.018,0,0,0-.007-.007s0,0-.007-.005a.135.135,0,0,0-.019-.014.019.019,0,0,0-.006-.008.016.016,0,0,1-.01-.008l-.007,0h0l-.008-.006a.039.039,0,0,0-.01-.007.03.03,0,0,1-.007-.008l-.008-.008a.016.016,0,0,1-.009-.005s0,0-.008-.005-.007-.005-.008-.009a.021.021,0,0,1-.008-.007.048.048,0,0,1-.01-.005s-.007,0-.008-.009l-.01-.007-.005,0h0s-.007-.005-.009-.007a.025.025,0,0,0-.009-.006s0-.005-.008-.008a.025.025,0,0,0-.007-.006h0a.008.008,0,0,0-.008-.006l-.006-.009c-.005,0-.006,0-.011-.007a.021.021,0,0,0-.008-.006l-.008-.008s-.005,0-.01-.007l-.006-.005-.009-.008-.008-.006s-.007,0-.009-.008l-.008-.006a.023.023,0,0,0-.008-.008.017.017,0,0,1-.007-.006s-.006,0-.011-.006a.011.011,0,0,0-.007-.008s-.005,0-.005-.006h0l-.009-.009-.008-.005s0-.006-.009-.008l-.006-.006h0l-.007-.008a.056.056,0,0,1-.011-.006.03.03,0,0,0-.007-.008l-.008-.006-.008-.008a.038.038,0,0,1-.01-.008s0,0-.007-.005l-.009-.007s-.005-.005-.007-.007l-.01-.007a.03.03,0,0,1-.007-.008.027.027,0,0,1-.008-.006s-.007-.006-.01-.008l-.008-.006-.008-.008s-.005,0-.007-.006a.029.029,0,0,0-.008-.007s-.005,0-.009-.005v0a.023.023,0,0,0-.008-.008l-.008-.006s-.005-.006-.01-.008l-.007-.006s0-.006-.008-.008-.005,0-.008-.008a.014.014,0,0,1-.008-.006.08.08,0,0,0-.009-.008.024.024,0,0,0-.007-.006l-.009-.006s-.005-.005-.008-.008l-.009-.008-.007-.007s-.006-.005-.008-.007a.02.02,0,0,0-.009-.006l-.008-.008-.008-.007s0-.005-.008-.005-.006-.007-.008-.01a.022.022,0,0,1-.007-.006.08.08,0,0,0-.009-.008.019.019,0,0,0-.008-.006h0l-.009-.006s-.005-.005-.007-.01L17,42.12l-.007-.007a.031.031,0,0,0-.009-.007l-.008-.009-.008-.005-.009-.009a.013.013,0,0,0-.006-.005v0l-.009-.006a.033.033,0,0,1-.009-.008l-.008-.007-.007-.007a.024.024,0,0,1-.007-.006.072.072,0,0,0-.009-.008.025.025,0,0,1-.007-.006l-.009-.008-.007-.007L16.872,42,16.865,42s-.007,0-.007-.006a.106.106,0,0,1-.01-.009l-.007-.007a.072.072,0,0,1-.009-.008s0,0-.007-.006l-.009-.007s0-.005-.007-.007l-.008-.008s-.005,0-.009-.008,0,0-.008-.006a.032.032,0,0,1-.007-.008l-.007-.008-.009-.006-.008-.007a.015.015,0,0,0-.008-.007.016.016,0,0,0-.007-.008.015.015,0,0,0-.009-.007.02.02,0,0,0-.007-.006.034.034,0,0,1-.007-.01l-.007-.005-.01-.009-.008-.008-.007-.006-.008-.008s0,0-.005-.006v0l-.011-.006s0,0-.007-.006l-.007-.01s0,0-.007-.006-.006-.006-.01-.008a.015.015,0,0,0-.008-.006.013.013,0,0,0-.007-.008.018.018,0,0,0-.007-.007l-.007-.009-.01-.008-.005-.006s-.005-.006-.01-.007,0-.005-.007-.007-.005-.005-.008-.008l-.007-.007a.028.028,0,0,1-.007-.01s-.006,0-.007-.006a.02.02,0,0,1-.01-.008s-.005,0-.007-.007l-.007-.007a.016.016,0,0,1-.007-.008.059.059,0,0,1-.01-.006.035.035,0,0,0-.007-.009s0-.005-.007-.005l-.008-.01-.008-.008-.007-.006-.008-.008a.022.022,0,0,0-.007-.006l-.008-.009s-.005,0-.008-.006a.089.089,0,0,0-.008-.009l-.006-.006s-.005-.006-.01-.008l-.007-.009-.008-.005a.035.035,0,0,0-.007-.009l-.007-.007s0-.007-.007-.009a.032.032,0,0,1-.009-.006s0-.006-.007-.006,0-.008-.008-.009l-.007-.007s0-.006-.007-.008a.017.017,0,0,1-.007-.009.011.011,0,0,1-.007-.007s-.007,0-.009-.008a.041.041,0,0,1-.009-.009l-.006-.005s-.005,0-.008-.009-.005,0-.006-.007-.006-.007-.01-.007l-.005-.005v0l-.009-.006a.026.026,0,0,0-.007-.009s-.005-.006-.009-.006a.035.035,0,0,0-.007-.009s0-.006-.007-.006a.039.039,0,0,0-.008-.01s0,0-.007,0,0-.007-.008-.012,0,0-.006,0-.005-.005-.008-.01,0,0-.007-.005-.005,0-.007-.01l-.009-.006-.005-.009s0,0-.009-.006-.005,0-.006-.008l-.01-.008s0-.005-.005-.006l-.009-.01s0,0-.005-.006l-.011-.008s0,0-.007-.008a.055.055,0,0,1-.007-.009s0,0-.008-.005,0,0,0-.009a.055.055,0,0,1-.011-.01s0-.005-.006-.005a.02.02,0,0,1-.007-.011s0,0-.009-.006,0,0-.006-.008-.007,0-.008-.006-.005-.006-.006-.008,0-.007-.008-.008-.005,0-.007-.009A.046.046,0,0,0,16,41.15a.02.02,0,0,1,0-.009l-.01-.006s0,0-.006-.008a.016.016,0,0,0-.009-.008.007.007,0,0,0-.006-.006s0-.006-.005-.01l-.009-.007-.007-.007a.012.012,0,0,0-.009-.007s0-.005-.006-.01l-.007-.008s0,0-.008-.006a.02.02,0,0,0-.006-.009s-.005-.005-.008-.007a.018.018,0,0,0-.006-.008s0-.006-.007-.009,0,0-.008-.005a.015.015,0,0,0-.008-.009L15.866,41l0-.005c-.005,0-.005-.006-.009-.009s0-.005-.008-.008l-.005-.007a.071.071,0,0,1-.009-.008.032.032,0,0,0-.006-.009l-.007-.006s-.006-.006-.008-.009,0-.005-.007-.01l-.008-.005s0,0-.006-.009l-.007-.007a.018.018,0,0,1-.006-.008.072.072,0,0,1-.009-.008s0-.005-.007-.009l-.006-.006-.008-.009s0-.005-.007-.007a.021.021,0,0,0-.007-.008.032.032,0,0,1-.006-.009s0-.005-.009-.008a.081.081,0,0,1,0-.007l-.01-.008s0-.005-.005-.009a.026.026,0,0,1-.009-.008l-.007-.007-.007-.007s0-.007-.005-.011a.01.01,0,0,1-.007-.006l-.01-.008,0-.008a.027.027,0,0,1-.007-.008s0-.006-.008-.007a.036.036,0,0,0-.008-.009l-.005-.007-.008-.007a.044.044,0,0,0-.007-.011L15.6,40.7s0-.006-.007-.009,0-.005-.006-.006,0-.006-.007-.008,0-.006-.006-.009a.023.023,0,0,1-.007-.01.015.015,0,0,1-.007-.005.04.04,0,0,0-.008-.009.065.065,0,0,0-.008-.01l-.006-.006-.007-.008a.013.013,0,0,0-.007-.008l-.007-.008s0-.005-.005-.008l-.007-.009a.009.009,0,0,1-.006-.005.065.065,0,0,1-.008-.011.026.026,0,0,1-.007-.008s0-.005-.007-.008l-.009-.008s0,0,0-.007l-.009-.01s0,0-.006-.005a.037.037,0,0,0-.007-.011l-.006-.006s0-.006-.008-.01,0-.006-.007-.006,0-.006-.005-.009l-.007-.008a.026.026,0,0,0-.006-.007s-.007-.006-.008-.01l-.007-.007a.025.025,0,0,0-.007-.01l-.006-.006s-.005-.006-.007-.009a.039.039,0,0,1-.007-.01l-.007-.005a.118.118,0,0,1-.005-.011.019.019,0,0,1-.008-.006.042.042,0,0,0-.008-.01.028.028,0,0,0-.005-.006.026.026,0,0,0-.008-.009.012.012,0,0,0-.006-.007s0-.006-.007-.011l-.007-.007-.007-.007a.026.026,0,0,0-.005-.01s0-.006-.008-.006,0-.006-.007-.009a.043.043,0,0,0-.006-.01.031.031,0,0,1-.006-.008.018.018,0,0,1-.005-.006s-.006-.008-.01-.008a.012.012,0,0,0,0-.008l-.007-.008-.007-.01s-.005,0-.006-.009a.023.023,0,0,1-.008-.008.018.018,0,0,1-.005-.008.017.017,0,0,1-.008-.008s0,0-.006-.007l-.007-.009-.006-.007-.008-.01s0,0-.005-.008,0-.006-.007-.008a.036.036,0,0,1-.006-.01.018.018,0,0,1-.007-.007l-.009-.01a.012.012,0,0,0-.006,0c0-.005,0-.007-.007-.011l0-.006s-.005-.006-.009-.009-.005-.007-.009-.011a.019.019,0,0,0,0-.005s0-.006-.007-.009,0,0,0-.008-.005-.006-.01-.009l-.005-.007a.038.038,0,0,0-.006-.009s0-.005-.006-.005a.035.035,0,0,0-.007-.012s0,0-.006-.006l-.008-.008-.006-.01s0,0-.006-.006,0-.006-.006-.01A.02.02,0,0,1,15.007,40,.017.017,0,0,1,15,39.992a.02.02,0,0,1-.005-.008s0-.006-.007-.009,0,0,0,0l-.009-.01s0-.007-.006-.008,0-.006-.007-.007a.032.032,0,0,0-.007-.011s0-.007-.006-.008a.037.037,0,0,0-.006-.01l-.006-.006a.049.049,0,0,1-.008-.011l-.005,0a.041.041,0,0,0-.007-.011s0,0,0-.005l-.011-.01v0s-.005,0-.006-.009a.007.007,0,0,0,0-.005c0-.005,0-.009-.007-.01s0-.007-.007-.007a.014.014,0,0,0-.005-.008.076.076,0,0,0-.006-.009.032.032,0,0,0-.007-.008.051.051,0,0,0,0-.01.023.023,0,0,1-.008-.008.066.066,0,0,1-.008-.011s0,0-.006-.006a.018.018,0,0,0-.007-.009s0-.006,0-.009,0,0,0,0a.06.06,0,0,1,0-.006s0-.006-.007-.006,0,0,0,0,0-.006,0-.006l0-.006,0,0-.005-.008a.024.024,0,0,0-.005-.007.018.018,0,0,1-.007-.011l0,0s0-.006,0-.006a.024.024,0,0,1-.006-.008.028.028,0,0,1-.006-.011.007.007,0,0,1-.006-.005.024.024,0,0,0-.008-.009s0-.008,0-.008,0,0,0,0l0-.007s0,0-.005-.006l0,0a.018.018,0,0,1,0-.008,0,0,0,0,0,0,0s0-.007-.008-.007,0,0,0-.007v0A.024.024,0,0,1,14.7,39.6l0-.008-.008-.008s0,0-.005-.007a.005.005,0,0,0,0,0s0,0-.005-.008a.008.008,0,0,1-.005-.005h0a.035.035,0,0,0-.007-.009l0,0a.023.023,0,0,0-.011-.013.006.006,0,0,0,0,0s0-.007-.007-.01l0-.005s0,0,0,0a.038.038,0,0,0-.006-.007s0-.005,0-.006l0,0s0-.005-.006-.008,0,0-.006-.006v0l-.007-.008s0,0,0,0a.043.043,0,0,0-.009-.013v0c-.005,0-.007-.008-.011-.011s0,0,0,0,0,0-.006-.007,0-.005,0-.007h0s0-.005-.006-.008,0-.005,0-.007h0a.034.034,0,0,1-.007-.01l0,0a.169.169,0,0,1-.011-.015h0a.065.065,0,0,0-.01-.014l0,0-.007-.011s0,0,0,0h0a.066.066,0,0,0-.006-.011s0,0,0-.006-.006-.007-.006-.011h0a.17.17,0,0,1-.011-.015s0,0,0,0a.026.026,0,0,0-.01-.014v0a.029.029,0,0,1-.011-.014s0,0,0,0-.005-.006-.007-.01l-.005-.005h0s0-.007,0-.011,0,0,0,0h0a.023.023,0,0,0-.006-.01s0-.005,0-.007l0,0s0-.007-.007-.009v0A.118.118,0,0,1,14.4,39.2v0s-.007-.01-.012-.014v0l-.007-.009a.025.025,0,0,0-.006-.007s0-.006-.006-.01v0a.047.047,0,0,1-.011-.015v0a.071.071,0,0,1-.011-.017h0c0-.005-.007-.01-.01-.016h0a.018.018,0,0,0-.005-.01s0-.005,0-.006l-.01-.012a.143.143,0,0,0-.01-.015h0c0-.005-.007-.012-.011-.016l0,0a.088.088,0,0,0-.011-.017h0a.072.072,0,0,0-.009-.016.1.1,0,0,1-.012-.017s-.005-.008-.009-.01v0l-.01-.014v0a.185.185,0,0,0-.012-.015h0c-.005-.005-.007-.011-.012-.015v0l-.007-.011,0-.005s0,0,0,0A.02.02,0,0,0,14.2,38.9v0l-.01-.014s0,0,0,0a.059.059,0,0,1-.011-.014.009.009,0,0,1,0,0l-.011-.014,0,0a.1.1,0,0,1-.011-.016h0a.077.077,0,0,1-.006-.009s0,0,0-.005h0l-.005-.011v0a.043.043,0,0,1-.011-.014l0,0a.062.062,0,0,0-.011-.016v0a.072.072,0,0,1-.01-.015l0,0s0-.006-.008-.01a.019.019,0,0,1,0-.006l-.007-.011c0-.007-.008-.011-.011-.018h0c0-.005-.006-.011-.011-.017h0l-.01-.015,0,0c-.006-.008-.011-.018-.018-.027a.009.009,0,0,0,0-.006L14,38.6v0c-.01-.014-.019-.031-.029-.046l-.022-.033c-.04-.065-.081-.129-.121-.194h0a17.876,17.876,0,0,1-1.587-3.259v0l0-.011a.159.159,0,0,1-.007-.019.077.077,0,0,0-.009-.019c-.012-.036-.024-.071-.036-.106a.062.062,0,0,1-.007-.018v0s0-.009-.005-.011v0a.056.056,0,0,1,0-.006l0-.011h0a.05.05,0,0,1-.005-.018h0a.126.126,0,0,1-.007-.019.065.065,0,0,1-.007-.019h0a.054.054,0,0,0,0-.011c0-.014-.009-.026-.013-.039h0c0-.005,0-.012-.006-.017l-.007-.019v0a.035.035,0,0,1,0-.012h0s0,0,0-.006h0l0-.011v0s0,0,0,0,0,0,0,0a.022.022,0,0,0,0-.009v0a.049.049,0,0,1-.006-.017v0a.152.152,0,0,1-.006-.019v0a.04.04,0,0,1-.005-.012s0,0,0-.005v0a.022.022,0,0,1,0-.01.008.008,0,0,1,0-.006v0l0-.01v0a.013.013,0,0,1,0-.005h0a.04.04,0,0,0,0-.01v0a.06.06,0,0,1-.006-.018s0,0,0,0a.02.02,0,0,1,0-.011s0,0,0-.005v0a.026.026,0,0,1,0-.011h0a.011.011,0,0,0,0-.007v0a.04.04,0,0,0,0-.01h0a.022.022,0,0,0,0-.006v0a.1.1,0,0,1,0-.01v0a.008.008,0,0,1,0-.006s0,0,0,0a.028.028,0,0,0,0-.008v0l-.007-.017v0s0,0,0-.008v0a.031.031,0,0,0,0-.005l0,0s0-.006,0-.01,0,0,0,0a.016.016,0,0,1,0-.005l0,0a.026.026,0,0,0,0-.01v0s0,0,0-.007,0,0,0,0a.02.02,0,0,0,0-.008s0,0,0,0a.041.041,0,0,0-.005-.019v0a.022.022,0,0,0,0-.011v0s0,0,0-.005,0,0,0,0a.014.014,0,0,0,0-.008v0a.017.017,0,0,1,0-.006s0,0,0,0a.022.022,0,0,0,0-.01v0s0,0,0-.006,0,0,0,0l0-.007v0s0,0,0-.005a.013.013,0,0,1,0-.006.006.006,0,0,1,0-.005,0,0,0,0,1,0,0s0,0,0,0l0-.007a.008.008,0,0,0,0,0v0a.016.016,0,0,1,0-.008.005.005,0,0,0,0,0,.006.006,0,0,0,0,0v0a.051.051,0,0,1,0-.009s0,0,0,0l0,0v0s0-.005,0-.008,0,0,0,0,0,0,0-.005v0s0,0,0-.005a.006.006,0,0,0,0,0,.017.017,0,0,0,0-.006s0,0,0-.006,0,0,0,0a.009.009,0,0,0,0,0s0-.006,0-.008,0,0,0,0,0,0,0,0a0,0,0,0,0,0,0s0,0,0-.008a.005.005,0,0,1,0-.005s0,0,0,0a.01.01,0,0,0,0,0s0,0,0-.005a.016.016,0,0,1,0-.01.01.01,0,0,0,0,0l0-.005a.011.011,0,0,1,0-.005s0,0,0,0,0,0,0-.007,0,0,0,0,0,0,0,0,0,0,0,0a.011.011,0,0,0,0-.005.02.02,0,0,1,0-.006.008.008,0,0,0,0,0s0,0,0,0,0,0,0-.006,0,0,0-.005a.006.006,0,0,0,0,0s0,0,0-.006,0,0,0-.005l0,0s0,0,0,0a.068.068,0,0,0,0-.008.009.009,0,0,0,0,0,0,0,0,0,0,0,0,.013.013,0,0,0,0-.006.031.031,0,0,1,0-.006v-.007a.013.013,0,0,1,0-.007v0s0,0,0,0,0,0,0-.006v-.006l0,0a.012.012,0,0,1,0,0,.081.081,0,0,1,0-.008v-.005s0,0,0,0,0,0,0,0a.011.011,0,0,1,0-.006s0,0,0,0l0,0a.031.031,0,0,1,0-.005s0,0,0-.006,0,0,0,0a.009.009,0,0,0,0,0s0-.005,0-.009l0,0a.038.038,0,0,0,0,0s0,0,0,0,0-.006,0-.008a.008.008,0,0,0,0,0,0,0,0,0,0,0,0,.01.01,0,0,0,0,0s0-.005,0-.005v-.006s0,0,0,0a.017.017,0,0,1,0-.006s0,0,0,0a.011.011,0,0,1,0-.005s0,0,0-.005a.01.01,0,0,1,0,0s0,0,0,0v0c0-.005,0-.008,0-.01a0,0,0,0,0,0,0s0-.005,0-.007a.005.005,0,0,0,0,0s0,0,0-.006v0l0,0v0s0-.007,0-.007v0a.025.025,0,0,1,0-.007s0,0,0,0a.015.015,0,0,1,0-.007v0s0-.005,0-.006v-.011s0,0,0,0,0-.005,0-.008a.009.009,0,0,0,0,0,.005.005,0,0,0,0,0v0a.05.05,0,0,0,0-.009v0s0,0,0-.005,0,0,0,0,0,0,0-.009h0s0-.006,0-.008,0,0,0,0,0,0,0-.009v0s0,0,0-.005v0a.059.059,0,0,1,0-.009l0,0a.076.076,0,0,0,0-.009v0s0,0,0-.006,0,0,0,0a.05.05,0,0,1,0-.009h0s0-.006,0-.007v0s0-.006,0-.008v0a.006.006,0,0,1,0-.005s0,0,0,0,0-.007,0-.009h0s0-.008,0-.008v0s0,0,0-.006v0s0,0,0-.006,0,0,0,0l0,0v0s0-.006,0-.008,0,0,0,0a.017.017,0,0,0,0-.007v0s0-.006,0-.009h0a.03.03,0,0,1,0-.009h0s0-.006,0-.01,0,0,0,0a.033.033,0,0,0,0-.007h0a.021.021,0,0,0,0-.009v0s0-.006,0-.008a.022.022,0,0,0,0-.008s0,0,0,0,0,0,0-.008a.016.016,0,0,1,0-.008v0s0-.006,0-.01l0,0a.022.022,0,0,0,0-.007h0a.082.082,0,0,1,0-.009v0s0,0,0-.008l0,0s0-.005,0-.007v0s0,0,0-.005v0s0-.007,0-.009v0s0-.005,0-.007,0,0,0,0,0-.005,0-.008v0a.082.082,0,0,1,0-.009h0s0-.005,0-.009a0,0,0,0,1,0,0,.012.012,0,0,0,0-.008v0a.023.023,0,0,1,0-.007v0s0-.007,0-.009l0,0s0-.005,0-.008a.031.031,0,0,1,0-.01v0c0-.005,0-.013,0-.019v0s0-.006,0-.008v-.008l0,0s0-.007,0-.009v0a.008.008,0,0,1,0-.006s0,0,0,0,0-.006,0-.01l0,0a.01.01,0,0,0,0-.007v0s0-.006,0-.007v0s0,0,0-.007h0s0-.006,0-.008V33.1h0s0-.006,0-.008v0a.054.054,0,0,0,0-.01h0a.056.056,0,0,0,0-.008s0,0,0,0,0-.005,0-.008v0a.03.03,0,0,1,0-.009h0c0-.005,0-.005,0-.01h0l0-.009v0s0-.006,0-.008v0a.134.134,0,0,0,0-.019v0a.008.008,0,0,0,0-.008v0s0-.005,0-.008v0s0-.006,0-.009,0-.006,0-.01v-.011s0-.006,0-.007v-.013a.053.053,0,0,1-.007-.018v0s0-.007,0-.01a.019.019,0,0,1,0-.01v0s0-.006,0-.008,0-.006,0-.009v0s0-.007,0-.009v0a.042.042,0,0,0,0-.008v-.011a.039.039,0,0,1,0-.019l0,0a.048.048,0,0,0,0-.017h0a.069.069,0,0,0,0-.02v0a.074.074,0,0,0,0-.018h0a.054.054,0,0,1,0-.01.108.108,0,0,1,0-.019h0a.052.052,0,0,1,0-.02.08.08,0,0,1-.007-.02h0a.033.033,0,0,0,0-.019.119.119,0,0,0-.005-.03.075.075,0,0,0,0-.02h0a.115.115,0,0,0,0-.019c-.005-.024-.011-.048-.014-.071s-.007-.041-.011-.061c0,0,0-.007,0-.01a.046.046,0,0,1-.005-.02v0a.044.044,0,0,1,0-.019c0-.014-.007-.027-.01-.04-.01-.055-.019-.109-.031-.164a17.861,17.861,0,0,1,.1-7.082,1.855,1.855,0,1,1,3.623.8,14.049,14.049,0,0,0,.689,8.216,13.881,13.881,0,0,0,5.33,6.514,1.869,1.869,0,0,1,.545,2.58,1.849,1.849,0,0,1-2.566.551Zm23.459-3.919h0Zm-22.319-5.21s0,0,0-.006a0,0,0,0,1,0,0s0,0,0,0,0,0,0,0,0,0,0,0,0,0,0,0,0,0,0-.005,0,0,0,0,0,0,0,0l0,0s0,0,0,0l0,0s0,0,0,0l0,0a.031.031,0,0,1,0-.005l0,0v0l0,0v0l0,0s0,0,0,0,0,0,0,0,0,0,0,0,0,0,0,0,0,0,0,0,0,0,0,0,0,0,0,0,0,0,0,0,0,0,0,0l0,0s0,0,0,0,0,0,0,0,0,0,0,0,0,0,0,0,0,0,0,0a.015.015,0,0,1,0-.006s0,0,0,0a.005.005,0,0,1,0,0l0,0s0,0,0,0a0,0,0,0,0,0,0l0,0s0,0,0,0a.011.011,0,0,1,0,0l0,0s0,0,0,0l0,0s0,0,0-.006l0,0s0,0,0,0,0,0,0,0v0s0,0,0,0l0,0s0,0,0,0l-.01-.015s0,0,0,0l0,0,0,0,0,0,0,0s0,0,0-.006,0,0,0,0a0,0,0,0,1,0,0l0,0s0,0,0-.005,0,0,0,0,0,0,0,0a.005.005,0,0,0,0,0l0-.005s0,0,0,0,0,0,0,0a0,0,0,0,0,0,0,.007.007,0,0,1,0-.006s0,0,0,0l0,0h0a0,0,0,0,0,0,0,.007.007,0,0,0,0,0s0,0,0,0,0,0,0,0a.008.008,0,0,0,0,0,.01.01,0,0,1,0,0s0,0,0,0,0,0,0,0,0,0,0,0l0,0a.006.006,0,0,0,0,0s0,0,0,0,0,0,0,0,0,0,0,0a0,0,0,0,0,0,0v0s0,0,0-.006,0,0,0,0a0,0,0,0,1,0,0s0,0,0,0,0,0,0,0h0a0,0,0,0,0,0-.005h0a.012.012,0,0,0,0-.006v0s0,0,0-.006h0s0,0,0-.006c-.011-.019-.021-.036-.033-.054h0a.051.051,0,0,1,0-.008s0,0,0-.005h0a.013.013,0,0,1,0-.006l0-.005v0l0-.006,0-.005v0s0,0,0-.007h0s0,0,0-.005v0l0-.005v0l0,0s0,0,0,0a.01.01,0,0,0,0-.006v0a.009.009,0,0,1,0-.005s0,0,0-.006h0a.032.032,0,0,1,0-.006s0-.006-.005-.006v0s0-.005,0-.006a10.624,10.624,0,0,1-.613-1.228,1.871,1.871,0,0,1,.991-2.444,1.851,1.851,0,0,1,2.429,1,6.658,6.658,0,0,0,.606,1.129A6.478,6.478,0,0,0,32.4,34.341a6.565,6.565,0,0,0,1.753-9.066,6.479,6.479,0,0,0-9.014-1.762,1.841,1.841,0,0,1-1.4.282c-.021,0-.044,0-.066,0a1.848,1.848,0,0,1-1.425-.672l-4.636-5.6a1.873,1.873,0,0,1,.236-2.628,1.929,1.929,0,0,1,.272-.19c.04-.035.083-.068.125-.1a17.506,17.506,0,0,1,1.895-1.224c.024-.014.048-.025.071-.039l.012-.006s0,0,0,0h0s0,0,0,0,.005,0,.006,0h0a.006.006,0,0,0,0,0l0,0s0,0,0,0,0,0,.005,0h0l0,0h0s0,0,0,0h0l.005,0s0,0,0,0a.007.007,0,0,1,.006,0l0,0,.033-.018s0,0,0,0h0l.005,0v0a.006.006,0,0,0,.005,0l.005,0a.006.006,0,0,1,.005,0s0,0,.007,0l.005,0s0,0,.006,0l.005,0s0,0,.007,0l.005,0,.007,0,.006,0s0,0,.005,0,0,0,0,0l.005,0h0l.008-.005,0,0,.005,0s0,0,.005,0l.007,0s0,0,0,0l.005,0,.006,0a.018.018,0,0,1,.006-.005l.005,0s0,0,.007,0,0,0,.006,0a0,0,0,0,0,0,0l.007,0a.008.008,0,0,1,.006,0,.007.007,0,0,1,.006,0l.005-.005.007,0h0s0,0,0,0h0s0,0,0,0l.012-.007h0l0,0h0s0,0,0,0a0,0,0,0,0,0,0,0,0,0,0,0,0,0h0s0,0,0,0,0,0,.006,0h0s0,0,0,0l0,0h0s0,0,.007,0,0,0,.006,0h0s0,0,0,0v0a.008.008,0,0,0,.007,0,0,0,0,0,0,0,0h0a.009.009,0,0,0,.007,0s0,0,0,0h0l.008,0,0,0h0c.009-.006.018-.008.023-.012h0s0,0,.005,0h0s0,0,0,0l0,0h.005l0,0h0s0,0,.005,0h0s0,0,0,0l.008,0h0l.005,0s0,0,0,0h0l0,0s0,0,0,0h.006l.007,0v0l.067-.034h0s0,0,0,0h0s0,0,0,0l.007,0s0,0,.007,0l.005,0c.026-.012.049-.026.074-.038a.035.035,0,0,0,.012-.007l.013-.005.011-.006h0s0,0,.006,0,0,0,.006,0a17.543,17.543,0,0,1,2.813-1.1l.109-.032a.02.02,0,0,1,.012,0l.123-.036h.005l.005,0h0s0,0,0,0l.009,0,.006,0a.008.008,0,0,0,.007,0,.338.338,0,0,1,.041-.01.039.039,0,0,1,.013,0h0a.012.012,0,0,0,.007,0l.006,0,.007,0,.007,0,.007,0,.008,0s0,0,.006,0h.005l.008,0h.014s0,0,0,0H24.2c.008,0,.014,0,.021-.008h.005l.009,0,.005,0h.006l.007,0s0,0,.006,0h.007s.005,0,.006,0h.007l.006,0,.007,0,.007,0h.013s0,0,.005,0a.207.207,0,0,1,.013,0s.007,0,.008,0,0,0,.007,0h.013s.005,0,.007,0h.008l0,0,.006,0H24.4a.006.006,0,0,1,.005,0h.009s0,0,0,0l.007,0a.009.009,0,0,1,.008,0,.006.006,0,0,0,.005,0l.008,0h.005a.5.5,0,0,0,.052-.013h.006a0,0,0,0,0,0,0l.006,0s0,0,.005,0h.008s0,0,.005,0h0s0,0,0,0h.008l.005,0a17.468,17.468,0,0,1,4.38-.493c.047,0,.093,0,.139,0,0,0,.005,0,.006,0h.02c.034,0,.064,0,.1,0h.021l.11,0a.015.015,0,0,0,.009,0h.054c.024,0,.047,0,.07,0a.037.037,0,0,1,.013,0h.042c.026,0,.049,0,.075,0h.056l.007,0h.015l.065.006h.058s0,0,.006,0h.014l.047,0a.012.012,0,0,0,.007,0h.056s0,0,.008,0l.054,0H30l.008,0h.021a.01.01,0,0,0,.007,0h.007l.006,0h.028l.006,0h.006a.257.257,0,0,1,.035,0h.048s0,0,.006,0h.042l.008,0h.007l.026,0h.007a.012.012,0,0,1,.008,0h.013a.011.011,0,0,0,.007,0H30.3a.011.011,0,0,0,.007,0h.008a.009.009,0,0,1,.007,0h.034s.006,0,.007,0h.007l.027,0h.008l.005,0h.014l.007,0h.028s.006,0,.007,0h.035l.034,0s.005,0,.007,0h.022a.005.005,0,0,0,.005,0h.021l.007,0h.029a.017.017,0,0,1,.009,0h.04s0,0,.007,0,0,0,.005,0H30.7l.008,0h.02l.007,0h.016a.008.008,0,0,1,.007,0h.021l.007,0s0,0,.006,0H30.8s.006,0,.009,0h.027s.005,0,.006,0h.023l.007,0H30.9a.007.007,0,0,1,.007,0h.006l.009,0h.007l.016,0h.007a.013.013,0,0,0,.01,0h.013a.01.01,0,0,0,.007,0h.021s.006,0,.007,0h.007a.016.016,0,0,0,.009,0h.02a.012.012,0,0,1,.008,0h.032a.011.011,0,0,0,.007,0l.007,0h.007l.006,0h.015l.008,0,.007,0h.006s.006,0,.007,0h.02l.01,0h.021a.068.068,0,0,1,.017,0h.014l.007,0h.008a.01.01,0,0,0,.007,0h.008s0,0,.006,0h.02c.005,0,.005,0,.009,0h.006a.011.011,0,0,0,.007,0h.023s0,0,.006,0h.019l0,0H31.4a.012.012,0,0,1,.008,0h.006a.01.01,0,0,0,.006,0l.007,0h.017s.005,0,.006,0h.006s.007,0,.007,0h.022s.005,0,.006,0l.012,0h.021a.008.008,0,0,0,.007,0h.021a.015.015,0,0,0,.007,0h.007s.005,0,.007,0h.014a.013.013,0,0,0,.007,0l.007,0a.011.011,0,0,0,.008,0h.021l.01,0h.017s0,0,0,0l.008,0h.008a.011.011,0,0,1,.007,0h.007a.012.012,0,0,0,.007,0l.007,0h.007s.005,0,.007,0h.015s0,0,.008,0,0,0,.007,0h.013a.062.062,0,0,1,.015,0h.01s.006,0,.007,0,.006,0,.007,0h.015l.007,0,.007,0,.008,0h.007a.011.011,0,0,1,.007,0s.006,0,.007,0a.015.015,0,0,1,.008,0h.007l.006,0h.01l0,0,.009,0,.016,0a.007.007,0,0,1,.007,0h.016s.006,0,.007,0h.007s.005,0,.007,0h.021l.007,0a.012.012,0,0,0,.009,0h.015l.007,0s0,0,.005,0h.008a.007.007,0,0,1,.007,0,.012.012,0,0,1,.008,0h.017a.009.009,0,0,1,.007,0s.005,0,.006,0h.013a.008.008,0,0,0,.007,0h.007l.007,0h.007l.007,0h.008a.005.005,0,0,1,.005,0h.021a.008.008,0,0,0,.006,0l.008,0a.008.008,0,0,1,.006,0h.007s0,0,.007,0a.008.008,0,0,0,.006,0h.008l.017.005.007,0h.013a.007.007,0,0,0,.006,0s0,0,.007,0h.013l.007,0H32.3l.008,0,.006,0h.007a.007.007,0,0,1,.006,0h.007s.005,0,.006,0a.009.009,0,0,1,.008,0h.021s0,0,.006,0h.007a.057.057,0,0,1,.015,0h.014s0,0,.006,0a.01.01,0,0,1,.007,0h.008a.015.015,0,0,1,.008,0,.008.008,0,0,1,.006,0s0,0,.005,0h.008a.011.011,0,0,1,.006,0h.008s0,0,.007,0h.013l.007,0,.006,0h.007s0,0,.006,0l.008,0,.006,0h.007l.005,0,.008,0a.052.052,0,0,0,.016,0h.008s0,0,.006,0,0,0,.006,0h.007a.016.016,0,0,1,.008,0h.013l.007,0a.011.011,0,0,1,.006,0h.007a.007.007,0,0,1,.006,0h.007l.006,0h.009s0,0,0,0h.007a.01.01,0,0,0,.006,0l.007,0H32.7a.007.007,0,0,0,.007,0l0,0,.027.006h0l.006,0,.007,0a.007.007,0,0,0,.007,0h.011s.006,0,.008,0h.013l.008,0s0,0,.007,0h.007s0,0,.006,0l.008,0h0s0,0,.005,0l.009,0s0,0,.007,0a.01.01,0,0,0,.007,0s0,0,.007,0,0,0,0,0a.007.007,0,0,1,.006,0H32.9a.005.005,0,0,0,.005,0l.008,0,.01,0s0,0,0,0h.009s0,0,.005,0,0,0,.007,0,0,0,.006,0h.007s0,0,.006,0l.007,0s0,0,.007,0h.006l.006,0a.008.008,0,0,0,.006,0H33s.006,0,.006,0l.008,0h.007s0,0,.005,0a.01.01,0,0,0,.006,0,.216.216,0,0,1,.033.01h.007l.006,0s0,0,.005,0H33.1s0,0,.006,0l.006,0h.007s.005,0,.006,0l.007,0h.006a.008.008,0,0,1,.008,0h.006l.007,0h.005l.008,0,.006,0h.013l.007,0H33.2l.011,0,.026.006.012,0h0a.007.007,0,0,1,.006,0l.007,0h.008s0,0,.006,0h.012l.007,0s.005,0,.007,0h.013l.006,0a.006.006,0,0,0,.005,0h.019l0,0h.005l.059.017h0l.005,0h.007s.005,0,.007,0h.007l.006,0,.007,0h.006s0,0,.006,0l.007,0s0,0,.006,0l.007,0s0,0,.005,0l.007,0h.007s.005,0,.006,0,0,0,.006,0h.013c.013.007.029.009.043.015h0a.026.026,0,0,0,.011,0,.017.017,0,0,1,.006,0H33.6l.007,0h.006l.006,0h.007s.005,0,.006,0h.019a.014.014,0,0,0,.009.005l.005,0h.006s0,0,.006,0h0a.489.489,0,0,1,.051.015h.007l.005,0h.006l.007,0h.013s0,0,.007,0h.011a.007.007,0,0,0,.007,0h0s0,0,.006,0h.007s0,0,0,0h.009s0,0,.005,0l.005,0h0l.075.025h.012s.005,0,.007,0h.006s0,0,.006,0h.012l0,0s0,0,.005,0h0s0,0,0,0a.007.007,0,0,1,.006,0s0,0,.006,0h.007s0,0,.006,0c.027.007.056.019.083.027h.005s0,0,.008,0l.006,0s0,0,.005,0l.007,0h.005v0s.005,0,.006,0l.006,0h0s0,0,.005,0h.012s0,0,.007,0v0l.087.028a.022.022,0,0,0,.014,0,.008.008,0,0,0,.006,0s0,0,.005,0,.006.005.013.005h0a.017.017,0,0,0,.009,0c.051.018.1.034.15.054h0c.04.016.083.026.124.042,0,0,.005,0,.006,0s0,0,.006,0,.009,0,.011,0l.151.055c.466.171.922.362,1.364.566v0c.01,0,.016.008.026.01.146.07.29.14.436.212l0,0s0,0,.005,0h0a.077.077,0,0,1,.011.006l.116.058s0,0,.005,0h0s0,0,.006,0l0,0,.006,0,.006,0s0,0,.006,0v0a.074.074,0,0,1,.018.007s0,0,.005,0h0l.049.026a.007.007,0,0,1,0,0s0,0,0,0h0s0,0,0,0,0,0,.006,0v0l.019.008s0,0,.006,0l.005,0,.006,0,.005,0v0l.008,0a.007.007,0,0,0,0,0v0l0,0,.006,0s.005,0,.006,0,0,0,0,0h.007v0a.046.046,0,0,1,.011.005l.024.012v0a.067.067,0,0,1,.015.009h0a.094.094,0,0,0,.019.01s0,0,.005,0l0,0h.007s0,0,0,0h0a.008.008,0,0,0,.005,0h0l0,0,0,0h0s0,0,0,0h0s0,0,0,0,0,0,.005,0l.007,0s0,0,.005,0h0l0,0,.028.017h0l0,0a0,0,0,0,1,0,0,.007.007,0,0,1,.006,0,.005.005,0,0,1,0,0h.006s0,0,0,0l.005,0h0s0,0,0,0l.005,0s0,0,.009.006l.006,0s0,0,0,0a.093.093,0,0,1,.019.01h0a.011.011,0,0,0,.006,0l.006,0s0,0,.005,0a.01.01,0,0,0,.006,0l.008,0s0,0,.006,0a0,0,0,0,0,0,0,.011.011,0,0,1,.006.006l.009,0s0,0,.006,0,0,0,.006.005l0,0a.006.006,0,0,1,.007,0l.006,0,.006,0a.009.009,0,0,1,.009,0,.01.01,0,0,0,.007.006s0,0,.007,0l.006,0a.008.008,0,0,1,.006,0,.009.009,0,0,0,.007,0l0,0s.006,0,.007.005.005,0,.008,0,0,0,.007,0a.006.006,0,0,1,0,.005l.008,0s0,0,0,.005l.01,0s0,0,0,.005.005,0,.008,0l.005,0a.01.01,0,0,1,.006,0s0,0,.006,0,0,0,.006,0l.014.008s.005,0,.007,0a.01.01,0,0,0,.01,0s0,0,0,0,.007,0,.007,0a.008.008,0,0,0,.007,0s0,0,.008,0,0,0,0,0h.007s0,0,.005,0a.017.017,0,0,0,.007,0l.006,0a.009.009,0,0,0,.006,0s0,.005.007.005,0,0,.007,0l.005,0a.011.011,0,0,0,.006,0s0,0,.006,0,.009.005.01.007l.008,0s0,0,0,0,0,0,.007,0,0,0,.007,0,0,0,.006,0l.005,0,.007,0s0,0,.006.005h.006l.006.005s.005,0,.008,0,0,0,.005,0l.006,0,.005.006s0,0,.008,0,0,0,.006,0l.005,0s0,0,.006,0,.01.006.015.008l.006.005s.005,0,.007,0,0,0,.005,0h.007a.008.008,0,0,0,.006.006s.005,0,.006,0,0,0,.006,0a.011.011,0,0,1,.007,0,.006.006,0,0,0,.005,0,.013.013,0,0,1,.007,0,.007.007,0,0,1,0,0s.005,0,.007,0,0,.006.005.006,0,0,.007,0l.006,0s.005,0,.007,0l.005,0s.006,0,.01.006,0,0,0,0a.017.017,0,0,0,.007,0l.006,0,.008.005a.007.007,0,0,1,0,.005s.005,0,.007,0,0,.005.006.005,0,0,.007,0,0,0,.006,0a.006.006,0,0,1,.005,0s0,0,.006,0l.007,0s0,0,.007.006l.005,0s0,0,.006,0a.008.008,0,0,1,.006,0,.012.012,0,0,0,.007,0s0,0,.006,0a.047.047,0,0,1,.009.005l.005,0,.006,0a.013.013,0,0,1,.006,0l.008,0s0,0,.006.005a.006.006,0,0,1,.005,0l.006,0s0,0,.005,0l.009,0,0,0,.007,0a.01.01,0,0,0,.006,0s0,0,.006,0,.005,0,.005.005l.007,0,0,0,.008,0a.009.009,0,0,0,.005,0l.011.005a.007.007,0,0,0,.005,0s0,0,.006,0,0,0,.005,0l.006,0s0,0,.008,0a.012.012,0,0,0,.006,0,.008.008,0,0,0,.006,0s0,0,0,0a.011.011,0,0,1,.006,0l.006,0a.025.025,0,0,0,.009.006s0,0,0,0a.01.01,0,0,1,.006,0,.028.028,0,0,1,.006.005l.006,0s.005,0,.005.005l.007,0,.012.01.007,0s.005,0,.009.005l.005,0s0,0,.006,0,0,0,.005,0,.005,0,.007,0l.007,0a.011.011,0,0,0,.006,0l.006,0a.007.007,0,0,0,.005.005l.006.005.006,0s0,0,.008.005a.007.007,0,0,0,0,0l.007,0,0,0s.005,0,.008,0l.013.008s0,0,.007.005l.006.005.007,0s0,0,.007,0a.009.009,0,0,0,.005.006l.006,0,.005,0s0,0,.006,0,.005,0,.006.005l.007,0,.006.005s0,0,.005,0l.006,0,.006,0s0,0,.006.006a.01.01,0,0,1,.006,0,.008.008,0,0,1,.005,0l.008.005.008,0s0,0,.005,0a.011.011,0,0,1,.006.006.007.007,0,0,1,.006,0s0,0,.005,0l.007,0,.006.005,0,0a.01.01,0,0,1,.006,0l.006,0s0,0,.005,0l.007,0,.006,0,.005,0s0,0,.005.005a.006.006,0,0,1,.005,0l.005,0a.017.017,0,0,1,.008,0,.009.009,0,0,1,0,0s0,0,.006,0l.005,0s0,0,.007,0,0,0,.005,0l.015.011s0,0,0,0l.009.005,0,0s0,0,.006,0a.007.007,0,0,0,.006,0s0,0,.006.005l0,0,.005,0a.006.006,0,0,1,.006,0s.005,0,.006,0l.006,0,.005,0a.014.014,0,0,1,.006,0l.006.006a.017.017,0,0,0,.006,0l0,0,.006,0s0,0,.006,0l.006,0,.006,0s0,0,.006,0,0,0,.005,0a.114.114,0,0,0,.014.008s0,0,.005,0l.007,0a.007.007,0,0,0,.005.005s0,0,0,0a.027.027,0,0,0,.006,0l.006,0,.007,0s0,0,.005,0l.006,0a.009.009,0,0,0,.005,0l.007,0a.006.006,0,0,0,0,0s0,0,.006,0a.01.01,0,0,1,.006,0l.005,0,.006,0s.005,0,.005,0l.007,0s0,0,.006,0l0,.005.005,0s.005,0,.005,0l.007,0,.013.008a.017.017,0,0,0,.006.005l.005.005a.007.007,0,0,0,.005,0s0,0,.006.005,0,0,.007.005l0,0s0,0,0,.006a.009.009,0,0,1,.007,0s0,0,.006,0,0,0,.005,0a.014.014,0,0,1,.005.005s.005,0,.006,0l.006.006s0,0,0,0l.008,0s0,0,0,0l.008,0s0,.005.006.005l.005,0s0,0,.006.006l.007,0a.117.117,0,0,0,.019.017l.006,0a.007.007,0,0,1,0,0s.005,0,.005,0l.006,0,.007,0s0,0,0,.006,0,0,.007,0,0,0,.006,0,.005,0,.006,0a0,0,0,0,0,0,0,.007.007,0,0,1,.006,0s0,0,0,0,.006,0,.006.006l.007,0a.012.012,0,0,0,.007,0l0,.005.008,0s0,0,0,.005,0,0,.007,0,0,0,0,.005.005,0,.005,0l.005,0s0,0,.006.005l.007,0a.008.008,0,0,0,.006,0l.006,0,.006.005s0,0,0,0a.008.008,0,0,1,.007,0s0,0,0,0a.009.009,0,0,1,.007,0s.005,0,.005,0l.005,0s0,0,0,.005,0,0,.006,0,.005,0,.005,0,0,0,.005,0a.008.008,0,0,1,.006,0s0,0,.006,0,0,0,0,.005.005,0,.005,0a.017.017,0,0,0,.01,0s0,0,0,0,0,0,.006.005.005,0,.005,0,.018.014.026.019,0,0,0,.005l.006,0a.007.007,0,0,0,0,.005l.006.005.006,0s0,0,0,.005a.01.01,0,0,0,.006,0s0,0,.005,0a.014.014,0,0,1,0,.006.011.011,0,0,1,.007,0,.016.016,0,0,1,.006,0s0,0,.006,0,0,.005,0,.005l.005.005s0,0,.007,0,0,0,0,0,.005,0,.006,0l.006,0a.005.005,0,0,0,.005,0,.012.012,0,0,0,.007.005s.005.005.011.007l.02.019.01.005a.007.007,0,0,0,.005,0h0s0,0,.006.005l0,0s0,0,.006,0,0,0,.005,0l.007,0,0,0,.005,0,0,0,.006,0s.005,0,.005,0l.005.005s0,0,.006,0l0,0s0,0,0,0v0l.005,0,.047.036v0s.005,0,.007,0l.005,0,0,.006a.009.009,0,0,1,.006,0l.005,0,.005,0s0,0,.006.006,0,0,0,0h0l.006,0s0,0,0,0a.006.006,0,0,1,.006,0s.005,0,.006,0,0,0,.005,0l.005.006h0l.006,0s0,0,.007.006l0,0,.035.03s.007,0,.011.008h0a.007.007,0,0,1,.005,0l.006,0s0,0,.005,0,0,0,0,.006l.006,0,0,0,.006.005s0,0,0,0,0,0,.005,0,0,0,.005.005a.006.006,0,0,1,.006,0l0,0,0,0,0,0,0,0v0c.016.011.029.02.043.032l.005,0s0,0,0,.005l.005,0h0s0,0,.005,0,0,.006.005.006,0,0,.005,0a.011.011,0,0,1,.006,0s0,0,0,0l.005,0s0,0,0,0h0s0,0,.005,0,0,.005.006.005,0,0,0,0l.005,0s0,0,0,0,0,0,.005.006h0c.021.015.041.033.061.05,0,0,0,0,.006,0s0,0,.005,0,0,0,.006,0l0,.005s0,0,.006.005a.008.008,0,0,0,0,0s0,0,.005.005h0a.01.01,0,0,1,.005,0l.007,0s0,0,0,.009h.005a.012.012,0,0,0,.005,0s0,0,0,0l.066.056s0,0,.005,0h0l0,.005a.012.012,0,0,1,.006,0s0,0,0,.005,0,0,.006,0l0,.005s0,0,0,0l0,0h0l.005,0,.005,0,0,0v0s0,0,0,0h0c.025.021.048.039.07.06.005,0,.01.005.011.01l.006,0s0,0,0,0l.011.008s0,0,.005.006,0,0,.006,0c.04.034.08.069.12.105s.068.058.1.089l0,0,.007,0s.005,0,.009.01l.12.107c.366.334.718.681,1.053,1.038a.193.193,0,0,0,.018.019c.11.119.219.24.326.36h0a.007.007,0,0,0,0,.007s0,0,0,0l.008.008v0l.086.1h0s0,0,.005.005a.01.01,0,0,0,0,0s0,0,0,0,0,0,0,.006l0,0,.005.005v0a.181.181,0,0,0,.012.013l0,0v0c.024.025.043.049.064.072,0,0,0,.006,0,.007l.006,0s0,0,.005.005,0,0,0,0v0l0,0,0,0v0s0,0,0,0a.011.011,0,0,0,.007,0s0,0,0,.007a.007.007,0,0,0,0,.005s.005,0,.005,0a.066.066,0,0,1,.008.011l.049.06s0,0,.005,0,0,0,.005.006a.046.046,0,0,1,.007.01h0s0,0,0,.005a.014.014,0,0,1,0,.005.008.008,0,0,1,0,0v0a.007.007,0,0,1,.005,0s0,0,0,0,0,0,0,0v0c.019.022.04.046.058.069v0l.005,0s0,0,0,0a.017.017,0,0,0,0,.008l0,0s0,0,0,.007l0,0s0,0,0,.006l0,0s0,0,0,0,0,.005,0,.005l0,0s0,0,0,.006l0,0,6.408-3.869a25.076,25.076,0,0,0-9.112-7.592A24.8,24.8,0,0,0,22.124,4.641a1.837,1.837,0,0,1-1.306-.121,1.869,1.869,0,0,1,.316-3.473q.837-.233,1.683-.416h0L22.9.612l.021,0h0a.1.1,0,0,1,.021,0h0c.029,0,.056-.011.084-.017h0s.006,0,.01,0h0a.012.012,0,0,0,.008,0h0l.01,0h0a.021.021,0,0,0,.011,0h0l.01,0h0l.053-.011h.011a.014.014,0,0,1,.01,0s0,0,0,0a.016.016,0,0,0,.01,0h.011l.008,0H23.2l.042-.009h0s0,0,.007,0h0l.008,0h.02l0,0h.01a.013.013,0,0,0,.009,0h0s0,0,.007,0h0a.01.01,0,0,0,.008,0h0l.019,0a.015.015,0,0,0,.009,0h0a.01.01,0,0,1,.006,0h.015l.006,0h0s0,0,.007,0,0,0,0,0h.02s0,0,.005,0l0,0h.011l.007,0h0l.011,0h0a.011.011,0,0,0,.01,0h.019s0,0,.006,0h.008a.007.007,0,0,1,.006,0h.011s0,0,0,0h.011a0,0,0,0,0,0,0h.005l.006,0h.018l.012,0H23.6s0,0,.005,0h.005l0,0s0,0,0,0h.019a0,0,0,0,1,0,0h.011l0,0s.008,0,.008,0h.014a.011.011,0,0,1,.006,0l0,0h.012a.1.1,0,0,1,.024-.005h.011l.009,0h0l.008,0h0a.016.016,0,0,1,.01,0h0s.006,0,.007,0h0s.006,0,.008,0h0l.006,0H23.8s0,0,0,0a.238.238,0,0,0,.036-.006h.012s.006,0,.007,0h.022a.019.019,0,0,0,.01,0h0a.007.007,0,0,0,.007,0h.011l.06-.011a.019.019,0,0,0,.009,0h.011L24,.4h0a.021.021,0,0,1,.01,0l.009,0,.1-.016c.039-.007.079-.014.116-.019h0A28.48,28.48,0,0,1,31.162.1h.02s0,0,0,0a.365.365,0,0,1,.062.005h.038a.012.012,0,0,0,.011,0H31.3a.018.018,0,0,0,.011,0l.011,0h0a.261.261,0,0,1,.037,0h.031a.009.009,0,0,1,.008,0h.01a.021.021,0,0,1,.011,0h.011a.019.019,0,0,0,.01,0h.014l.022,0a.023.023,0,0,0,.01,0H31.5s.008,0,.009,0h.012s.007,0,.01,0h.021l.011,0h.01s.006,0,.011,0h0a.014.014,0,0,1,.011,0h.022s0,0,0,0h.061s0,0,0,0H31.7c.012,0,.024,0,.034,0a.015.015,0,0,0,.011,0h.012l.008,0h.025A28.442,28.442,0,0,1,39.765,2.2a.037.037,0,0,1,.013,0l.009,0s.006,0,.011.005c.027.01.056.023.085.036a.019.019,0,0,1,.011,0s.006,0,.011,0l.011,0a.011.011,0,0,0,.009,0c.026.011.05.022.077.031,0,0,.005,0,.008.005a.017.017,0,0,0,.011.005l.011,0a.04.04,0,0,0,.011.007.014.014,0,0,1,.011,0c.018.007.035.015.054.021v0a.023.023,0,0,1,.011,0l.01,0s.009.006.011.006.007,0,.011,0l.011,0a.062.062,0,0,0,.019.009l.043.018a.014.014,0,0,0,.013.006.05.05,0,0,1,.011.006l.01,0,.011,0a.02.02,0,0,0,.009,0,.023.023,0,0,0,.011,0l.053.024.011.006a.015.015,0,0,1,.011,0l.011,0,.009,0,.011,0,.011.006a.017.017,0,0,0,.01,0c.014.008.029.013.042.02a.037.037,0,0,1,.011,0,.021.021,0,0,0,.011,0s.008,0,.011.006a.054.054,0,0,1,.011,0l.011.005a.022.022,0,0,1,.01,0l.01,0a.03.03,0,0,0,.01,0,.134.134,0,0,1,.032.016.026.026,0,0,1,.012,0l.012,0s.005,0,.009,0a.015.015,0,0,0,.011.006l.011.006.01,0a.024.024,0,0,1,.01,0,.064.064,0,0,0,.011,0l.01.005c.007,0,.015.007.022.011a.026.026,0,0,1,.012,0l.011.005.011.005.011,0,.008.006.011,0,.011,0a.026.026,0,0,0,.01.005.035.035,0,0,0,.011.005.1.1,0,0,1,.02.009.043.043,0,0,0,.011.005l.011,0a.089.089,0,0,0,.021.011l.011,0s.007.006.011.006l.009.006a.021.021,0,0,1,.011,0l.011,0,.021.011.011.006s.008,0,.011,0l.011.005a.024.024,0,0,1,.01,0,.03.03,0,0,1,.011,0l.011.007.009,0,.011,0a.04.04,0,0,1,.011.005l.011,0a.018.018,0,0,0,.012.005.017.017,0,0,0,.012.006.024.024,0,0,0,.01,0,.019.019,0,0,0,.011,0s.006.006.009.009l.011,0a.024.024,0,0,1,.01,0l.011,0,.011.006s0,0,.01,0,.005,0,.01.006l.011,0a.036.036,0,0,1,.011.007l.011,0a.025.025,0,0,1,.011.007.037.037,0,0,1,.011,0,.023.023,0,0,0,.011,0,.025.025,0,0,0,.011,0,.02.02,0,0,0,.009.006.043.043,0,0,0,.01.006l.011,0,.01,0,.023.012a.066.066,0,0,0,.011.005s.006,0,.011,0a.021.021,0,0,0,.01.005s.007,0,.008.005a.024.024,0,0,1,.011.006l.011,0,.011,0,.01,0c.005,0,.005.006.01.007l.01.005a.074.074,0,0,0,.017.007.053.053,0,0,1,.014.007.111.111,0,0,0,.014.006.034.034,0,0,0,.016.008l.011.006a.035.035,0,0,0,.017.006.049.049,0,0,0,.013.009.018.018,0,0,0,.012.005L41.505,3A.066.066,0,0,1,41.518,3l.014.006s.009,0,.012.005h0a.045.045,0,0,0,.014.008.054.054,0,0,0,.012.006.067.067,0,0,0,.016.008s.01.006.013.006.007.006.012.007l.017.009.013.006.011.006h0l.015.009s.008,0,.013.005l.012.007h0l.013.008.014.006.015.006a.068.068,0,0,0,.016.009.023.023,0,0,0,.011.005l.015.009.014.007a.056.056,0,0,1,.012.007l.017.007a.037.037,0,0,0,.013.006l.012.008.014.007a.031.031,0,0,1,.013.007.055.055,0,0,1,.014.006.047.047,0,0,0,.014.008l.015.007.011.007,0,0a.028.028,0,0,1,.014.006l.013.006a.033.033,0,0,1,.013.008c.005,0,.011,0,.015.008l.013.005a.143.143,0,0,1,.016.009l.013.006.013.008.015.006a.041.041,0,0,0,.013.008.027.027,0,0,0,.012.006l.016.008a.026.026,0,0,0,.013.006c.005,0,.008.008.012.008a.028.028,0,0,0,.017.006.044.044,0,0,0,.012.011l.013.006a.073.073,0,0,1,.014.008l.013.006s.008.005.013.005v0a.023.023,0,0,1,.014.006.075.075,0,0,0,.015,0c0,.006.008.007.013.011a.047.047,0,0,1,.014.008l.012.006a.058.058,0,0,1,.015.007.026.026,0,0,0,.012.007.114.114,0,0,1,.014.008s.011,0,.014.007l.015.008a.021.021,0,0,0,.01.005l.019.009s.007.005.011.009.009,0,.013.005.011.005.013.009.009,0,.013.007a.033.033,0,0,1,.012.007.154.154,0,0,1,.017.009l.013.005.011.006v0a.051.051,0,0,0,.015.005l.013.009a.3.3,0,0,0,.029.015.131.131,0,0,0,.011.007c.006,0,.011,0,.013.008s.011,0,.015.008l.013.008.014.006a.045.045,0,0,0,.014.008s.009,0,.012.007l.014.009a.058.058,0,0,0,.013.006.075.075,0,0,1,.012.008l.016.009c.006,0,.008.005.013.008a.033.033,0,0,1,.011.006l.018.009a.067.067,0,0,1,.011.006l.012.007h0a.057.057,0,0,1,.014.01.015.015,0,0,1,.011.007.044.044,0,0,1,.016.007.116.116,0,0,0,.015.008l.012.008.013.006.013.008.014.009a.07.07,0,0,0,.014.007l.014.007s.006,0,.011.008a.054.054,0,0,0,.014.008l.014.008.011.006.015.009a.065.065,0,0,0,.013.007l.012.008c.005,0,.011.006.015.008a.041.041,0,0,0,.014.006s.007.006.01.008h0l.015.01s.01.006.014.007l.013.008a.041.041,0,0,0,.013.008.1.1,0,0,0,.014.006l.012.01.014.008.013.006.016.011a.033.033,0,0,1,.011.006l.011.007a.066.066,0,0,1,.018.009l.011.008.012.006.016.01c.006,0,.008,0,.013.006a.056.056,0,0,0,.012.007.047.047,0,0,0,.014.009l.013.009.011.005v0a.16.16,0,0,1,.015.009l.012.008.012.006.016.01.011.006a.035.035,0,0,0,.015.008l.011.008c.007,0,.011,0,.014.007l.015.01.014.008s.005.005.01.008a.024.024,0,0,1,.014.008.045.045,0,0,1,.012.007.025.025,0,0,1,.013.009.047.047,0,0,1,.014.009.028.028,0,0,1,.013.007.071.071,0,0,1,.011.005l.017.011a.081.081,0,0,1,.012.006l.011.008a.151.151,0,0,0,.017.008.027.027,0,0,0,.011.007.058.058,0,0,0,.013.011.032.032,0,0,1,.013.007l.012.007.013.009.013.008.014.008s.008.006.013.008l.012.008.012.006a.078.078,0,0,0,.015.011l.012.006.011.008.015.01a.032.032,0,0,0,.013.007l.012.007.015.011.011.007s.007,0,.012.007a.156.156,0,0,0,.015.011s.008.005.011.005l.013.01a.042.042,0,0,1,.013.01c.005,0,.009,0,.012,0s.009,0,.014.01l.014.009s.005,0,.011.008l.015.006a.019.019,0,0,0,.013.009c0,.005.007.005.012.009a.105.105,0,0,0,.014.007.081.081,0,0,0,.012.01l.012.006s.009.005.014.011.007.005.012.009.007,0,.011.005.01.007.015.009a.087.087,0,0,0,.012.008l.011.007a.048.048,0,0,1,.015.011c.005,0,.01.006.012.006s.007.006.012.006v0l.013.009s.01.007.011.008.012.005.016.01a.09.09,0,0,0,.011.008s.009.006.013.006l.014.01s.007.006.011.009l.012.007a.029.029,0,0,1,.011.009l.012.005a.047.047,0,0,0,.014.009l.012.01a.047.047,0,0,0,.013.007l.012.009.014.008.012.009s.008.005.011.008l.012.008.012.008a.076.076,0,0,1,.012.01.043.043,0,0,1,.014.009.049.049,0,0,1,.012.008l.014.009c.005,0,.007.005.011.008a.048.048,0,0,0,.013.007l.016.011.011.005s.01.007.011.011a.04.04,0,0,1,.015.009s.008,0,.012.007.009,0,.013.008a.125.125,0,0,1,.011.011.057.057,0,0,1,.014.008c.005,0,.007.006.014.008a.037.037,0,0,0,.011.007l.013.01a.035.035,0,0,0,.012.007.044.044,0,0,1,.014.01s.007,0,.01.009.011.006.015.008a.092.092,0,0,0,.011.008l.012.008.015.011a.025.025,0,0,1,.011.008c.005,0,.008.006.011.007a.179.179,0,0,0,.016.011l.011.005.012.011a.076.076,0,0,1,.014.009l.011.007.012.009a.088.088,0,0,1,.015.01l.011.008c.005,0,.009.006.014.008a.054.054,0,0,0,.012.009.02.02,0,0,0,.012.008.073.073,0,0,1,.013.01.05.05,0,0,1,.012.009.077.077,0,0,1,.012.007l.014.01s.008.005.012.009.008,0,.012.008A.035.035,0,0,0,44.934,5l.011.009.011.008.016.01.01.008L45,5.045l.014.011a.03.03,0,0,1,.011.008.033.033,0,0,1,.012.008s.011.006.013.01a.028.028,0,0,1,.011.006l.014.011.012.009.011.007a.072.072,0,0,0,.015.01.089.089,0,0,0,.014.011.077.077,0,0,1,.012.007s.008.006.011.008v0l.013.008a.075.075,0,0,0,.012.01l.013.009a.043.043,0,0,0,.012.008.028.028,0,0,0,.011.008l.015.011.013.007.01.009a.055.055,0,0,0,.014.009l.011.01.011.007.013.01a.135.135,0,0,0,.012.008l.011.011.017.008a.029.029,0,0,1,.011.009.023.023,0,0,0,.011.006.054.054,0,0,0,.016.011l.01.008.014.009a.088.088,0,0,0,.013.011.032.032,0,0,1,.011.008.03.03,0,0,1,.013.008s.007.006.011.009l.013.007a.025.025,0,0,0,.012.009s.009.007.013.011L45.5,5.4l.013.01a.026.026,0,0,0,.014.008.047.047,0,0,0,.009.011.061.061,0,0,1,.015.01l.011.006c0,.005.009.006.01.011a.042.042,0,0,1,.016.011s.008,0,.012.005.007.006.011.009.011.008.013.011a.02.02,0,0,1,.011.007c.007,0,.008.008.013.009a.044.044,0,0,0,.016.009s0,.006.008.011.008.006.013.008.007.007.012.008l.011.011c.005,0,.007.005.015.008l.01.009.011.008a.044.044,0,0,0,.012.009l0,0a.033.033,0,0,1,.012.008.039.039,0,0,1,.011.008l.014.01.011.01s.008,0,.01.007a.058.058,0,0,0,.014.01.147.147,0,0,1,.011.011s.008,0,.011.008h0l.013.01a.075.075,0,0,0,.012.008.021.021,0,0,0,.01.008.156.156,0,0,0,.015.011s.008.006.011.01.007.006.012.008a.043.043,0,0,1,.013.012s.007,0,.012.006a.053.053,0,0,0,.011.008.082.082,0,0,0,.012.012.044.044,0,0,1,.012.007A.151.151,0,0,0,46,5.766a.063.063,0,0,0,.011.011l.011.008.012.01a.029.029,0,0,0,.013.009.037.037,0,0,0,.011.007v0l.013.01.011.008.011.011a.027.027,0,0,1,.013.01.037.037,0,0,1,.012.008.129.129,0,0,0,.021.015c0,.005.008.005.011.011l.014.009.011.009a.043.043,0,0,1,.011.011s.009.007.013.009l.011.008.013.011.011.01a.037.037,0,0,1,.012.008l.012.011a.025.025,0,0,1,.012.01l.011.007L46.3,6,46.314,6l.011.01h0l.022.017a.051.051,0,0,0,.011.009l0,0,.011.007,0,0c.005,0,.009.008.013.01l.011.008a.127.127,0,0,1,.01.011l.011.006a.065.065,0,0,0,.011.009.05.05,0,0,0,.013.011l.01.009.011.009,0,0,.011.009.011.007c0,.005.007.007.01.011l.016.01.01.009a.1.1,0,0,0,.014.01v0a.021.021,0,0,1,.01.006l.013.011a.05.05,0,0,0,.01.01h0s.005.006.009.01a.086.086,0,0,0,.013.009s0,0,0,0a.125.125,0,0,0,.02.016.06.06,0,0,0,.011.011l0,0a.023.023,0,0,0,.01.008s.007.005.01.008a.019.019,0,0,0,.011.009s0,0,0,0l.012.008a.023.023,0,0,0,.011.008.019.019,0,0,0,.011.009s0,0,0,0a.042.042,0,0,0,.01.009s.005.006.011.008.008.006.013.011h0l.011.009a.043.043,0,0,0,.012.008l.011.011h0a.056.056,0,0,0,.011.01.022.022,0,0,1,.011.01l.013.011a.075.075,0,0,0,.012.008l.01.008s0,0,0,0l.01.006c0,.005.007.008.011.009s.007.007.011.011h0l.011.011s.006.005.011.009.007.007.01.008,0,0,0,0,.007.005.011.008.009.007.011.008a.063.063,0,0,0,.012.009s0,0,0,0,.008.005.01.01a.044.044,0,0,1,.011.01s.007,0,.011.008,0,0,0,0a.055.055,0,0,0,.011.007A.045.045,0,0,0,47,6.548s0,0,0,0a.043.043,0,0,0,.008.01s0,0,0,0,.007,0,.011.006l.011.008s0,0,0,0a.036.036,0,0,0,.011.009h0a.067.067,0,0,1,.012.009.116.116,0,0,1,.009.01h0a.038.038,0,0,0,.011.01.027.027,0,0,0,.011.009l.01.009h0s.006.006.011.01a.038.038,0,0,0,.011.01l.01.008s0,0,0,0a.034.034,0,0,1,.011.008.046.046,0,0,1,.01.009l.011.009s0,0,0,0l.011.008.011.009a.079.079,0,0,0,.012.011h0l.011.01c.005,0,.007.006.011.009a0,0,0,0,1,0,0l.01.01h0l.011.008.01.009s0,0,0,0,.006,0,.008.009h0A.061.061,0,0,1,47.3,6.8s0,0,0,0a.056.056,0,0,0,.011.009l.009.009a.061.061,0,0,1,.011.01h0l.011.01h0l.011.007a.039.039,0,0,0,.01.011l0,0s.007.006.011.011h0a.021.021,0,0,1,.009.007s0,0,0,0,.006.005.011.006v0a.049.049,0,0,0,.012.011h0l.008.007s0,0,0,0,.008.006.01.006,0,0,0,0l.013.01h0s.006.006.01.008v0l.022.018h0l.009.009,0,0a.132.132,0,0,1,.021.018h0s.006.006.007.008,0,0,0,0,.013.014.021.018l0,0s0,.005.008.009h0a.038.038,0,0,0,.011.01s.006.005.011.008a.019.019,0,0,0,.009.01,0,0,0,0,0,0,0l.011.008,0,0,.009.005s0,0,0,0a.013.013,0,0,0,.009.008v0s.007.007.012.008,0,0,0,0,0,0,.007.007l0,0a.024.024,0,0,0,.009.008h0a.033.033,0,0,0,.011.01l0,0s0,0,.008.008v0a.065.065,0,0,0,.01.008h0l.011.011s0,0,0,0,.006,0,.007.007h0a.115.115,0,0,0,.021.02s0,0,0,0,.006,0,.007.007a0,0,0,0,1,0,0l.021.016s0,0,0,0a.024.024,0,0,0,.007.009s0,0,0,0,.006.006.008.009h0a.036.036,0,0,0,.009.008s0,0,0,0a.031.031,0,0,0,.008.007l0,0s.007.006.011.008,0,0,0,0l.009.008,0,0s.006,0,.007.007,0,0,0,0a.113.113,0,0,1,.011.009l0,0s.006,0,.008.008l0,0,.008.008h0a.029.029,0,0,0,.012.011v0s.006.006.009.007,0,0,0,0a.076.076,0,0,1,.01.008h0l.011.009s0,0,0,0l.007.007s0,0,0,0a.2.2,0,0,0,.021.018h0s0,.007.008.007,0,0,0,.005A.106.106,0,0,1,48,7.416h0a.024.024,0,0,1,.007.009s0,0,0,0,.006.005.011.009a.053.053,0,0,0,.011.008s0,0,0,0a.031.031,0,0,0,.009.007s0,0,0,0a.057.057,0,0,1,.011.01h0a.026.026,0,0,0,.01.01h0a.027.027,0,0,0,.009.009v0a.03.03,0,0,0,.011.008v0a.041.041,0,0,0,.01.009s0,0,0,0,.007.008.009.01.009.005.011.008l0,0a.079.079,0,0,0,.01.009s0,0,0,0l.02.02h0l.009.009h0l.022.019v0s.006.005.009.009h0a.24.24,0,0,0,.022.02h0a.023.023,0,0,0,.009.008h0a.055.055,0,0,0,.022.02v0a.028.028,0,0,1,.009.009l0,0a.056.056,0,0,1,.011.009l.011.011s0,0,0,0l.011.008a.044.044,0,0,1,.011.011h0a.112.112,0,0,0,.011.009v0c.007.005.013.012.02.019h0l.01.01h0c.007.009.013.014.021.023h0l.01.008s0,0,0,0,.012.014.019.02h0a.094.094,0,0,1,.011.009h0c.006.006.015.013.02.019s0,0,0,0l.01.01h0a.086.086,0,0,1,.019.02h0a.042.042,0,0,1,.011.01h0a.225.225,0,0,1,.021.02.337.337,0,0,0,.032.03h0a.25.25,0,0,1,.031.03l0,0a.121.121,0,0,1,.022.02l.01.008v0l.023.02h0s.007.005.01.009v0c.008.005.014.014.022.019s0,0,0,0,0,.007.008.009h0a.211.211,0,0,1,.019.02h0s0,.008.01.01a.247.247,0,0,0,.021.022l.031.03h0a.188.188,0,0,0,.029.03v0l.021.02.011.011h0l.02.02h0l.011.008v0l.021.02h0c.012.01.02.02.032.03h0a.038.038,0,0,0,.011.012.225.225,0,0,1,.021.02c.011.01.02.022.031.032h0L49,8.362l.052.052.011.011a.22.22,0,0,1,.02.021l0,0c.011.01.021.019.031.029l.032.032c.01.011.021.021.031.034l.032.031a.167.167,0,0,1,.02.022s.009,0,.011.009h0c.019.019.034.037.052.054h0A28.839,28.839,0,0,1,52.8,13.035a1.794,1.794,0,0,1,.146.267,1.844,1.844,0,0,1,.139.2,1.869,1.869,0,0,1-.635,2.56l-9.274,5.6a1.843,1.843,0,0,1-.954.266,1.862,1.862,0,0,1-1.005-.3,1.862,1.862,0,0,1-1.042-.732,13.851,13.851,0,0,0-3.763-3.672,1.265,1.265,0,0,1-.143-.085q-.511-.332-1.044-.619a13.832,13.832,0,0,0-9.9-1.158,1.916,1.916,0,0,1-.469.058,13.784,13.784,0,0,0-3.076,1.309l2.476,2.988a10.169,10.169,0,0,1,12.974,3.465,10.3,10.3,0,0,1-2.753,14.246,10.162,10.162,0,0,1-14.164-2.769Z"
          transform="translate(11244.119 -3852.686)"/>
  </g>
</svg>