<?xml version="1.0" standalone="no"?><!DOCTYPE svg PUBLIC "-//W3C//DTD SVG 1.1//EN" "http://www.w3.org/Graphics/SVG/1.1/DTD/svg11.dtd"><svg t="1620266927308" class="icon" viewBox="0 0 1024 1024" version="1.1" xmlns="http://www.w3.org/2000/svg" p-id="3670" xmlns:xlink="http://www.w3.org/1999/xlink" width="80" height="80"><defs><style type="text/css"></style></defs><path d="M575.528605 63.953713v63.953714h-127.907427v-63.953714a63.953713 63.953713 0 0 1 63.953714-63.953713 63.953713 63.953713 0 0 1 63.953713 63.953713zM624.133428 921.573012A108.081776 108.081776 0 0 1 511.574892 1023.898953 108.081776 108.081776 0 0 1 400.934967 921.573012" p-id="3671"></path><path d="M927.913567 776.398082l-68.430474-94.011959v-255.814854a347.908201 347.908201 0 0 0-695.816403 0v255.814854l-63.953713 91.45381v3.197686a92.093347 92.093347 0 0 0 0 96.570107 95.93057 95.93057 0 0 0 84.418902 47.965286h660.64186a95.93057 95.93057 0 0 0 84.418902-47.965286 93.372422 93.372422 0 0 0-1.279074-97.209644z m-86.977051 42.209451a19.186114 19.186114 0 0 1-15.988428 8.95352H189.887713a17.90704 17.90704 0 0 1-7.674446-24.302411l63.953714-86.337514a63.953713 63.953713 0 0 0 12.790743-39.651302V431.687566a255.814854 255.814854 0 0 1 507.792485 0v243.663649a63.953713 63.953713 0 0 0 12.790742 40.290839l63.953714 85.697976a18.546577 18.546577 0 0 1-2.558149 17.267503z" p-id="3672"></path><path d="M457.214235 383.082744m0 47.965285l0 161.802895q0 47.965285-47.965285 47.965285l0 0q-47.965285 0-47.965285-47.965285l0-161.802895q0-47.965285 47.965285-47.965285l0 0q47.965285 0 47.965285 47.965285Z" p-id="3673"></path></svg>