<svg t="1620194602749" class="icon" viewBox="0 0 1024 1024" version="1.1" xmlns="http://www.w3.org/2000/svg" p-id="5023"
     width="80" height="80">
  <path
    d="M512 192c188.522667 0 341.333333 152.810667 341.333333 341.333333v234.666667h10.666667a32 32 0 0 1 0 64l-193.749333 0.021333a170.730667 170.730667 0 0 1-316.501334 0L160 832a32 32 0 0 1 0-64H170.666667V533.333333c0-188.522667 152.810667-341.333333 341.333333-341.333333z m85.333333 640.021333h-170.666666A106.496 106.496 0 0 0 512 874.666667a106.496 106.496 0 0 0 85.333333-42.645334zM512 256c-150.976 0-273.770667 120.64-277.248 270.784L234.666667 533.333333v234.666667h554.666666V533.333333c0-153.173333-124.16-277.333333-277.333333-277.333333z m33.92 106.986667a32 32 0 0 1 41.621333-17.770667A202.709333 202.709333 0 0 1 714.666667 533.333333a32 32 0 0 1-64 0 138.709333 138.709333 0 0 0-86.997334-128.725333 32 32 0 0 1-17.749333-41.621333zM578.666667 85.333333C600.768 85.333333 618.666667 99.669333 618.666667 117.333333S600.746667 149.333333 578.666667 149.333333h-133.333334C423.232 149.333333 405.333333 134.997333 405.333333 117.333333S423.253333 85.333333 445.333333 85.333333h133.333334z"
    fill="#4E4E4E" p-id="5024"></path>
</svg>