<svg xmlns="http://www.w3.org/2000/svg" width="32" height="33" viewBox="0 0 32 33">
  <g fill="none" fill-rule="evenodd">
    <path stroke="currentColor" stroke-width="1.33" d="M20.613-.665H2.347C1.507-.665.74-.286.188.342c-.524.595-.853 1.415-.853 2.325v12c0 .91.33 1.73.853 2.325.553.627 1.318 1.006 2.159 1.006h18.266c.84 0 1.606-.379 2.159-1.006.52-.592.85-1.407.853-2.31l.048-1.094 3.597 1.133c.274.164.58.249.89.249.516 0 .989-.23 1.329-.616.311-.354.51-.841.51-1.383v-8.69c0-.333-.077-.66-.22-.95-.248-.498-.655-.826-1.102-.968-.442-.14-.929-.103-1.367.146l-3.685 1.159V2.667c0-.91-.33-1.73-.853-2.325-.553-.628-1.318-1.007-2.159-1.007z" transform="translate(1.333 8.083)"></path>
    <path fill="currentColor" fill-rule="nonzero" d="M10.333 12.75l6.016-3.509c.317-.185.424-.592.239-.91-.058-.098-.14-.18-.24-.239l-6.015-3.509c-.317-.185-.724-.078-.91.24-.058.101-.09.217-.09.335v7.018c0 .367.298.665.665.665.118 0 .234-.032.335-.091z" transform="translate(1.333 8.083)"></path>
  </g>
</svg>