<svg
  t="1625312338794"
  class="icon"
  viewBox="0 0 1024 1024"
  version="1.1"
  xmlns="http://www.w3.org/2000/svg"
  p-id="2405"
  width="32"
  height="32"
  >
<path
d="M624.99264 710.848l0 120.576q0 38.272-22.272 38.272-13.152 0-25.728-12.576l0-172q12.576-12.576 25.728-12.576 22.272 0 22.272 38.272zM818.14464 711.424l0 26.272-51.424 0 0-26.272q0-38.848 25.728-38.848t25.728 38.848zM266.14464 586.848l61.152 0 0-53.728-178.272 0 0 53.728 60 0 0 325.152 57.152 0 0-325.152zM430.72064 912l50.848 0 0-282.272-50.848 0 0 216q-17.152 24-32.576 24-10.272 0-12-12-0.576-1.728-0.576-20l0-208-50.848 0 0 223.424q0 28 4.576 41.728 6.848 21.152 33.152 21.152 27.424 0 58.272-34.848l0 30.848zM675.87264 827.424l0-112.576q0-41.728-5.152-56.576-9.728-32-40.576-32-28.576 0-53.152 30.848l0-124-50.848 0 0 378.848 50.848 0 0-27.424q25.728 31.424 53.152 31.424 30.848 0 40.576-31.424 5.152-15.424 5.152-57.152zM868.99264 821.728l0-7.424-52 0q0 29.152-1.152 34.848-4 20.576-22.848 20.576-26.272 0-26.272-39.424l0-49.728 102.272 0 0-58.848q0-45.152-15.424-66.272-22.272-29.152-60.576-29.152-38.848 0-61.152 29.152-16 21.152-16 66.272l0 98.848q0 45.152 16.576 66.272 22.272 29.152 61.728 29.152 41.152 0 61.728-30.272 10.272-15.424 12-30.848 1.152-5.152 1.152-33.152zM521.56864 300l0-120q0-39.424-24.576-39.424t-24.576 39.424l0 120q0 40 24.576 40t24.576-40zM932.41664 729.152q0 133.728-14.848 200-8 33.728-33.152 56.576t-58.272 26.272q-105.152 12-317.152 12t-317.152-12q-33.152-3.424-58.56-26.272t-32.864-56.576q-14.848-64-14.848-200 0-133.728 14.848-200 8-33.728 33.152-56.576t58.848-26.848q104.576-11.424 316.576-11.424t317.152 11.424q33.152 4 58.56 26.848t32.864 56.576q14.848 64 14.848 200zM362.14464 0l58.272 0-69.152 228 0 154.848-57.152 0 0-154.848q-8-42.272-34.848-121.152-21.152-58.848-37.152-106.848l60.576 0 40.576 150.272zM573.56864 190.272l0 100q0 46.272-16 67.424-21.152 29.152-60.576 29.152-38.272 0-60-29.152-16-21.728-16-67.424l0-100q0-45.728 16-66.848 21.728-29.152 60-29.152 39.424 0 60.576 29.152 16 21.152 16 66.848zM764.99264 97.728l0 285.152-52 0 0-31.424q-30.272 35.424-58.848 35.424-26.272 0-33.728-21.152-4.576-13.728-4.576-42.848l0-225.152 52 0 0 209.728q0 18.848 0.576 20 1.728 12.576 12 12.576 15.424 0 32.576-24.576l0-217.728 52 0z"
p-id="2406"
></path>
  </svg>