<svg xmlns="http://www.w3.org/2000/svg" width="36" height="36" viewBox="0 0 36 36">
  <g id="展开" transform="translate(-391 -225)">
    <path id="联合_73" data-name="联合 73" d="M22761.52,4197.891a1.517,1.517,0,0,1-1.516-1.522v-1.519a1.517,1.517,0,0,1,1.516-1.522h30.352a1.52,1.52,0,0,1,1.52,1.522v1.519a1.52,1.52,0,0,1-1.52,1.522Zm0-12.691a1.517,1.517,0,0,1-1.516-1.522v-1.519a1.517,1.517,0,0,1,1.516-1.522h30.352a1.52,1.52,0,0,1,1.52,1.522v1.519a1.52,1.52,0,0,1-1.52,1.522Zm29.258-10.283-5.193-5.208-5.186,5.208a1.537,1.537,0,0,1-2.166,0,1.543,1.543,0,0,1,0-2.178l6.268-6.287a1.531,1.531,0,0,1,2.168,0l6.273,6.287a1.534,1.534,0,0,1-1.084,2.624A1.508,1.508,0,0,1,22790.777,4174.917Zm-28.834-2.229a1.517,1.517,0,0,1-1.518-1.519v-1.522a1.52,1.52,0,0,1,1.518-1.522h10.809a1.514,1.514,0,0,1,1.514,1.522v1.522a1.517,1.517,0,0,1-1.518,1.519Z" transform="translate(-22368.004 -3939.002)" fill="#333"/>
    <rect id="矩形_1814" data-name="矩形 1814" width="36" height="36" transform="translate(391 225)" fill="none"/>
  </g>
</svg>
