<svg xmlns="http://www.w3.org/2000/svg" width="33.997" height="33.997" viewBox="0 0 33.997 33.997">
  <circle class="a" style="fill:#fff;" cx="15" cy="15" r="15" transform="translate(2 1.499)"/>
  <path class="b" style="fill:#15c39a;"
        d="M17,0A17,17,0,1,0,34,17,17.049,17.049,0,0,0,17,0Zm7.461,18.415H18.415v4.344c1.889.378,2.928,1.322,2.928,2.55,0,1.511-1.983,2.739-4.344,2.739s-4.344-1.228-4.344-2.739c0-1.228,1.039-2.266,2.928-2.55V18.415H9.444c-1.133,0-1.7-.944-1.7-2.078L8.877,10.86c.189-.944,1.417-2.172,2.078-2.172h1.039V8.122a1.525,1.525,0,0,1,.85-1.322,2.851,2.851,0,0,1,1.228-.283V6.138h1.7V7.366h-1.7V7.177c-.094,0-.755-.094-.944.094-.378.378-.378.189-.472.85v.567l10.388.094c1.133,0,1.794.944,1.983,2.078l1.133,5.477c0,1.133-.567,2.078-1.7,2.078Z"/>
  <path class="b" style="fill:#15c39a;"
        d="M444.1,734.339c0,.094,0,.094-.094.094a.877.877,0,0,1-1.7,0l-.094-.094v-.472c-.85.189-1.322.567-1.322,1.039,0,.661,1.039,1.133,2.172,1.133s2.172-.472,2.172-1.133c0-.472-.472-.85-1.322-1.039v.472Z"
        transform="translate(-426.251 -709.502)"/>
  <path class="b" style="fill:#15c39a;"
        d="M297.5,324.3a.609.609,0,0,0,.567-.567v-5.383h-1.133v5.383A.5.5,0,0,0,297.5,324.3Zm5.194-14.26h-10.2v.567a.432.432,0,0,1,.472.378c0,.189-.283.378-.661.378s-.661-.189-.661-.378a.432.432,0,0,1,.472-.378v-.567c-.378,0-.944.378-.944.756l-1.039,5.194a.745.745,0,0,0,.755.755h12.938a.812.812,0,0,0,.756-.755l-1.039-5.194c.189-.472-.472-.756-.85-.756Z"
        transform="translate(-280.5 -299.75)"/>
</svg>