<svg xmlns="http://www.w3.org/2000/svg" width="44" height="44" viewBox="0 0 44 44">
  <g id="组_4383" data-name="组 4383" transform="translate(-4231 10852)">
    <g id="组_4382" data-name="组 4382" transform="translate(4231.3 -10946.4)">
      <path id="路径_2081" data-name="路径 2081" d="M265.764,119.936a10.274,10.274,0,1,1,7.259-3.009,10.191,10.191,0,0,1-7.259,3.009Zm0-17.495a7.227,7.227,0,1,0,7.227,7.227A7.234,7.234,0,0,0,265.764,102.441Z" transform="translate(-243.644 0)" fill="#15c39a"/>
      <path id="路径_2082" data-name="路径 2082" d="M34.689,299.213a1.52,1.52,0,0,1-1.521-1.521,11.04,11.04,0,1,0-22.081,0,1.521,1.521,0,1,1-3.041,0A14.085,14.085,0,0,1,35.1,292.21a13.967,13.967,0,0,1,1.108,5.482,1.522,1.522,0,0,1-1.521,1.521ZM3.221,293.687A1.52,1.52,0,0,1,1.7,292.166a9.151,9.151,0,0,1,2.693-6.507,9.3,9.3,0,0,1,1.877-1.449,6.87,6.87,0,0,1,1.012-10.916,1.52,1.52,0,0,1,1.6,2.585,3.831,3.831,0,0,0,2.017,7.087h0a1.521,1.521,0,0,1,0,3.041h0a6.163,6.163,0,0,0-6.158,6.158,1.526,1.526,0,0,1-1.525,1.521Z" transform="translate(0 -166.716)" fill="#15c39a"/>
      <path id="路径_2083" data-name="路径 2083" d="M764.3,293.352a1.52,1.52,0,0,1-1.521-1.521,6.163,6.163,0,0,0-6.158-6.158,1.521,1.521,0,1,1,0-3.041,3.831,3.831,0,0,0,2.017-7.087,1.52,1.52,0,0,1,1.6-2.585,6.869,6.869,0,0,1,1.012,10.916,9.3,9.3,0,0,1,1.877,1.449,9.144,9.144,0,0,1,2.693,6.507A1.52,1.52,0,0,1,764.3,293.352Z" transform="translate(-723.252 -166.398)" fill="#15c39a"/>
    </g>
    <rect id="矩形_1818" data-name="矩形 1818" width="44" height="44" transform="translate(4231 -10852)" fill="none"/>
  </g>
</svg>
