<svg xmlns="http://www.w3.org/2000/svg" width="32" height="32" viewBox="0 0 32 32">
  <g id="组_3099" data-name="组 3099" transform="translate(-1538 -236)">
    <circle id="椭圆_176" data-name="椭圆 176" cx="16" cy="16" r="16" transform="translate(1538 236)" fill="#dfdfdf"/>
    <path id="路径_1353" data-name="路径 1353" d="M270.191,260.872h-1.468V268.7a1.957,1.957,0,0,1-1.957,1.957h-6.851a1.957,1.957,0,0,1-1.957-1.957v-7.829h-1.468a.489.489,0,0,1-.489-.489V259.4a.489.489,0,0,1,.489-.489h3.425v-1.957A1.957,1.957,0,0,1,261.872,255h2.936a1.957,1.957,0,0,1,1.957,1.957v1.957h3.425a.489.489,0,0,1,.489.489v.979A.489.489,0,0,1,270.191,260.872Zm-9.3,0h-.979V268.7h.979Zm1.957,7.829h.979v-7.829h-.979Zm1.957-11.255a.489.489,0,0,0-.489-.489h-1.957a.489.489,0,0,0-.489.489v1.468h2.936Zm1.957,3.425h-.979V268.7h.979Z" transform="translate(1290.66 -10.829)" fill="#484848"/>
  </g>
</svg>
