<svg xmlns="http://www.w3.org/2000/svg" width="40" height="40" viewBox="0 0 40 40">
  <g id="组_3098" data-name="组 3098" transform="translate(-1148 -81)">
    <g id="组_2452" data-name="组 2452" transform="translate(1046.967 -34.555)">
      <path id="路径_1323" data-name="路径 1323" d="M257.987,432.507h0a2.427,2.427,0,1,0,4.855,0h0a2.427,2.427,0,1,0-4.855,0Z" transform="translate(-148.775 -298.588)" fill="#15c39a"/>
      <path id="路径_1324" data-name="路径 1324" d="M459.935,432.507h0a2.427,2.427,0,1,0,4.855,0h0a2.427,2.427,0,1,0-4.855,0Z" transform="translate(-341.129 -298.588)" fill="#15c39a"/>
      <path id="路径_1325" data-name="路径 1325" d="M661.883,432.507a2.427,2.427,0,1,0,2.427-2.427A2.427,2.427,0,0,0,661.883,432.507Z" transform="translate(-533.483 -298.588)" fill="#15c39a"/>
      <path id="路径_1326" data-name="路径 1326" d="M139.309,127.116a17.325,17.325,0,0,0-4.226-5.506,21.375,21.375,0,0,0-27.5,0,17.263,17.263,0,0,0-4.226,5.506,15.57,15.57,0,0,0-1.562,6.8,15.845,15.845,0,0,0,2.179,7.962,18.117,18.117,0,0,0,5.126,5.552v5.737a1.388,1.388,0,0,0,.692,1.2,1.389,1.389,0,0,0,1.384,0l6.071-3.506a22.012,22.012,0,0,0,4.088.381,20.768,20.768,0,0,0,13.751-5.01,17.262,17.262,0,0,0,4.226-5.506,15.605,15.605,0,0,0,0-13.613Zm-17.977,21.362a19.272,19.272,0,0,1-4.036-.427,1.383,1.383,0,0,0-.98.156l-4.451,2.571v-4.071a1.4,1.4,0,0,0-.623-1.159,13.915,13.915,0,0,1-6.688-11.629c0-8.026,7.524-14.552,16.778-14.552s16.778,6.527,16.778,14.552-7.53,14.558-16.778,14.558Z" transform="translate(0 0)" fill="#15c39a"/>
    </g>
    <rect id="矩形_1460" data-name="矩形 1460" width="40" height="40" transform="translate(1148 81)" fill="none"/>
  </g>
</svg>
