<svg xmlns="http://www.w3.org/2000/svg" width="43" height="43" viewBox="0 0 43 43">
  <g id="组_2692" data-name="组 2692" transform="translate(-937 -277)">
    <circle id="椭圆_175" data-name="椭圆 175" style="fill: #fff;" class="cls-1" cx="21.5" cy="21.5" r="21.5" transform="translate(937 277)"/>
    <g id="组_2457" data-name="组 2457" transform="translate(847.207 172.4)">
      <path id="路径_1323" data-name="路径 1323" class="cls-2" style="fill: #182552;" d="M257.987,431.253h0a1.173,1.173,0,1,0,2.347,0h0a1.173,1.173,0,1,0-2.347,0Z" transform="translate(-152.608 -306.282)"/>
      <path id="路径_1324" data-name="路径 1324" class="cls-2" style="fill: #182552;"  d="M459.935,431.253h0a1.173,1.173,0,1,0,2.347,0h0a1.173,1.173,0,0,0-2.347,0Z" transform="translate(-349.919 -306.282)"/>
      <path id="路径_1325" data-name="路径 1325" class="cls-2" style="fill: #182552;"  d="M661.883,431.253a1.173,1.173,0,1,0,1.173-1.173A1.173,1.173,0,0,0,661.883,431.253Z" transform="translate(-547.229 -306.282)"/>
      <path id="路径_1326" data-name="路径 1326" class="cls-2" style="fill: #182552;"  d="M119.926,121.682a8.374,8.374,0,0,0-2.043-2.661,10.332,10.332,0,0,0-13.294,0,8.344,8.344,0,0,0-2.043,2.661,7.526,7.526,0,0,0-.755,3.289,7.659,7.659,0,0,0,1.053,3.849,8.757,8.757,0,0,0,2.478,2.684v2.773a.671.671,0,0,0,.334.58.672.672,0,0,0,.669,0l2.935-1.694a10.641,10.641,0,0,0,1.976.184,10.039,10.039,0,0,0,6.647-2.422,8.344,8.344,0,0,0,2.043-2.661,7.543,7.543,0,0,0,0-6.58Zm-8.69,10.325a9.315,9.315,0,0,1-1.951-.206.669.669,0,0,0-.474.075l-2.152,1.243v-1.968a.676.676,0,0,0-.3-.56,6.726,6.726,0,0,1-3.233-5.621c0-3.879,3.637-7.034,8.11-7.034s8.11,3.155,8.11,7.034-3.64,7.037-8.11,7.037Z" transform="translate(0 0)"/>
    </g>
  </g>
</svg>
