<svg xmlns="http://www.w3.org/2000/svg" xmlns:xlink="http://www.w3.org/1999/xlink" width="68" height="68"
     viewBox="0 0 68 68">
  <defs>
    <style>.c{filter:url(#a);}</style>
    <filter id="a" x="0" y="0" width="68" height="68" filterUnits="userSpaceOnUse">
      <feOffset dy="3" input="SourceAlpha"/>
      <feGaussianBlur stdDeviation="3" result="b"/>
      <feFlood flood-color="#7a7a7a" flood-opacity="0.161"/>
      <feComposite operator="in" in2="b"/>
      <feComposite in="SourceGraphic"/>
    </filter>
  </defs>
  <g transform="translate(24271 8092)">
    <g class="c" transform="matrix(1, 0, 0, 1, -24271, -8092)">
      <path class="a" style="fill:rgba(255,255,255,0.9);" d="M25,0A25,25,0,1,1,0,25,25,25,0,0,1,25,0Z" transform="translate(9 6)"/>
    </g>
    <path class="b" style="fill:#15c39a;"
          d="M10.33,21.506h-.154V17.929c0-1.338-.74-1.9-1.653-1.135L.041,23.871a1.736,1.736,0,0,0,0,2.763l8.42,7c.913.757,1.716-.012,1.716-1.139V28.721h1.275a8.8,8.8,0,0,1,8.212,4.831c.338.577.693.451.693,0-.073-5.67-4.7-12.044-10.025-12.044v0Z"
          transform="translate(-24246.355 -8086.451)"/>
  </g>
</svg>