<?xml version="1.0" standalone="no"?><!DOCTYPE svg PUBLIC "-//W3C//DTD SVG 1.1//EN" "http://www.w3.org/Graphics/SVG/1.1/DTD/svg11.dtd"><svg t="1649489113509" class="icon" viewBox="0 0 1049 1024" version="1.1" xmlns="http://www.w3.org/2000/svg" p-id="2299" xmlns:xlink="http://www.w3.org/1999/xlink" width="204.8828125" height="200"><defs><style type="text/css"></style></defs><path d="M498.572908 914.311043 136.915348 914.311043c-13.711277 0-26.391441-4.56833-35.716719-12.868783-4.677728-4.162172-12.519211-13.064946-12.519211-25.906064L88.679418 233.106795c0-12.833574 7.841482-21.737605 12.519211-25.897262 9.326535-8.302968 22.005442-12.87004 35.716719-12.87004l205.567298 0L342.482646 105.661332 124.340809 105.661332c-32.390754 0-63.044964 11.416424-86.321692 32.130461C13.501282 159.622449 0 189.006631 0 220.532257l0 667.578478c0 31.534428 13.501282 60.917352 38.019117 82.741721 23.276728 20.720325 53.930938 32.129203 86.314147 32.129203l434.183726 0C534.790094 980.983761 514.506106 942.74459 498.572908 914.311043L498.572908 914.311043zM498.572908 914.311043" p-id="2300" fill="#2c2c2c"></path><path d="M897.337931 207.209533c4.677728 4.160915 12.520468 13.063688 12.520468 25.897262l0 241.393416c27.487941 10.736141 65.641606 25.273565 88.678161 42.964683L998.536559 220.538544c0-31.525626-13.508827-60.914837-38.026662-82.739206-23.269184-20.721582-53.923394-32.130461-86.314147-32.130461L646.926056 105.668877l0 88.670616 214.696413 0C875.333746 194.339493 888.013911 198.907823 897.337931 207.209533L897.337931 207.209533zM897.337931 207.209533" p-id="2301" fill="#2c2c2c"></path><path d="M789.258515 359.675813l-64.738754-64.733724L540.434804 479.001896 540.434804 34.339807C540.434804 15.384948 525.056143 0 506.100027 0l-22.89069 0c-18.954859 0-34.33855 15.384948-34.33855 34.339807l0 425.156465L284.705157 295.329384l-67.003429 67.004686 278.62411 278.61908 0 0" p-id="2302" fill="#2c2c2c"></path><path d="M803.458941 533.592998c-135.430295 0-245.203501 109.750572-245.203501 245.202244 0 135.416463 109.773206 245.204759 245.203501 245.204759 135.415205 0 245.203501-109.788296 245.203501-245.204759C1048.662442 643.34357 938.874147 533.592998 803.458941 533.592998L803.458941 533.592998 803.458941 533.592998zM956.254674 718.593381 784.663778 884.059218c-2.294853 2.294853-4.851257 4.069121-7.603823 5.407052-10.77135 7.664181-25.859538 6.703486-35.518042-2.953759l-73.693083-73.711945c-10.775122-10.775122-10.775122-28.237384 0-38.993644 10.775122-10.816618 28.236126-10.816618 39.009991 0l55.314138 55.295276 155.069209-149.501203c10.75626-10.795241 28.234869-10.795241 39.011248 0C967.024766 690.355997 967.024766 707.834606 956.254674 718.593381L956.254674 718.593381 956.254674 718.593381zM956.254674 718.593381" p-id="2303" fill="#2c2c2c"></path></svg>