<svg xmlns="http://www.w3.org/2000/svg" width="23" height="27.065" viewBox="0 0 23 27.065">
  <path class="a"
        style="fill:#15c39a;"
        d="M193.621,145H212.2l-9.375,11.1a.221.221,0,0,0-.052.143v13.714a.442.442,0,0,1-.335.429l-6.735,1.684V156.181a.222.222,0,0,0,0-.046l-2.3-10.868a.221.221,0,0,1,.216-.267Zm10.848,16.5H216.4v3.093a.442.442,0,0,1-.442.442H204.028v-3.093A.442.442,0,0,1,204.47,161.5Zm0-4.713H216.4v3.093a.442.442,0,0,1-.442.442H204.028v-3.093A.442.442,0,0,1,204.47,156.784Zm0,9.427H216.4V169.3a.442.442,0,0,1-.442.442H204.028v-3.093A.442.442,0,0,1,204.47,166.21Z"
        transform="translate(-193.4 -145)"/>
</svg>