<?xml version="1.0" standalone="no"?><!DOCTYPE svg PUBLIC "-//W3C//DTD SVG 1.1//EN"
  "http://www.w3.org/Graphics/SVG/1.1/DTD/svg11.dtd">
<svg t="1652951743019" class="icon" viewBox="0 0 1024 1024" version="1.1" xmlns="http://www.w3.org/2000/svg" p-id="4308"
     xmlns:xlink="http://www.w3.org/1999/xlink">
  <path
    d="M398.802102 837.052435v6.605921a194.87467 194.87467 0 0 1-185.857588 179.350756C111.675745 1031.596809 32.999226 977.758553 32.999226 885.936251s87.528453-148.302927 192.793804-156.560328a127.395187 127.395187 0 0 0 90.33597-42.277894V171.175598a80.658296 80.658296 0 0 1 66.752832-78.940756L894.01497 1.403428a82.045539 82.045539 0 0 1 95.455559 64.40773 80.823444 80.823444 0 0 1 1.387243 14.863322v673.143351a194.313166 194.313166 0 0 1-185.857588 179.020459c-101.268769 8.917993-179.945288-44.920263-179.945288-136.742565s87.528453-148.633223 192.760775-156.890624a126.173091 126.173091 0 0 0 91.062621-42.60819v-263.245952c0-2.312072 0-44.589967-0.528473-46.90204-5.81321 1.321184-24.673115 3.633257-46.968099 6.936217l-428.856392 66.059211c-11.329155 2.312072-22.757398 3.963553-34.2517 5.284736z m0-546.639963l495.675282-87.858749a76.364447 76.364447 0 0 1 15.028471-1.321185V131.540072A40.428237 40.428237 0 0 0 868.648233 91.243954a44.920263 44.920263 0 0 0-6.605921 0.330296l-428.823362 66.05921a40.626414 40.626414 0 0 0-34.2517 39.635526z"
    fill="#46484A" p-id="4309"></path>
</svg>