<?xml version="1.0" standalone="no"?><!DOCTYPE svg PUBLIC "-//W3C//DTD SVG 1.1//EN" "http://www.w3.org/Graphics/SVG/1.1/DTD/svg11.dtd"><svg t="1652081378915" class="icon" viewBox="0 0 1024 1024" version="1.1" xmlns="http://www.w3.org/2000/svg" p-id="4108" xmlns:xlink="http://www.w3.org/1999/xlink" width="48" height="48"><defs><style type="text/css"></style></defs><path d="M511.842436 512.211752m-426.488786 0a426.488785 426.488785 0 1 0 852.977571 0 426.488785 426.488785 0 1 0-852.977571 0Z" fill="#FFFFFF" p-id="4109"></path><path d="M954.964284 255.294907a514.985208 514.985208 0 0 1 0 513.833689 511.786542 511.786542 0 0 1-186.3756 186.162355 514.046933 514.046933 0 0 1-513.492497 0 506.796624 506.796624 0 0 1-186.375599-186.290302 514.729315 514.729315 0 0 1 0-513.705742 510.635023 510.635023 0 0 1 186.375599-186.290301 514.345475 514.345475 0 0 1 513.492497 0 512.980711 512.980711 0 0 1 186.3756 186.290301z m-261.011137-56.808306a365.372942 365.372942 0 0 0-364.221423 0 360.980108 360.980108 0 0 0-131.785034 131.912982 364.733209 364.733209 0 0 0 0 363.880231 360.980108 360.980108 0 0 0 131.785034 131.912981 365.372942 365.372942 0 0 0 364.221423 0 360.980108 360.980108 0 0 0 131.785035-131.912981 364.733209 364.733209 0 0 0 0-363.880231 364.221423 364.221423 0 0 0-131.785035-131.912982z" fill="#2FD2E5" p-id="4110"></path><path d="M511.842436 512.211752m-213.244393 0a213.244393 213.244393 0 1 0 426.488785 0 213.244393 213.244393 0 1 0-426.488785 0Z" fill="#2FD2E5" p-id="4111"></path></svg>