<?xml version="1.0" standalone="no"?><!DOCTYPE svg PUBLIC "-//W3C//DTD SVG 1.1//EN" "http://www.w3.org/Graphics/SVG/1.1/DTD/svg11.dtd"><svg t="1651462570010" class="icon" viewBox="0 0 1024 1024" version="1.1" xmlns="http://www.w3.org/2000/svg" p-id="3684" xmlns:xlink="http://www.w3.org/1999/xlink" width="48" height="48"><defs><style type="text/css"></style></defs><path d="M0.411128 35.324949m61.11583 0l300.812112 0q61.115829 0 61.11583 61.11583l0 301.759408q0 61.115829-61.11583 61.115829l-300.812112 0q-61.115829 0-61.11583-61.115829l0-301.759408q0-61.115829 61.11583-61.11583Z" fill="#FFFFFF" p-id="3685"></path><path d="M71.091585 565.321422m61.115829 0l265.487163 0q61.115829 0 61.11583 61.11583l0 300.781554q0 61.115829-61.11583 61.115829l-265.487163 0q-61.115829 0-61.115829-61.115829l0-300.781554q0-61.115829 61.115829-61.11583Z" fill="#FFFFFF" p-id="3686"></path><path d="M600.110205 565.321422m61.115829 0l266.434458 0q61.115829 0 61.11583 61.11583l0 300.781554q0 61.115829-61.11583 61.115829l-266.434458 0q-61.115829 0-61.115829-61.115829l0-300.781554q0-61.115829 61.115829-61.11583Z" fill="#FFFFFF" p-id="3687"></path><path d="M707.521275 72.697279l203.576828 57.846133a54.637551 54.637551 0 0 1 39.969752 69.397024l-63.652136 185.058731a62.246472 62.246472 0 0 1-76.394787 36.333361l-203.668502-57.846133a54.637551 54.637551 0 0 1-39.969752-69.397024l63.652136-185.058731a62.246472 62.246472 0 0 1 76.486461-36.333361z" fill="#3198E1" p-id="3688"></path><path d="M420.643571 1.038969H52.604047A51.948455 51.948455 0 0 0 0.013875 55.09592v378.490332a51.948455 51.948455 0 0 0 52.590172 54.087509h368.039524a51.948455 51.948455 0 0 0 52.590172-54.087509V55.09592A48.159274 48.159274 0 0 0 420.643571 1.038969z m-14.973378 417.115536H75.12523V78.289377h330.544963v339.895686z m15.034494 119.175867H52.604047a51.948455 51.948455 0 0 0-52.590172 54.087509v378.459774a51.948455 51.948455 0 0 0 52.590172 54.087509h368.039524a51.948455 51.948455 0 0 0 52.590172-54.087509V591.387323a48.189831 48.189831 0 0 0-52.590172-54.087509z m-15.034494 417.084978H75.12523V606.941302h330.544963v347.59628zM1018.203594 142.949925a68.021918 68.021918 0 0 0-33.308127-29.030019L705.046084 5.103172a39.511384 39.511384 0 0 0-39.969753 0 37.494561 37.494561 0 0 0-26.646501 29.030019l-106.616565 271.507072a70.863804 70.863804 0 0 0 33.308127 79.817273l279.849383 108.816734h19.984876a67.471876 67.471876 0 0 0 53.293004-36.272244l99.954939-271.53763a49.839959 49.839959 0 0 0 0-43.514471z m-73.338996 36.272245l-93.293313 227.992601-239.879631-94.301724 86.631688-227.992602z m-1.375106 358.077644h-360.583393a52.101245 52.101245 0 0 0-52.590172 54.087509v378.459774a51.948455 51.948455 0 0 0 52.590172 54.087509h367.978408a51.948455 51.948455 0 0 0 52.590172-54.087509V591.387323a54.179183 54.179183 0 0 0-60.076861-54.087509z m-15.278957 417.115536h-330.331058V606.941302h330.331058v347.59628z" fill="#3198E1" p-id="3689"></path></svg>