<?xml version="1.0" standalone="no"?><!DOCTYPE svg PUBLIC "-//W3C//DTD SVG 1.1//EN" "http://www.w3.org/Graphics/SVG/1.1/DTD/svg11.dtd"><svg t="1651500172172" class="icon" viewBox="0 0 1092 1024" version="1.1" xmlns="http://www.w3.org/2000/svg" p-id="3272" xmlns:xlink="http://www.w3.org/1999/xlink" width="51.1875" height="48"><defs><style type="text/css"></style></defs><path d="M182.044444 91.022222v682.666667l750.933334-22.755556 22.755555-682.666666z" fill="#FFFFFF" p-id="3273"></path><path d="M1031.668622 0.227556H60.871111a64.034133 64.034133 0 0 0 0 127.886222v556.145778a144.429511 144.429511 0 0 0 140.0832 147.683555h31.584711L187.869867 932.977778a65.581511 65.581511 0 0 0 29.2864 84.878222 59.619556 59.619556 0 0 0 80.645689-30.947556l68.539733-154.965333h359.8336l68.562489 154.965333a59.164444 59.164444 0 0 0 80.645689 30.947556A65.3312 65.3312 0 0 0 904.669867 932.977778l-44.6464-101.034667h31.561955a144.429511 144.429511 0 0 0 140.0832-147.683555V128.113778a64.034133 64.034133 0 0 0 0-127.886222z m-147.023644 685.397333a39.822222 39.822222 0 0 1-13.380267 29.809778 48.878933 48.878933 0 0 1-32.859022 12.743111l-280.348445-70.087111a35.043556 35.043556 0 0 0-23.620266 0L243.712 728.177778a47.786667 47.786667 0 0 1-32.859022-12.743111 39.822222 39.822222 0 0 1-13.357511-29.809778V196.835556a60.416 60.416 0 0 1 20.047644-45.056 73.773511 73.773511 0 0 1 49.3568-19.114667h548.408889a74.069333 74.069333 0 0 1 49.3568 19.114667 60.962133 60.962133 0 0 1 20.047644 45.056v488.789333zM594.215822 336.554667c-2.412089-2.048-4.255289-3.413333-6.690133-5.461334l-35.134578-79.872a6.508089 6.508089 0 0 0-12.219733 0l-35.134578 80.099556c-2.275556 1.820444-4.118756 3.185778-6.394311 5.233778l-74.820267 12.288a9.762133 9.762133 0 0 0-4.846933 16.156444l54.909155 61.212445c0.705422 2.730667 1.4336 5.006222 2.139023 7.509333l-13.653334 88.974222a7.031467 7.031467 0 0 0 10.103467 7.736889l69.404444-41.187556h8.8064l69.404445 41.187556a7.054222 7.054222 0 0 0 10.103467-7.736889l-13.653334-88.974222c0.705422-2.730667 1.4336-5.006222 2.139022-7.509333l54.8864-61.212445a9.762133 9.762133 0 0 0-4.824177-16.156444l-74.524445-12.288z" fill="#199A94" p-id="3274"></path></svg>