<?xml version="1.0" standalone="no"?><!DOCTYPE svg PUBLIC "-//W3C//DTD SVG 1.1//EN"
  "http://www.w3.org/Graphics/SVG/1.1/DTD/svg11.dtd">
<svg t="1651291412559" class="icon" viewBox="0 0 1024 1024" version="1.1" xmlns="http://www.w3.org/2000/svg" p-id="2926"
     width="48" height="48" xmlns:xlink="http://www.w3.org/1999/xlink">
  <path
    d="M776.28836885 838.02245644a56.86808467 56.86808467 0 0 1-56.86808467 56.18566846H307.41100859a56.86808467 56.86808467 0 0 1-56.86808554-56.18566845V241.36250908h526.31412715v596.65994737zM364.33596114 140.47852607a11.37361729 11.37361729 0 0 1 11.71482626-11.37361728h274.90032247a11.37361729 11.37361729 0 0 1 11.71482539 11.37361728v34.12085098H364.33596114v-34.12085098z m547.41218642 34.12085098h-180.89737822v-34.12085098a79.61531924 79.61531924 0 0 0-79.61531924-78.53482529H376.33512763A79.61531924 79.61531924 0 0 0 296.43546816 140.47852607v34.12085098H114.79880498a34.12085097 34.12085097 0 1 0 0 67.72988936h66.53565879v595.69319004a125.10978662 125.10978662 0 0 0 126.07654482 123.97242568h412.00927559a125.10978662 125.10978662 0 0 0 126.07654483-123.97242568V241.36250908h66.53565878a34.12085097 34.12085097 0 0 0 34.46205997-34.12085098 33.49530175 33.49530175 0 0 0-34.7464002-32.86975341zM513.15973964 792.86919717a34.12085097 34.12085097 0 0 0 34.4051921-34.12085098V398.43215967a34.46205908 34.46205908 0 0 0-68.86725117 0v360.31618652a34.12085097 34.12085097 0 0 0 34.46205908 34.12085098m-124.48423741-71.99499551a34.12085097 34.12085097 0 0 0 34.46205909-34.12085098v-216.09872315a34.46205908 34.46205908 0 0 0-68.92411904 0v216.09872315a35.14447617 35.14447617 0 0 0 34.46205995 34.12085098m248.91160782 0a34.12085097 34.12085097 0 0 0 34.46205908-34.12085098v-216.09872315a34.46205908 34.46205908 0 0 0-68.92411904 0v216.09872315a34.12085097 34.12085097 0 0 0 34.46205996 34.12085098"
    p-id="2927"></path>
</svg>