<?xml version="1.0" standalone="no"?><!DOCTYPE svg PUBLIC "-//W3C//DTD SVG 1.1//EN"
  "http://www.w3.org/Graphics/SVG/1.1/DTD/svg11.dtd">
<svg t="1651915723829" class="icon" viewBox="0 0 1317 1024" version="1.1" xmlns="http://www.w3.org/2000/svg" p-id="3997"
     xmlns:xlink="http://www.w3.org/1999/xlink" width="61.734375" height="48">
  <defs>
    <style type="text/css"></style>
  </defs>
  <path
    d="M656.175524 768.22059l85.236153-84.379029-111.902212-110.521292-85.712332 84.37903v40.713358h70.950764v69.807933h41.427627z m324.278325-523.797588a15.285366 15.285366 0 0 0-24.285161 0.761887l-258.089357 254.51801a14.904422 14.904422 0 0 0-0.952359 23.808982 15.809164 15.809164 0 0 0 24.761341-0.71427l258.089357-254.565628a14.666332 14.666332 0 0 0 0.476179-23.666127z m59.046274 432.037774v138.092092a200.471622 200.471622 0 0 1-61.903351 147.996627 207.423845 207.423845 0 0 1-150.472762 61.427172H213.328472a207.423845 207.423845 0 0 1-150.472761-61.427172 200.947802 200.947802 0 0 1-62.379531-147.996627V209.661889a200.804948 200.804948 0 0 1 62.379531-147.996627A207.471463 207.471463 0 0 1 213.328472 0.190472h613.795538a204.138206 204.138206 0 0 1 86.188512 18.190062 21.523319 21.523319 0 0 1 13.33303 16.761522 21.809027 21.809027 0 0 1-6.666515 21.04714l-36.189652 35.665854a21.428083 21.428083 0 0 1-23.332801 5.809391 134.187419 134.187419 0 0 0-33.332574-4.380852H213.328472a113.473605 113.473605 0 0 0-83.331434 34.189697A110.568909 110.568909 0 0 0 95.235925 209.661889v605.129069a110.568909 110.568909 0 0 0 34.761113 82.188603 113.425987 113.425987 0 0 0 83.331434 34.142079h613.795538a114.28311 114.28311 0 0 0 83.331434-34.142079 110.568909 110.568909 0 0 0 34.761113-82.188603v-91.664578a22.237589 22.237589 0 0 1 6.666515-15.999636l47.141783-46.522749a22.332824 22.332824 0 0 1 25.7137-5.095122 20.904286 20.904286 0 0 1 14.761568 21.094757zM969.025538 139.711102l212.376113 209.519036L685.698661 837.933287H472.846368v-209.519035z m327.611583 95.997813l-68.093687 66.665147-212.376113-209.519035 67.617507-66.665148a69.807933 69.807933 0 0 1 50.475041-20.33287 68.71272 68.71272 0 0 1 49.99886 20.33287l112.378392 110.56891a69.950787 69.950787 0 0 1 0 98.902508z"
     p-id="3998"></path>
</svg>