<svg 
 xmlns="http://www.w3.org/2000/svg"
 xmlns:xlink="http://www.w3.org/1999/xlink"
 width="50px" height="44px">
<path fill-rule="evenodd"  fill="rgb(248, 248, 248)"
 d="M39.000,24.000 L31.000,42.000 L49.000,42.000 L39.000,24.000 Z"/>
<path fill-rule="evenodd"  fill="rgb(214, 216, 222)"
 d="M42.421,20.745 C41.673,20.745 41.067,20.124 41.067,19.357 L41.067,3.123 C41.067,2.932 40.916,2.776 40.729,2.776 L3.045,2.776 C2.858,2.776 2.707,2.932 2.707,3.123 L2.707,3.123 L2.707,40.837 C2.707,41.029 2.858,41.184 3.045,41.184 L25.462,41.184 C26.210,41.184 26.816,41.806 26.816,42.572 C26.816,43.339 26.210,43.960 25.462,43.960 L1.353,43.960 C0.606,43.960 0.000,43.339 0.000,42.572 L0.000,1.388 C0.000,0.622 0.606,0.000 1.353,0.000 L42.421,0.000 C43.168,0.000 43.774,0.622 43.774,1.388 L43.774,19.357 C43.774,20.124 43.168,20.745 42.421,20.745 L42.421,20.745 ZM6.217,11.983 L36.331,11.983 C37.079,11.983 37.684,12.605 37.684,13.371 C37.684,14.138 37.079,14.759 36.331,14.759 L6.217,14.759 C5.469,14.759 4.863,14.138 4.863,13.371 C4.863,12.605 5.469,11.983 6.217,11.983 ZM6.428,20.919 L25.589,20.919 C26.337,20.919 26.943,21.540 26.943,22.307 C26.943,23.073 26.337,23.695 25.589,23.695 L6.428,23.695 C5.681,23.695 5.075,23.073 5.075,22.307 C5.075,21.540 5.681,20.919 6.428,20.919 ZM6.428,29.854 L25.589,29.854 C26.337,29.854 26.943,30.476 26.943,31.242 C26.943,32.009 26.337,32.630 25.589,32.630 L6.428,32.630 C5.681,32.630 5.075,32.009 5.075,31.242 C5.075,30.476 5.681,29.854 6.428,29.854 ZM29.480,20.919 L34.341,20.919 C35.088,20.919 35.694,21.540 35.694,22.307 C35.694,23.073 35.088,23.695 34.341,23.695 L29.480,23.695 C28.733,23.695 28.127,23.073 28.127,22.307 C28.127,21.540 28.733,20.919 29.480,20.919 ZM41.928,24.016 L49.713,39.982 C50.381,41.353 49.839,43.021 48.502,43.707 C48.127,43.900 47.712,44.000 47.292,44.000 L31.722,44.000 C30.227,44.000 29.015,42.757 29.015,41.224 C29.015,40.793 29.113,40.368 29.301,39.982 L37.086,24.016 C37.754,22.644 39.380,22.088 40.717,22.774 C41.241,23.043 41.666,23.478 41.928,24.016 L41.928,24.016 ZM39.830,25.873 C39.747,25.702 39.544,25.632 39.376,25.718 C39.311,25.751 39.258,25.806 39.225,25.873 L31.985,40.722 C31.901,40.893 31.969,41.101 32.136,41.187 C32.183,41.211 32.235,41.224 32.288,41.224 L46.768,41.224 C46.955,41.224 47.106,41.068 47.106,40.877 C47.106,40.823 47.094,40.770 47.071,40.722 L39.830,25.873 L39.830,25.873 ZM39.488,28.510 C40.235,28.510 40.841,29.131 40.841,29.898 L40.841,33.628 C40.841,34.395 40.235,35.016 39.488,35.016 C38.740,35.016 38.134,34.395 38.134,33.628 L38.134,29.898 C38.134,29.131 38.740,28.510 39.488,28.510 ZM39.488,40.534 C38.740,40.534 38.134,39.912 38.134,39.146 C38.134,38.379 38.740,35.710 39.488,35.710 C40.235,35.710 40.841,38.379 40.841,39.146 C40.841,39.912 40.235,40.534 39.488,40.534 L39.488,40.534 Z"/>
</svg>
