<svg
 xmlns="http://www.w3.org/2000/svg"
 xmlns:xlink="http://www.w3.org/1999/xlink"
 width="64px" height="59px">
<path fill-rule="evenodd"  fill="rgb(228, 231, 234)"
 d="M43.000,18.495 C43.000,15.455 45.462,12.992 48.500,12.992 C51.537,12.992 54.000,15.456 54.000,18.495 C54.000,21.534 51.537,23.997 48.500,23.997 C45.462,23.997 43.000,21.534 43.000,18.495 ZM54.000,46.008 L9.999,46.008 L21.000,16.660 L35.666,35.003 L43.000,29.500 L54.000,46.008 Z"/>
<path fill-rule="evenodd"  fill="rgb(217, 219, 224)"
 d="M6.600,59.000 L57.413,59.000 C61.042,58.988 63.983,56.001 64.000,52.308 L64.000,6.714 C63.995,3.013 61.051,0.012 57.413,-0.000 L6.600,-0.000 C2.957,0.005 0.005,3.008 -0.000,6.714 L-0.000,52.308 C0.017,56.006 2.965,58.995 6.600,59.000 ZM3.013,52.308 L3.013,6.714 C3.015,4.700 4.620,3.067 6.600,3.065 L57.413,3.065 C59.393,3.067 60.998,4.700 61.000,6.714 L61.000,52.308 C60.998,54.322 59.393,55.955 57.413,55.957 L6.600,55.957 C4.620,55.955 3.015,54.322 3.013,52.308 Z"/>
</svg>
