<svg 
 xmlns="http://www.w3.org/2000/svg"
 xmlns:xlink="http://www.w3.org/1999/xlink"
 width="48px" height="47px">
<path fill-rule="evenodd"  fill="rgb(246, 247, 250)"
 d="M1.119,6.714 L1.119,25.738 L21.262,44.762 L40.286,25.738 L20.143,6.714 L1.119,6.714 Z"/>
<path fill-rule="evenodd"  fill="rgb(208, 208, 208)"
 d="M46.274,25.688 L26.930,6.592 C26.466,6.132 25.835,5.874 25.177,5.875 L15.758,5.875 C15.610,4.656 15.326,3.532 14.921,2.601 C13.939,0.337 12.610,0.000 11.905,0.000 C11.257,0.000 10.025,0.291 9.057,2.240 C8.570,3.221 8.222,4.488 8.054,5.875 L2.482,5.875 C1.113,5.877 0.003,6.972 0.002,8.324 L0.002,24.852 C-0.000,25.501 0.262,26.125 0.728,26.583 L20.071,45.678 C21.040,46.634 22.610,46.634 23.579,45.678 C23.579,45.678 23.579,45.678 23.579,45.678 L24.801,44.471 L26.023,45.678 C26.246,45.898 26.511,46.075 26.801,46.198 C26.898,46.730 27.414,47.084 27.953,46.988 C28.152,46.952 28.335,46.858 28.478,46.716 L46.274,29.150 C47.241,28.193 47.241,26.644 46.274,25.688 ZM10.838,3.104 C11.231,2.312 11.657,1.959 11.905,1.959 C12.184,1.959 12.676,2.401 13.098,3.373 C13.400,4.068 13.625,4.933 13.756,5.875 L10.053,5.875 C10.202,4.800 10.472,3.839 10.838,3.102 L10.838,3.104 ZM22.176,44.293 C21.982,44.484 21.668,44.484 21.474,44.293 L2.131,25.198 C2.038,25.106 1.985,24.982 1.986,24.852 L1.986,8.324 C1.986,8.053 2.208,7.834 2.482,7.834 L13.889,7.834 C13.889,10.030 13.407,12.064 12.631,13.142 C12.355,13.524 11.860,13.793 11.594,13.881 C9.489,14.448 7.938,16.351 7.938,18.605 C7.938,21.305 10.163,23.502 12.897,23.502 C15.632,23.502 17.857,21.305 17.857,18.605 C17.857,16.444 16.431,14.606 14.459,13.958 C15.349,12.518 15.873,10.268 15.873,7.834 L19.225,7.834 C19.357,7.833 19.483,7.885 19.576,7.977 L38.919,27.072 C39.112,27.264 39.112,27.573 38.919,27.765 L22.176,44.293 ZM15.873,18.605 C15.873,20.228 14.541,21.543 12.897,21.543 C11.254,21.543 9.922,20.228 9.922,18.605 C9.922,16.983 11.254,15.668 12.897,15.668 C14.540,15.670 15.871,16.984 15.873,18.605 ZM28.127,44.293 C27.934,44.484 27.620,44.484 27.426,44.293 L26.204,43.086 L40.322,29.150 C41.289,28.193 41.289,26.644 40.322,25.688 L22.236,7.834 L25.177,7.834 C25.308,7.833 25.435,7.885 25.527,7.977 L44.871,27.072 C44.882,27.083 44.892,27.095 44.902,27.107 L44.906,27.112 C45.052,27.291 45.052,27.546 44.906,27.726 L44.902,27.730 C44.892,27.742 44.881,27.754 44.871,27.765 L28.127,44.293 Z"/>
</svg>
