<?xml version="1.0" standalone="no"?><!DOCTYPE svg PUBLIC "-//W3C//DTD SVG 1.1//EN" "http://www.w3.org/Graphics/SVG/1.1/DTD/svg11.dtd"><svg t="1651925662261" class="icon" viewBox="0 0 1024 1024" version="1.1" xmlns="http://www.w3.org/2000/svg" p-id="3575" xmlns:xlink="http://www.w3.org/1999/xlink" width="48" height="48"><defs><style type="text/css"></style></defs><path d="M512 0a512 512 0 1 0 512 512A513.498074 513.498074 0 0 0 512 0m0 220.747852a125.155556 125.155556 0 1 1-125.534815 125.155555 123.145481 123.145481 0 0 1 125.534815-125.155555m0 592.421926a305.569185 305.569185 0 0 1-251.06963-133.499259c0-83.437037 167.442963-129.327407 251.06963-129.327408s251.06963 45.871407 251.06963 129.327408A306.081185 306.081185 0 0 1 512 813.169778" fill="#8A97A9" p-id="3576"></path></svg>