<?xml version="1.0" standalone="no"?><!DOCTYPE svg PUBLIC "-//W3C//DTD SVG 1.1//EN"
  "http://www.w3.org/Graphics/SVG/1.1/DTD/svg11.dtd">
<svg t="1651925670877" class="icon" viewBox="0 0 1024 1024" version="1.1" xmlns="http://www.w3.org/2000/svg" p-id="3984"
     xmlns:xlink="http://www.w3.org/1999/xlink" width="48" height="48">
  <defs>
    <style type="text/css"></style>
  </defs>
  <path d="M512 512m-511.441455 0a511.441455 511.441455 0 1 0 1022.88291 0 511.441455 511.441455 0 1 0-1022.88291 0Z"
        fill="#686C7A" p-id="3985"></path>
  <path
    d="M327.307636 693.955491a42.244655 42.244655 0 0 0 42.635637 42.244654h91.415272v54.849164h-115.246545a81.491782 81.491782 0 0 1-33.326545-6.814254 88.510836 88.510836 0 0 1-27.182546-18.394764 89.367273 89.367273 0 0 1-18.618182-26.921891 81.696582 81.696582 0 0 1-6.888727-33.047273V344.939055a82.5344 82.5344 0 0 1 6.888727-32.712146 84.098327 84.098327 0 0 1 18.618182-26.921891 91.694545 91.694545 0 0 1 27.182546-18.059636 81.454545 81.454545 0 0 1 33.326545-6.814255h368.267636a81.454545 81.454545 0 0 1 33.326546 6.814255 94.152145 94.152145 0 0 1 27.182545 18.059636 83.614255 83.614255 0 0 1 18.432 26.921891 79.425164 79.425164 0 0 1 6.888728 32.712146v119.156363l-57.902546 0.688873v-101.841455a40.736582 40.736582 0 0 0-12.288-29.975272 41.760582 41.760582 0 0 0-30.347636-12.269382H369.943273a42.244655 42.244655 0 0 0-42.635637 42.244654v331.012655z m494.871273-70.525673a34.983564 34.983564 0 0 1 14.894546 22.825891 29.789091 29.789091 0 0 1-14.149819 22.155636c-9.681455 8.173382-21.038545 17.370764-34.443636 27.592146s-26.810182 20.908218-40.773818 32.023273-27.927273 22.025309-41.518546 32.712145-26.251636 20.331055-37.236363 28.969891a34.816 34.816 0 0 1-29.044364 10.221382 18.860218 18.860218 0 0 1-11.357091-21.131637q0.558545-10.891636 0-26.92189a526.894545 526.894545 0 0 1-0.744727-27.592146 15.453091 15.453091 0 0 0-7.261091-16.011636 55.482182 55.482182 0 0 0-20.852364-3.072c-9.681455 0-9.309091-0.111709-17.501091-0.335128s-16.384-0.335127-24.017454-0.335127-16.011636-0.111709-24.389818-0.335127 0.744727-0.335127-9.309091-0.335127a72.890182 72.890182 0 0 1-13.405091-1.359128 40.271127 40.271127 0 0 1-13.032727-4.766254 26.754327 26.754327 0 0 1-9.681455-10.221382 39.265745 39.265745 0 0 1-3.723636-18.394764v-53.881018a32.3584 32.3584 0 0 1 10.24-28.281018 57.716364 57.716364 0 0 1 32.395636-7.149382c13.777455 0.465455 8.750545 0.688873 22.528 0.688873s20.48 0.223418 38.912 0.670254a110.052073 110.052073 0 0 0 30.906182-3.407127 15.7696 15.7696 0 0 0 10.984727-17.035636 145.556945 145.556945 0 0 1 0.372364-23.514764c0.558545-9.309091 0.930909-17.6128 0.930909-24.873891a21.746036 21.746036 0 0 1 9.681454-22.137018 25.097309 25.097309 0 0 1 24.762182 7.149382c10.053818 8.173382 21.783273 17.724509 35.374546 28.616145s27.368727 22.155636 41.518545 33.736146 28.299636 22.9376 42.263273 34.071273 26.251636 21.001309 36.677818 29.640145z"
    fill="#FFFFFF" p-id="3986"></path>
</svg>