<?xml version="1.0" standalone="no"?><!DOCTYPE svg PUBLIC "-//W3C//DTD SVG 1.1//EN" "http://www.w3.org/Graphics/SVG/1.1/DTD/svg11.dtd"><svg t="1651925665870" class="icon" viewBox="0 0 1024 1024" version="1.1" xmlns="http://www.w3.org/2000/svg" p-id="3711" xmlns:xlink="http://www.w3.org/1999/xlink" width="48" height="48"><defs><style type="text/css"></style></defs><path d="M512.051931 0A512 512 0 0 0 149.994789 874.032762L0.051931 1024h512a512 512 0 0 0 0-1024z m-224.304761 615.131429a77.677714 77.677714 0 1 1 83.382857-77.458286 80.603429 80.603429 0 0 1-83.382857 77.433905z m249.904761 0a77.677714 77.677714 0 1 1 83.382858-77.458286 80.62781 80.62781 0 0 1-83.382858 77.433905z m250.148572 0a77.677714 77.677714 0 1 1 83.139047-77.458286 80.457143 80.457143 0 0 1-83.139047 77.433905z" fill="#686C7A" p-id="3712"></path></svg>