<?xml version="1.0" standalone="no"?><!DOCTYPE svg PUBLIC "-//W3C//DTD SVG 1.1//EN"
  "http://www.w3.org/Graphics/SVG/1.1/DTD/svg11.dtd">
<svg t="1651500182219" class="icon" viewBox="0 0 1090 1024" version="1.1" xmlns="http://www.w3.org/2000/svg" p-id="3409"
     xmlns:xlink="http://www.w3.org/1999/xlink" width="51.09375" height="48">
  <defs>
    <style type="text/css"></style>
  </defs>
  <path
    d="M544.997427 177.437843S143.879564-70.486291 81.452624 104.177021s0 777.925553 0 777.925553 369.937423-11.461454 428.070447 70.948713 26.919554-11.461454 177.503903-35.474356S1019.012781 881.970454 1019.012781 881.970454l-10.43752-800.815432S644.38508 7.167538 544.997427 177.437843z"
    fill="#FFFFFF" p-id="3410"></path>
  <path
    d="M92.484686 970.028772a92.484356 92.484356 0 0 1-90.766789-75.110509l-1.255145-8.653893L0.00033 877.280175V93.376169A93.177989 93.177989 0 0 1 83.302311 0.561512L92.154385 0.06606h305.958067a201.748016 201.748016 0 0 1 136.249274 52.848204l9.909038 9.611767 0.759693 0.891813 0.957874-1.023934A201.748016 201.748016 0 0 1 665.524361 1.783627l13.707503-1.387265 12.617508-0.330302h305.198375a93.078898 93.078898 0 0 1 92.484355 84.061674l0.462422 9.248435v783.210374a92.484356 92.484356 0 0 1-85.548029 95.093736H680.94943a208.089801 208.089801 0 0 1-108.999419 50.172763l-15.094768 1.519386-13.674473 0.627572a208.089801 208.089801 0 0 1-137.471389-51.89033l-2.213018-2.146958H92.484686z m888.279208-859.113605H692.972397a92.847687 92.847687 0 0 0-92.286175 84.160764l-0.429392 8.951164v412.083866l0.693633 3.303012a56.151216 56.151216 0 0 1-16.977486 48.455197l-6.044513 4.987549a55.853945 55.853945 0 0 1-87.562867-53.442746l0.627572-3.104832V205.810722a93.045868 93.045868 0 0 0-83.797432-92.682537l-8.984194-0.462422H109.263991v745.258758h317.452551a54.53274 54.53274 0 0 1 42.575834 19.818076 98.462809 98.462809 0 0 0 139.056835 12.254177c1.948777-1.651506 3.831495-3.303013 5.648152-5.119669l6.606025-7.068447a54.56577 54.56577 0 0 1 35.408296-19.388685l6.936327-0.363331h317.716793V110.915167z"
    fill="#3198E1" p-id="3411"></path>
  <path
    d="M269.691318 368.616218h237.354493a56.712728 56.712728 0 1 1 0 113.425457H269.691318a56.712728 56.712728 0 1 1 0-113.425457z"
    fill="#3198E1" p-id="3412"></path>
</svg>