<?xml version="1.0" standalone="no"?><!DOCTYPE svg PUBLIC "-//W3C//DTD SVG 1.1//EN" "http://www.w3.org/Graphics/SVG/1.1/DTD/svg11.dtd"><svg t="1651462563719" class="icon" viewBox="0 0 1317 1024" version="1.1" xmlns="http://www.w3.org/2000/svg" p-id="3546" xmlns:xlink="http://www.w3.org/1999/xlink" width="61.734375" height="48"><defs><style type="text/css"></style></defs><path d="M183.725484 37.118418m63.28801 0l494.437577 0q63.28801 0 63.28801 63.28801l0 823.725092q0 63.28801-63.28801 63.28801l-494.437577 0q-63.28801 0-63.28801-63.28801l0-823.725092q0-63.28801 63.28801-63.28801Z" fill="#FFFFFF" p-id="3547"></path><path d="M731.578142 328.812855m63.28801 0l239.323609 0q63.28801 0 63.28801 63.28801l0 532.030655q0 63.28801-63.28801 63.28801l-239.323609 0q-63.28801 0-63.28801-63.28801l0-532.030655q0-63.28801 63.28801-63.28801Z" fill="#FFFFFF" p-id="3548"></path><path d="M752.747981 0.094932a94.267491 94.267491 0 0 1 94.045983 94.520643v157.523856h219.41953a94.299135 94.299135 0 0 1 94.045983 94.520643v598.641286h117.557478a39.396786 39.396786 0 0 1 0 78.761928H39.618686a39.396786 39.396786 0 0 1 0-78.761928h117.557478V94.615575A94.267491 94.267491 0 0 1 251.222147 0.094932h501.525834z m-31.327565 78.761928H282.549711a47.117923 47.117923 0 0 0-46.801483 42.719407l-0.221508 4.556737v819.168356h532.885043V126.10136a47.181211 47.181211 0 0 0-42.497898-47.054636l-4.525093-0.221508z m313.465513 252.0445h-188.091965v614.4h235.083312V378.177503a47.181211 47.181211 0 0 0-42.497898-47.054635z m-384 141.796786a39.396786 39.396786 0 0 1 0 78.761928h-297.80173a39.396786 39.396786 0 0 1 0-78.761928h297.80173z m0-220.558715a39.396786 39.396786 0 0 1 0 78.761929h-297.80173a39.396786 39.396786 0 0 1 0-78.761929h297.80173z" fill="#FEA930" p-id="3549"></path></svg>