<?xml version="1.0" standalone="no"?><!DOCTYPE svg PUBLIC "-//W3C//DTD SVG 1.1//EN" "http://www.w3.org/Graphics/SVG/1.1/DTD/svg11.dtd"><svg t="1651500168098" class="icon" viewBox="0 0 1121 1024" version="1.1" xmlns="http://www.w3.org/2000/svg" p-id="3135" xmlns:xlink="http://www.w3.org/1999/xlink" width="52.546875" height="48"><defs><style type="text/css"></style></defs><path d="M292.594845 73.196107l-219.406213 609.461702 243.784681 195.027745h365.677021l292.541617-97.513872 73.135405-146.270809-219.406213-585.083234z" fill="#FFFFFF" p-id="3136"></path><path d="M716.999596 394.260532H419.362879a37.420949 37.420949 0 0 1 0-74.841898h297.636717a37.420949 37.420949 0 0 1 0 74.841898z m74.403084 186.98285H344.984173a37.420949 37.420949 0 0 1 0-74.841897H791.40268a37.420949 37.420949 0 0 1 0 74.841897zM83.842022 670.956144h194.125742l133.179571 125.305326h318.504686l124.988406-125.305326h202.341285l-74.47622 278.158321H123.286384zM969.950581 1023.956363H151.541028a74.378706 74.378706 0 0 1-74.403084-55.339123L2.734859 696.553536a75.573251 75.573251 0 0 1 0-40.468257l203.85275-602.148162A74.451842 74.451842 0 0 1 277.967764 0.060702h565.58046a74.183678 74.183678 0 0 1 74.403084 53.876415l200.878577 583.376741a75.573251 75.573251 0 0 1 0 39.736903l-74.403084 290.103771A74.549355 74.549355 0 0 1 969.950581 1023.956363zM208.074696 874.272568h703.733238l58.020754-213.799165-182.277806-535.351159H334.574567L151.541028 677.050761z" fill="#FF786D" p-id="3137"></path></svg>