<?xml version="1.0" standalone="no"?><!DOCTYPE svg PUBLIC "-//W3C//DTD SVG 1.1//EN"
  "http://www.w3.org/Graphics/SVG/1.1/DTD/svg11.dtd">
<svg t="1651915735660" class="icon" viewBox="0 0 1200 1024" version="1.1" xmlns="http://www.w3.org/2000/svg" p-id="4133"
     xmlns:xlink="http://www.w3.org/1999/xlink" width="56.25" height="48">
  <path
    d="M1200.510327 511.982345C1200.510327 229.226854 931.807869 0 600.255164 0S0 229.226854 0 511.982345a478.791766 478.791766 0 0 0 188.197648 372.122893 624.971553 624.971553 0 0 1-66.73425 69.276507 38.522258 38.522258 0 0 0 22.597841 67.334506c20.126203 1.977311 40.605496 3.001276 61.08479 3.001276 117.226303 0 394.04986 0.282473 395.109135 0.282473C931.807869 1023.964691 1200.510327 794.737837 1200.510327 511.982345z m-609.788628-95.334643a95.617117 95.617117 0 1 1-96.040826 95.546498 95.934899 95.934899 0 0 1 96.040826-95.546498z m-328.021792 0a95.617117 95.617117 0 1 1-96.393918 95.546498A95.864281 95.864281 0 0 1 262.699907 416.647702z m674.757422 191.198924a95.617117 95.617117 0 1 1 0-191.198924 95.617117 95.617117 0 1 1 0 191.163615z"
    p-id="4134"></path>
</svg>