<?xml version="1.0" standalone="no"?><!DOCTYPE svg PUBLIC "-//W3C//DTD SVG 1.1//EN" "http://www.w3.org/Graphics/SVG/1.1/DTD/svg11.dtd"><svg t="1651462548255" class="icon" viewBox="0 0 1024 1024" version="1.1" xmlns="http://www.w3.org/2000/svg" p-id="3272" xmlns:xlink="http://www.w3.org/1999/xlink" width="48" height="48"><defs><style type="text/css"></style></defs><path d="M134.210372 2.520271m129.910858 0l496.103588 0q129.910859 0 129.910859 129.910858l0 586.235742q0 129.910859-129.910859 129.910859l-496.103588 0q-129.910859 0-129.910858-129.910859l0-586.235742q0-129.910859 129.910858-129.910858Z" fill="#FFFFFF" p-id="3273"></path><path d="M169.234339 135.107293v605.618442a71.970616 71.970616 0 0 0 71.840705 71.944633h541.936139a72.282402 72.282402 0 0 0 71.840705-71.944633V135.107293a71.970616 71.970616 0 0 0-71.840705-71.944633H241.049062a72.282402 72.282402 0 0 0-71.814723 71.944633z m-63.16266 0a135.471044 135.471044 0 0 1 135.107294-135.107293h541.83221a135.107293 135.107293 0 0 1 135.107293 135.107293v605.618442a135.471044 135.471044 0 0 1-135.107293 135.107293H241.049062a135.107293 135.107293 0 0 1-135.107293-135.107293V135.107293z m231.111418 173.35305l375.468365-0.389732a29.749587 29.749587 0 0 0 0-59.421227L337.183097 248.987152a29.749587 29.749587 0 0 0 0 59.473191z m0 158.491248l375.468365-0.36375a29.749587 29.749587 0 0 0 0-59.421227l-375.468365 0.259821a29.749587 29.749587 0 0 0 0 59.421227z m0 158.491248l375.468365-0.363751a29.749587 29.749587 0 0 0 0-59.421227l-375.468365 0.23384a29.775569 29.775569 0 0 0 0 59.551138z m0 0l375.468365-0.363751a29.749587 29.749587 0 0 0 0-59.421227l-375.468365 0.23384a29.775569 29.775569 0 0 0 0 59.551138z m-23.617794 374.766845l34.81611-117.153612a29.879498 29.879498 0 0 0-57.420599-16.186893l-34.81611 117.12763a29.879498 29.879498 0 0 0 57.420599 16.082964z m0 0l34.81611-117.153612a29.879498 29.879498 0 0 0-57.420599-16.186893l-34.81611 117.12763a29.879498 29.879498 0 0 0 57.420599 16.082964z m396.95562 3.58554l-34.842092-118.530668a29.90548 29.90548 0 0 1 57.4206-16.342786l34.81611 118.270846a29.90548 29.90548 0 0 1-57.394618 16.472697z m0 0l-34.842092-118.530668a29.90548 29.90548 0 0 1 57.4206-16.342786l34.81611 118.270846a29.90548 29.90548 0 0 1-57.394618 16.472697z" fill="#14857E" p-id="3274"></path></svg>