<?xml version="1.0" standalone="no"?><!DOCTYPE svg PUBLIC "-//W3C//DTD SVG 1.1//EN" "http://www.w3.org/Graphics/SVG/1.1/DTD/svg11.dtd"><svg t="1651462555107" class="icon" viewBox="0 0 1220 1024" version="1.1" xmlns="http://www.w3.org/2000/svg" p-id="3409" xmlns:xlink="http://www.w3.org/1999/xlink" width="57.1875" height="48"><defs><style type="text/css"></style></defs><path d="M851.717842 479.742399s-210.168319-130.937928-301.627304 46.529971c0 0-104.402901 91.731488 27.250349 232.615794a715.049165 715.049165 0 0 0 274.20664 186.085823s346.113499-134.242033 329.047968-325.641674c0.340629 0-46.836538-279.145765-328.877653-139.589914z" fill="#FFFFFF" p-id="3410"></path><path d="M1009.122672 364.507485a182.952032 182.952032 0 0 0-62.471426 10.934202 318.624709 318.624709 0 0 0-137.001131-336.746191 249.953829 249.953829 0 0 0-333.442086 63.595503A252.065731 252.065731 0 0 0 223.631354 5.961014 295.427849 295.427849 0 0 0 2.835399 260.785843c-13.625175 101.711929 2.89535 364.984366 455.796154 611.736278a36.617657 36.617657 0 0 0 35.152951 0 1563.931608 1563.931608 0 0 0 95.546537-56.340097 815.160136 815.160136 0 0 0 255.914843 203.321668 36.856097 36.856097 0 0 0 35.15295 0c133.254208-72.622181 229.175437-155.08855 285.174906-244.98064a304.284213 304.284213 0 0 0 47.279356-236.703346 218.64999 218.64999 0 0 0-203.764487-173.141907m-146.26625 576.753643c-301.797618-170.927816-288.683388-337.223072-277.204178-384.911184a142.451201 142.451201 0 0 1 130.869803-114.48553 137.035194 137.035194 0 0 1 114.485529 75.687845 36.992349 36.992349 0 0 0 63.765818 0 136.864879 136.864879 0 0 1 114.417404-75.687845 142.383075 142.383075 0 0 1 130.869802 114.48553c11.547336 47.688111 24.559377 214.085557-277.136052 384.911184" fill="#FF786D" p-id="3411"></path></svg>