<svg 
 xmlns="http://www.w3.org/2000/svg"
 xmlns:xlink="http://www.w3.org/1999/xlink"
 width="56px" height="62px">
<path fill-rule="evenodd"  fill="rgb(248, 248, 248)"
 d="M35.000,37.000 L28.000,49.000 L35.000,60.000 L49.000,60.000 L55.000,48.000 L48.000,37.000 L35.000,37.000 Z"/>
<path fill-rule="evenodd"  fill="rgb(214, 216, 222)"
 d="M55.720,49.788 L49.580,60.858 C49.186,61.564 48.447,62.000 47.646,62.000 L35.510,62.000 C34.708,62.000 33.962,61.564 33.576,60.858 L27.435,49.788 C27.062,49.117 27.062,48.307 27.435,47.636 L33.576,36.566 C33.969,35.860 34.708,35.425 35.510,35.425 L47.639,35.425 C48.440,35.425 49.186,35.860 49.573,36.566 L55.713,47.636 C56.086,48.301 56.086,49.117 55.720,49.788 ZM47.466,38.379 L35.675,38.379 L29.784,48.709 L35.682,59.039 L47.466,59.039 L53.365,48.709 L47.466,38.379 ZM27.995,32.470 C14.180,32.470 2.942,43.727 2.942,57.565 C2.942,58.520 3.004,59.454 3.115,60.381 C3.218,61.246 2.528,61.993 1.657,61.993 C0.925,61.993 0.290,61.453 0.200,60.727 C0.076,59.689 -0.000,58.637 -0.000,57.565 C-0.000,44.710 8.647,33.896 20.417,30.588 C15.285,27.862 11.783,22.466 11.783,16.239 C11.783,7.272 19.043,0.000 27.995,0.000 C36.946,0.000 44.206,7.265 44.206,16.232 C44.206,25.199 36.946,32.470 27.995,32.470 ZM41.257,16.239 C41.257,8.912 35.309,2.955 27.995,2.955 C21.674,2.955 16.377,7.410 15.057,13.354 C16.667,14.495 19.457,16.017 22.766,15.886 C26.040,15.761 29.162,14.038 32.049,10.731 C32.360,10.378 32.816,10.205 33.286,10.247 C33.755,10.275 34.170,10.538 34.418,10.953 C34.453,11.008 37.382,15.775 41.257,16.280 L41.257,16.239 ZM32.989,14.038 C29.880,17.103 26.461,18.716 22.835,18.833 C22.690,18.847 22.538,18.847 22.393,18.847 C19.319,18.847 16.653,17.775 14.753,16.654 C14.974,23.787 20.825,29.523 27.988,29.523 C34.280,29.523 39.550,25.116 40.904,19.221 C37.271,18.785 34.446,15.879 32.989,14.038 Z"/>
<path fill-rule="evenodd"  fill="rgb(214, 216, 222)"
 d="M40.802,50.350 C40.924,50.980 41.558,51.396 42.220,51.281 C42.718,51.194 43.107,50.823 43.198,50.350 L43.997,41.900 C43.995,40.851 43.102,40.002 42.000,40.000 C40.867,40.027 39.971,40.922 39.999,42.000 C40.000,42.030 40.001,42.060 40.004,42.090 L40.802,50.350 ZM42.000,53.200 C40.898,53.200 40.004,54.051 40.004,55.100 C40.004,56.149 40.898,57.000 42.000,57.000 C43.103,57.000 43.997,56.149 43.997,55.100 C44.060,54.110 43.268,53.260 42.228,53.200 C42.152,53.196 42.076,53.196 42.000,53.200 Z"/>
</svg>
