<?xml version="1.0" standalone="no"?><!DOCTYPE svg PUBLIC "-//W3C//DTD SVG 1.1//EN" "http://www.w3.org/Graphics/SVG/1.1/DTD/svg11.dtd"><svg t="1654871609916" class="icon" viewBox="0 0 1024 1024" version="1.1" xmlns="http://www.w3.org/2000/svg" p-id="4416" xmlns:xlink="http://www.w3.org/1999/xlink" width="48" height="48"><defs><style type="text/css"></style></defs><path d="M61.43846 40.97771h819.169199v477.002225L798.690739 655.35461s105.017491 28.384213 122.87538 81.91692c22.568111 67.663376-40.95846 163.83384-40.95846 163.83384h-245.75076l-68.769254 81.91692H61.43846V40.97771z" fill="#FFFFFF" p-id="4417"></path><path d="M247.430827 413.945447h443.457246v98.300304H247.430827v-98.300304z m0-163.83384h443.457246v98.300304H247.430827v-98.300304z m0 327.66768h271.104046v98.300304H247.430827v-98.300304zM1003.483039 734.404438a652.181558 652.181558 0 0 1-34.487023-56.93226s-121.032249 32.4391-143.559402-78.517368H755.274772a104.607907 104.607907 0 0 1-142.985984 78.230659l-36.862614 58.816349c0 0.040958 96.784841 64.673408 0 152.488346l37.558908 59.103058A102.723818 102.723818 0 0 1 754.742312 1023.98075h70.940052a105.959536 105.959536 0 0 1 142.453524-77.821074c34.241273-55.867339 34.773733-56.399799 34.773733-56.3998A96.702924 96.702924 0 0 1 1003.483039 734.404438z m-214.663289 155.273521a78.312575 78.312575 0 1 1 81.91692-78.230658 80.073789 80.073789 0 0 1-81.91692 78.230658z m-614.376899 36.45303a67.130916 67.130916 0 0 1-68.60542-65.533536V163.443506a67.130916 67.130916 0 0 1 68.60542-65.533536h589.801823a67.130916 67.130916 0 0 1 68.605421 65.533536V593.91692h85.234555V81.93617a83.841968 83.841968 0 0 0-85.64414-81.91692H106.12414A83.841968 83.841968 0 0 0 20.48 81.93617v860.12766a83.841968 83.841968 0 0 0 85.64414 81.91692h475.855388v-97.808803H174.319976z" fill="#5F887E" p-id="4418"></path></svg>