<?xml version="1.0" standalone="no"?><!DOCTYPE svg PUBLIC "-//W3C//DTD SVG 1.1//EN"
  "http://www.w3.org/Graphics/SVG/1.1/DTD/svg11.dtd">
<svg t="1651915706526" class="icon" viewBox="0 0 1069 1024" version="1.1" xmlns="http://www.w3.org/2000/svg" p-id="3589"
     xmlns:xlink="http://www.w3.org/1999/xlink" width="50.109375" height="48">
  <defs>
    <style type="text/css"></style>
  </defs>
  <path
    d="M550.120826 4.91l497.83239 344.313542a26.725201 26.725201 0 0 1 6.69292 37.554717 26.39985 26.39985 0 0 1-6.69292 6.553484l-497.83239 344.36002a27.887166 27.887166 0 0 1-31.280104 0L21.008332 393.331743a26.725201 26.725201 0 0 1-6.646442-37.554717 26.213936 26.213936 0 0 1 6.646442-6.553484L518.840722 4.91a27.887166 27.887166 0 0 1 31.280104 0z m-15.616813 120.844386L179.314477 371.486796l355.189536 245.546496 355.143058-245.639453-355.189536-245.639453z m-15.663291 893.318881L0 660.118963l95.095236-65.767232 439.408777 303.830672 439.362299-303.830672L1069.008027 660.118963l-518.840722 358.907826a27.887166 27.887166 0 0 1-31.280105 0z"
     p-id="3590"></path>
</svg>