<?xml version="1.0" standalone="no"?><!DOCTYPE svg PUBLIC "-//W3C//DTD SVG 1.1//EN"
  "http://www.w3.org/Graphics/SVG/1.1/DTD/svg11.dtd">
<svg t="1652003320043" class="icon" viewBox="0 0 1025 1024" version="1.1" xmlns="http://www.w3.org/2000/svg" p-id="3575"
     xmlns:xlink="http://www.w3.org/1999/xlink" width="48.046875" height="48">
  <defs>
    <style type="text/css"></style>
  </defs>
  <path
    d="M874.2655 149.720727a512.131782 512.131782 0 1 1-724.2325 0 512.188584 512.188584 0 0 1 724.2325 0z m-72.707263 72.139237a409.659983 409.659983 0 1 0 0 579.386 409.659983 409.659983 0 0 0 0-579.386z m-56.802549 253.339369a51.803925 51.803925 0 0 1-35.785606 88.043951h-0.568026l-145.414525-0.568026 0.568025 145.414526a51.122294 51.122294 0 0 1-51.122294 51.122294 51.122294 51.122294 0 0 1-51.690319-50.554269v-0.568025l0.568025-145.414526-145.414525 0.568026a51.122294 51.122294 0 0 1-51.122294-51.122295v-0.568025a51.122294 51.122294 0 0 1 51.122294-51.122294l145.414525 0.568025-0.568025-145.414525a51.406307 51.406307 0 0 1 102.812613 0l-0.568025 145.414525 145.414525-0.568025a51.122294 51.122294 0 0 1 36.353632 14.768663z"
     p-id="3576"></path>
</svg>