<?xml version="1.0" standalone="no"?><!DOCTYPE svg PUBLIC "-//W3C//DTD SVG 1.1//EN"
  "http://www.w3.org/Graphics/SVG/1.1/DTD/svg11.dtd">
<svg t="1651915717960" class="icon" viewBox="0 0 1070 1024" version="1.1" xmlns="http://www.w3.org/2000/svg" p-id="3861"
     xmlns:xlink="http://www.w3.org/1999/xlink" width="50.15625" height="48">
  <defs>
    <style type="text/css"></style>
  </defs>
  <path
    d="M124.702719 821.881238a79.098042 79.098042 0 0 0 22.798848 56.811005 75.980649 75.980649 0 0 0 56.299195 23.26413h169.362867v103.944134H159.598914a148.145981 148.145981 0 0 1-61.882586-12.888328 167.176039 167.176039 0 0 1-50.715803-34.896195 174.620561 174.620561 0 0 1-34.430913-51.181087A156.055785 156.055785 0 0 1 0.006982 844.307859v-683.965426a157.684274 157.684274 0 0 1 12.56263-61.975642 163.639891 163.639891 0 0 1 34.430913-51.181086A173.0386 173.0386 0 0 1 97.716328 12.940905a148.192509 148.192509 0 0 1 61.882586-12.934856h683.034861a148.192509 148.192509 0 0 1 61.882586 12.934856 170.851772 170.851772 0 0 1 50.250521 34.2448 156.102313 156.102313 0 0 1 34.430912 51.181086 150.286281 150.286281 0 0 1 13.027913 61.975642v225.801647l-107.480281 1.302792V194.494176a77.841779 77.841779 0 0 0-23.26413-56.811005 74.817442 74.817442 0 0 0-55.833912-23.26413H203.800762a75.841064 75.841064 0 0 0-56.299195 23.26413 79.098042 79.098042 0 0 0-22.798848 56.811005v627.387062z m918.002575-133.72222a64.488169 64.488169 0 0 1 27.451673 43.271282 55.275573 55.275573 0 0 1-26.055825 41.875434c-17.680739 15.493911-39.083739 32.942008-63.743717 52.297764s-49.785238 39.642078-75.841064 60.486739-51.646369 41.875434-77.236912 61.975642-48.389391 38.525399-68.861825 54.903347a63.464547 63.464547 0 0 1-53.972782 19.355757 36.012873 36.012873 0 0 1-20.937717-40.014304 462.723548 462.723548 0 0 0 0-51.181086 1160.41481 1160.41481 0 0 1-1.395848-52.297765 29.638502 29.638502 0 0 0-13.493196-30.336426 100.733683 100.733683 0 0 0-38.618456-5.816032c-18.146021 0-17.215456-0.232641-32.569782-0.651396s-30.243369-0.651396-44.66713-0.651395-29.312804 0-45.132412-0.651396 1.395848-0.651396-17.215456-0.651396a130.651355 130.651355 0 0 1-24.659978-2.559054 69.79239 69.79239 0 0 1-24.194696-9.026483 48.296334 48.296334 0 0 1-18.146021-19.402284 73.654236 73.654236 0 0 1-6.979239-34.849667v-102.036475a62.673567 62.673567 0 0 1 19.076587-53.600555 106.456659 106.456659 0 0 1 60.021455-13.539724c25.590543 0.837509 16.284891 1.302791 41.875435 1.302791s38.153173 0.418754 72.118803 1.256263a196.349258 196.349258 0 0 0 57.22976-6.467428 29.871143 29.871143 0 0 0 20.472435-32.244084 364.502391 364.502391 0 0 1 0.465282-44.574074c1.395848-17.634211 1.86113-33.360763 1.861131-47.133127a41.549736 41.549736 0 0 1 18.146021-41.875435 45.132412 45.132412 0 0 1 45.597695 13.539724c19.076587 15.493911 40.944869 33.593404 66.07013 54.251952s50.715804 41.875434 76.771629 63.929829 52.576934 43.457395 78.63276 64.581225 48.389391 39.781663 67.93126 56.159611z"
    p-id="3862"></path>
</svg>