<?xml version="1.0" standalone="no"?><!DOCTYPE svg PUBLIC "-//W3C//DTD SVG 1.1//EN" "http://www.w3.org/Graphics/SVG/1.1/DTD/svg11.dtd"><svg t="1651500191689" class="icon" viewBox="0 0 1092 1024" version="1.1" xmlns="http://www.w3.org/2000/svg" p-id="3547" xmlns:xlink="http://www.w3.org/1999/xlink" width="51.1875" height="48"><defs><style type="text/css"></style></defs><path d="M733.894656 324.266667m-221.866667 0a221.866667 221.866667 0 1 0 443.733334 0 221.866667 221.866667 0 1 0-443.733334 0Z" fill="#FFFFFF" p-id="3548"></path><path d="M556.094123 1009.015467l160.187733-132.027734a63.351467 63.351467 0 0 0 23.210667-40.6528l30.958933-193.024c17.3056-14.506667 34.577067-27.5456 52.3264-41.949866A741.2736 741.2736 0 0 0 1092.294656 76.049067 64.853333 64.853333 0 0 0 1035.428523 6.144a737.28 737.28 0 0 0-564.736 164.010667c-19.114667 15.9744-39.594667 31.914667-58.2656 47.786666l-183.842134-5.8368a66.525867 66.525867 0 0 0-43.690666 14.472534l-160.187734 132.096a69.085867 69.085867 0 0 0-23.210666 60.962133 65.536 65.536 0 0 0 39.594666 50.7904l129.2288 53.691733a229.376 229.376 0 0 0 36.420267 204.5952 78.9504 78.9504 0 0 0 9.1136 11.5712 229.4784 229.4784 0 0 0 205.243733 87.108267l29.115734 143.633067a65.706667 65.706667 0 0 0 42.325333 49.3568 67.003733 67.003733 0 0 0 63.6928-11.605334z m22.9376-697.7536a169.813333 169.813333 0 0 1 288.631466-123.733334 162.338133 162.338133 0 0 1 51.950934 118.3744 169.0624 169.0624 0 0 1-165.751467 172.2368h-0.3072a170.666667 170.666667 0 0 1-122.606933-48.469333 160.904533 160.904533 0 0 1-51.9168-118.408533zM238.961323 908.9024a20.036267 20.036267 0 0 0 15.940266-15.9744 23.2448 23.2448 0 0 0-5.905066-21.777067l-146.978134-158.173866a25.565867 25.565867 0 0 0-21.845333-7.2704 19.968 19.968 0 0 0-15.940267 16.008533l-62.805333 207.496533a66.6624 66.6624 0 0 0-1.365333 7.236267 22.289067 22.289067 0 0 0 21.162666 23.313067h2.048a35.566933 35.566933 0 0 0 11.844267-2.901334z" fill="#FEA930" p-id="3549"></path></svg>