<?xml version="1.0" standalone="no"?><!DOCTYPE svg PUBLIC "-//W3C//DTD SVG 1.1//EN"
  "http://www.w3.org/Graphics/SVG/1.1/DTD/svg11.dtd">
<svg t="1653279259330" class="icon" viewBox="0 0 1024 1024" version="1.1" xmlns="http://www.w3.org/2000/svg" p-id="4202"
     xmlns:xlink="http://www.w3.org/1999/xlink">
  <path
    d="M54.859102 64.003017A64.804294 64.804294 0 0 0 120.321679 128.002743h783.356642a63.999726 63.999726 0 1 0 0-127.999452H120.321679A64.804294 64.804294 0 0 0 54.859102 64.003017zM212.115571 640.000549h103.862412v319.998628A65.060293 65.060293 0 0 0 381.44056 1023.998903h261.11888a65.060293 65.060293 0 0 0 65.462577-63.999726V640.000549h103.862412a63.926583 63.926583 0 0 0 46.079803-109.457817l-299.518717-293.740455a66.194002 66.194002 0 0 0-92.159605 0l-299.884429 293.740455A63.890012 63.890012 0 0 0 212.115571 640.000549z"
    fill="#515564" p-id="4203"></path>
</svg>