<?xml version="1.0" standalone="no"?><!DOCTYPE svg PUBLIC "-//W3C//DTD SVG 1.1//EN" "http://www.w3.org/Graphics/SVG/1.1/DTD/svg11.dtd"><svg t="1652521726865" class="icon" viewBox="0 0 1024 1024" version="1.1" xmlns="http://www.w3.org/2000/svg" p-id="4699" xmlns:xlink="http://www.w3.org/1999/xlink" width="48" height="48"><defs><style type="text/css"></style></defs><path d="M511.20789969 665.77786812c118.48111594 0 174.61060781-95.05853625 174.61060781-216.14578031V248.17835657C685.8185075 127.0911125 629.68901562 32 511.20789969 32s-174.61060781 95.0911125-174.61060782 216.17835657v201.45373124c0 121.08724406 53.68624688 216.14578031 174.61060782 216.14578031z m315.17866219-190.80118031a41.76320906 41.76320906 0 0 0-42.08897438-40.55787468 39.64572938 39.64572938 0 0 0-39.71088281 40.62302718 18.27547594 18.27547594 0 0 0 2.443245 11.98819125v31.04550563c0 140.07940594-94.47215719 216.30866343-236.37585188 216.30866344-139.52560313 0-236.37585281-76.2292575-236.37585281-216.30866344v-36.02972625a50.55889219 50.55889219 0 0 0 2.44324501-9.51236906 41.24198343 41.24198343 0 0 0-39.64572939-40.5252975 39.61315312 39.61315312 0 0 0-39.64572937 40.5252975v59.55003562c0 173.63330999 108.121755 270.84190125 271.13509125 294.85086v81.08317219H357.41374343a42.34958812 42.34958812 0 0 0-42.08897531 43.03369687 40.166955 40.166955 0 0 0 42.08897533 40.5252975h302.47378593a37.16990719 37.16990719 0 0 0 39.64572937-40.5252975 41.76320906 41.76320906 0 0 0-39.64572938-43.03369687h-111.60745218V826.869185c167.41117781-18.99216094 277.97617875-121.21755094 277.97617875-294.85086094V475.04184031z" fill="#36425A" p-id="4700"></path></svg>