<?xml version="1.0" standalone="no"?><!DOCTYPE svg PUBLIC "-//W3C//DTD SVG 1.1//EN"
  "http://www.w3.org/Graphics/SVG/1.1/DTD/svg11.dtd">
<svg t="1651915711687" class="icon" viewBox="0 0 1024 1024" version="1.1" xmlns="http://www.w3.org/2000/svg" p-id="3725"
     xmlns:xlink="http://www.w3.org/1999/xlink" width="48" height="48">
  <defs>
    <style type="text/css"></style>
  </defs>
  <path
    d="M512 614.4a51.2 51.2 0 1 0-51.2-51.2 51.333565 51.333565 0 0 0 51.2 51.2z m256 0a51.2 51.2 0 1 0-51.2-51.2 51.333565 51.333565 0 0 0 51.2 51.2z m-256 204.8a51.2 51.2 0 1 0-51.2-51.2 51.333565 51.333565 0 0 0 51.2 51.2z m256 0a51.2 51.2 0 1 0-51.2-51.2 51.333565 51.333565 0 0 0 51.2 51.2z m-512-204.8a51.2 51.2 0 1 0-51.2-51.2 51.333565 51.333565 0 0 0 51.2 51.2z m614.4-512H819.2V51.2a51.2 51.2 0 0 0-102.4 0V102.4H307.2V51.2a51.2 51.2 0 0 0-102.4 0V102.4H153.6A153.466435 153.466435 0 0 0 0 256v614.4A153.466435 153.466435 0 0 0 153.6 1024h716.8A153.778087 153.778087 0 0 0 1024 870.4V256a153.778087 153.778087 0 0 0-153.6-153.6z m51.2 768a51.333565 51.333565 0 0 1-51.2 51.2H153.6a51.066435 51.066435 0 0 1-51.2-51.2V409.6h819.2v460.8z m0-563.2H102.4V256A51.066435 51.066435 0 0 1 153.6 204.8h716.8a51.333565 51.333565 0 0 1 51.2 51.2V307.2zM256 819.2a51.2 51.2 0 1 0-51.2-51.2 51.333565 51.333565 0 0 0 51.2 51.2z"
    p-id="3726"></path>
</svg>