<?xml version="1.0" standalone="no"?><!DOCTYPE svg PUBLIC "-//W3C//DTD SVG 1.1//EN" "http://www.w3.org/Graphics/SVG/1.1/DTD/svg11.dtd"><svg t="1651502560810" class="icon" viewBox="0 0 1089 1024" version="1.1" xmlns="http://www.w3.org/2000/svg" p-id="3165" xmlns:xlink="http://www.w3.org/1999/xlink" width="51.046875" height="48"><defs><style type="text/css"></style></defs><path d="M540.817926 567.863589a234.7387 234.7387 0 0 0 66.561007-163.283971 247.628698 247.628698 0 0 0-494.937544 0.607717 234.258923 234.258923 0 0 0 67.168724 163.315956 361.751559 361.751559 0 0 0-73.565746 54.854458A339.042134 339.042134 0 0 0 0.65344 868.907415a153.208662 153.208662 0 0 0 43.947537 122.183108c47.178033 41.132848 117.577253 34.288035 199.011335 26.163818a1161.92298 1161.92298 0 0 1 116.937551-7.484515 1161.859009 1161.859009 0 0 1 116.937551 7.484515c31.665256 3.198511 62.019122 6.397021 89.81418 6.397021a158.774071 158.774071 0 0 0 109.197156-32.400913 151.481466 151.481466 0 0 0 43.947536-122.183108 340.001687 340.001687 0 0 0-105.326957-245.549666 351.54831 351.54831 0 0 0-74.301403-55.654086zM359.910161 244.398202a160.917073 160.917073 0 1 1-166.706377 160.789133 164.211539 164.211539 0 0 1 166.706377-160.789133z m262.981549 688.095606c-20.662379 18.071585-76.764257 12.474192-136.992213 6.844812a1249.178351 1249.178351 0 0 0-124.741917-8.092232 1249.114381 1249.114381 0 0 0-124.741917 8.092232c-59.428329 5.629379-116.297849 11.226773-136.992213-6.844812a84.952444 84.952444 0 0 1-17.431883-64.19411 269.698422 269.698422 0 0 1 171.216277-248.076489 254.089689 254.089689 0 0 0 107.246064 23.700964 247.020981 247.020981 0 0 0 115.658147-28.050939 34.543915 34.543915 0 0 1-4.5099 5.597394A269.506511 269.506511 0 0 1 640.355579 868.299698a90.901674 90.901674 0 0 1-17.495854 64.19411z m360.536126-474.946853A348.637666 348.637666 0 0 0 909.030477 402.692496 231.060412 231.060412 0 0 0 960.206648 157.110845v-0.607717c-0.639702-0.639702-0.639702-1.855136-1.279404-2.494838a251.562866 251.562866 0 0 0-437.428323-47.369943 38.733964 38.733964 0 0 0 33.584363 60.451852 40.205279 40.205279 0 0 0 33.584362-17.431884 139.774917 139.774917 0 0 1 21.973768-25.588085 38.382128 38.382128 0 0 0 6.397022-4.38196 169.872903 169.872903 0 0 1 268.674898 68.576069 157.174815 157.174815 0 0 1 8.412083 54.854459 163.987643 163.987643 0 0 1-154.424096 156.439158c-3.870198 0-7.772381 0.607717-12.282281 0.607717a31.729226 31.729226 0 0 0-7.740396 0.639702 39.725503 39.725503 0 0 0-38.76595 30.545777v0.607717a38.606024 38.606024 0 0 0 37.486546 46.122524h9.595532a257.544081 257.544081 0 0 0 107.91775-23.668979 275.07192 275.07192 0 0 1 171.85598 248.684207 85.943982 85.943982 0 0 1-17.431883 64.194109c-20.662379 18.071585-76.764257 12.474192-136.992213 6.844813-11.642579-1.247419-36.175156-3.198511-36.814858-3.198511a39.405652 39.405652 0 0 0-39.405652 38.63801 38.989845 38.989845 0 0 0 39.405652 38.638009s19.382975 1.887121 28.43476 3.19851c31.665256 3.198511 62.019122 6.397021 89.81418 6.397022a158.614145 158.614145 0 0 0 109.197155-32.432899A151.417496 151.417496 0 0 0 1088.147076 703.128606a334.88407 334.88407 0 0 0-104.687255-245.581651z" fill="#BDC0CD" p-id="3166"></path></svg>