<?xml version="1.0" standalone="no"?><!DOCTYPE svg PUBLIC "-//W3C//DTD SVG 1.1//EN"
  "http://www.w3.org/Graphics/SVG/1.1/DTD/svg11.dtd">
<svg t="1651915697007" class="icon" viewBox="0 0 1024 1024" version="1.1" xmlns="http://www.w3.org/2000/svg" p-id="3453"
     xmlns:xlink="http://www.w3.org/1999/xlink" width="48" height="48">
  <defs>
    <style type="text/css"></style>
  </defs>
  <path
    d="M892.598721 0.002327H131.397471A84.246928 84.246928 0 0 0 46.545455 83.783803v856.43286A84.246928 84.246928 0 0 0 131.397471 1023.998138h761.20125A84.246928 84.246928 0 0 0 977.450737 940.216663V83.783803A84.246928 84.246928 0 0 0 892.598721 0.002327z m-342.014601 95.603973h155.368092v156.159361l-77.684046-44.218001-77.684046 44.218001V95.6063z m329.912832 785.032425a48.127803 48.127803 0 0 1-48.500165 47.755441H191.999405a48.127803 48.127803 0 0 1-48.500165-47.755441V143.361741a48.127803 48.127803 0 0 1 48.500165-47.755441h261.63093v240.871742a7.214516 7.214516 0 0 0 0 1.023995 5.911249 5.911249 0 0 1 0 1.303268v2.280718a11.822497 11.822497 0 0 0 0 1.349812v0.837815c0 0.558543 0.232726 1.070541 0.372362 1.582539a2.327263 2.327263 0 0 0 0 0.558543c0 0.651634 0.325817 1.210177 0.465452 1.861811v0.279272c0 0.698179 0.418907 1.396358 0.651634 2.094536a48.593256 48.593256 0 0 0 6.702518 12.893039l1.256722 1.675629 0.279272 0.325817 2.094537 1.349813 0.511998 0.558543a9.72796 9.72796 0 0 0 0.930905 1.023996l0.744724 0.744724 0.837815 0.791269 0.837815 0.837815 0.837814 0.698179 0.930906 0.79127 1.023996 1.023995 0.744724 0.605089 1.629084 1.163631a48.081258 48.081258 0 0 0 21.457367 7.959241H510.601738l1.349813-0.279272h0.837814l1.582539-0.372362h0.605089l1.76872-0.511998h0.418907l1.908356-0.698179h0.279272l2.047991-0.837815 2.141082-1.023996 2.047992-1.070541 101.887583-57.948854 101.934129 57.855764 0.465452 0.279271 1.396358 0.744725 0.698179 0.325816 1.535994 0.744725 0.651634 0.279271 1.535993 0.651634 0.744725 0.279272 1.442903 0.511997 0.837814 0.279272 1.349813 0.418907 1.023996 0.279272 1.210177 0.279272 1.210177 0.279271 1.070541 0.232726h12.893038a48.081258 48.081258 0 0 0 44.683453-47.66235V96.211388h29.090791a48.127803 48.127803 0 0 1 48.500165 47.755441v737.276984zM269.59036 630.876837h290.907901a47.801986 47.801986 0 1 0 0-95.603972h-290.907901a47.801986 47.801986 0 1 0 0 95.603972z m446.043266 114.687531H269.59036a47.801986 47.801986 0 1 0 0 95.557427h446.043266a47.801986 47.801986 0 1 0 0-95.557427z"
    p-id="3454"></path>
</svg>