<?xml version="1.0" standalone="no"?><!DOCTYPE svg PUBLIC "-//W3C//DTD SVG 1.1//EN" "http://www.w3.org/Graphics/SVG/1.1/DTD/svg11.dtd"><svg t="1654007912423" class="icon" viewBox="0 0 1084 1024" version="1.1" xmlns="http://www.w3.org/2000/svg" p-id="4353" xmlns:xlink="http://www.w3.org/1999/xlink" width="50.8125" height="48"><defs><style type="text/css"></style></defs><path d="M960.480617 0.226421a34.896459 34.896459 0 0 1 38.539661 29.898346v22.401178c-23.184015 149.461623-38.539661 269.0249-54.196399 358.68983A336.34887 336.34887 0 0 1 1083.927969 680.210566 348.663497 348.663497 0 0 1 728.640468 1023.936169a343.996584 343.996584 0 0 1-277.907088-134.497396v97.13199h-77.079322V672.743507a44.68192 44.68192 0 0 1 7.527278-29.898347 357.274702 357.274702 0 0 1 255.024163-291.426078l161.987013-186.676483L126.458263 501.001142l154.459736 82.197871a38.148243 38.148243 0 0 1 23.184014 52.299524 33.51144 33.51144 0 0 1-53.895307 15.054556l-231.840149-112.066109a18.968739 18.968739 0 0 1-15.355646-22.431287 48.38534 48.38534 0 0 1 15.355646-52.299524L937.296602 0.226421h23.184015z m-231.840149 425.923473a254.211218 254.211218 0 1 0 262.551441 254.060672 255.927437 255.927437 0 0 0-262.551441-254.060672z m162.288104 216.785594a49.07785 49.07785 0 0 1 46.36803 44.832465 47.993922 47.993922 0 0 1-38.539661 44.832465H566.653455a49.047741 49.047741 0 0 1-46.36803-44.832465 47.692831 47.692831 0 0 1 38.539661-44.832465h332.103486z m7.828369-463.28888l-139.10409 164.395742a637.560409 637.560409 0 0 1 115.920075 22.431287z" fill="#515564" p-id="4354"></path></svg>