<?xml version="1.0" standalone="no"?><!DOCTYPE svg PUBLIC "-//W3C//DTD SVG 1.1//EN"
  "http://www.w3.org/Graphics/SVG/1.1/DTD/svg11.dtd">
<svg t="1653972126732" class="icon" viewBox="0 0 1609 1024" version="1.1" xmlns="http://www.w3.org/2000/svg" p-id="4489"
     xmlns:xlink="http://www.w3.org/1999/xlink" width="100.421875" height="64">
  <path
    d="M710.63673648 235.19970792A515.71062605 515.71062605 0 0 1 1174.95010712 512H1256.88776062A603.01147169 603.01147169 0 0 0 164.38571167 512h81.93765349A515.16437531 515.16437531 0 0 1 710.63673648 235.19970792z m0 553.60058415A515.16437531 515.16437531 0 0 1 246.32336516 512H164.38571167a603.01147169 603.01147169 0 0 0 1092.50204895 0h-81.93765349A515.71062605 515.71062605 0 0 1 710.63673648 788.80029208zM512.49659213 512A198.63673648 198.63673648 0 1 0 710.63673648 325.33112717 192.77695218 192.77695218 0 0 0 512.49659213 512z"
    fill="#494F54" p-id="4490"></path>
</svg>