<svg xmlns="http://www.w3.org/2000/svg" height="20" width="20"><path fill="white" d="M4.917 17.167q-1.313 0-2.24-.917-.927-.917-.927-2.25t.927-2.25q.927-.917 2.24-.917 1.333 0 2.25.917.916.917.916 2.25t-.916 2.25q-.917.917-2.25.917Zm10.166 0q-1.333 0-2.25-.917-.916-.917-.916-2.25t.916-2.25q.917-.917 2.25-.917 1.313 0 2.24.917.927.917.927 2.25t-.927 2.25q-.927.917-2.24.917ZM10 9.021q-1.333 0-2.25-.927t-.917-2.24q0-1.333.917-2.25.917-.916 2.25-.916t2.25.916q.917.917.917 2.25 0 1.313-.917 2.24-.917.927-2.25.927Z"/></svg>