<?xml version="1.0" standalone="no"?><!DOCTYPE svg PUBLIC "-//W3C//DTD SVG 1.1//EN"
  "http://www.w3.org/Graphics/SVG/1.1/DTD/svg11.dtd">
<svg t="1652952615379" class="icon" viewBox="0 0 1024 1024" version="1.1" xmlns="http://www.w3.org/2000/svg" p-id="4444"
     xmlns:xlink="http://www.w3.org/1999/xlink">
  <path
    d="M620.76462875 698.26907937v113.01582188q0 35.74564781-20.8516275 35.74564687a34.40518594 34.40518594 0 0 1-24.12831187-11.91521531V673.93225062a34.49454938 34.49454938 0 0 1 24.12831187-11.91521531q20.8516275 0.38724469 20.8516275 36.25204407z m181.1410678 0.53618438v24.63470906h-48.22683561v-24.63470906q0-36.43077187 24.12831187-36.40098375t24.09852374 36.40098375zM284.21935906 582.0659375h57.34197563v-50.34178688H174.36106906v50.34178688h56.26960688v304.701855h53.61847125V582.0659375z m154.36162032 304.701855h47.66086312v-264.39863812h-47.66086312v202.55866875a42.71604844 42.71604844 0 0 1-30.56252813 22.48996968 10.96199812 10.96199812 0 0 1-11.25987937-11.23009125 149.6253225 149.6253225 0 0 1-0.53618438-18.76646437v-195.05208282h-47.66086312v209.40991782a132.25889531 132.25889531 0 0 0 4.28947781 39.0819075 28.89439875 28.89439875 0 0 0 31.09871251 19.80904687 78.46169625 78.46169625 0 0 0 54.6610528-32.76684375v28.92418594z m229.90408875-79.23618468v-105.50923594a191.50730625 191.50730625 0 0 0-4.82566219-53.02270969 37.20526125 37.20526125 0 0 0-38.069115-29.96676844 64.58046938 64.58046938 0 0 0-49.83538968 28.89439876v-116.17335376h-47.66086313v355.04364187h47.66086313v-25.70707781a66.48690375 66.48690375 0 0 0 49.83538968 29.46037125 37.08610875 37.08610875 0 0 0 38.069115-29.46037125 197.55427781 197.55427781 0 0 0 4.82566219-53.55889499z m181.11127968-5.36184657v-7.0299778h-48.76302a265.11355125 265.11355125 0 0 1-1.07236968 32.76684374 20.49417094 20.49417094 0 0 1-21.4176 19.27286156q-24.66449625 0-24.66449719-36.93716906v-46.61828156h95.91748687v-55.16745a106.28372531 106.28372531 0 0 0-14.44719843-62.13784969 73.33815281 73.33815281 0 0 0-114.14776782 0 103.30492125 103.30492125 0 0 0-14.89401937 62.13784969v92.64080343a100.41548063 100.41548063 0 0 0 15.54935625 62.1080625 68.69121938 68.69121938 0 0 0 57.87816094 27.31563188 66.33796406 66.33796406 0 0 0 69.13803937-57.28240032 244.50022781 244.50022781 0 0 0 0.92342906-31.06892437zM523.77477219 313.22888094V200.77903156q0-36.93716906-23.02615407-36.93716906t-23.05594312 36.93716906v112.44984938q0 37.50314156 23.05594312 37.50314156t23.02615407-37.50314156z m385.30829062 402.1385325a927.0633647 927.0633647 0 0 1-13.94080218 187.45613249 101.51763844 101.51763844 0 0 1-31.06892532 53.02271061 93.62380781 93.62380781 0 0 1-54.66105281 24.60492096 2864.00084436 2864.00084436 0 0 1-297.43357406 11.25987844 2863.3455075 2863.3455075 0 0 1-297.40378593-11.25987844 94.96426969 94.96426969 0 0 1-54.95893313-24.60492096 98.09201438 98.09201438 0 0 1-30.80083219-53.02271061 907.93944375 907.93944375 0 0 1-13.94080313-187.45613249 926.73569625 926.73569625 0 0 1 13.94080313-187.42634439 101.57721469 101.57721469 0 0 1 31.0987125-52.99292155 96.84091594 96.84091594 0 0 1 55.16744906-25.17089344q98.09201438-10.72369406 296.89738969-10.723695t297.43357406 10.723695a100.59420938 100.59420938 0 0 1 85.72997813 78.16381499 907.82029125 907.82029125 0 0 1 13.94080218 187.45613251zM374.26860219 32.05957625h54.66105281L364.0810925 245.72918282v145.12732874h-53.61847125V245.72918282a905.85428063 905.85428063 0 0 0-32.76684281-113.52221813Q257.88673156 77.03951562 242.87355969 32.05957625h56.80579125L337.71867781 172.89742719z m198.26919093 178.34099251v93.71317218a105.41987156 105.41987156 0 0 1-14.89402031 63.18043125 72.17641969 72.17641969 0 0 1-113.1945497 0 107.2369425 107.2369425 0 0 1-14.89401936-63.18043125V210.40056876a104.64538313 104.64538313 0 0 1 14.89401936-62.55488345 72.17641969 72.17641969 0 0 1 113.1945497 0 104.40707812 104.40707812 0 0 1 14.89402031 62.58467156z m179.53251375-86.7725597v267.2285025h-48.76302093v-29.43058312a77.18081063 77.18081063 0 0 1-55.19723719 33.21366376 29.78803969 29.78803969 0 0 1-31.60510969-19.80904595 136.31006906 136.31006906 0 0 1-4.28947781-40.18406531V123.65779719h48.76302094v196.60106062a139.8250575 139.8250575 0 0 0 0.53618437 18.73667719 11.20030311 11.20030311 0 0 0 11.23009125 11.91521531 42.74583655 42.74583655 0 0 0 30.56252813-23.02615406v-204.04807031h48.76302094z"
    fill="#36425A" p-id="4445"></path>
</svg>