<svg xmlns="http://www.w3.org/2000/svg" width="17" height="16.979" viewBox="0 0 17 16.979"><defs><style>.a{fill:#182552;}</style></defs><g transform="translate(-64.64 -66.4)"><path class="a" d="M76.128,69.395a2.988,2.988,0,1,0-2.988,2.982,3.022,3.022,0,0,0,2.988-2.982Zm-1.991,2.982H72.143a4.487,4.487,0,0,0-2,.489,12.519,12.519,0,0,1,2.994,1.24,12.519,12.519,0,0,1,2.994-1.24A4.487,4.487,0,0,0,74.137,72.377Zm6.506,2.988a.994.994,0,0,0-.994.994v1.994a1,1,0,0,0,1.991,0V76.359A1,1,0,0,0,80.643,75.365ZM66.631,78.354V76.359a1,1,0,0,0-1.991,0v1.994a1,1,0,0,0,1.991,0Z"/><path class="a" d="M117.118,433.923v.5a1.994,1.994,0,0,1,1.991,1.991v1.994a1.994,1.994,0,0,1-1.991,1.985v.5a.5.5,0,0,0,.511.5,11.677,11.677,0,0,1,6.506,2.025v-8.382a12.656,12.656,0,0,0-6.506-1.611.5.5,0,0,0-.511.5Zm13.015,4.484v-1.994a1.994,1.994,0,0,1,1.991-1.991v-.5a.5.5,0,0,0-.511-.5,12.565,12.565,0,0,0-6.506,1.611v8.394a11.693,11.693,0,0,1,6.506-2.025.5.5,0,0,0,.5-.5v-.517A1.994,1.994,0,0,1,130.133,438.408Z" transform="translate(-51.481 -360.054)"/></g></svg>