<svg xmlns="http://www.w3.org/2000/svg" width="25" height="23.635" viewBox="0 0 25 23.635">
  <defs>
    <style>
      .cls-1 {
        fill: #4273f6;
      }

      .cls-2 {
        fill: #465cdb;
        opacity: 0.69;
      }

      .cls-3, .cls-4 {
        fill: #fff;
      }

      .cls-4 {
        opacity: 0.16;
      }

      .cls-5 {
        fill: #5066fb;
        opacity: 0.14;
      }

      .cls-6 {
        fill: #5d75ce;
        opacity: 0.52;
      }

      .cls-7 {
        fill: #ffd629;
      }
    </style>
  </defs>
  <g id="蓝色文件夹" transform="translate(-70.998 -72.533)">
    <path id="路径_393" data-name="路径 393" class="cls-1" d="M93.425,96.167h-15.9A4.639,4.639,0,0,1,73,91.443V77.256a4.636,4.636,0,0,1,4.519-4.723l3.19.056a2.244,2.244,0,0,1,1.517.6l2.386,2.244a2.238,2.238,0,0,0,1.517.6h7.3a4.637,4.637,0,0,1,4.519,4.723v10.7a4.642,4.642,0,0,1-4.521,4.725Z" transform="translate(-1.949)"/>
    <path id="路径_394" data-name="路径 394" class="cls-2" d="M92.217,350.112H78.981a5.913,5.913,0,0,1-5.85-5.941V335.8a1.288,1.288,0,0,1,1.278-1.3H96.788a1.289,1.289,0,0,1,1.278,1.3v8.365a5.908,5.908,0,0,1-5.847,5.942Z" transform="translate(-2.073 -254.958)"/>
    <path id="路径_395" data-name="路径 395" class="cls-3" d="M177.619,318.685H160.68a1.6,1.6,0,0,1-1.575-1.606v-8.956a1.6,1.6,0,0,1,1.575-1.606h16.94a1.6,1.6,0,0,1,1.575,1.606v8.954a1.6,1.6,0,0,1-1.575,1.61Z" transform="translate(-85.625 -227.596)"/>
    <path id="路径_396" data-name="路径 396" class="cls-4" d="M179.624,299.657h-16.94a1.6,1.6,0,0,1-1.575-1.606v-8.957a1.6,1.6,0,0,1,1.575-1.606h16.94a1.6,1.6,0,0,1,1.575,1.606v8.954A1.6,1.6,0,0,1,179.624,299.657Z" transform="translate(-87.573 -209.086)"/>
    <path id="路径_397" data-name="路径 397" class="cls-1" d="M93.371,418.174h-15.8A4.621,4.621,0,0,1,73,413.532V403.5H97.94v10.033a4.616,4.616,0,0,1-4.569,4.643Z" transform="translate(-1.948 -322.007)"/>
    <path id="路径_398" data-name="路径 398" class="cls-5" d="M91.367,747.612H75.57A4.621,4.621,0,0,1,71,742.97v-.484H95.936v.484a4.616,4.616,0,0,1-4.569,4.643Z" transform="translate(0 -651.445)"/>
    <path id="路径_399" data-name="路径 399" class="cls-6" d="M347.708,457.546h-5.143a2.043,2.043,0,1,1,0-4.085h5.14a2.043,2.043,0,1,1,0,4.085Z" transform="translate(-262.114 -370.394)"/>
    <path id="路径_400" data-name="路径 400" class="cls-7" d="M372.261,471.719H367.7a1.619,1.619,0,1,1,0-3.239h4.561a1.619,1.619,0,0,1,0,3.239Z" transform="translate(-286.952 -384.99)"/>
  </g>
</svg>
