<svg xmlns="http://www.w3.org/2000/svg" width="30.511" height="24.408" viewBox="0 0 30.511 24.408">
  <defs>
    <style>
      .cls-1 {
        fill: #009b77;
      }

      .cls-2 {
        fill: #fff;
      }

      .cls-3 {
        fill: #15c39a;
      }
    </style>
  </defs>
  <g id="打开的文件夹" transform="translate(0)">
    <path id="路径_403" data-name="路径 403" class="cls-1" d="M269,4.247H258.243L255.515.491A1.276,1.276,0,0,0,254.606,0h-7.579c-.909,0-1.515.98-1.212,2.287l2.728,17.153a1.474,1.474,0,0,0,1.364,1.307h16.671a1.5,1.5,0,0,0,1.364-1.306l2.122-13.071c.3-1.144-.3-2.124-1.062-2.124Z" transform="translate(-239.879 0)"/>
    <path id="路径_404" data-name="路径 404" class="cls-2" d="M358.4,286.427V275.456h18.306v10.971Z" transform="translate(-349.86 -268.89)"/>
    <path id="路径_405" data-name="路径 405" class="cls-3" d="M28.931,229.548H15.519l-3.587-3.776a1.643,1.643,0,0,0-1.091-.492H1.484a1.54,1.54,0,0,0-1.4,2.133L4.6,243.169a1.752,1.752,0,0,0,1.715,1.15h18.9a1.754,1.754,0,0,0,1.716-1.148l3.56-11.982a1.511,1.511,0,0,0-1.56-1.64Z" transform="translate(0 -219.911)"/>
  </g>
</svg>
