<svg xmlns="http://www.w3.org/2000/svg" width="30.75" height="24.6" viewBox="0 0 30.75 24.6">
  <defs>
    <style>
      .cls-1 {
        fill: #ce9f06;
      }

      .cls-2 {
        fill: #fff;
      }

      .cls-3 {
        fill: #ffcd2c;
      }
    </style>
  </defs>
  <g id="黄色文件夹" transform="translate(0)">
    <path id="路径_406" data-name="路径 406" class="cls-1" d="M269.187,4.28H258.341L255.592.494A1.286,1.286,0,0,0,254.676,0h-7.638c-.916,0-1.526.988-1.221,2.305l2.749,17.288a1.486,1.486,0,0,0,1.375,1.317h16.8a1.513,1.513,0,0,0,1.375-1.316l2.139-13.173c.305-1.153-.305-2.14-1.07-2.14Z" transform="translate(-239.833)"/>
    <path id="路径_407" data-name="路径 407" class="cls-2" d="M358.4,286.514V275.456h18.45v11.058Z" transform="translate(-349.793 -268.839)"/>
    <path id="路径_408" data-name="路径 408" class="cls-3" d="M29.158,229.582H15.641l-3.615-3.806a1.656,1.656,0,0,0-1.1-.5H1.5a1.552,1.552,0,0,0-1.415,2.15L4.64,243.31a1.766,1.766,0,0,0,1.728,1.159H25.413a1.768,1.768,0,0,0,1.729-1.157l3.588-12.076a1.523,1.523,0,0,0-1.572-1.653Z" transform="translate(0 -219.868)"/>
  </g>
</svg>
