<svg xmlns="http://www.w3.org/2000/svg" width="30" height="30" viewBox="0 0 30 30">
  <defs>
    <style>
      .cls-1 {
        fill: #2897ff;
      }

      .cls-2 {
        fill: #fff;
      }
    </style>
  </defs>
  <g id="Lesson" transform="translate(-769 -363)">
    <circle id="椭圆_55" data-name="椭圆 55" class="cls-1" cx="15" cy="15" r="15" transform="translate(769 363)"/>
    <path id="路径_523" data-name="路径 523" class="cls-2" d="M16.2,40.9H.649A.65.65,0,0,0,0,41.551V52.936a.65.65,0,0,0,.648.653H2.821l-.353-1.3h-.26V43.119h11.96v9.166h-1.52a8.18,8.18,0,0,1,2.121,1.3H16.2c.359,0,.181-.293.181-.653V41.551c0-.359.175-.651-.181-.651ZM11.908,53.393l-.208-.075-.144-.048c-.123-.04-.247-.077-.372-.107a.2.2,0,0,0-.1-.024h-.106a.2.2,0,0,0-.1.024,3.083,3.083,0,0,1-2.646,0,.2.2,0,0,0-.095-.024H8.067a.155.155,0,0,0-.047.006c-.138.032-.273.072-.407.117-.059.018-.117.037-.176.059l-.181.066c-.168.063-.334.131-.5.207-.207.1-.41.2-.608.314l-.2-.314-.2-.326L4.2,50.792a.389.389,0,0,0-.7.309l.317,1.187.353,1.3.54,2.016a.358.358,0,0,0,.047.1V55.8a.2.2,0,0,0,.2.2H14.18a.2.2,0,0,0,.2-.2v-.726a.206.206,0,0,0-.059-.146A6.97,6.97,0,0,0,11.916,53.4Zm-4.62-3.367a.387.387,0,0,0,.372.4h.006a2.173,2.173,0,0,0,1.9,2.089,2.173,2.173,0,0,0,1.9-2.089h.006a.386.386,0,0,0,.372-.4.4.4,0,0,0-.22-.361,2.466,2.466,0,0,0,.117-.747,2.174,2.174,0,1,0-4.341-.268,3.3,3.3,0,0,0,.117,1.013.4.4,0,0,0-.221.361Z" transform="translate(776 329.1)"/>
  </g>
</svg>
