<svg xmlns="http://www.w3.org/2000/svg" width="30" height="30" viewBox="0 0 30 30">
  <defs>
    <style>
      .cls-1 {
        fill: #4273f6;
      }

      .cls-2 {
        fill: #fff;
      }
    </style>
  </defs>
  <g id="Task" transform="translate(-768 -661)">
    <circle id="椭圆_56" data-name="椭圆 56" class="cls-1" cx="15" cy="15" r="15" transform="translate(768 661)"/>
    <path id="路径_524" data-name="路径 524" class="cls-2" d="M110.176,65.772H108.4v-.96a.815.815,0,0,0-.812-.812h-.738a.815.815,0,0,0-.812.812v.96h-4.725v-.96A.815.815,0,0,0,100.5,64h-.738a.815.815,0,0,0-.812.812v.96H97.181A1.185,1.185,0,0,0,96,66.953V78.767a1.185,1.185,0,0,0,1.181,1.181h12.995a1.185,1.185,0,0,0,1.181-1.181V66.953A1.185,1.185,0,0,0,110.176,65.772Zm-1.7,5.309-5.412,5.41a.3.3,0,0,1-.347.052.269.269,0,0,1-.076-.054l-3.76-3.76a.3.3,0,0,1,0-.417l.836-.836a.3.3,0,0,1,.417,0l2.719,2.719,4.369-4.367a.3.3,0,0,1,.417,0l.836.836A.3.3,0,0,1,108.476,71.081Z" transform="translate(679 604)"/>
  </g>
</svg>
