<svg xmlns="http://www.w3.org/2000/svg" width="30" height="30" viewBox="0 0 30 30">
  <defs>
    <style>
      .cls-1 {
        fill: #15c39a;
      }

      .cls-2 {
        fill: #fff;
      }
    </style>
  </defs>
  <g id="topic" transform="translate(-749 -472)">
    <circle id="椭圆_54" data-name="椭圆 54" class="cls-1" cx="15" cy="15" r="15" transform="translate(749 472)"/>
    <path id="路径_522" data-name="路径 522" class="cls-2" d="M93.675,95.127h1.354l.182-1.367H93.857Zm.768-9.794a9.11,9.11,0,1,1-4.679,16.929l-.428-.251-2.229.608a.683.683,0,0,1-.839-.839l.607-2.227c-.235-.4-.389-.667-.466-.809a9.113,9.113,0,0,1,8.034-13.411Zm1.912,5.017a.683.683,0,0,0-.768.587l-.194,1.457H94.039l.17-1.276a.683.683,0,0,0-1.355-.18l-.194,1.457H91.027a.683.683,0,1,0,0,1.367h1.452L92.3,95.127H91.027a.683.683,0,1,0,0,1.367h1.087l-.17,1.276a.683.683,0,0,0,1.355.18l.194-1.457h1.354l-.17,1.276a.683.683,0,0,0,1.355.18l.194-1.457H97.86a.683.683,0,0,0,0-1.367H96.408l.182-1.367H97.86a.683.683,0,0,0,0-1.367H96.773l.17-1.276A.683.683,0,0,0,96.356,90.35Z" transform="translate(669.668 392.667)"/>
  </g>
</svg>
