<svg xmlns="http://www.w3.org/2000/svg" width="30" height="30" viewBox="0 0 30 30">
  <defs>
    <style>
      .cls-1 {
        fill: #e34221;
      }

      .cls-2, .cls-3, .cls-4 {
        fill: #fff;
      }

      .cls-2 {
        opacity: 0.5;
      }

      .cls-3 {
        opacity: 0.2;
      }
    </style>
  </defs>
  <g id="unit_plan" data-name="unit plan" transform="translate(21082 8647)">
    <circle id="椭圆_53" data-name="椭圆 53" class="cls-1" cx="15" cy="15" r="15" transform="translate(-21082 -8647)"/>
    <rect id="矩形_143" data-name="矩形 143" class="cls-2" width="5" height="3" rx="1.5" transform="translate(-21073 -8631)"/>
    <rect id="矩形_142" data-name="矩形 142" class="cls-3" width="12" height="3" rx="1.5" transform="translate(-21073 -8637)"/>
    <path id="路径_521" data-name="路径 521" class="cls-4" d="M78.591,64.3H67.207A1.813,1.813,0,0,0,65.4,66.107V77.493A1.813,1.813,0,0,0,67.207,79.3H78.593A1.813,1.813,0,0,0,80.4,77.493V66.107A1.815,1.815,0,0,0,78.591,64.3Zm-11.05,4.079a.825.825,0,0,1,.822-.822h9.019a.822.822,0,0,1,0,1.644H68.363A.824.824,0,0,1,67.541,68.379Zm0,3.232a.825.825,0,0,1,.822-.822h9.019a.822.822,0,0,1,0,1.644H68.363A.825.825,0,0,1,67.541,71.611ZM70.714,74.8a.825.825,0,0,1-.822.822H68.38a.822.822,0,1,1,0-1.644h1.514A.824.824,0,0,1,70.714,74.8Zm7.313.389-2.814,2.814a.706.706,0,0,1-.99,0L72.817,76.6a.7.7,0,0,1,.99-.99l.911.911L77.037,74.2a.7.7,0,0,1,.99.99Z" transform="translate(-21139.992 -8703.8)"/>
  </g>
</svg>
