<svg xmlns="http://www.w3.org/2000/svg" width="16" height="16" viewBox="0 0 16 16">
  <g id="组_2994" data-name="组 2994" transform="translate(-38 -101)">
    <path id="路径_1516" data-name="路径 1516" d="M279.932,100.812a.784.784,0,0,0,.539-.223l6.248-6.2a.763.763,0,0,0-1.069-1.088L279.4,99.5a.768.768,0,0,0-.008,1.08A.694.694,0,0,0,279.932,100.812Zm6.179,6.266a.768.768,0,0,0,.546-1.3l-6.186-6.265a.763.763,0,1,0-1.085,1.073l6.186,6.265A.746.746,0,0,0,286.111,107.077Z" transform="translate(-237.166 8.922)" fill="#182552"/>
    <circle id="椭圆_199" data-name="椭圆 199" cx="8" cy="8" r="8" transform="translate(38 101)" fill="none"/>
  </g>
</svg>
