<svg xmlns="http://www.w3.org/2000/svg" width="20" height="20" viewBox="0 0 22 22">
  <g id="组_675" data-name="组 675" transform="translate(-102.4 -102.4)">
    <path id="路径_466" data-name="路径 466" style=" fill: rgba(0,0,0,0);" class="cls-1" d="M102.4,102.4h22v22h-22Z" transform="translate(0 0)"/>
    <path id="路径_467" data-name="路径 467" style=" fill: #182552;" class="cls-2" d="M107.763,102.4H103.5a1.012,1.012,0,0,0-1.1,1.1v4.263a1.085,1.085,0,0,0,1.1,1.1h4.263a1.085,1.085,0,0,0,1.1-1.1V103.5a1.085,1.085,0,0,0-1.1-1.1Zm0,7.838H103.5a.981.981,0,0,0-1.1.962v4.262a1.085,1.085,0,0,0,1.1,1.1h4.263a1.085,1.085,0,0,0,1.1-1.1V111.2a1.063,1.063,0,0,0-1.1-.962Zm0,7.7H103.5a1.085,1.085,0,0,0-1.1,1.1V123.3a1.012,1.012,0,0,0,1.1,1.1h4.263a1.085,1.085,0,0,0,1.1-1.1v-4.262a1.183,1.183,0,0,0-1.1-1.1ZM115.6,102.4h-4.4a.981.981,0,0,0-.962,1.1v4.263a1.085,1.085,0,0,0,1.1,1.1H115.6a1.085,1.085,0,0,0,1.1-1.1V103.5C116.563,102.813,116.15,102.4,115.6,102.4Zm0,7.838h-4.4a.94.94,0,0,0-.962.962v4.262a1.085,1.085,0,0,0,1.1,1.1H115.6a1.085,1.085,0,0,0,1.1-1.1V111.2A1.167,1.167,0,0,0,115.6,110.238Zm0,7.7h-4.4a1.085,1.085,0,0,0-1.1,1.1V123.3c.138.688.55,1.1,1.1,1.1h4.262a1.085,1.085,0,0,0,1.1-1.1v-4.262A1.063,1.063,0,0,0,115.6,117.938Zm7.7-15.538h-4.262a1.085,1.085,0,0,0-1.1,1.1v4.263a1.085,1.085,0,0,0,1.1,1.1H123.3a1.085,1.085,0,0,0,1.1-1.1V103.5A1.012,1.012,0,0,0,123.3,102.4Zm0,7.838h-4.262a1.085,1.085,0,0,0-1.1,1.1V115.6a1.085,1.085,0,0,0,1.1,1.1H123.3a1.085,1.085,0,0,0,1.1-1.1v-4.4A.981.981,0,0,0,123.3,110.238Zm0,7.7h-4.262a1.085,1.085,0,0,0-1.1,1.1V123.3a1.085,1.085,0,0,0,1.1,1.1H123.3a1.085,1.085,0,0,0,1.1-1.1v-4.262A1.085,1.085,0,0,0,123.3,117.938Z" transform="translate(0 0)"/>
  </g>
</svg>
